<?xml version="1.0" encoding="UTF-8" standalone="no"?>
<!-- Created with Inkscape (http://www.inkscape.org/) -->

<svg
   xmlns:dc="http://purl.org/dc/elements/1.1/"
   xmlns:cc="http://creativecommons.org/ns#"
   xmlns:rdf="http://www.w3.org/1999/02/22-rdf-syntax-ns#"
   xmlns:svg="http://www.w3.org/2000/svg"
   xmlns="http://www.w3.org/2000/svg"
   xmlns:sodipodi="http://sodipodi.sourceforge.net/DTD/sodipodi-0.dtd"
   xmlns:inkscape="http://www.inkscape.org/namespaces/inkscape"
   width="82.927467mm"
   height="88.007469mm"
   viewBox="0 0 82.927467 88.007469"
   version="1.1"
   id="svg6286"
   inkscape:version="0.92.3 (2405546, 2018-03-11)"
   sodipodi:docname="litDuff.svg"
   inkscape:export-filename="C:\Users\Quinn Sorenson\Documents\R\Git_R\postfire-management\figures\manuscript\litDuff_comp.png"
   inkscape:export-xdpi="400"
   inkscape:export-ydpi="400">
  <defs
     id="defs6280">
    <clipPath
       id="clipPath6873"
       clipPathUnits="userSpaceOnUse">
      <path
         inkscape:connector-curvature="0"
         id="path6871"
         d="M 33.79,33.79 H 228.52 V 242.92 H 33.79 Z" />
    </clipPath>
  </defs>
  <sodipodi:namedview
     id="base"
     pagecolor="#ffffff"
     bordercolor="#666666"
     borderopacity="1.0"
     inkscape:pageopacity="0.0"
     inkscape:pageshadow="2"
     inkscape:zoom="2.0874101"
     inkscape:cx="164.28571"
     inkscape:cy="161.42857"
     inkscape:document-units="mm"
     inkscape:current-layer="layer1"
     showgrid="false"
     inkscape:window-width="1920"
     inkscape:window-height="1001"
     inkscape:window-x="-9"
     inkscape:window-y="-9"
     inkscape:window-maximized="1" />
  <metadata
     id="metadata6283">
    <rdf:RDF>
      <cc:Work
         rdf:about="">
        <dc:format>image/svg+xml</dc:format>
        <dc:type
           rdf:resource="http://purl.org/dc/dcmitype/StillImage" />
        <dc:title></dc:title>
      </cc:Work>
    </rdf:RDF>
  </metadata>
  <g
     inkscape:label="Layer 1"
     inkscape:groupmode="layer"
     id="layer1"
     transform="translate(-15.232695,-15.627216)">
    <g
       transform="matrix(0.35277777,0,0,-0.35277777,15.421431,103.44595)"
       inkscape:label="litDuff_comp"
       id="g6839">
      <g
         id="g6841" />
      <g
         id="g6843" />
      <g
         id="g6845" />
      <g
         id="g6847" />
      <g
         id="g6849" />
      <g
         id="g6851" />
      <g
         id="g6853" />
      <g
         id="g6855" />
      <g
         id="g6857" />
      <g
         id="g6859" />
      <g
         id="g6861">
        <path
           inkscape:connector-curvature="0"
           id="path6863"
           style="fill:#ffffff;fill-opacity:1;fill-rule:nonzero;stroke:#ffffff;stroke-width:1.07000005;stroke-linecap:round;stroke-linejoin:round;stroke-miterlimit:10;stroke-dasharray:none;stroke-opacity:1"
           d="M 0,0 H 234 V 248.4 H 0 Z" />
      </g>
      <g
         id="g6865" />
      <g
         id="g6867">
        <g
           clip-path="url(#clipPath6873)"
           id="g6869">
          <path
             inkscape:connector-curvature="0"
             id="path6875"
             style="fill:none;stroke:#000000;stroke-width:1.07000005;stroke-linecap:round;stroke-linejoin:round;stroke-miterlimit:10;stroke-dasharray:none;stroke-opacity:1"
             d="M 33.79,33.79 H 228.52 V 242.92 H 33.79 Z" />
          <path
             inkscape:connector-curvature="0"
             id="path6877"
             style="fill:#291711;fill-opacity:0.14900004;fill-rule:nonzero;stroke:none"
             d="m 42.64,217.34 0.25,-0.01 0.25,-0.01 0.26,-0.01 0.25,-0.01 0.25,-0.01 0.26,-0.01 0.25,-0.01 0.25,-0.01 0.25,-0.01 0.26,-0.01 0.25,-0.01 0.25,-0.01 h 0.26 l 0.25,-0.01 0.25,-0.01 0.25,-0.01 0.26,-0.01 0.25,-0.01 h 0.25 l 0.26,-0.01 0.25,-0.01 0.25,-0.01 h 0.25 l 0.26,-0.01 0.25,-0.01 h 0.25 l 0.26,-0.01 0.25,-0.01 h 0.25 l 0.26,-0.01 h 0.25 l 0.25,-0.01 h 0.25 l 0.26,-0.01 h 0.25 l 0.25,-0.01 H 52 l 0.25,-0.01 h 0.25 0.25 l 0.26,-0.01 h 0.25 0.25 l 0.26,-0.01 h 0.25 0.25 l 0.25,-0.01 h 0.26 0.25 0.25 0.26 l 0.25,-0.01 h 0.25 0.25 0.26 0.25 0.25 0.26 0.25 0.25 0.26 0.25 0.25 0.25 0.26 l 0.25,0.01 h 0.25 0.26 0.25 0.25 l 0.25,0.01 h 0.26 0.25 l 0.25,0.01 h 0.26 0.25 l 0.25,0.01 h 0.25 0.26 l 0.25,0.01 h 0.25 l 0.26,0.01 h 0.25 l 0.25,0.01 0.25,0.01 h 0.26 l 0.25,0.01 h 0.25 l 0.26,0.01 0.25,0.01 h 0.25 l 0.26,0.01 0.25,0.01 0.25,0.01 0.25,0.01 h 0.26 l 0.25,0.01 0.25,0.01 0.26,0.01 0.25,0.01 0.25,0.01 0.25,0.01 0.26,0.01 0.25,0.01 0.25,0.01 0.26,0.01 0.25,0.01 0.25,0.01 0.25,0.01 0.26,0.01 0.25,0.02 0.25,0.01 0.26,0.01 0.25,0.01 0.25,0.02 0.25,0.01 0.26,0.01 0.25,0.02 0.25,0.01 0.26,0.01 0.25,0.02 0.25,0.01 0.26,0.02 0.25,0.01 0.25,0.02 0.25,0.01 0.26,0.02 0.25,0.01 0.25,0.02 0.26,0.02 0.25,0.01 0.25,0.02 0.25,0.02 0.26,0.01 0.25,0.02 0.25,0.02 0.26,0.02 0.25,0.01 0.25,0.02 0.25,0.02 0.26,0.02 0.25,0.02 0.25,0.02 0.26,0.02 0.25,0.02 0.25,0.02 0.25,0.02 0.26,0.02 0.25,0.02 0.25,0.02 0.26,0.02 0.25,0.02 0.25,0.02 0.25,0.02 0.26,0.03 0.25,0.02 0.25,0.02 0.26,0.02 0.25,0.03 0.25,0.02 0.26,0.02 0.25,0.02 0.25,0.03 0.25,0.02 0.26,0.03 0.25,0.02 0.25,0.02 0.26,0.03 0.25,0.02 0.25,0.03 0.25,0.02 0.26,0.03 0.25,0.02 0.25,0.03 0.26,0.02 0.25,0.03 0.25,0.03 0.25,0.02 0.26,0.03 0.25,0.02 0.25,0.03 0.26,0.03 0.25,0.02 0.25,0.03 0.25,0.03 0.26,0.03 0.25,0.02 0.25,0.03 0.26,0.03 0.25,0.03 0.25,0.03 0.26,0.02 0.25,0.03 0.25,0.03 0.25,0.03 0.26,0.03 0.25,0.03 0.25,0.03 0.26,0.03 0.25,0.03 0.25,0.03 0.25,0.03 0.26,0.03 0.25,0.03 0.25,0.03 0.26,0.03 0.25,0.03 0.25,0.03 0.25,0.03 0.26,0.03 0.25,0.03 0.25,0.03 0.26,0.03 0.25,0.03 0.25,0.03 0.25,0.04 0.26,0.03 0.25,0.03 0.25,0.03 0.26,0.03 0.25,0.03 0.25,0.04 0.26,0.03 0.25,0.03 0.25,0.03 0.25,0.03 0.26,0.04 0.25,0.03 0.25,0.03 0.26,0.03 0.25,0.04 0.25,0.03 0.25,0.03 0.26,0.04 0.25,0.03 0.25,0.03 0.26,0.03 0.25,0.04 0.25,0.03 0.25,0.03 0.26,0.04 0.25,0.03 0.25,0.03 0.26,0.04 0.25,0.03 0.25,0.04 0.25,0.03 0.26,0.03 0.25,0.04 0.25,0.03 0.26,0.04 0.25,0.03 0.25,0.03 0.26,0.04 0.25,0.03 0.25,0.04 0.25,0.03 0.26,0.03 0.25,0.04 0.25,0.03 0.26,0.04 0.25,0.03 0.25,0.04 0.25,0.03 0.26,0.04 0.25,0.03 0.25,0.03 0.26,0.04 0.25,0.03 0.25,0.04 0.25,0.03 0.26,0.04 0.25,0.03 0.25,0.04 0.26,0.03 0.25,0.04 0.25,0.03 0.25,0.04 0.26,0.03 0.25,0.04 0.25,0.03 0.26,0.04 0.25,0.03 0.25,0.04 0.26,0.03 0.25,0.04 0.25,0.03 0.25,0.04 0.26,0.03 0.25,0.04 0.25,0.03 0.26,0.04 0.25,0.03 0.25,0.04 0.25,0.03 0.26,0.04 0.25,0.03 0.25,0.04 0.26,0.03 0.25,0.04 0.25,0.03 0.25,0.04 0.26,0.03 0.25,0.04 0.25,0.03 0.26,0.04 0.25,0.03 0.25,0.04 0.25,0.03 0.26,0.04 0.25,0.03 0.25,0.04 0.26,0.03 0.25,0.04 0.25,0.03 0.25,0.04 0.26,0.03 0.25,0.04 0.25,0.03 0.26,0.04 0.25,0.03 0.25,0.03 0.26,0.04 0.25,0.03 0.25,0.04 0.25,0.03 0.26,0.04 0.25,0.03 0.25,0.04 0.26,0.03 0.25,0.04 0.25,0.03 0.25,0.04 0.26,0.03 0.25,0.04 0.25,0.03 0.26,0.03 0.25,0.04 0.25,0.03 0.25,0.04 0.26,0.03 0.25,0.04 0.25,0.03 0.26,0.04 0.25,0.03 0.25,0.03 0.25,0.04 0.26,0.03 0.25,0.04 0.25,0.03 0.26,0.03 0.25,0.04 0.25,0.03 0.26,0.04 0.25,0.03 0.25,0.03 0.25,0.04 0.26,0.03 0.25,0.04 0.25,0.03 0.26,0.03 0.25,0.04 0.25,0.03 0.25,0.04 0.26,0.03 0.25,0.03 0.25,0.04 0.26,0.03 0.25,0.03 0.25,0.04 0.25,0.03 0.26,0.03 0.25,0.04 0.25,0.03 0.26,0.03 0.25,0.04 0.25,0.03 0.25,0.03 0.26,0.04 0.25,0.03 0.25,0.03 0.26,0.03 0.25,0.04 0.25,0.03 0.26,0.03 0.25,0.04 0.25,0.03 0.25,0.03 0.26,0.03 0.25,0.04 0.25,0.03 0.26,0.03 0.25,0.04 0.25,0.03 0.25,0.03 0.26,0.03 0.25,0.03 0.25,0.04 0.26,0.03 0.25,0.03 0.25,0.03 0.25,0.04 0.26,0.03 0.25,0.03 0.25,0.03 0.26,0.03 0.25,0.04 0.25,0.03 0.25,0.03 0.26,0.03 0.25,0.03 0.25,0.04 0.26,0.03 0.25,0.03 0.25,0.03 0.26,0.03 0.25,0.03 0.25,0.03 0.25,0.04 0.26,0.03 0.25,0.03 0.25,0.03 0.26,0.03 0.25,0.03 0.25,0.03 0.25,0.03 0.26,0.03 0.25,0.04 0.25,0.03 0.26,0.03 0.25,0.03 0.25,0.03 0.25,0.03 0.26,0.03 0.25,0.03 0.25,0.03 0.26,0.03 0.25,0.03 0.25,0.03 0.25,0.03 0.26,0.03 0.25,0.03 0.25,0.03 0.26,0.03 0.25,0.03 0.25,0.03 0.26,0.03 0.25,0.03 0.25,0.03 0.25,0.03 0.26,0.03 0.25,0.03 0.25,0.03 0.26,0.03 0.25,0.03 0.25,0.03 0.25,0.03 0.26,0.03 0.25,0.03 0.25,0.03 0.26,0.03 0.25,0.03 0.25,0.03 0.25,0.03 0.26,0.03 0.25,0.03 0.25,0.02 0.26,0.03 0.25,0.03 0.25,0.03 0.25,0.03 0.26,0.03 0.25,0.03 0.25,0.03 0.26,0.02 0.25,0.03 0.25,0.03 0.25,0.03 0.26,0.03 0.25,0.03 0.25,0.03 0.26,0.02 0.25,0.03 0.25,0.03 0.26,0.03 0.25,0.03 0.25,0.02 0.25,0.03 0.26,0.03 0.25,0.03 0.25,0.03 0.26,0.02 0.25,0.03 0.25,0.03 0.25,0.03 0.26,0.02 0.25,0.03 0.25,0.03 0.26,0.03 0.25,0.02 0.25,0.03 0.25,0.03 0.26,0.03 0.25,0.02 0.25,0.03 0.26,0.03 0.25,0.02 0.25,0.03 0.25,0.03 0.26,0.02 0.25,0.03 0.25,0.03 0.26,0.02 0.25,0.03 0.25,0.03 0.26,0.02 0.25,0.03 0.25,0.03 0.25,0.02 0.26,0.03 0.25,0.03 0.25,0.02 0.26,0.03 0.25,0.02 0.25,0.03 0.25,0.03 0.26,0.02 0.25,0.03 0.25,0.02 0.26,0.03 0.25,0.02 0.25,0.03 0.25,0.03 0.26,0.02 0.25,0.03 0.25,0.02 0.26,0.03 0.25,0.02 0.25,0.03 0.25,0.02 0.26,0.03 0.25,0.02 0.25,0.03 0.26,0.02 0.25,0.03 0.25,0.02 0.26,0.03 0.25,0.02 0.25,0.03 0.25,0.02 0.26,0.03 0.25,0.02 0.25,0.03 0.26,0.02 0.25,0.03 0.25,0.02 0.25,0.03 0.26,0.02 0.25,0.02 0.25,0.03 0.26,0.02 0.25,0.03 0.25,0.02 0.25,0.03 0.26,0.02 0.25,0.02 0.25,0.03 0.26,0.02 0.25,0.02 0.25,0.03 0.25,0.02 0.26,0.03 0.25,0.02 0.25,0.02 0.26,0.03 0.25,0.02 0.25,0.02 0.26,0.03 0.25,0.02 0.25,0.02 0.25,0.03 0.26,0.02 0.25,0.02 0.25,0.03 0.26,0.02 0.25,0.02 0.25,0.02 0.25,0.03 0.26,0.02 0.25,0.02 0.25,0.03 0.26,0.02 0.25,0.02 0.25,0.02 0.25,0.03 0.26,0.02 0.25,0.02 0.25,0.02 0.26,0.03 0.25,0.02 0.25,0.02 0.25,0.02 0.26,0.02 0.25,0.03 0.25,0.02 0.26,0.02 0.25,0.02 0.25,0.02 0.26,0.03 0.25,0.02 0.25,0.02 0.25,0.02 0.26,0.02 0.25,0.02 0.25,0.03 0.26,0.02 0.25,0.02 0.25,0.02 0.25,0.02 0.26,0.02 0.25,0.02 0.25,0.03 0.26,0.02 0.25,0.02 0.25,0.02 0.25,0.02 0.26,0.02 0.25,0.02 0.25,0.02 0.26,0.02 0.25,0.02 0.25,0.02 0.25,0.03 0.26,0.02 0.25,0.02 0.25,0.02 0.26,0.02 0.25,0.02 0.25,0.02 0.25,0.02 0.26,0.02 0.25,0.02 0.25,0.02 0.26,0.02 0.25,0.02 0.25,0.02 0.26,0.02 0.25,0.02 0.25,0.02 0.25,0.02 0.26,0.02 0.25,0.02 0.25,0.02 0.26,0.02 0.25,0.02 0.25,0.02 0.25,0.02 0.26,0.02 0.25,0.02 0.25,0.02 0.26,0.01 0.25,0.02 0.25,0.02 0.25,0.02 0.26,0.02 0.25,0.02 0.25,0.02 0.26,0.02 0.25,0.02 0.25,0.02 0.25,0.02 0.26,0.01 0.25,0.02 0.25,0.02 0.26,0.02 0.25,0.02 0.25,0.02 0.26,0.02 0.25,0.02 0.25,0.01 0.25,0.02 0.26,0.02 0.25,0.02 0.25,0.02 0.26,0.02 0.25,0.01 0.25,0.02 0.25,0.02 0.26,0.02 0.25,0.02 0.25,0.01 0.26,0.02 0.25,0.02 0.25,0.02 0.25,0.02 0.26,0.01 0.25,0.02 0.25,0.02 0.26,0.02 0.25,0.01 v -23.2 h -0.25 l -0.26,-0.01 -0.25,-0.01 -0.25,-0.01 h -0.26 l -0.25,-0.01 -0.25,-0.01 -0.25,-0.01 h -0.26 l -0.25,-0.01 -0.25,-0.01 h -0.26 l -0.25,-0.01 -0.25,-0.01 -0.25,-0.01 h -0.26 l -0.25,-0.01 -0.25,-0.01 h -0.26 l -0.25,-0.01 -0.25,-0.01 h -0.25 l -0.26,-0.01 -0.25,-0.01 -0.25,-0.01 h -0.26 l -0.25,-0.01 -0.25,-0.01 h -0.26 l -0.25,-0.01 -0.25,-0.01 h -0.25 l -0.26,-0.01 -0.25,-0.01 -0.25,-0.01 h -0.26 l -0.25,-0.01 -0.25,-0.01 h -0.25 l -0.26,-0.01 -0.25,-0.01 h -0.25 l -0.26,-0.01 -0.25,-0.01 h -0.25 l -0.25,-0.01 -0.26,-0.01 h -0.25 l -0.25,-0.01 -0.26,-0.01 h -0.25 l -0.25,-0.01 -0.25,-0.01 h -0.26 l -0.25,-0.01 -0.25,-0.01 h -0.26 l -0.25,-0.01 -0.25,-0.01 h -0.26 l -0.25,-0.01 h -0.25 l -0.25,-0.01 -0.26,-0.01 h -0.25 l -0.25,-0.01 -0.26,-0.01 h -0.25 l -0.25,-0.01 -0.25,-0.01 h -0.26 l -0.25,-0.01 h -0.25 l -0.26,-0.01 -0.25,-0.01 h -0.25 l -0.25,-0.01 -0.26,-0.01 h -0.25 l -0.25,-0.01 h -0.26 l -0.25,-0.01 -0.25,-0.01 h -0.25 l -0.26,-0.01 -0.25,-0.01 h -0.25 l -0.26,-0.01 h -0.25 l -0.25,-0.01 -0.25,-0.01 h -0.26 l -0.25,-0.01 h -0.25 l -0.26,-0.01 -0.25,-0.01 h -0.25 l -0.26,-0.01 h -0.25 l -0.25,-0.01 h -0.25 l -0.26,-0.01 -0.25,-0.01 h -0.25 l -0.26,-0.01 h -0.25 l -0.25,-0.01 -0.25,-0.01 h -0.26 l -0.25,-0.01 h -0.25 l -0.26,-0.01 h -0.25 l -0.25,-0.01 -0.25,-0.01 h -0.26 l -0.25,-0.01 h -0.25 l -0.26,-0.01 h -0.25 l -0.25,-0.01 h -0.25 l -0.26,-0.01 -0.25,-0.01 h -0.25 l -0.26,-0.01 h -0.25 l -0.25,-0.01 h -0.26 l -0.25,-0.01 h -0.25 l -0.25,-0.01 h -0.26 l -0.25,-0.01 h -0.25 l -0.26,-0.01 -0.25,-0.01 h -0.25 l -0.25,-0.01 h -0.26 l -0.25,-0.01 h -0.25 l -0.26,-0.01 h -0.25 L 183,209.3 h -0.25 l -0.26,-0.01 h -0.25 l -0.25,-0.01 h -0.26 l -0.25,-0.01 h -0.25 l -0.25,-0.01 h -0.26 l -0.25,-0.01 h -0.25 l -0.26,-0.01 h -0.25 l -0.25,-0.01 h -0.26 l -0.25,-0.01 h -0.25 l -0.25,-0.01 h -0.26 l -0.25,-0.01 h -0.25 l -0.26,-0.01 h -0.25 l -0.25,-0.01 h -0.25 l -0.26,-0.01 h -0.25 l -0.25,-0.01 h -0.26 l -0.25,-0.01 h -0.25 -0.25 l -0.26,-0.01 h -0.25 l -0.25,-0.01 h -0.26 l -0.25,-0.01 h -0.25 l -0.25,-0.01 h -0.26 l -0.25,-0.01 h -0.25 l -0.26,-0.01 h -0.25 -0.25 l -0.26,-0.01 h -0.25 l -0.25,-0.01 h -0.25 l -0.26,-0.01 h -0.25 l -0.25,-0.01 h -0.26 -0.25 l -0.25,-0.01 h -0.25 l -0.26,-0.01 h -0.25 l -0.25,-0.01 h -0.26 -0.25 l -0.25,-0.01 h -0.25 L 166.81,209 h -0.25 l -0.25,-0.01 h -0.26 -0.25 l -0.25,-0.01 h -0.25 l -0.26,-0.01 h -0.25 -0.25 l -0.26,-0.01 h -0.25 l -0.25,-0.01 h -0.26 -0.25 l -0.25,-0.01 h -0.25 l -0.26,-0.01 h -0.25 -0.25 l -0.26,-0.01 h -0.25 l -0.25,-0.01 H 161 160.74 l -0.25,-0.01 h -0.25 l -0.26,-0.01 h -0.25 -0.25 l -0.25,-0.01 h -0.26 -0.25 l -0.25,-0.01 h -0.26 l -0.25,-0.01 h -0.25 -0.25 l -0.26,-0.01 h -0.25 -0.25 l -0.26,-0.01 h -0.25 l -0.25,-0.01 h -0.25 -0.26 l -0.25,-0.01 h -0.25 -0.26 l -0.25,-0.01 h -0.25 -0.26 l -0.25,-0.01 h -0.25 l -0.25,-0.01 h -0.26 -0.25 l -0.25,-0.01 h -0.26 -0.25 l -0.25,-0.01 h -0.25 -0.26 l -0.25,-0.01 h -0.25 -0.26 l -0.25,-0.01 h -0.25 -0.25 l -0.26,-0.01 h -0.25 -0.25 l -0.26,-0.01 h -0.25 l -0.25,-0.01 h -0.25 -0.26 l -0.25,-0.01 h -0.25 -0.26 l -0.25,-0.01 h -0.25 -0.26 l -0.25,-0.01 h -0.25 -0.25 l -0.26,-0.01 h -0.25 -0.25 l -0.26,-0.01 h -0.25 -0.25 l -0.25,-0.01 h -0.26 -0.25 l -0.25,-0.01 h -0.26 -0.25 l -0.25,-0.01 h -0.25 -0.26 l -0.25,-0.01 h -0.25 -0.26 l -0.25,-0.01 h -0.25 -0.25 l -0.26,-0.01 h -0.25 -0.25 l -0.26,-0.01 h -0.25 -0.25 l -0.26,-0.01 h -0.25 -0.25 l -0.25,-0.01 h -0.26 -0.25 l -0.25,-0.01 h -0.26 -0.25 l -0.25,-0.01 h -0.25 -0.26 l -0.25,-0.01 h -0.25 -0.26 l -0.25,-0.01 h -0.25 -0.25 l -0.26,-0.01 h -0.25 -0.25 l -0.26,-0.01 h -0.25 -0.25 l -0.25,-0.01 h -0.26 -0.25 l -0.25,-0.01 h -0.26 -0.25 l -0.25,-0.01 h -0.26 -0.25 l -0.25,-0.01 h -0.25 l -0.26,-0.01 h -0.25 -0.25 l -0.26,-0.01 h -0.25 -0.25 l -0.25,-0.01 h -0.26 -0.25 l -0.25,-0.01 h -0.26 l -0.25,-0.01 h -0.25 -0.25 l -0.26,-0.01 h -0.25 l -0.25,-0.01 h -0.26 -0.25 l -0.25,-0.01 h -0.25 l -0.26,-0.01 h -0.25 -0.25 l -0.26,-0.01 h -0.25 l -0.25,-0.01 h -0.26 l -0.25,-0.01 h -0.25 -0.25 l -0.26,-0.01 h -0.25 l -0.25,-0.01 h -0.26 l -0.25,-0.01 h -0.25 -0.25 l -0.26,-0.01 h -0.25 l -0.25,-0.01 h -0.26 l -0.25,-0.01 h -0.25 l -0.25,-0.01 H 118 l -0.25,-0.01 h -0.25 l -0.26,-0.01 h -0.25 l -0.25,-0.01 h -0.25 l -0.26,-0.01 h -0.25 l -0.25,-0.01 h -0.26 l -0.25,-0.01 -0.25,-0.01 h -0.25 l -0.26,-0.01 h -0.25 l -0.25,-0.01 h -0.26 l -0.25,-0.01 -0.25,-0.01 h -0.26 l -0.25,-0.01 h -0.25 l -0.25,-0.01 -0.26,-0.01 h -0.25 l -0.25,-0.01 -0.26,-0.01 h -0.25 l -0.25,-0.01 h -0.25 l -0.26,-0.01 -0.25,-0.01 -0.25,-0.01 h -0.26 l -0.25,-0.01 -0.25,-0.01 h -0.25 l -0.26,-0.01 -0.25,-0.01 -0.25,-0.01 h -0.26 l -0.25,-0.01 -0.25,-0.01 -0.25,-0.01 h -0.26 l -0.25,-0.01 -0.25,-0.01 -0.26,-0.01 -0.25,-0.01 h -0.25 l -0.26,-0.01 -0.25,-0.01 -0.25,-0.01 -0.25,-0.01 -0.26,-0.01 -0.25,-0.01 -0.25,-0.01 -0.26,-0.01 h -0.25 l -0.25,-0.01 -0.25,-0.01 -0.26,-0.01 -0.25,-0.01 -0.25,-0.01 -0.26,-0.01 -0.25,-0.01 -0.25,-0.01 -0.25,-0.01 -0.26,-0.01 -0.25,-0.01 -0.25,-0.02 -0.26,-0.01 -0.25,-0.01 -0.25,-0.01 -0.25,-0.01 -0.26,-0.01 -0.25,-0.01 -0.25,-0.01 -0.26,-0.02 -0.25,-0.01 -0.25,-0.01 -0.26,-0.01 -0.25,-0.02 -0.25,-0.01 -0.25,-0.01 -0.26,-0.01 -0.25,-0.02 -0.25,-0.01 -0.26,-0.01 -0.25,-0.02 -0.25,-0.01 -0.25,-0.02 -0.26,-0.01 -0.25,-0.01 -0.25,-0.02 -0.26,-0.01 -0.25,-0.02 -0.25,-0.01 -0.25,-0.02 -0.26,-0.01 -0.25,-0.02 -0.25,-0.01 -0.26,-0.02 -0.25,-0.02 -0.25,-0.01 -0.25,-0.02 -0.26,-0.02 -0.25,-0.01 -0.25,-0.02 -0.26,-0.02 -0.25,-0.01 -0.25,-0.02 -0.26,-0.02 -0.25,-0.02 -0.25,-0.02 -0.25,-0.01 -0.26,-0.02 -0.25,-0.02 -0.25,-0.02 -0.26,-0.02 -0.25,-0.02 -0.25,-0.02 -0.25,-0.02 -0.26,-0.02 -0.25,-0.02 -0.25,-0.02 -0.26,-0.02 -0.25,-0.02 -0.25,-0.02 -0.25,-0.03 -0.26,-0.02 -0.25,-0.02 -0.25,-0.02 -0.26,-0.02 -0.25,-0.03 -0.25,-0.02 -0.25,-0.02 -0.26,-0.03 -0.25,-0.02 -0.25,-0.03 -0.26,-0.02 -0.25,-0.02 -0.25,-0.03 -0.26,-0.02 -0.25,-0.03 -0.25,-0.03 -0.25,-0.02 -0.26,-0.03 -0.25,-0.02 -0.25,-0.03 -0.26,-0.03 -0.25,-0.02 -0.25,-0.03 -0.25,-0.03 -0.26,-0.03 -0.25,-0.03 -0.25,-0.02 -0.26,-0.03 -0.25,-0.03 -0.25,-0.03 -0.25,-0.03 -0.26,-0.03 -0.25,-0.03 -0.25,-0.03 -0.26,-0.03 -0.25,-0.03 -0.25,-0.03 -0.25,-0.04 -0.26,-0.03 -0.25,-0.03 -0.25,-0.03 -0.26,-0.04 -0.25,-0.03 -0.25,-0.03 -0.25,-0.04 -0.26,-0.03 -0.25,-0.03 -0.25,-0.04 -0.26,-0.03 -0.25,-0.04 -0.25,-0.03 -0.26,-0.04 -0.25,-0.03 -0.25,-0.04 -0.25,-0.04 -0.26,-0.03 -0.25,-0.04 -0.25,-0.04 -0.26,-0.04 -0.25,-0.03 -0.25,-0.04 -0.25,-0.04 -0.26,-0.04 -0.25,-0.04 -0.25,-0.04 -0.26,-0.04 -0.25,-0.04 -0.25,-0.04 -0.25,-0.04 -0.26,-0.04 -0.25,-0.04 -0.25,-0.04 -0.26,-0.04 -0.25,-0.05 -0.25,-0.04 -0.25,-0.04 -0.26,-0.04 -0.25,-0.05 -0.25,-0.04 -0.26,-0.04 -0.25,-0.05 -0.25,-0.04 -0.26,-0.05 -0.25,-0.04 -0.25,-0.05 -0.25,-0.04 -0.26,-0.05 -0.25,-0.04 -0.25,-0.05 -0.26,-0.05 -0.25,-0.04 -0.25,-0.05 -0.25,-0.05 -0.26,-0.05 -0.25,-0.04 -0.25,-0.05 -0.26,-0.05 -0.25,-0.05 -0.25,-0.05 -0.25,-0.05 -0.26,-0.05 -0.25,-0.05 -0.25,-0.05 -0.26,-0.05 -0.25,-0.05 -0.25,-0.05 -0.25,-0.05 -0.26,-0.05 -0.25,-0.05 -0.25,-0.06 -0.26,-0.05 -0.25,-0.05 -0.25,-0.05 -0.26,-0.06 -0.25,-0.05 -0.25,-0.05 -0.25,-0.06 -0.26,-0.05 -0.25,-0.06 -0.25,-0.05 -0.26,-0.06 -0.25,-0.05 -0.25,-0.06 -0.25,-0.05 -0.26,-0.06 -0.25,-0.06 -0.25,-0.05 -0.26,-0.06 -0.25,-0.06 -0.25,-0.05 -0.25,-0.06 -0.26,-0.06 -0.25,-0.06 -0.25,-0.05 -0.26,-0.06 -0.25,-0.06 -0.25,-0.06 -0.25,-0.06 -0.26,-0.06 -0.25,-0.06 -0.25,-0.06 -0.26,-0.06 -0.25,-0.06 -0.25,-0.06 -0.26,-0.06 -0.25,-0.06 -0.25,-0.06 -0.25,-0.06 -0.26,-0.07 -0.25,-0.06 -0.25,-0.06 -0.26,-0.06 -0.25,-0.07 -0.25,-0.06 -0.25,-0.06 -0.26,-0.07 -0.25,-0.06 -0.25,-0.06 -0.26,-0.07 -0.25,-0.06 -0.25,-0.07 -0.25,-0.06 -0.26,-0.07 -0.25,-0.06 -0.25,-0.07 -0.26,-0.06 -0.25,-0.07 -0.25,-0.06 z" />
          <path
             inkscape:connector-curvature="0"
             id="path6879"
             style="fill:#291711;fill-opacity:0.14900004;fill-rule:nonzero;stroke:none"
             d="m 42.64,219.92 0.25,-0.07 0.25,-0.07 0.26,-0.08 0.25,-0.07 0.25,-0.07 0.26,-0.07 0.25,-0.07 0.25,-0.08 0.25,-0.07 0.26,-0.07 0.25,-0.08 0.25,-0.07 0.26,-0.07 0.25,-0.08 0.25,-0.07 0.25,-0.08 0.26,-0.07 0.25,-0.08 0.25,-0.07 0.26,-0.08 0.25,-0.08 0.25,-0.07 0.25,-0.08 0.26,-0.08 0.25,-0.07 0.25,-0.08 0.26,-0.08 0.25,-0.08 0.25,-0.08 0.26,-0.08 0.25,-0.07 0.25,-0.08 0.25,-0.08 0.26,-0.08 0.25,-0.08 0.25,-0.08 0.26,-0.08 0.25,-0.08 0.25,-0.09 0.25,-0.08 0.26,-0.08 0.25,-0.08 0.25,-0.08 0.26,-0.09 0.25,-0.08 0.25,-0.08 0.25,-0.08 0.26,-0.09 0.25,-0.08 0.25,-0.09 0.26,-0.08 0.25,-0.08 0.25,-0.09 0.25,-0.08 0.26,-0.09 0.25,-0.08 0.25,-0.09 0.26,-0.09 0.25,-0.08 0.25,-0.09 0.26,-0.09 0.25,-0.08 0.25,-0.09 0.25,-0.09 0.26,-0.09 0.25,-0.09 0.25,-0.08 0.26,-0.09 0.25,-0.09 0.25,-0.09 0.25,-0.09 0.26,-0.09 0.25,-0.09 0.25,-0.09 0.26,-0.09 0.25,-0.09 0.25,-0.09 0.25,-0.09 0.26,-0.1 0.25,-0.09 0.25,-0.09 0.26,-0.09 0.25,-0.09 0.25,-0.1 0.25,-0.09 0.26,-0.09 0.25,-0.1 0.25,-0.09 0.26,-0.09 0.25,-0.1 0.25,-0.09 0.26,-0.1 0.25,-0.09 0.25,-0.1 0.25,-0.09 0.26,-0.1 0.25,-0.09 0.25,-0.1 0.26,-0.1 0.25,-0.09 0.25,-0.1 0.25,-0.1 0.26,-0.09 0.25,-0.1 0.25,-0.1 0.26,-0.1 0.25,-0.1 0.25,-0.09 0.25,-0.1 0.26,-0.1 0.25,-0.1 0.25,-0.1 0.26,-0.1 0.25,-0.1 0.25,-0.1 0.25,-0.1 0.26,-0.1 0.25,-0.1 0.25,-0.1 0.26,-0.1 0.25,-0.1 0.25,-0.1 0.26,-0.11 0.25,-0.1 0.25,-0.1 0.25,-0.1 0.26,-0.1 0.25,-0.11 0.25,-0.1 0.26,-0.1 0.25,-0.11 0.25,-0.1 0.25,-0.1 0.26,-0.11 0.25,-0.1 0.25,-0.1 0.26,-0.11 0.25,-0.1 0.25,-0.11 0.25,-0.1 0.26,-0.11 0.25,-0.1 0.25,-0.11 0.26,-0.1 0.25,-0.11 0.25,-0.1 0.25,-0.11 0.26,-0.11 0.25,-0.1 0.25,-0.11 0.26,-0.11 0.25,-0.1 0.25,-0.11 0.25,-0.11 0.26,-0.1 0.25,-0.11 0.25,-0.11 0.26,-0.11 0.25,-0.1 0.25,-0.11 0.26,-0.11 0.25,-0.11 0.25,-0.11 0.25,-0.1 0.26,-0.11 0.25,-0.11 0.25,-0.11 0.26,-0.11 0.25,-0.11 0.25,-0.11 0.25,-0.11 0.26,-0.11 0.25,-0.11 0.25,-0.1 0.26,-0.11 0.25,-0.11 0.25,-0.11 0.25,-0.11 0.26,-0.11 0.25,-0.11 0.25,-0.11 0.26,-0.12 0.25,-0.11 0.25,-0.11 0.25,-0.11 0.26,-0.11 0.25,-0.11 0.25,-0.11 0.26,-0.11 0.25,-0.11 0.25,-0.11 0.26,-0.11 0.25,-0.11 0.25,-0.12 0.25,-0.11 0.26,-0.11 0.25,-0.11 0.25,-0.11 0.26,-0.11 0.25,-0.11 0.25,-0.12 0.25,-0.11 0.26,-0.11 0.25,-0.11 0.25,-0.11 0.26,-0.12 0.25,-0.11 0.25,-0.11 0.25,-0.11 0.26,-0.11 0.25,-0.12 0.25,-0.11 0.26,-0.11 0.25,-0.11 0.25,-0.11 0.25,-0.12 0.26,-0.11 0.25,-0.11 0.25,-0.11 0.26,-0.11 0.25,-0.12 0.25,-0.11 0.26,-0.11 0.25,-0.11 0.25,-0.12 0.25,-0.11 0.26,-0.11 0.25,-0.11 0.25,-0.11 0.26,-0.12 0.25,-0.11 0.25,-0.11 0.25,-0.11 0.26,-0.11 0.25,-0.12 0.25,-0.11 0.26,-0.11 0.25,-0.11 0.25,-0.12 0.25,-0.11 0.26,-0.11 0.25,-0.11 0.25,-0.11 0.26,-0.11 0.25,-0.12 0.25,-0.11 0.25,-0.11 0.26,-0.11 0.25,-0.11 0.25,-0.12 0.26,-0.11 0.25,-0.11 0.25,-0.11 0.26,-0.11 0.25,-0.11 0.25,-0.11 0.25,-0.12 0.26,-0.11 0.25,-0.11 0.25,-0.11 0.26,-0.11 0.25,-0.11 0.25,-0.11 0.25,-0.11 0.26,-0.11 0.25,-0.11 0.25,-0.12 0.26,-0.11 0.25,-0.11 0.25,-0.11 0.25,-0.11 0.26,-0.11 0.25,-0.11 0.25,-0.11 0.26,-0.11 0.25,-0.11 0.25,-0.11 0.25,-0.11 0.26,-0.11 0.25,-0.11 0.25,-0.11 0.26,-0.11 0.25,-0.11 0.25,-0.11 0.26,-0.11 0.25,-0.11 0.25,-0.11 0.25,-0.1 0.26,-0.11 0.25,-0.11 0.25,-0.11 0.26,-0.11 0.25,-0.11 0.25,-0.11 0.25,-0.11 0.26,-0.11 0.25,-0.1 0.25,-0.11 0.26,-0.11 0.25,-0.11 0.25,-0.11 0.25,-0.11 0.26,-0.1 0.25,-0.11 0.25,-0.11 0.26,-0.11 0.25,-0.1 0.25,-0.11 0.25,-0.11 0.26,-0.11 0.25,-0.1 0.25,-0.11 0.26,-0.11 0.25,-0.11 0.25,-0.1 0.25,-0.11 0.26,-0.11 0.25,-0.1 0.25,-0.11 0.26,-0.11 0.25,-0.1 0.25,-0.11 0.26,-0.11 0.25,-0.1 0.25,-0.11 0.25,-0.11 0.26,-0.1 0.25,-0.11 0.25,-0.1 0.26,-0.11 0.25,-0.11 0.25,-0.1 0.25,-0.11 0.26,-0.1 0.25,-0.11 0.25,-0.1 0.26,-0.11 0.25,-0.1 0.25,-0.11 0.25,-0.1 0.26,-0.11 0.25,-0.1 0.25,-0.11 0.26,-0.1 0.25,-0.11 0.25,-0.1 0.25,-0.11 0.26,-0.1 0.25,-0.11 0.25,-0.1 0.26,-0.11 0.25,-0.1 0.25,-0.1 0.26,-0.11 0.25,-0.1 0.25,-0.11 0.25,-0.1 0.26,-0.1 0.25,-0.11 0.25,-0.1 0.26,-0.11 0.25,-0.1 0.25,-0.1 0.25,-0.11 0.26,-0.1 0.25,-0.1 0.25,-0.11 0.26,-0.1 0.25,-0.1 0.25,-0.11 0.25,-0.1 0.26,-0.1 0.25,-0.11 0.25,-0.1 0.26,-0.1 0.25,-0.11 0.25,-0.1 0.25,-0.1 0.26,-0.11 0.25,-0.1 0.25,-0.1 0.26,-0.11 0.25,-0.1 0.25,-0.1 0.26,-0.1 0.25,-0.11 0.25,-0.1 0.25,-0.1 0.26,-0.1 0.25,-0.11 0.25,-0.1 0.26,-0.1 0.25,-0.11 0.25,-0.1 0.25,-0.1 0.26,-0.1 0.25,-0.11 0.25,-0.1 0.26,-0.1 0.25,-0.1 0.25,-0.11 0.25,-0.1 0.26,-0.1 0.25,-0.1 0.25,-0.11 0.26,-0.1 0.25,-0.1 0.25,-0.1 0.25,-0.1 0.26,-0.11 0.25,-0.1 0.25,-0.1 0.26,-0.1 0.25,-0.11 0.25,-0.1 0.26,-0.1 0.25,-0.1 0.25,-0.11 0.25,-0.1 0.26,-0.1 0.25,-0.1 0.25,-0.11 0.26,-0.1 0.25,-0.1 0.25,-0.1 0.25,-0.11 0.26,-0.1 0.25,-0.1 0.25,-0.11 0.26,-0.1 0.25,-0.1 0.25,-0.1 0.25,-0.11 0.26,-0.1 0.25,-0.1 0.25,-0.11 0.26,-0.1 0.25,-0.1 0.25,-0.1 0.25,-0.11 0.26,-0.1 0.25,-0.1 0.25,-0.11 0.26,-0.1 0.25,-0.1 0.25,-0.11 0.26,-0.1 0.25,-0.1 0.25,-0.11 0.25,-0.1 0.26,-0.1 0.25,-0.11 0.25,-0.1 0.26,-0.11 0.25,-0.1 0.25,-0.1 0.25,-0.11 0.26,-0.1 0.25,-0.11 0.25,-0.1 0.26,-0.1 0.25,-0.11 0.25,-0.1 0.25,-0.11 0.26,-0.1 0.25,-0.11 0.25,-0.1 0.26,-0.11 0.25,-0.1 0.25,-0.11 0.25,-0.1 0.26,-0.11 0.25,-0.1 0.25,-0.11 0.26,-0.1 0.25,-0.11 0.25,-0.1 0.25,-0.11 0.26,-0.1 0.25,-0.11 0.25,-0.11 0.26,-0.1 0.25,-0.11 0.25,-0.1 0.26,-0.11 0.25,-0.11 0.25,-0.1 0.25,-0.11 0.26,-0.11 0.25,-0.1 0.25,-0.11 0.26,-0.11 0.25,-0.1 0.25,-0.11 0.25,-0.11 0.26,-0.11 0.25,-0.1 0.25,-0.11 0.26,-0.11 0.25,-0.11 0.25,-0.11 0.25,-0.1 0.26,-0.11 0.25,-0.11 0.25,-0.11 0.26,-0.11 0.25,-0.11 0.25,-0.11 0.25,-0.1 0.26,-0.11 0.25,-0.11 0.25,-0.11 0.26,-0.11 0.25,-0.11 0.25,-0.11 0.26,-0.11 0.25,-0.11 0.25,-0.11 0.25,-0.11 0.26,-0.11 0.25,-0.11 0.25,-0.12 0.26,-0.11 0.25,-0.11 0.25,-0.11 0.25,-0.11 0.26,-0.11 0.25,-0.11 0.25,-0.12 0.26,-0.11 0.25,-0.11 0.25,-0.11 0.25,-0.12 0.26,-0.11 0.25,-0.11 0.25,-0.11 0.26,-0.12 0.25,-0.11 0.25,-0.11 0.25,-0.12 0.26,-0.11 0.25,-0.12 0.25,-0.11 0.26,-0.12 0.25,-0.11 0.25,-0.12 0.26,-0.11 0.25,-0.12 0.25,-0.11 0.25,-0.12 0.26,-0.11 0.25,-0.12 0.25,-0.11 0.26,-0.12 0.25,-0.12 0.25,-0.11 0.25,-0.12 0.26,-0.12 0.25,-0.11 0.25,-0.12 0.26,-0.12 0.25,-0.12 0.25,-0.12 0.25,-0.11 0.26,-0.12 0.25,-0.12 0.25,-0.12 0.26,-0.12 0.25,-0.12 0.25,-0.12 0.25,-0.12 0.26,-0.12 0.25,-0.12 0.25,-0.12 0.26,-0.12 0.25,-0.12 0.25,-0.12 0.26,-0.12 0.25,-0.12 0.25,-0.12 0.25,-0.12 0.26,-0.13 0.25,-0.12 0.25,-0.12 0.26,-0.12 0.25,-0.12 0.25,-0.13 0.25,-0.12 0.26,-0.12 0.25,-0.13 0.25,-0.12 0.26,-0.13 0.25,-0.12 0.25,-0.12 0.25,-0.13 0.26,-0.12 0.25,-0.13 0.25,-0.12 0.26,-0.13 0.25,-0.13 0.25,-0.12 0.25,-0.13 0.26,-0.12 0.25,-0.13 0.25,-0.13 0.26,-0.13 0.25,-0.12 0.25,-0.13 0.26,-0.13 0.25,-0.13 0.25,-0.12 0.25,-0.13 0.26,-0.13 0.25,-0.13 0.25,-0.13 0.26,-0.13 0.25,-0.13 0.25,-0.13 0.25,-0.13 0.26,-0.13 0.25,-0.13 0.25,-0.13 0.26,-0.13 0.25,-0.13 0.25,-0.14 0.25,-0.13 0.26,-0.13 0.25,-0.13 0.25,-0.13 0.26,-0.14 0.25,-0.13 0.25,-0.13 0.25,-0.14 0.26,-0.13 0.25,-0.14 0.25,-0.13 0.26,-0.13 0.25,-0.14 0.25,-0.13 0.25,-0.14 0.26,-0.14 0.25,-0.13 0.25,-0.14 0.26,-0.13 0.25,-0.14 0.25,-0.14 0.26,-0.13 0.25,-0.14 0.25,-0.14 0.25,-0.14 0.26,-0.13 0.25,-0.14 0.25,-0.14 0.26,-0.14 0.25,-0.14 0.25,-0.14 0.25,-0.14 0.26,-0.14 0.25,-0.14 0.25,-0.14 0.26,-0.14 0.25,-0.14 0.25,-0.14 0.25,-0.14 0.26,-0.14 0.25,-0.15 0.25,-0.14 0.26,-0.14 0.25,-0.14 0.25,-0.15 0.25,-0.14 0.26,-0.14 0.25,-0.15 0.25,-0.14 0.26,-0.14 0.25,-0.15 0.25,-0.14 0.26,-0.15 0.25,-0.14 0.25,-0.15 0.25,-0.14 0.26,-0.15 0.25,-0.15 0.25,-0.14 0.26,-0.15 0.25,-0.15 0.25,-0.14 0.25,-0.15 0.26,-0.15 0.25,-0.15 0.25,-0.15 0.26,-0.14 0.25,-0.15 0.25,-0.15 0.25,-0.15 0.26,-0.15 0.25,-0.15 0.25,-0.15 0.26,-0.15 0.25,-0.15 V 43.29 l -0.25,0.27 -0.26,0.26 -0.25,0.27 -0.25,0.26 -0.26,0.27 -0.25,0.27 -0.25,0.26 -0.25,0.27 -0.26,0.27 -0.25,0.27 -0.25,0.27 -0.26,0.27 -0.25,0.27 -0.25,0.27 -0.25,0.27 -0.26,0.27 -0.25,0.27 -0.25,0.28 -0.26,0.27 -0.25,0.27 -0.25,0.28 -0.25,0.27 -0.26,0.28 -0.25,0.27 -0.25,0.28 -0.26,0.27 -0.25,0.28 -0.25,0.28 -0.26,0.28 -0.25,0.28 -0.25,0.27 -0.25,0.28 -0.26,0.28 -0.25,0.28 -0.25,0.28 -0.26,0.29 -0.25,0.28 -0.25,0.28 -0.25,0.28 -0.26,0.28 -0.25,0.29 -0.25,0.28 -0.26,0.28 -0.25,0.29 -0.25,0.28 -0.25,0.29 -0.26,0.29 -0.25,0.28 -0.25,0.29 -0.26,0.28 -0.25,0.29 -0.25,0.29 -0.25,0.29 -0.26,0.29 -0.25,0.29 -0.25,0.28 -0.26,0.29 -0.25,0.29 -0.25,0.29 -0.26,0.3 -0.25,0.29 -0.25,0.29 -0.25,0.29 -0.26,0.29 -0.25,0.29 -0.25,0.3 -0.26,0.29 -0.25,0.29 -0.25,0.3 -0.25,0.29 -0.26,0.3 -0.25,0.29 -0.25,0.3 -0.26,0.29 -0.25,0.3 -0.25,0.29 -0.25,0.3 -0.26,0.3 -0.25,0.3 -0.25,0.29 -0.26,0.3 -0.25,0.3 -0.25,0.3 -0.25,0.3 -0.26,0.29 -0.25,0.3 -0.25,0.3 -0.26,0.3 -0.25,0.3 -0.25,0.3 -0.25,0.3 -0.26,0.3 -0.25,0.3 -0.25,0.31 -0.26,0.3 -0.25,0.3 -0.25,0.3 -0.26,0.3 -0.25,0.31 -0.25,0.3 -0.25,0.3 -0.26,0.31 -0.25,0.3 -0.25,0.3 -0.26,0.31 -0.25,0.3 -0.25,0.3 -0.25,0.31 -0.26,0.3 -0.25,0.31 -0.25,0.3 -0.26,0.31 -0.25,0.3 -0.25,0.31 -0.25,0.31 -0.26,0.3 -0.25,0.31 -0.25,0.3 -0.26,0.31 -0.25,0.31 -0.25,0.3 -0.25,0.31 -0.26,0.31 -0.25,0.3 -0.25,0.31 -0.26,0.31 -0.25,0.31 -0.25,0.3 -0.26,0.31 -0.25,0.31 -0.25,0.31 -0.25,0.31 -0.26,0.3 -0.25,0.31 -0.25,0.31 -0.26,0.31 -0.25,0.31 -0.25,0.31 -0.25,0.31 -0.26,0.31 -0.25,0.3 -0.25,0.31 -0.26,0.31 -0.25,0.31 -0.25,0.31 -0.25,0.31 -0.26,0.31 -0.25,0.31 -0.25,0.31 -0.26,0.31 -0.25,0.31 -0.25,0.31 -0.25,0.31 -0.26,0.31 -0.25,0.31 -0.25,0.31 -0.26,0.31 -0.25,0.31 -0.25,0.31 -0.26,0.31 -0.25,0.31 -0.25,0.31 -0.25,0.31 -0.26,0.31 -0.25,0.31 -0.25,0.31 -0.26,0.3 -0.25,0.31 -0.25,0.31 -0.25,0.31 -0.26,0.31 -0.25,0.31 -0.25,0.31 -0.26,0.31 -0.25,0.31 -0.25,0.31 -0.25,0.31 -0.26,0.31 -0.25,0.31 -0.25,0.31 -0.26,0.31 -0.25,0.31 -0.25,0.3 -0.25,0.31 -0.26,0.31 -0.25,0.31 -0.25,0.31 -0.26,0.31 -0.25,0.31 -0.25,0.3 -0.26,0.31 -0.25,0.31 -0.25,0.31 -0.25,0.31 -0.26,0.3 -0.25,0.31 -0.25,0.31 -0.26,0.31 -0.25,0.3 -0.25,0.31 -0.25,0.31 -0.26,0.3 -0.25,0.31 -0.25,0.31 -0.26,0.3 -0.25,0.31 -0.25,0.3 -0.25,0.31 -0.26,0.3 -0.25,0.31 -0.25,0.3 -0.26,0.31 -0.25,0.3 -0.25,0.31 -0.25,0.3 -0.26,0.31 -0.25,0.3 -0.25,0.3 -0.26,0.31 -0.25,0.3 -0.25,0.3 -0.26,0.31 -0.25,0.3 -0.25,0.3 -0.25,0.3 -0.26,0.3 -0.25,0.3 -0.25,0.31 -0.26,0.3 -0.25,0.3 -0.25,0.3 -0.25,0.3 -0.26,0.3 -0.25,0.3 -0.25,0.3 -0.26,0.3 -0.25,0.29 -0.25,0.3 -0.25,0.3 -0.26,0.3 -0.25,0.3 -0.25,0.29 -0.26,0.3 -0.25,0.3 -0.25,0.29 -0.25,0.3 -0.26,0.3 -0.25,0.29 -0.25,0.3 -0.26,0.29 -0.25,0.3 -0.25,0.29 -0.25,0.29 -0.26,0.3 -0.25,0.29 -0.25,0.29 -0.26,0.29 -0.25,0.3 -0.25,0.29 -0.26,0.29 -0.25,0.29 -0.25,0.29 -0.25,0.29 -0.26,0.29 -0.25,0.29 -0.25,0.29 -0.26,0.29 -0.25,0.29 -0.25,0.28 -0.25,0.29 -0.26,0.29 -0.25,0.28 -0.25,0.29 -0.26,0.29 -0.25,0.28 -0.25,0.29 -0.25,0.28 -0.26,0.28 -0.25,0.29 -0.25,0.28 -0.26,0.28 -0.25,0.29 -0.25,0.28 -0.25,0.28 -0.26,0.28 -0.25,0.28 -0.25,0.28 -0.26,0.28 -0.25,0.28 -0.25,0.28 -0.26,0.28 -0.25,0.28 -0.25,0.27 -0.25,0.28 -0.26,0.28 -0.25,0.27 -0.25,0.28 -0.26,0.27 -0.25,0.28 -0.25,0.27 -0.25,0.27 -0.26,0.28 -0.25,0.27 -0.25,0.27 -0.26,0.27 -0.25,0.27 -0.25,0.27 -0.25,0.27 -0.26,0.27 -0.25,0.27 -0.25,0.27 -0.26,0.27 -0.25,0.27 -0.25,0.26 -0.25,0.27 -0.26,0.27 -0.25,0.26 -0.25,0.26 -0.26,0.27 -0.25,0.26 -0.25,0.27 -0.26,0.26 -0.25,0.26 -0.25,0.26 -0.25,0.26 -0.26,0.26 -0.25,0.26 -0.25,0.26 -0.26,0.26 -0.25,0.26 -0.25,0.26 -0.25,0.25 -0.26,0.26 -0.25,0.25 -0.25,0.26 -0.26,0.25 -0.25,0.26 -0.25,0.25 -0.25,0.25 -0.26,0.26 -0.25,0.25 -0.25,0.25 -0.26,0.25 -0.25,0.25 -0.25,0.25 -0.25,0.25 -0.26,0.25 -0.25,0.24 -0.25,0.25 -0.26,0.25 -0.25,0.24 -0.25,0.25 -0.26,0.24 -0.25,0.24 -0.25,0.25 -0.25,0.24 -0.26,0.24 -0.25,0.24 -0.25,0.24 -0.26,0.24 -0.25,0.24 -0.25,0.24 -0.25,0.24 -0.26,0.24 -0.25,0.23 -0.25,0.24 -0.26,0.24 -0.25,0.23 -0.25,0.23 -0.25,0.24 -0.26,0.23 -0.25,0.23 -0.25,0.24 -0.26,0.23 -0.25,0.23 -0.25,0.23 -0.25,0.23 -0.26,0.22 -0.25,0.23 -0.25,0.23 -0.26,0.23 -0.25,0.22 -0.25,0.23 -0.26,0.22 -0.25,0.22 -0.25,0.23 -0.25,0.22 -0.26,0.22 -0.25,0.22 -0.25,0.22 -0.26,0.22 -0.25,0.22 -0.25,0.22 -0.25,0.22 -0.26,0.22 -0.25,0.21 -0.25,0.22 -0.26,0.21 -0.25,0.22 -0.25,0.21 -0.25,0.22 -0.26,0.21 -0.25,0.21 -0.25,0.21 -0.26,0.21 -0.25,0.21 -0.25,0.21 -0.25,0.21 -0.26,0.21 -0.25,0.2 -0.25,0.21 -0.26,0.21 -0.25,0.2 -0.25,0.21 -0.25,0.2 -0.26,0.2 -0.25,0.2 -0.25,0.21 -0.26,0.2 -0.25,0.2 -0.25,0.2 -0.26,0.2 -0.25,0.19 -0.25,0.2 -0.25,0.2 -0.26,0.2 -0.25,0.19 -0.25,0.2 -0.26,0.19 -0.25,0.19 -0.25,0.2 -0.25,0.19 -0.26,0.19 -0.25,0.19 -0.25,0.19 -0.26,0.19 -0.25,0.19 -0.25,0.19 -0.25,0.19 -0.26,0.18 -0.25,0.19 -0.25,0.19 -0.26,0.18 -0.25,0.19 -0.25,0.18 -0.25,0.18 -0.26,0.19 -0.25,0.18 -0.25,0.18 -0.26,0.18 -0.25,0.18 -0.25,0.18 -0.26,0.18 -0.25,0.17 -0.25,0.18 -0.25,0.18 -0.26,0.17 -0.25,0.18 -0.25,0.17 -0.26,0.18 -0.25,0.17 -0.25,0.17 -0.25,0.18 -0.26,0.17 -0.25,0.17 -0.25,0.17 -0.26,0.17 -0.25,0.17 -0.25,0.17 -0.25,0.16 -0.26,0.17 -0.25,0.17 -0.25,0.16 -0.26,0.17 -0.25,0.16 -0.25,0.17 -0.25,0.16 -0.26,0.16 -0.25,0.17 -0.25,0.16 -0.26,0.16 -0.25,0.16 -0.25,0.16 -0.26,0.16 -0.25,0.16 -0.25,0.16 -0.25,0.15 -0.26,0.16 -0.25,0.16 -0.25,0.15 -0.26,0.16 -0.25,0.15 -0.25,0.16 -0.25,0.15 -0.26,0.15 -0.25,0.16 -0.25,0.15 -0.26,0.15 -0.25,0.15 -0.25,0.15 -0.25,0.15 -0.26,0.15 -0.25,0.15 -0.25,0.15 -0.26,0.14 -0.25,0.15 -0.25,0.15 -0.25,0.14 -0.26,0.15 -0.25,0.14 -0.25,0.15 -0.26,0.14 -0.25,0.15 -0.25,0.14 -0.26,0.14 -0.25,0.14 -0.25,0.14 -0.25,0.14 -0.26,0.15 -0.25,0.13 -0.25,0.14 -0.26,0.14 -0.25,0.14 -0.25,0.14 -0.25,0.14 -0.26,0.13 -0.25,0.14 -0.25,0.13 -0.26,0.14 -0.25,0.14 -0.25,0.13 -0.25,0.13 -0.26,0.14 -0.25,0.13 -0.25,0.13 -0.26,0.13 -0.25,0.14 -0.25,0.13 -0.25,0.13 -0.26,0.13 -0.25,0.13 -0.25,0.13 -0.26,0.13 -0.25,0.12 -0.25,0.13 -0.26,0.13 -0.25,0.13 -0.25,0.12 -0.25,0.13 -0.26,0.13 -0.25,0.12 -0.25,0.13 -0.26,0.12 -0.25,0.13 -0.25,0.12 -0.25,0.12 -0.26,0.13 -0.25,0.12 -0.25,0.12 -0.26,0.12 -0.25,0.12 -0.25,0.13 -0.25,0.12 -0.26,0.12 -0.25,0.12 -0.25,0.12 -0.26,0.11 -0.25,0.12 -0.25,0.12 -0.25,0.12 -0.26,0.12 -0.25,0.11 -0.25,0.12 -0.26,0.12 -0.25,0.11 -0.25,0.12 -0.25,0.11 -0.26,0.12 -0.25,0.11 -0.25,0.12 -0.26,0.11 -0.25,0.12 -0.25,0.11 -0.26,0.11 -0.25,0.11 -0.25,0.12 -0.25,0.11 -0.26,0.11 -0.25,0.11 -0.25,0.11 -0.26,0.11 -0.25,0.11 -0.25,0.11 -0.25,0.11 -0.26,0.11 -0.25,0.11 -0.25,0.11 -0.26,0.11 -0.25,0.11 -0.25,0.1 -0.25,0.11 -0.26,0.11 -0.25,0.1 -0.25,0.11 -0.26,0.11 -0.25,0.1 -0.25,0.11 -0.25,0.1 -0.26,0.11 -0.25,0.1 -0.25,0.11 -0.26,0.1 -0.25,0.1 -0.25,0.11 -0.26,0.1 -0.25,0.1 -0.25,0.11 -0.25,0.1 -0.26,0.1 -0.25,0.1 -0.25,0.1 -0.26,0.11 -0.25,0.1 -0.25,0.1 -0.25,0.1 -0.26,0.1 -0.25,0.1 -0.25,0.1 -0.26,0.1 -0.25,0.1 -0.25,0.09 -0.25,0.1 -0.26,0.1 -0.25,0.1 -0.25,0.1 -0.26,0.09 -0.25,0.1 -0.25,0.1 -0.25,0.1 -0.26,0.09 -0.25,0.1 -0.25,0.09 -0.26,0.1 -0.25,0.1 -0.25,0.09 -0.26,0.1 -0.25,0.09 -0.25,0.1 -0.25,0.09 -0.26,0.09 -0.25,0.1 -0.25,0.09 -0.26,0.09 -0.25,0.1 -0.25,0.09 -0.25,0.09 -0.26,0.1 -0.25,0.09 -0.25,0.09 -0.26,0.09 -0.25,0.09 -0.25,0.1 -0.25,0.09 -0.26,0.09 -0.25,0.09 -0.25,0.09 -0.26,0.09 -0.25,0.09 -0.25,0.09 -0.25,0.09 -0.26,0.09 -0.25,0.09 -0.25,0.09 -0.26,0.08 -0.25,0.09 -0.25,0.09 -0.26,0.09 -0.25,0.09 -0.25,0.09 -0.25,0.08 -0.26,0.09 -0.25,0.09 -0.25,0.08 -0.26,0.09 -0.25,0.09 -0.25,0.08 -0.25,0.09 -0.26,0.09 -0.25,0.08 -0.25,0.09 -0.26,0.08 -0.25,0.09 -0.25,0.08 -0.25,0.09 -0.26,0.08 -0.25,0.09 -0.25,0.08 -0.26,0.09 -0.25,0.08 -0.25,0.08 z" />
          <path
             inkscape:connector-curvature="0"
             id="path6881"
             style="fill:none;stroke:#291711;stroke-width:4.26999998;stroke-linecap:butt;stroke-linejoin:round;stroke-miterlimit:10;stroke-dasharray:none;stroke-opacity:1"
             d="m 42.64,208.34 0.25,0.03 0.25,0.03 0.26,0.03 0.25,0.02 0.25,0.03 0.26,0.03 0.25,0.03 0.25,0.02 0.25,0.03 0.26,0.03 0.25,0.03 0.25,0.02 0.26,0.03 0.25,0.03 0.25,0.03 0.25,0.02 0.26,0.03 0.25,0.03 0.25,0.02 0.26,0.03 0.25,0.03 0.25,0.03 0.25,0.02 0.26,0.03 0.25,0.03 0.25,0.02 0.26,0.03 0.25,0.03 0.25,0.02 0.26,0.03 0.25,0.03 0.25,0.03 0.25,0.02 0.26,0.03 0.25,0.03 0.25,0.02 0.26,0.03 0.25,0.03 0.25,0.02 0.25,0.03 0.26,0.02 0.25,0.03 0.25,0.03 0.26,0.02 0.25,0.03 0.25,0.03 0.25,0.02 0.26,0.03 0.25,0.03 0.25,0.02 0.26,0.03 0.25,0.02 0.25,0.03 0.25,0.03 0.26,0.02 0.25,0.03 0.25,0.03 0.26,0.02 0.25,0.03 0.25,0.02 0.26,0.03 0.25,0.03 0.25,0.02 0.25,0.03 0.26,0.02 0.25,0.03 0.25,0.02 0.26,0.03 0.25,0.03 0.25,0.02 0.25,0.03 0.26,0.02 0.25,0.03 0.25,0.02 0.26,0.03 0.25,0.03 0.25,0.02 0.25,0.03 0.26,0.02 0.25,0.03 0.25,0.02 0.26,0.03 0.25,0.02 0.25,0.03 0.25,0.02 0.26,0.03 0.25,0.02 0.25,0.03 0.26,0.03 0.25,0.02 0.25,0.03 0.26,0.02 0.25,0.03 0.25,0.02 0.25,0.03 0.26,0.02 0.25,0.03 0.25,0.02 0.26,0.03 0.25,0.02 0.25,0.03 0.25,0.02 0.26,0.02 0.25,0.03 0.25,0.02 0.26,0.03 0.25,0.02 0.25,0.03 0.25,0.02 0.26,0.03 0.25,0.02 0.25,0.03 0.26,0.02 0.25,0.03 0.25,0.02 0.25,0.03 0.26,0.02 0.25,0.02 0.25,0.03 0.26,0.02 0.25,0.03 0.25,0.02 0.26,0.03 0.25,0.02 0.25,0.02 0.25,0.03 0.26,0.02 0.25,0.03 0.25,0.02 0.26,0.02 0.25,0.03 0.25,0.02 0.25,0.03 0.26,0.02 0.25,0.02 0.25,0.03 0.26,0.02 0.25,0.03 0.25,0.02 0.25,0.02 0.26,0.03 0.25,0.02 0.25,0.03 0.26,0.02 0.25,0.02 0.25,0.03 0.25,0.02 0.26,0.02 0.25,0.03 0.25,0.02 0.26,0.02 0.25,0.03 0.25,0.02 0.25,0.03 0.26,0.02 0.25,0.02 0.25,0.03 0.26,0.02 0.25,0.02 0.25,0.03 0.26,0.02 0.25,0.02 0.25,0.03 0.25,0.02 0.26,0.02 0.25,0.02 0.25,0.03 0.26,0.02 0.25,0.02 0.25,0.03 0.25,0.02 0.26,0.02 0.25,0.03 0.25,0.02 0.26,0.02 0.25,0.03 0.25,0.02 0.25,0.02 0.26,0.02 0.25,0.03 0.25,0.02 0.26,0.02 0.25,0.02 0.25,0.03 0.25,0.02 0.26,0.02 0.25,0.03 0.25,0.02 0.26,0.02 0.25,0.02 0.25,0.03 0.26,0.02 0.25,0.02 0.25,0.02 0.25,0.03 0.26,0.02 0.25,0.02 0.25,0.02 0.26,0.03 0.25,0.02 0.25,0.02 0.25,0.02 0.26,0.02 0.25,0.03 0.25,0.02 0.26,0.02 0.25,0.02 0.25,0.02 0.25,0.03 0.26,0.02 0.25,0.02 0.25,0.02 0.26,0.03 0.25,0.02 0.25,0.02 0.25,0.02 0.26,0.02 0.25,0.02 0.25,0.03 0.26,0.02 0.25,0.02 0.25,0.02 0.26,0.02 0.25,0.03 0.25,0.02 0.25,0.02 0.26,0.02 0.25,0.02 0.25,0.02 0.26,0.03 0.25,0.02 0.25,0.02 0.25,0.02 0.26,0.02 0.25,0.02 0.25,0.02 0.26,0.03 0.25,0.02 0.25,0.02 0.25,0.02 0.26,0.02 0.25,0.02 0.25,0.02 0.26,0.02 0.25,0.03 0.25,0.02 0.25,0.02 0.26,0.02 0.25,0.02 0.25,0.02 0.26,0.02 0.25,0.02 0.25,0.02 0.26,0.03 0.25,0.02 0.25,0.02 0.25,0.02 0.26,0.02 0.25,0.02 0.25,0.02 0.26,0.02 0.25,0.02 0.25,0.02 0.25,0.02 0.26,0.03 0.25,0.02 0.25,0.02 0.26,0.02 0.25,0.02 0.25,0.02 0.25,0.02 0.26,0.02 0.25,0.02 0.25,0.02 0.26,0.02 0.25,0.02 0.25,0.02 0.25,0.02 0.26,0.02 0.25,0.02 0.25,0.02 0.26,0.02 0.25,0.02 0.25,0.02 0.26,0.03 0.25,0.02 0.25,0.02 0.25,0.02 0.26,0.02 0.25,0.02 0.25,0.02 0.26,0.02 0.25,0.02 0.25,0.02 0.25,0.02 0.26,0.02 0.25,0.02 0.25,0.02 0.26,0.02 0.25,0.02 0.25,0.02 0.25,0.02 0.26,0.02 0.25,0.02 0.25,0.02 0.26,0.02 0.25,0.02 0.25,0.02 0.25,0.02 0.26,0.01 0.25,0.02 0.25,0.02 0.26,0.02 0.25,0.02 0.25,0.02 0.25,0.02 0.26,0.02 0.25,0.02 0.25,0.02 0.26,0.02 0.25,0.02 0.25,0.02 0.26,0.02 0.25,0.02 0.25,0.02 0.25,0.02 0.26,0.02 0.25,0.02 0.25,0.02 0.26,0.01 0.25,0.02 0.25,0.02 0.25,0.02 0.26,0.02 0.25,0.02 0.25,0.02 0.26,0.02 0.25,0.02 0.25,0.02 0.25,0.02 0.26,0.01 0.25,0.02 0.25,0.02 0.26,0.02 0.25,0.02 0.25,0.02 0.25,0.02 0.26,0.02 0.25,0.02 0.25,0.02 0.26,0.01 0.25,0.02 0.25,0.02 0.26,0.02 0.25,0.02 0.25,0.02 0.25,0.02 0.26,0.02 0.25,0.01 0.25,0.02 0.26,0.02 0.25,0.02 0.25,0.02 0.25,0.02 0.26,0.02 0.25,0.01 0.25,0.02 0.26,0.02 0.25,0.02 0.25,0.02 0.25,0.02 0.26,0.01 0.25,0.02 0.25,0.02 0.26,0.02 0.25,0.02 0.25,0.02 0.25,0.01 0.26,0.02 0.25,0.02 0.25,0.02 0.26,0.02 0.25,0.01 0.25,0.02 0.26,0.02 0.25,0.02 0.25,0.02 0.25,0.02 0.26,0.01 0.25,0.02 0.25,0.02 0.26,0.02 0.25,0.01 0.25,0.02 0.25,0.02 0.26,0.02 0.25,0.02 0.25,0.01 0.26,0.02 0.25,0.02 0.25,0.02 0.25,0.02 0.26,0.01 0.25,0.02 0.25,0.02 0.26,0.02 0.25,0.01 0.25,0.02 0.25,0.02 0.26,0.02 0.25,0.01 0.25,0.02 0.26,0.02 0.25,0.02 0.25,0.01 0.26,0.02 0.25,0.02 0.25,0.02 0.25,0.01 0.26,0.02 0.25,0.02 0.25,0.02 0.26,0.01 0.25,0.02 0.25,0.02 0.25,0.01 0.26,0.02 0.25,0.02 0.25,0.02 0.26,0.01 0.25,0.02 0.25,0.02 0.25,0.02 0.26,0.01 0.25,0.02 0.25,0.02 0.26,0.01 0.25,0.02 0.25,0.02 0.25,0.01 0.26,0.02 0.25,0.02 0.25,0.02 0.26,0.01 0.25,0.02 0.25,0.02 0.26,0.01 0.25,0.02 0.25,0.02 0.25,0.01 0.26,0.02 0.25,0.02 0.25,0.01 0.26,0.02 0.25,0.02 0.25,0.01 0.25,0.02 0.26,0.02 0.25,0.01 0.25,0.02 0.26,0.02 0.25,0.01 0.25,0.02 0.25,0.02 0.26,0.01 0.25,0.02 0.25,0.02 0.26,0.01 0.25,0.02 0.25,0.01 0.25,0.02 0.26,0.02 0.25,0.01 0.25,0.02 0.26,0.02 0.25,0.01 0.25,0.02 0.25,0.02 0.26,0.01 0.25,0.02 0.25,0.01 0.26,0.02 0.25,0.02 0.25,0.01 0.26,0.02 0.25,0.01 0.25,0.02 0.25,0.02 0.26,0.01 0.25,0.02 0.25,0.01 0.26,0.02 0.25,0.02 0.25,0.01 0.25,0.02 0.26,0.01 0.25,0.02 0.25,0.02 0.26,0.01 0.25,0.02 0.25,0.01 0.25,0.02 0.26,0.01 0.25,0.02 0.25,0.02 0.26,0.01 0.25,0.02 0.25,0.01 0.25,0.02 0.26,0.01 0.25,0.02 0.25,0.02 0.26,0.01 0.25,0.02 0.25,0.01 0.26,0.02 0.25,0.01 0.25,0.02 0.25,0.01 0.26,0.02 0.25,0.02 0.25,0.01 0.26,0.02 0.25,0.01 0.25,0.02 0.25,0.01 0.26,0.02 0.25,0.01 0.25,0.02 0.26,0.01 0.25,0.02 0.25,0.01 0.25,0.02 0.26,0.01 0.25,0.02 0.25,0.02 0.26,0.01 0.25,0.02 0.25,0.01 0.25,0.02 0.26,0.01 0.25,0.02 0.25,0.01 0.26,0.02 0.25,0.01 0.25,0.02 0.26,0.01 0.25,0.02 0.25,0.01 0.25,0.02 0.26,0.01 0.25,0.02 0.25,0.01 0.26,0.02 0.25,0.01 0.25,0.01 0.25,0.02 0.26,0.01 0.25,0.02 0.25,0.01 0.26,0.02 0.25,0.01 0.25,0.02 0.25,0.01 0.26,0.02 0.25,0.01 0.25,0.02 0.26,0.01 0.25,0.02 0.25,0.01 0.25,0.01 0.26,0.02 0.25,0.01 0.25,0.02 0.26,0.01 0.25,0.02 0.25,0.01 0.26,0.02 0.25,0.01 0.25,0.02 0.25,0.01 0.26,0.01 0.25,0.02 0.25,0.01 0.26,0.02 0.25,0.01 0.25,0.02 0.25,0.01 0.26,0.01 0.25,0.02 0.25,0.01 0.26,0.02 0.25,0.01 0.25,0.01 0.25,0.02 0.26,0.01 0.25,0.02 0.25,0.01 0.26,0.02 0.25,0.01 0.25,0.01 0.25,0.02 0.26,0.01 0.25,0.02 0.25,0.01 0.26,0.01 0.25,0.02 0.25,0.01 0.26,0.02 0.25,0.01 0.25,0.01 0.25,0.02 0.26,0.01 0.25,0.01 0.25,0.02 0.26,0.01 0.25,0.02 0.25,0.01 0.25,0.01 0.26,0.02 0.25,0.01 0.25,0.01 0.26,0.02 0.25,0.01 0.25,0.02 0.25,0.01 0.26,0.01 0.25,0.02 0.25,0.01 0.26,0.01 0.25,0.02 0.25,0.01 0.25,0.01 0.26,0.02 0.25,0.01 0.25,0.01 0.26,0.02 0.25,0.01 0.25,0.01 0.25,0.02 0.26,0.01 0.25,0.02 0.25,0.01 0.26,0.01 0.25,0.02 0.25,0.01 0.26,0.01 0.25,0.01 0.25,0.02 0.25,0.01 0.26,0.01 0.25,0.02 0.25,0.01 0.26,0.01 0.25,0.02 0.25,0.01 0.25,0.01 0.26,0.02 0.25,0.01 0.25,0.01 0.26,0.02 0.25,0.01 0.25,0.01 0.25,0.02 0.26,0.01 0.25,0.01 0.25,0.01 0.26,0.02 0.25,0.01 0.25,0.01 0.25,0.02 0.26,0.01 0.25,0.01 0.25,0.01 0.26,0.02 0.25,0.01 0.25,0.01 0.26,0.02 0.25,0.01 0.25,0.01 0.25,0.01 0.26,0.02 0.25,0.01 0.25,0.01 0.26,0.02 0.25,0.01 0.25,0.01 0.25,0.01 0.26,0.02 0.25,0.01 0.25,0.01 0.26,0.01 0.25,0.02 0.25,0.01 0.25,0.01 0.26,0.01 0.25,0.02 0.25,0.01 0.26,0.01 0.25,0.01" />
          <path
             inkscape:connector-curvature="0"
             id="path6883"
             style="fill:none;stroke:#291711;stroke-width:4.26999998;stroke-linecap:butt;stroke-linejoin:round;stroke-miterlimit:10;stroke-dasharray:8.54, 8.54;stroke-dashoffset:0;stroke-opacity:1"
             d="m 42.64,208.31 0.25,-0.08 0.25,-0.08 0.26,-0.08 0.25,-0.08 0.25,-0.07 0.26,-0.08 0.25,-0.08 0.25,-0.08 0.25,-0.08 0.26,-0.08 0.25,-0.08 0.25,-0.08 0.26,-0.08 0.25,-0.08 0.25,-0.08 0.25,-0.08 0.26,-0.08 0.25,-0.08 0.25,-0.08 0.26,-0.08 0.25,-0.09 0.25,-0.08 0.25,-0.08 0.26,-0.08 0.25,-0.09 0.25,-0.08 0.26,-0.08 0.25,-0.09 0.25,-0.08 0.26,-0.08 0.25,-0.09 0.25,-0.08 0.25,-0.09 0.26,-0.08 0.25,-0.09 0.25,-0.08 0.26,-0.09 0.25,-0.08 0.25,-0.09 0.25,-0.09 0.26,-0.08 0.25,-0.09 0.25,-0.09 0.26,-0.09 0.25,-0.08 0.25,-0.09 0.25,-0.09 0.26,-0.09 0.25,-0.09 0.25,-0.09 0.26,-0.08 0.25,-0.09 0.25,-0.09 0.25,-0.09 0.26,-0.09 0.25,-0.09 0.25,-0.1 0.26,-0.09 0.25,-0.09 0.25,-0.09 0.26,-0.09 0.25,-0.09 0.25,-0.09 0.25,-0.1 0.26,-0.09 0.25,-0.09 0.25,-0.1 0.26,-0.09 0.25,-0.09 0.25,-0.1 0.25,-0.09 0.26,-0.1 0.25,-0.09 0.25,-0.1 0.26,-0.09 0.25,-0.1 0.25,-0.09 0.25,-0.1 0.26,-0.1 0.25,-0.09 0.25,-0.1 0.26,-0.1 0.25,-0.09 0.25,-0.1 0.25,-0.1 0.26,-0.1 0.25,-0.1 0.25,-0.09 0.26,-0.1 0.25,-0.1 0.25,-0.1 0.26,-0.1 0.25,-0.1 0.25,-0.1 0.25,-0.1 0.26,-0.1 0.25,-0.11 0.25,-0.1 0.26,-0.1 0.25,-0.1 0.25,-0.1 0.25,-0.11 0.26,-0.1 0.25,-0.1 0.25,-0.1 0.26,-0.11 0.25,-0.1 0.25,-0.11 0.25,-0.1 0.26,-0.1 0.25,-0.11 0.25,-0.11 0.26,-0.1 0.25,-0.11 0.25,-0.1 0.25,-0.11 0.26,-0.11 0.25,-0.1 0.25,-0.11 0.26,-0.11 0.25,-0.1 0.25,-0.11 0.26,-0.11 0.25,-0.11 0.25,-0.11 0.25,-0.11 0.26,-0.11 0.25,-0.11 0.25,-0.11 0.26,-0.11 0.25,-0.11 0.25,-0.11 0.25,-0.11 0.26,-0.11 0.25,-0.11 0.25,-0.11 0.26,-0.12 0.25,-0.11 0.25,-0.11 0.25,-0.11 0.26,-0.12 0.25,-0.11 0.25,-0.12 0.26,-0.11 0.25,-0.11 0.25,-0.12 0.25,-0.11 0.26,-0.12 0.25,-0.12 0.25,-0.11 0.26,-0.12 0.25,-0.11 0.25,-0.12 0.25,-0.12 0.26,-0.12 0.25,-0.11 0.25,-0.12 0.26,-0.12 0.25,-0.12 0.25,-0.12 0.26,-0.12 0.25,-0.12 0.25,-0.11 0.25,-0.12 0.26,-0.13 0.25,-0.12 0.25,-0.12 0.26,-0.12 0.25,-0.12 0.25,-0.12 0.25,-0.12 0.26,-0.13 0.25,-0.12 0.25,-0.12 0.26,-0.12 0.25,-0.13 0.25,-0.12 0.25,-0.13 0.26,-0.12 0.25,-0.12 0.25,-0.13 0.26,-0.13 0.25,-0.12 0.25,-0.13 0.25,-0.12 0.26,-0.13 0.25,-0.13 0.25,-0.12 0.26,-0.13 0.25,-0.13 0.25,-0.13 0.26,-0.12 0.25,-0.13 0.25,-0.13 0.25,-0.13 0.26,-0.13 0.25,-0.13 0.25,-0.13 0.26,-0.13 0.25,-0.13 0.25,-0.13 0.25,-0.13 0.26,-0.14 0.25,-0.13 0.25,-0.13 0.26,-0.13 0.25,-0.13 0.25,-0.14 0.25,-0.13 0.26,-0.13 0.25,-0.14 0.25,-0.13 0.26,-0.14 0.25,-0.13 0.25,-0.14 0.25,-0.13 0.26,-0.14 0.25,-0.13 0.25,-0.14 0.26,-0.14 0.25,-0.13 0.25,-0.14 0.26,-0.14 0.25,-0.14 0.25,-0.14 0.25,-0.13 0.26,-0.14 0.25,-0.14 0.25,-0.14 0.26,-0.14 0.25,-0.14 0.25,-0.14 0.25,-0.14 0.26,-0.14 0.25,-0.14 0.25,-0.15 0.26,-0.14 0.25,-0.14 0.25,-0.14 0.25,-0.14 0.26,-0.15 0.25,-0.14 0.25,-0.14 0.26,-0.15 0.25,-0.14 0.25,-0.15 0.25,-0.14 0.26,-0.15 0.25,-0.14 0.25,-0.15 0.26,-0.14 0.25,-0.15 0.25,-0.15 0.26,-0.14 0.25,-0.15 0.25,-0.15 0.25,-0.15 0.26,-0.15 0.25,-0.14 0.25,-0.15 0.26,-0.15 0.25,-0.15 0.25,-0.15 0.25,-0.15 0.26,-0.15 0.25,-0.15 0.25,-0.15 0.26,-0.15 0.25,-0.15 0.25,-0.16 0.25,-0.15 0.26,-0.15 0.25,-0.15 0.25,-0.16 0.26,-0.15 0.25,-0.15 0.25,-0.16 0.25,-0.15 0.26,-0.16 0.25,-0.15 0.25,-0.16 0.26,-0.15 0.25,-0.16 0.25,-0.15 0.26,-0.16 0.25,-0.16 0.25,-0.15 0.25,-0.16 0.26,-0.16 0.25,-0.15 0.25,-0.16 0.26,-0.16 0.25,-0.16 0.25,-0.16 0.25,-0.16 0.26,-0.16 0.25,-0.16 0.25,-0.16 0.26,-0.16 0.25,-0.16 0.25,-0.16 0.25,-0.16 0.26,-0.16 0.25,-0.16 0.25,-0.17 0.26,-0.16 0.25,-0.16 0.25,-0.16 0.25,-0.17 0.26,-0.16 0.25,-0.17 0.25,-0.16 0.26,-0.16 0.25,-0.17 0.25,-0.16 0.25,-0.17 0.26,-0.17 0.25,-0.16 0.25,-0.17 0.26,-0.16 0.25,-0.17 0.25,-0.17 0.26,-0.17 0.25,-0.16 0.25,-0.17 0.25,-0.17 0.26,-0.17 0.25,-0.17 0.25,-0.17 0.26,-0.17 0.25,-0.17 0.25,-0.17 0.25,-0.17 0.26,-0.17 0.25,-0.17 0.25,-0.17 0.26,-0.17 0.25,-0.17 0.25,-0.17 0.25,-0.18 0.26,-0.17 0.25,-0.17 0.25,-0.17 0.26,-0.18 0.25,-0.17 0.25,-0.17 0.25,-0.18 0.26,-0.17 0.25,-0.18 0.25,-0.17 0.26,-0.18 0.25,-0.17 0.25,-0.18 0.26,-0.18 0.25,-0.17 0.25,-0.18 0.25,-0.18 0.26,-0.17 0.25,-0.18 0.25,-0.18 0.26,-0.18 0.25,-0.17 0.25,-0.18 0.25,-0.18 0.26,-0.18 0.25,-0.18 0.25,-0.18 0.26,-0.18 0.25,-0.18 0.25,-0.18 0.25,-0.18 0.26,-0.18 0.25,-0.18 0.25,-0.18 0.26,-0.19 0.25,-0.18 0.25,-0.18 0.25,-0.18 0.26,-0.19 0.25,-0.18 0.25,-0.18 0.26,-0.19 0.25,-0.18 0.25,-0.18 0.26,-0.19 0.25,-0.18 0.25,-0.19 0.25,-0.18 0.26,-0.19 0.25,-0.18 0.25,-0.19 0.26,-0.18 0.25,-0.19 0.25,-0.19 0.25,-0.18 0.26,-0.19 0.25,-0.19 0.25,-0.19 0.26,-0.18 0.25,-0.19 0.25,-0.19 0.25,-0.19 0.26,-0.19 0.25,-0.19 0.25,-0.18 0.26,-0.19 0.25,-0.19 0.25,-0.19 0.25,-0.19 0.26,-0.19 0.25,-0.19 0.25,-0.2 0.26,-0.19 0.25,-0.19 0.25,-0.19 0.26,-0.19 0.25,-0.19 0.25,-0.2 0.25,-0.19 0.26,-0.19 0.25,-0.19 0.25,-0.2 0.26,-0.19 0.25,-0.19 0.25,-0.2 0.25,-0.19 0.26,-0.2 0.25,-0.19 0.25,-0.19 0.26,-0.2 0.25,-0.19 0.25,-0.2 0.25,-0.19 0.26,-0.2 0.25,-0.2 0.25,-0.19 0.26,-0.2 0.25,-0.2 0.25,-0.19 0.25,-0.2 0.26,-0.2 0.25,-0.19 0.25,-0.2 0.26,-0.2 0.25,-0.2 0.25,-0.2 0.26,-0.19 0.25,-0.2 0.25,-0.2 0.25,-0.2 0.26,-0.2 0.25,-0.2 0.25,-0.2 0.26,-0.2 0.25,-0.2 0.25,-0.2 0.25,-0.2 0.26,-0.2 0.25,-0.2 0.25,-0.2 0.26,-0.2 0.25,-0.2 0.25,-0.2 0.25,-0.21 0.26,-0.2 0.25,-0.2 0.25,-0.2 0.26,-0.2 0.25,-0.21 0.25,-0.2 0.25,-0.2 0.26,-0.2 0.25,-0.21 0.25,-0.2 0.26,-0.2 0.25,-0.21 0.25,-0.2 0.25,-0.21 0.26,-0.2 0.25,-0.2 0.25,-0.21 0.26,-0.2 0.25,-0.21 0.25,-0.2 0.26,-0.21 0.25,-0.2 0.25,-0.21 0.25,-0.21 0.26,-0.2 0.25,-0.21 0.25,-0.2 0.26,-0.21 0.25,-0.21 0.25,-0.2 0.25,-0.21 0.26,-0.21 0.25,-0.2 0.25,-0.21 0.26,-0.21 0.25,-0.2 0.25,-0.21 0.25,-0.21 0.26,-0.21 0.25,-0.2 0.25,-0.21 0.26,-0.21 0.25,-0.21 0.25,-0.21 0.25,-0.21 0.26,-0.2 0.25,-0.21 0.25,-0.21 0.26,-0.21 0.25,-0.21 0.25,-0.21 0.26,-0.21 0.25,-0.21 0.25,-0.21 0.25,-0.21 0.26,-0.21 0.25,-0.21 0.25,-0.21 0.26,-0.21 0.25,-0.21 0.25,-0.21 0.25,-0.21 0.26,-0.21 0.25,-0.21 0.25,-0.21 0.26,-0.21 0.25,-0.21 0.25,-0.21 0.25,-0.22 0.26,-0.21 0.25,-0.21 0.25,-0.21 0.26,-0.21 0.25,-0.21 0.25,-0.21 0.25,-0.22 0.26,-0.21 0.25,-0.21 0.25,-0.21 0.26,-0.21 0.25,-0.22 0.25,-0.21 0.26,-0.21 0.25,-0.21 0.25,-0.22 0.25,-0.21 0.26,-0.21 0.25,-0.21 0.25,-0.22 0.26,-0.21 0.25,-0.21 0.25,-0.22 0.25,-0.21 0.26,-0.21 0.25,-0.21 0.25,-0.22 0.26,-0.21 0.25,-0.21 0.25,-0.22 0.25,-0.21 0.26,-0.22 0.25,-0.21 0.25,-0.21 0.26,-0.22 0.25,-0.21 0.25,-0.21 0.25,-0.22 0.26,-0.21 0.25,-0.21 0.25,-0.22 0.26,-0.21 0.25,-0.22 0.25,-0.21 0.26,-0.21 0.25,-0.22 0.25,-0.21 0.25,-0.22 0.26,-0.21 0.25,-0.22 0.25,-0.21 0.26,-0.21 0.25,-0.22 0.25,-0.21 0.25,-0.22 0.26,-0.21 0.25,-0.21 0.25,-0.22 0.26,-0.21 0.25,-0.22 0.25,-0.21 0.25,-0.22 0.26,-0.21 0.25,-0.22 0.25,-0.21 0.26,-0.21 0.25,-0.22 0.25,-0.21 0.25,-0.22 0.26,-0.21 0.25,-0.22 0.25,-0.21 0.26,-0.21 0.25,-0.22 0.25,-0.21 0.26,-0.22 0.25,-0.21 0.25,-0.22 0.25,-0.21 0.26,-0.21 0.25,-0.22 0.25,-0.21 0.26,-0.22 0.25,-0.21 0.25,-0.22 0.25,-0.21 0.26,-0.21 0.25,-0.22 0.25,-0.21 0.26,-0.22 0.25,-0.21 0.25,-0.21 0.25,-0.22 0.26,-0.21 0.25,-0.22 0.25,-0.21 0.26,-0.21 0.25,-0.22 0.25,-0.21 0.25,-0.21 0.26,-0.22 0.25,-0.21 0.25,-0.21 0.26,-0.22 0.25,-0.21 0.25,-0.21 0.25,-0.22 0.26,-0.21 0.25,-0.21 0.25,-0.22 0.26,-0.21 0.25,-0.21 0.25,-0.22 0.26,-0.21 0.25,-0.21 0.25,-0.21 0.25,-0.22 0.26,-0.21 0.25,-0.21 0.25,-0.21 0.26,-0.22 0.25,-0.21 0.25,-0.21 0.25,-0.21 0.26,-0.21 0.25,-0.22 0.25,-0.21 0.26,-0.21 0.25,-0.21 0.25,-0.21 0.25,-0.21 0.26,-0.22 0.25,-0.21 0.25,-0.21 0.26,-0.21 0.25,-0.21 0.25,-0.21 0.25,-0.21 0.26,-0.21 0.25,-0.21 0.25,-0.21 0.26,-0.21 0.25,-0.21 0.25,-0.21 0.26,-0.21 0.25,-0.21 0.25,-0.21 0.25,-0.21 0.26,-0.21 0.25,-0.21 0.25,-0.21 0.26,-0.21 0.25,-0.21 0.25,-0.21 0.25,-0.21 0.26,-0.21 0.25,-0.21 0.25,-0.2 0.26,-0.21 0.25,-0.21 0.25,-0.21 0.25,-0.21 0.26,-0.2 0.25,-0.21 0.25,-0.21 0.26,-0.21 0.25,-0.2" />
        </g>
      </g>
      <g
         id="g6885" />
      <g
         id="g6887" />
      <g
         id="g6889" />
      <g
         id="g6891" />
      <g
         id="g6893" />
      <g
         id="g6895" />
      <g
         id="g6897" />
      <g
         id="g6899" />
      <g
         id="g6901" />
      <g
         id="g6903" />
      <g
         id="g6905" />
      <g
         id="g6907" />
      <g
         id="g6909" />
      <g
         id="g6911" />
      <g
         id="g6913" />
      <g
         id="g6915">
        <text
           id="text6919"
           style="font-variant:normal;font-weight:normal;font-size:10px;font-family:Helvetica;-inkscape-font-specification:Helvetica;writing-mode:lr-tb;fill:#000000;fill-opacity:1;fill-rule:nonzero;stroke:none"
           transform="matrix(0,1,1,0,26.66,37.62)">
          <tspan
             id="tspan6917"
             sodipodi:role="line"
             y="0"
             x="0 5.5599999 8.3400002">0.2</tspan>
        </text>
        <text
           id="text6923"
           style="font-variant:normal;font-weight:normal;font-size:10px;font-family:Helvetica;-inkscape-font-specification:Helvetica;writing-mode:lr-tb;fill:#000000;fill-opacity:1;fill-rule:nonzero;stroke:none"
           transform="matrix(0,1,1,0,26.66,84.4)">
          <tspan
             id="tspan6921"
             sodipodi:role="line"
             y="0"
             x="0 5.5599999 8.3400002">0.4</tspan>
        </text>
        <text
           id="text6927"
           style="font-variant:normal;font-weight:normal;font-size:10px;font-family:Helvetica;-inkscape-font-specification:Helvetica;writing-mode:lr-tb;fill:#000000;fill-opacity:1;fill-rule:nonzero;stroke:none"
           transform="matrix(0,1,1,0,26.66,131.18)">
          <tspan
             id="tspan6925"
             sodipodi:role="line"
             y="0"
             x="0 5.5599999 8.3400002">0.6</tspan>
        </text>
        <text
           id="text6931"
           style="font-variant:normal;font-weight:normal;font-size:10px;font-family:Helvetica;-inkscape-font-specification:Helvetica;writing-mode:lr-tb;fill:#000000;fill-opacity:1;fill-rule:nonzero;stroke:none"
           transform="matrix(0,1,1,0,26.66,177.96)">
          <tspan
             id="tspan6929"
             sodipodi:role="line"
             y="0"
             x="0 5.5599999 8.3400002">0.8</tspan>
        </text>
        <text
           id="text6935"
           style="font-variant:normal;font-weight:normal;font-size:10px;font-family:Helvetica;-inkscape-font-specification:Helvetica;writing-mode:lr-tb;fill:#000000;fill-opacity:1;fill-rule:nonzero;stroke:none"
           transform="matrix(0,1,1,0,26.66,224.74)">
          <tspan
             id="tspan6933"
             sodipodi:role="line"
             y="0"
             x="0 5.5599999 8.3400002">1.0</tspan>
        </text>
      </g>
      <g
         id="g6937" />
      <g
         id="g6939">
        <path
           inkscape:connector-curvature="0"
           id="path6941"
           style="fill:none;stroke:#333333;stroke-width:1.07000005;stroke-linecap:butt;stroke-linejoin:round;stroke-miterlimit:10;stroke-dasharray:none;stroke-opacity:1"
           d="m 31.05,44.57 h 2.74" />
        <path
           inkscape:connector-curvature="0"
           id="path6943"
           style="fill:none;stroke:#333333;stroke-width:1.07000005;stroke-linecap:butt;stroke-linejoin:round;stroke-miterlimit:10;stroke-dasharray:none;stroke-opacity:1"
           d="m 31.05,91.35 h 2.74" />
        <path
           inkscape:connector-curvature="0"
           id="path6945"
           style="fill:none;stroke:#333333;stroke-width:1.07000005;stroke-linecap:butt;stroke-linejoin:round;stroke-miterlimit:10;stroke-dasharray:none;stroke-opacity:1"
           d="m 31.05,138.13 h 2.74" />
        <path
           inkscape:connector-curvature="0"
           id="path6947"
           style="fill:none;stroke:#333333;stroke-width:1.07000005;stroke-linecap:butt;stroke-linejoin:round;stroke-miterlimit:10;stroke-dasharray:none;stroke-opacity:1"
           d="m 31.05,184.91 h 2.74" />
        <path
           inkscape:connector-curvature="0"
           id="path6949"
           style="fill:none;stroke:#333333;stroke-width:1.07000005;stroke-linecap:butt;stroke-linejoin:round;stroke-miterlimit:10;stroke-dasharray:none;stroke-opacity:1"
           d="m 31.05,231.69 h 2.74" />
      </g>
      <g
         id="g6951" />
      <g
         id="g6953" />
      <g
         id="g6955" />
      <g
         id="g6957" />
      <g
         id="g6959" />
      <g
         id="g6961" />
      <g
         id="g6963" />
      <g
         id="g6965" />
      <g
         id="g6967" />
      <g
         id="g6969">
        <path
           inkscape:connector-curvature="0"
           id="path6971"
           style="fill:none;stroke:#333333;stroke-width:1.07000005;stroke-linecap:butt;stroke-linejoin:round;stroke-miterlimit:10;stroke-dasharray:none;stroke-opacity:1"
           d="m 38.52,31.05 v 2.74" />
        <path
           inkscape:connector-curvature="0"
           id="path6973"
           style="fill:none;stroke:#333333;stroke-width:1.07000005;stroke-linecap:butt;stroke-linejoin:round;stroke-miterlimit:10;stroke-dasharray:none;stroke-opacity:1"
           d="m 87.93,31.05 v 2.74" />
        <path
           inkscape:connector-curvature="0"
           id="path6975"
           style="fill:none;stroke:#333333;stroke-width:1.07000005;stroke-linecap:butt;stroke-linejoin:round;stroke-miterlimit:10;stroke-dasharray:none;stroke-opacity:1"
           d="m 137.33,31.05 v 2.74" />
        <path
           inkscape:connector-curvature="0"
           id="path6977"
           style="fill:none;stroke:#333333;stroke-width:1.07000005;stroke-linecap:butt;stroke-linejoin:round;stroke-miterlimit:10;stroke-dasharray:none;stroke-opacity:1"
           d="m 186.73,31.05 v 2.74" />
      </g>
      <g
         id="g6979" />
      <g
         id="g6981">
        <text
           id="text6985"
           style="font-variant:normal;font-weight:normal;font-size:10px;font-family:Helvetica;-inkscape-font-specification:Helvetica;writing-mode:lr-tb;fill:#4d4d4d;fill-opacity:1;fill-rule:nonzero;stroke:none"
           transform="matrix(1,0,0,-1,35.74,21.68)">
          <tspan
             id="tspan6983"
             y="0"
             x="0">0</tspan>
        </text>
        <text
           id="text6989"
           style="font-variant:normal;font-weight:normal;font-size:10px;font-family:Helvetica;-inkscape-font-specification:Helvetica;writing-mode:lr-tb;fill:#4d4d4d;fill-opacity:1;fill-rule:nonzero;stroke:none"
           transform="matrix(1,0,0,-1,85.15,21.68)">
          <tspan
             id="tspan6987"
             y="0"
             x="0">3</tspan>
        </text>
        <text
           id="text6993"
           style="font-variant:normal;font-weight:normal;font-size:10px;font-family:Helvetica;-inkscape-font-specification:Helvetica;writing-mode:lr-tb;fill:#4d4d4d;fill-opacity:1;fill-rule:nonzero;stroke:none"
           transform="matrix(1,0,0,-1,134.55,21.68)">
          <tspan
             id="tspan6991"
             y="0"
             x="0">6</tspan>
        </text>
        <text
           id="text6997"
           style="font-variant:normal;font-weight:normal;font-size:10px;font-family:Helvetica;-inkscape-font-specification:Helvetica;writing-mode:lr-tb;fill:#4d4d4d;fill-opacity:1;fill-rule:nonzero;stroke:none"
           transform="matrix(1,0,0,-1,183.95,21.68)">
          <tspan
             id="tspan6995"
             y="0"
             x="0">9</tspan>
        </text>
      </g>
      <g
         id="g6999" />
      <g
         id="g7001" />
      <g
         id="g7003" />
      <g
         id="g7005" />
      <g
         id="g7007" />
      <g
         id="g7009">
        <text
           id="text7013"
           style="font-variant:normal;font-weight:normal;font-size:12px;font-family:Helvetica;-inkscape-font-specification:Helvetica;writing-mode:lr-tb;fill:#000000;fill-opacity:1;fill-rule:nonzero;stroke:none"
           transform="matrix(1,0,0,-1,86.31,8.12)">
          <tspan
             id="tspan7011"
             sodipodi:role="line"
             y="0"
             x="0 6.6719999 9.3360004 12.672 16.007999 22.68 26.676001 30.011999 37.02 40.355999 49.02 55.692001 59.028 62.363998 65.699997 69.695999 75.695999 85.692001">Litter + Duff (cm)</tspan>
        </text>
      </g>
      <g
         id="g7015" />
      <g
         id="g7017">
        <text
           id="text7021"
           style="font-variant:normal;font-weight:normal;font-size:12px;font-family:Helvetica;-inkscape-font-specification:Helvetica;writing-mode:lr-tb;fill:#000000;fill-opacity:1;fill-rule:nonzero;stroke:none"
           transform="matrix(0,1,1,0,14.1,96.76)">
          <tspan
             id="tspan7019"
             sodipodi:role="line"
             y="0"
             x="0 8.0039997 12 18.672001 25.344 32.015999 36.492001 39.827999 42.492001 49.164001 55.835999 59.172001 67.176003 69.839996 76.512001">Proportion Pine</tspan>
        </text>
      </g>
      <g
         id="g7023" />
      <g
         id="g7025" />
      <g
         id="g7027" />
      <g
         id="g7029" />
      <g
         id="g7031" />
      <g
         id="g7033" />
      <g
         id="g7035" />
      <g
         id="g7037" />
      <g
         id="g7039" />
      <g
         id="g7041" />
      <g
         id="g7043" />
      <g
         id="g7045" />
    </g>
    <text
       id="text5068"
       style="font-style:normal;font-variant:normal;font-weight:normal;font-stretch:normal;font-size:3.52777767px;font-family:Helvetica;-inkscape-font-specification:'Helvetica, Normal';font-variant-ligatures:normal;font-variant-caps:normal;font-variant-numeric:normal;font-feature-settings:normal;text-align:start;writing-mode:lr-tb;text-anchor:start;fill:#000000;fill-opacity:1;fill-rule:nonzero;stroke:none;stroke-width:0.35277775"
       x="30.864784"
       y="82.622139">
      <tspan
         style="stroke-width:0.35277775"
         sodipodi:role="line"
         id="tspan5402"
         x="30.864784"
         y="82.622139">Planted</tspan>
    </text>
    <text
       id="text5082"
       style="font-style:normal;font-variant:normal;font-weight:normal;font-stretch:normal;font-size:3.52777767px;font-family:Helvetica;-inkscape-font-specification:'Helvetica, Normal';font-variant-ligatures:normal;font-variant-caps:normal;font-variant-numeric:normal;font-feature-settings:normal;text-align:start;writing-mode:lr-tb;text-anchor:start;fill:#000000;fill-opacity:1;fill-rule:nonzero;stroke:none;stroke-width:0.35277775"
       x="30.526115"
       y="88.192329">
      <tspan
         style="stroke-width:0.35277775"
         sodipodi:role="line"
         id="tspan5404"
         x="30.526115"
         y="88.192329">Unplanted</tspan>
    </text>
    <path
       style="fill:#291786;fill-opacity:1;stroke:#291711;stroke-width:1.07639873px;stroke-linecap:butt;stroke-linejoin:miter;stroke-opacity:1"
       d="m 49.167544,81.268167 8.03975,6e-4"
       id="path7395"
       inkscape:connector-curvature="0"
       sodipodi:nodetypes="cc" />
    <path
       style="fill:#291711;fill-opacity:1;stroke:#291711;stroke-width:1.07599998;stroke-linecap:butt;stroke-linejoin:miter;stroke-miterlimit:4;stroke-dasharray:2.15199996, 1.07599997999999997;stroke-dashoffset:0;stroke-opacity:1"
       d="m 49.167094,86.911857 8.03975,6.1e-4"
       id="path7395-1"
       inkscape:connector-curvature="0"
       sodipodi:nodetypes="cc" />
  </g>
</svg>
