<?xml version="1.0" encoding="UTF-8" standalone="no"?>
<!-- Created with Inkscape (http://www.inkscape.org/) -->

<svg
   xmlns:dc="http://purl.org/dc/elements/1.1/"
   xmlns:cc="http://creativecommons.org/ns#"
   xmlns:rdf="http://www.w3.org/1999/02/22-rdf-syntax-ns#"
   xmlns:svg="http://www.w3.org/2000/svg"
   xmlns="http://www.w3.org/2000/svg"
   xmlns:sodipodi="http://sodipodi.sourceforge.net/DTD/sodipodi-0.dtd"
   xmlns:inkscape="http://www.inkscape.org/namespaces/inkscape"
   width="163.70123mm"
   height="88.007469mm"
   viewBox="0 0 163.70123 88.007469"
   version="1.1"
   id="svg8"
   inkscape:version="0.92.3 (2405546, 2018-03-11)"
   sodipodi:docname="LittDuff_and_tpiElev.svg"
   inkscape:export-filename="C:\Users\Quinn Sorenson\Documents\R\Git_R\postfire-management\figures\manuscript\Tiffs\LittDuff_and_tpiElev.png"
   inkscape:export-xdpi="400"
   inkscape:export-ydpi="400">
  <defs
     id="defs2">
    <clipPath
       id="clipPath851"
       clipPathUnits="userSpaceOnUse">
      <path
         inkscape:connector-curvature="0"
         id="path849"
         d="M 0,0 H 234 V 248.4 H 0 Z" />
    </clipPath>
    <clipPath
       id="clipPath863"
       clipPathUnits="userSpaceOnUse">
      <path
         inkscape:connector-curvature="0"
         id="path861"
         d="M 47.19,34.23 H 228.52 V 242.92 H 47.19 Z" />
    </clipPath>
    <clipPath
       id="clipPath1177"
       clipPathUnits="userSpaceOnUse">
      <path
         inkscape:connector-curvature="0"
         id="path1175"
         d="M 46.75,33.79 H 228.52 V 242.92 H 46.75 Z" />
    </clipPath>
  </defs>
  <sodipodi:namedview
     id="base"
     pagecolor="#ffffff"
     bordercolor="#666666"
     borderopacity="1.0"
     inkscape:pageopacity="0.0"
     inkscape:pageshadow="2"
     inkscape:zoom="2.02"
     inkscape:cx="298.28291"
     inkscape:cy="160.15148"
     inkscape:document-units="mm"
     inkscape:current-layer="layer1"
     showgrid="false"
     inkscape:window-width="1920"
     inkscape:window-height="1001"
     inkscape:window-x="-9"
     inkscape:window-y="-9"
     inkscape:window-maximized="1" />
  <metadata
     id="metadata5">
    <rdf:RDF>
      <cc:Work
         rdf:about="">
        <dc:format>image/svg+xml</dc:format>
        <dc:type
           rdf:resource="http://purl.org/dc/dcmitype/StillImage" />
        <dc:title></dc:title>
      </cc:Work>
    </rdf:RDF>
  </metadata>
  <g
     inkscape:label="Layer 1"
     inkscape:groupmode="layer"
     id="layer1"
     transform="translate(-2.5702348,-0.99252982)">
    <g
       transform="matrix(0.35277777,0,0,-0.35277777,2.5702348,89)"
       inkscape:label="litduf"
       id="g823">
      <g
         id="g825" />
      <g
         id="g827" />
      <g
         id="g829" />
      <g
         id="g831" />
      <g
         id="g833" />
      <g
         id="g835" />
      <g
         id="g837" />
      <g
         id="g839" />
      <g
         id="g841" />
      <g
         id="g843" />
      <g
         id="g845">
        <g
           clip-path="url(#clipPath851)"
           id="g847">
          <path
             inkscape:connector-curvature="0"
             id="path853"
             style="fill:#ffffff;fill-opacity:1;fill-rule:nonzero;stroke:#ffffff;stroke-width:1.07000005;stroke-linecap:round;stroke-linejoin:round;stroke-miterlimit:10;stroke-dasharray:none;stroke-opacity:1"
             d="M 0,0 H 234 V 248.4 H 0 Z" />
        </g>
      </g>
      <g
         id="g855" />
      <g
         id="g857">
        <g
           clip-path="url(#clipPath863)"
           id="g859">
          <path
             inkscape:connector-curvature="0"
             id="path865"
             style="fill:none;stroke:#000000;stroke-width:1.07000005;stroke-linecap:round;stroke-linejoin:round;stroke-miterlimit:10;stroke-dasharray:none;stroke-opacity:1"
             d="M 47.19,34.23 H 228.52 V 242.92 H 47.19 Z" />
          <path
             inkscape:connector-curvature="0"
             id="path867"
             style="fill:#291711;fill-opacity:0.14900004;fill-rule:nonzero;stroke:none"
             d="m 55.43,70.1 1.92,0.75 v 0 0 l 1.91,0.77 v 0 l 1.92,0.78 v 0 0 0 0 0 l 3.83,1.61 v 0 0 0 l 1.15,0.49 0.77,0.33 v 0 0 0 0 0 0 0 l 0.96,0.42 0.96,0.42 v 0 0 0 l 1.91,0.86 v 0 0 0 0 0 0 0 0 0 0 0 l 1.92,0.87 v 0 0 0 0 0 0 0 l 1.92,0.88 v 0 0 0 0 0 0 0 0 l 1.91,0.91 1.92,0.92 v 0 0 0 0 l 1.92,0.94 1.92,0.95 v 0 0 0 0 0 l 0.95,0.48 0.96,0.49 v 0 0 0 0 0 0 0 0 0 0 0 l 1.92,0.99 v 0 0 0 0 l 1.92,1.02 v 0 0 L 89.93,86 v 0 0 0 0 0 0 0 l 0.96,0.53 0.96,0.52 v 0 l 1.92,1.07 v 0 l 1.91,1.09 v 0 0 l 1.92,1.11 v 0 l 1.92,1.13 v 0 0 0 l 1.91,1.16 v 0 0 0 l 1.92,1.17 v 0 0 0 0 l 1.92,1.2 v 0 0 0 0 l 1.91,1.23 v 0 0 l 1.92,1.24 v 0 0 0 0 0 l 1.92,1.27 1.91,1.3 1.92,1.32 v 0 l 1.92,1.34 1.92,1.38 1.91,1.4 v 0 0 l 1.92,1.42 1.92,1.46 1.91,1.48 1.92,1.52 v 0 l 1.92,1.54 1.91,1.58 v 0 0 0 l 1.92,1.6 v 0 l 1.92,1.64 v 0 0 0 l 3.83,3.37 v 0 l 1.92,1.74 v 0 0 l 1.91,1.77 3.84,3.65 v 0 l 5.75,5.75 1.92,1.99 7.66,8.38 9.59,11.44 1.91,2.43 1.92,2.48 1.92,2.52 1.91,2.58 5.75,8.04 24.92,40.87 9.59,18.72 V 108.86 l -9.59,-5.63 -24.92,-13.33 -5.75,-2.83 -1.91,-0.92 -1.92,-0.91 -1.92,-0.91 -1.91,-0.89 -9.59,-4.34 -7.66,-3.31 -1.92,-0.81 -5.75,-2.37 v 0 l -3.84,-1.54 -1.91,-0.76 v 0 0 l -1.92,-0.75 v 0 l -3.83,-1.47 v 0 0 0 l -1.92,-0.73 v 0 l -1.92,-0.72 v 0 0 0 l -1.91,-0.71 -1.92,-0.7 v 0 l -1.92,-0.7 -1.91,-0.68 -1.92,-0.68 -1.92,-0.68 v 0 0 l -1.91,-0.66 -1.92,-0.66 -1.92,-0.65 v 0 l -1.92,-0.65 -1.91,-0.63 -1.92,-0.63 v 0 0 0 0 0 l -1.92,-0.63 v 0 0 l -1.91,-0.61 v 0 0 0 0 l -1.92,-0.61 v 0 0 0 0 l -1.92,-0.6 v 0 0 0 l -1.91,-0.6 v 0 0 0 L 97.6,54.98 v 0 l -1.92,-0.59 v 0 0 l -1.91,-0.57 v 0 l -1.92,-0.57 v 0 l -0.96,-0.28 -0.96,-0.28 v 0 0 0 0 0 0 0 l -1.91,-0.55 v 0 0 L 86.1,51.59 v 0 0 0 0 l -1.92,-0.54 v 0 0 0 0 0 0 0 0 0 0 0 l -0.96,-0.27 -0.95,-0.26 v 0 0 0 0 0 l -1.92,-0.53 -1.92,-0.52 v 0 0 0 0 l -1.92,-0.52 -1.91,-0.5 v 0 0 0 0 0 0 0 0 l -1.92,-0.51 v 0 0 0 0 0 0 0 l -1.92,-0.49 v 0 0 0 0 0 0 0 0 0 0 0 l -1.91,-0.49 v 0 0 0 l -0.96,-0.24 -0.96,-0.24 v 0 0 0 0 0 0 0 L 66.16,46.29 65.01,46 v 0 0 0 l -3.83,-0.93 v 0 0 0 0 0 l -1.92,-0.46 v 0 l -1.91,-0.45 v 0 0 l -1.92,-0.45 z" />
          <path
             inkscape:connector-curvature="0"
             id="path869"
             style="fill:none;stroke:#291711;stroke-width:4.26999998;stroke-linecap:butt;stroke-linejoin:round;stroke-miterlimit:10;stroke-dasharray:none;stroke-opacity:1"
             d="m 55.43,54.67 2.09,0.63 2.08,0.63 2.09,0.66 2.09,0.66 2.08,0.67 2.09,0.69 2.09,0.7 2.08,0.72 2.09,0.72 2.09,0.74 2.08,0.75 2.09,0.76 2.09,0.78 2.08,0.78 2.09,0.81 2.09,0.81 2.08,0.83 2.09,0.84 2.09,0.86 2.08,0.87 2.09,0.88 2.09,0.91 2.08,0.91 2.09,0.93 2.09,0.95 2.08,0.97 2.09,0.98 2.09,1 2.08,1.01 2.09,1.03 2.09,1.04 2.08,1.07 2.09,1.08 2.09,1.11 2.08,1.12 2.09,1.15 2.09,1.16 2.08,1.2 2.09,1.21 2.09,1.24 2.08,1.26 2.09,1.28 2.09,1.31 2.08,1.33 2.09,1.35 2.09,1.38 2.08,1.4 2.09,1.42 2.09,1.45 2.08,1.47 2.09,1.49 2.09,1.52 2.08,1.54 2.09,1.56 2.09,1.59 2.08,1.61 2.09,1.64 2.09,1.66 2.08,1.68 2.09,1.71 2.09,1.73 2.08,1.75 2.09,1.78 2.09,1.81 2.08,1.82 2.09,1.85 2.09,1.88 2.08,1.9 2.09,1.92 2.09,1.95 2.08,1.97 2.09,1.99 2.09,2.02 2.08,2.05 2.09,2.07 2.09,2.09 2.08,2.12 2.09,2.14 2.09,2.17" />
        </g>
      </g>
      <g
         id="g871" />
      <g
         id="g873" />
      <g
         id="g875" />
      <g
         id="g877" />
      <g
         id="g879" />
      <g
         id="g881" />
      <g
         id="g883" />
      <g
         id="g885" />
      <g
         id="g887" />
      <g
         id="g889" />
      <g
         id="g891" />
      <g
         id="g893" />
      <g
         id="g895" />
      <g
         id="g897" />
      <g
         id="g899" />
      <g
         id="g901">
        <text
           id="text905"
           style="font-variant:normal;font-weight:normal;font-size:10px;font-family:Helvetica;-inkscape-font-specification:Helvetica;writing-mode:lr-tb;fill:#000000;fill-opacity:1;fill-rule:nonzero;stroke:none"
           transform="matrix(0,1,1,0,39.62,50.78)">
          <tspan
             id="tspan903"
             y="0"
             x="0">0</tspan>
        </text>
        <text
           id="text909"
           style="font-variant:normal;font-weight:normal;font-size:10px;font-family:Helvetica;-inkscape-font-specification:Helvetica;writing-mode:lr-tb;fill:#000000;fill-opacity:1;fill-rule:nonzero;stroke:none"
           transform="matrix(0,1,1,0,39.62,106.27)">
          <tspan
             id="tspan907"
             sodipodi:role="line"
             y="0"
             x="0 5.5599999">40</tspan>
        </text>
        <text
           id="text913"
           style="font-variant:normal;font-weight:normal;font-size:10px;font-family:Helvetica;-inkscape-font-specification:Helvetica;writing-mode:lr-tb;fill:#000000;fill-opacity:1;fill-rule:nonzero;stroke:none"
           transform="matrix(0,1,1,0,39.62,164.54)">
          <tspan
             id="tspan911"
             sodipodi:role="line"
             y="0"
             x="0 5.5599999">80</tspan>
        </text>
        <text
           id="text917"
           style="font-variant:normal;font-weight:normal;font-size:10px;font-family:Helvetica;-inkscape-font-specification:Helvetica;writing-mode:lr-tb;fill:#000000;fill-opacity:1;fill-rule:nonzero;stroke:none"
           transform="matrix(0,1,1,0,39.62,220.03)">
          <tspan
             id="tspan915"
             sodipodi:role="line"
             y="0"
             x="0 5.5599999 11.12">120</tspan>
        </text>
      </g>
      <g
         id="g919" />
      <g
         id="g921">
        <path
           inkscape:connector-curvature="0"
           id="path923"
           style="fill:none;stroke:#333333;stroke-width:1.07000005;stroke-linecap:butt;stroke-linejoin:round;stroke-miterlimit:10;stroke-dasharray:none;stroke-opacity:1"
           d="m 44.45,53.56 h 2.74" />
        <path
           inkscape:connector-curvature="0"
           id="path925"
           style="fill:none;stroke:#333333;stroke-width:1.07000005;stroke-linecap:butt;stroke-linejoin:round;stroke-miterlimit:10;stroke-dasharray:none;stroke-opacity:1"
           d="m 44.45,111.83 h 2.74" />
        <path
           inkscape:connector-curvature="0"
           id="path927"
           style="fill:none;stroke:#333333;stroke-width:1.07000005;stroke-linecap:butt;stroke-linejoin:round;stroke-miterlimit:10;stroke-dasharray:none;stroke-opacity:1"
           d="m 44.45,170.1 h 2.74" />
        <path
           inkscape:connector-curvature="0"
           id="path929"
           style="fill:none;stroke:#333333;stroke-width:1.07000005;stroke-linecap:butt;stroke-linejoin:round;stroke-miterlimit:10;stroke-dasharray:none;stroke-opacity:1"
           d="m 44.45,228.37 h 2.74" />
      </g>
      <g
         id="g931" />
      <g
         id="g933" />
      <g
         id="g935" />
      <g
         id="g937" />
      <g
         id="g939" />
      <g
         id="g941" />
      <g
         id="g943" />
      <g
         id="g945" />
      <g
         id="g947" />
      <g
         id="g949">
        <path
           inkscape:connector-curvature="0"
           id="path951"
           style="fill:none;stroke:#333333;stroke-width:1.07000005;stroke-linecap:butt;stroke-linejoin:round;stroke-miterlimit:10;stroke-dasharray:none;stroke-opacity:1"
           d="m 51.6,31.49 v 2.74" />
        <path
           inkscape:connector-curvature="0"
           id="path953"
           style="fill:none;stroke:#333333;stroke-width:1.07000005;stroke-linecap:butt;stroke-linejoin:round;stroke-miterlimit:10;stroke-dasharray:none;stroke-opacity:1"
           d="m 97.6,31.49 v 2.74" />
        <path
           inkscape:connector-curvature="0"
           id="path955"
           style="fill:none;stroke:#333333;stroke-width:1.07000005;stroke-linecap:butt;stroke-linejoin:round;stroke-miterlimit:10;stroke-dasharray:none;stroke-opacity:1"
           d="m 143.6,31.49 v 2.74" />
        <path
           inkscape:connector-curvature="0"
           id="path957"
           style="fill:none;stroke:#333333;stroke-width:1.07000005;stroke-linecap:butt;stroke-linejoin:round;stroke-miterlimit:10;stroke-dasharray:none;stroke-opacity:1"
           d="m 189.61,31.49 v 2.74" />
      </g>
      <g
         id="g959" />
      <g
         id="g961">
        <text
           id="text965"
           style="font-variant:normal;font-weight:normal;font-size:10px;font-family:Helvetica;-inkscape-font-specification:Helvetica;writing-mode:lr-tb;fill:#4d4d4d;fill-opacity:1;fill-rule:nonzero;stroke:none"
           transform="matrix(1,0,0,-1,48.82,22.12)">
          <tspan
             id="tspan963"
             y="0"
             x="0">0</tspan>
        </text>
        <text
           id="text969"
           style="font-variant:normal;font-weight:normal;font-size:10px;font-family:Helvetica;-inkscape-font-specification:Helvetica;writing-mode:lr-tb;fill:#4d4d4d;fill-opacity:1;fill-rule:nonzero;stroke:none"
           transform="matrix(1,0,0,-1,94.82,22.12)">
          <tspan
             id="tspan967"
             y="0"
             x="0">3</tspan>
        </text>
        <text
           id="text973"
           style="font-variant:normal;font-weight:normal;font-size:10px;font-family:Helvetica;-inkscape-font-specification:Helvetica;writing-mode:lr-tb;fill:#4d4d4d;fill-opacity:1;fill-rule:nonzero;stroke:none"
           transform="matrix(1,0,0,-1,140.82,22.12)">
          <tspan
             id="tspan971"
             y="0"
             x="0">6</tspan>
        </text>
        <text
           id="text977"
           style="font-variant:normal;font-weight:normal;font-size:10px;font-family:Helvetica;-inkscape-font-specification:Helvetica;writing-mode:lr-tb;fill:#4d4d4d;fill-opacity:1;fill-rule:nonzero;stroke:none"
           transform="matrix(1,0,0,-1,186.83,22.12)">
          <tspan
             id="tspan975"
             y="0"
             x="0">9</tspan>
        </text>
      </g>
      <g
         id="g979" />
      <g
         id="g981" />
      <g
         id="g983" />
      <g
         id="g985" />
      <g
         id="g987" />
      <g
         id="g989">
        <text
           id="text993"
           style="font-variant:normal;font-weight:normal;font-size:12px;font-family:Helvetica;-inkscape-font-specification:Helvetica;writing-mode:lr-tb;fill:#000000;fill-opacity:1;fill-rule:nonzero;stroke:none"
           transform="matrix(1,0,0,-1,93.01,8.12)">
          <tspan
             id="tspan991"
             sodipodi:role="line"
             y="0"
             x="0 6.6719999 9.3360004 12.672 16.007999 22.68 26.676001 30.011999 40.355999 49.02 55.692001 59.028 62.363998 65.699997 69.695999 75.695999 85.692001">Litter +Duff (cm)</tspan>
        </text>
      </g>
      <g
         id="g995" />
      <g
         id="g997">
        <text
           id="text1001"
           style="font-variant:normal;font-weight:normal;font-size:12px;font-family:Helvetica;-inkscape-font-specification:Helvetica;writing-mode:lr-tb;fill:#000000;fill-opacity:1;fill-rule:nonzero;stroke:none"
           transform="matrix(0,1,1,0,14.1,91.89)">
          <tspan
             id="tspan999"
             sodipodi:role="line"
             y="0"
             x="0 8.0039997 14.676 21.348 28.02 30.684 33.348 40.02 46.692001 50.028 58.692001 65.363998 72.036003 78.036003 80.699997 84.036003 90.036003">Seedling Density</tspan>
        </text>
        <text
           id="text1005"
           style="font-variant:normal;font-weight:normal;font-size:12px;font-family:Helvetica;-inkscape-font-specification:Helvetica;writing-mode:lr-tb;fill:#000000;fill-opacity:1;fill-rule:nonzero;stroke:none"
           transform="matrix(0,1,1,0,27.06,113.57)">
          <tspan
             id="tspan1003"
             sodipodi:role="line"
             y="0"
             x="0 3.9960001 6.6599998 13.332 20.004 26.004 29.34 32.675999 39.348 46.02">(indv./ha)</tspan>
        </text>
      </g>
      <g
         id="g1007" />
      <g
         id="g1009" />
      <g
         id="g1011" />
      <g
         id="g1013" />
      <g
         id="g1015" />
      <g
         id="g1017" />
      <g
         id="g1019" />
      <g
         id="g1021" />
      <g
         id="g1023" />
      <g
         id="g1025" />
      <g
         id="g1027" />
      <g
         id="g1029" />
    </g>
    <g
       transform="matrix(0.35277777,0,0,-0.35277777,83.532732,88.811264)"
       inkscape:label="tpiElev"
       id="g1143">
      <g
         id="g1145" />
      <g
         id="g1147" />
      <g
         id="g1149" />
      <g
         id="g1151" />
      <g
         id="g1153" />
      <g
         id="g1155" />
      <g
         id="g1157" />
      <g
         id="g1159" />
      <g
         id="g1161" />
      <g
         id="g1163" />
      <g
         id="g1165">
        <path
           inkscape:connector-curvature="0"
           id="path1167"
           style="fill:#ffffff;fill-opacity:1;fill-rule:nonzero;stroke:#ffffff;stroke-width:1.07000005;stroke-linecap:round;stroke-linejoin:round;stroke-miterlimit:10;stroke-dasharray:none;stroke-opacity:1"
           d="M 0,0 H 234 V 248.4 H 0 Z" />
      </g>
      <g
         id="g1169" />
      <g
         id="g1171">
        <g
           clip-path="url(#clipPath1177)"
           id="g1173">
          <path
             inkscape:connector-curvature="0"
             id="path1179"
             style="fill:none;stroke:#000000;stroke-width:1.07000005;stroke-linecap:round;stroke-linejoin:round;stroke-miterlimit:10;stroke-dasharray:none;stroke-opacity:1"
             d="M 46.75,33.79 H 228.52 V 242.92 H 46.75 Z" />
          <path
             inkscape:connector-curvature="0"
             id="path1181"
             style="fill:#48281e;fill-opacity:0.14900004;fill-rule:nonzero;stroke:none"
             d="m 55.01,61.07 7.41,1.26 4.23,0.78 5.37,1.06 5.35,1.15 0.23,0.05 0.68,0.15 0.72,0.17 1.69,0.39 h 0.03 l 1.38,0.33 0.43,0.1 2.11,0.52 1.93,0.49 0.16,0.04 v 0 l 0.12,0.03 1.39,0.36 0.08,0.02 1.37,0.36 0.08,0.02 1.45,0.39 0.49,0.14 0.07,0.02 0.49,0.13 0.26,0.07 0.38,0.11 0.73,0.21 0.16,0.04 0.44,0.12 0.13,0.04 0.95,0.28 0.22,0.06 0.15,0.04 0.35,0.1 0.36,0.11 1.01,0.3 0.89,0.27 0.4,0.11 0.76,0.24 0.42,0.13 0.24,0.07 0.53,0.17 0.08,0.02 0.02,0.01 1.6,0.5 0.43,0.14 0.44,0.14 0.51,0.17 0.61,0.2 1.06,0.35 0.43,0.14 0.09,0.03 0.47,0.16 0.29,0.1 0.12,0.04 0.16,0.05 0.42,0.15 0.08,0.03 0.31,0.1 0.44,0.15 0.62,0.22 0.23,0.08 0.26,0.09 0.65,0.23 0.42,0.15 0.07,0.02 0.62,0.23 0.54,0.19 0.33,0.12 1.5,0.56 0.13,0.04 0.58,0.22 0.28,0.11 0.12,0.04 0.58,0.22 0.14,0.06 0.35,0.13 0.38,0.15 0.05,0.01 0.19,0.08 0.14,0.05 0.23,0.09 v 0 l 0.4,0.16 0.05,0.02 0.04,0.01 0.01,0.01 0.22,0.08 1.36,0.54 0.14,0.06 1.69,0.68 1.15,0.47 0.14,0.06 0.16,0.07 0.51,0.21 0.04,0.02 1.14,0.48 0.28,0.12 1.56,0.67 0.13,0.06 1.6,0.71 0.21,0.09 0.21,0.1 0.45,0.2 0.82,0.37 0.06,0.03 0.01,0.01 0.17,0.07 0.47,0.22 h 0.01 l 0.11,0.05 1.28,0.6 0.66,0.31 0.38,0.18 0.49,0.24 0.26,0.12 0.13,0.06 0.44,0.21 0.78,0.38 0.52,0.26 0.34,0.16 0.01,0.01 0.24,0.12 1.11,0.55 1.23,0.62 1.67,0.87 1.92,1.01 0.95,0.51 0.05,0.03 0.45,0.24 0.04,0.02 0.08,0.04 0.55,0.31 0.51,0.27 0.06,0.04 0.11,0.06 0.76,0.42 0.15,0.08 1.36,0.77 0.89,0.51 1.73,1 0.13,0.08 0.32,0.19 0.04,0.02 1.72,1.03 0.29,0.18 0.27,0.16 1.14,0.7 2.68,1.67 1.56,1.01 0.8,0.52 0.11,0.07 0.36,0.24 0.2,0.13 1.4,0.93 0.03,0.02 0.11,0.07 1.96,1.34 0.38,0.26 0.13,0.09 0.99,0.69 0.31,0.21 0.24,0.18 0.35,0.25 1.03,0.73 0.95,0.68 3.91,2.91 0.88,0.67 0.58,0.45 2.6,2.04 2.91,2.36 0.93,0.78 2.53,2.14 0.26,0.22 8.63,7.84 1.23,1.17 1.08,1.06 2.62,2.6 4.81,5 17.75,21.05 3.13,4.17 V 55.92 l -3.13,-0.19 -17.75,-1.1 -4.81,-0.3 -2.62,-0.16 -1.08,-0.07 -1.23,-0.08 -8.63,-0.55 -0.26,-0.02 -2.53,-0.17 -0.93,-0.06 -2.91,-0.19 -2.6,-0.17 -0.58,-0.04 -0.88,-0.06 -3.91,-0.26 -0.95,-0.06 -1.03,-0.07 -0.35,-0.03 -0.24,-0.01 -0.31,-0.02 -0.99,-0.07 -0.13,-0.01 -0.38,-0.03 -1.96,-0.13 -0.11,-0.01 h -0.03 l -1.4,-0.1 -0.2,-0.01 -0.36,-0.03 h -0.11 l -0.8,-0.06 -1.56,-0.11 -2.68,-0.19 -1.14,-0.08 -0.27,-0.02 -0.29,-0.02 -1.72,-0.12 h -0.04 l -0.32,-0.02 -0.13,-0.01 -1.73,-0.13 -0.89,-0.06 -1.36,-0.1 -0.15,-0.01 -0.76,-0.06 h -0.11 l -0.06,-0.01 -0.51,-0.04 -0.55,-0.04 h -0.08 -0.04 l -0.45,-0.04 h -0.05 l -0.95,-0.07 -1.92,-0.14 -1.67,-0.13 -1.23,-0.09 -1.11,-0.08 -0.24,-0.02 h -0.01 l -0.34,-0.03 -0.52,-0.04 -0.78,-0.06 -0.44,-0.03 -0.13,-0.01 -0.26,-0.02 -0.49,-0.04 -0.38,-0.03 -0.66,-0.05 -1.28,-0.1 h -0.11 -0.01 L 129.17,49.82 129,49.81 128.99,49.8 h -0.06 l -0.82,-0.06 -0.45,-0.04 -0.21,-0.01 -0.21,-0.02 -1.6,-0.13 -0.13,-0.01 -1.56,-0.12 -0.28,-0.02 -1.14,-0.09 -0.04,-0.01 -0.51,-0.04 -0.16,-0.01 -0.14,-0.01 -1.15,-0.09 -1.69,-0.14 -0.14,-0.01 -1.36,-0.11 -0.22,-0.02 h -0.01 -0.04 l -0.05,-0.01 -0.4,-0.03 v 0 l -0.23,-0.02 -0.14,-0.01 -0.19,-0.01 -0.05,-0.01 -0.38,-0.03 -0.35,-0.03 -0.14,-0.01 -0.58,-0.05 -0.12,-0.01 -0.28,-0.02 -0.58,-0.05 -0.13,-0.01 -1.5,-0.12 -0.33,-0.03 -0.54,-0.05 -0.62,-0.05 h -0.07 l -0.42,-0.04 -0.65,-0.05 -0.26,-0.03 -0.23,-0.01 -0.62,-0.06 -0.44,-0.03 -0.31,-0.03 -0.08,-0.01 -0.42,-0.03 -0.16,-0.02 -0.12,-0.01 -0.29,-0.02 -0.47,-0.04 -0.09,-0.01 -0.43,-0.04 -1.06,-0.09 -0.61,-0.05 -0.51,-0.04 -0.44,-0.04 -0.43,-0.04 -1.6,-0.14 h -0.02 -0.08 L 100.12,47.43 99.88,47.41 99.46,47.37 98.7,47.3 98.3,47.27 97.41,47.19 96.4,47.1 96.04,47.07 95.69,47.04 95.54,47.03 95.32,47.01 94.37,46.92 94.24,46.91 93.8,46.87 93.64,46.86 92.91,46.79 92.53,46.76 92.27,46.74 91.78,46.69 91.71,46.68 91.22,46.64 89.77,46.51 89.69,46.5 88.32,46.38 88.24,46.37 86.85,46.25 86.73,46.24 v 0 L 86.57,46.22 84.64,46.04 82.53,45.85 82.1,45.81 80.72,45.69 80.69,45.68 79,45.53 78.28,45.46 77.6,45.4 l -0.23,-0.02 -5.35,-0.5 -5.37,-0.5 -4.23,-0.4 -7.41,-0.69 z" />
          <path
             inkscape:connector-curvature="0"
             id="path1183"
             style="fill:#4c6b6a;fill-opacity:0.14900004;fill-rule:nonzero;stroke:none"
             d="m 55.01,100.93 7.41,-1.82 4.23,-0.97 5.37,-1.18 5.35,-1.1 0.23,-0.05 0.68,-0.13 0.72,-0.15 1.69,-0.33 h 0.03 l 1.38,-0.27 0.43,-0.08 2.11,-0.39 1.93,-0.35 0.16,-0.03 v 0 l 0.12,-0.02 1.39,-0.24 0.08,-0.02 1.37,-0.24 0.08,-0.01 1.45,-0.25 0.49,-0.08 0.07,-0.01 0.49,-0.08 0.26,-0.05 0.38,-0.06 0.73,-0.12 0.16,-0.03 0.44,-0.07 0.13,-0.02 0.95,-0.15 0.22,-0.04 0.15,-0.02 0.35,-0.06 0.36,-0.05 1.01,-0.16 0.89,-0.14 0.4,-0.06 0.76,-0.12 0.42,-0.06 0.24,-0.04 0.53,-0.08 0.08,-0.01 h 0.02 l 1.6,-0.24 0.43,-0.06 0.44,-0.06 0.51,-0.08 0.61,-0.08 1.06,-0.15 0.43,-0.06 0.09,-0.02 0.47,-0.06 0.29,-0.04 0.12,-0.02 0.16,-0.02 0.42,-0.06 0.08,-0.01 0.31,-0.04 0.44,-0.06 0.62,-0.08 0.23,-0.03 0.26,-0.04 0.65,-0.08 0.42,-0.06 0.07,-0.01 0.62,-0.08 0.54,-0.07 0.33,-0.04 1.5,-0.19 0.13,-0.02 0.58,-0.07 0.28,-0.04 0.12,-0.01 0.58,-0.07 0.14,-0.02 0.35,-0.04 0.38,-0.05 h 0.05 l 0.19,-0.03 0.14,-0.01 0.23,-0.03 v 0 l 0.4,-0.05 h 0.05 l 0.04,-0.01 h 0.01 l 0.22,-0.03 1.36,-0.16 0.14,-0.01 1.69,-0.2 1.15,-0.13 0.14,-0.01 0.16,-0.02 0.51,-0.06 h 0.04 l 1.14,-0.13 0.28,-0.03 1.56,-0.16 0.13,-0.02 1.6,-0.16 0.21,-0.02 0.21,-0.03 0.45,-0.04 0.82,-0.08 0.06,-0.01 H 129 l 0.17,-0.02 0.47,-0.04 0.01,-0.01 0.11,-0.01 1.28,-0.12 0.66,-0.07 0.38,-0.03 0.49,-0.05 0.26,-0.02 0.13,-0.02 0.44,-0.04 0.78,-0.07 0.52,-0.05 0.34,-0.03 h 0.01 l 0.24,-0.02 1.11,-0.1 1.23,-0.11 1.67,-0.15 1.92,-0.16 0.95,-0.08 0.05,-0.01 0.45,-0.03 0.04,-0.01 h 0.08 l 0.55,-0.05 0.51,-0.04 h 0.06 l 0.11,-0.01 0.76,-0.06 0.15,-0.01 1.36,-0.11 0.89,-0.07 1.73,-0.13 0.13,-0.01 0.32,-0.02 0.04,-0.01 1.72,-0.12 0.29,-0.02 0.27,-0.02 1.14,-0.08 2.68,-0.19 1.56,-0.1 0.8,-0.06 h 0.11 l 0.36,-0.03 0.2,-0.01 1.4,-0.09 h 0.03 l 0.11,-0.01 1.96,-0.12 0.38,-0.03 h 0.13 l 0.99,-0.06 0.31,-0.02 0.24,-0.02 0.35,-0.02 1.03,-0.06 0.95,-0.05 3.91,-0.22 0.88,-0.05 0.58,-0.03 2.6,-0.14 2.91,-0.14 0.93,-0.05 2.53,-0.12 0.26,-0.01 8.63,-0.38 1.23,-0.05 1.08,-0.04 2.62,-0.11 4.81,-0.17 17.75,-0.57 3.13,-0.08 V 51.47 l -3.13,0.31 -17.75,1.84 -4.81,0.51 -2.62,0.29 -1.08,0.12 -1.23,0.13 -8.63,0.95 -0.26,0.03 -2.53,0.28 -0.93,0.11 -2.91,0.33 -2.6,0.29 -0.58,0.07 -0.88,0.1 -3.91,0.44 -0.95,0.11 -1.03,0.12 -0.35,0.04 -0.24,0.02 -0.31,0.04 -0.99,0.11 -0.13,0.02 -0.38,0.04 -1.96,0.23 -0.11,0.01 h -0.03 l -1.4,0.16 -0.2,0.02 -0.36,0.05 -0.11,0.01 -0.8,0.09 -1.56,0.18 -2.68,0.31 -1.14,0.13 -0.27,0.03 -0.29,0.03 -1.72,0.2 -0.04,0.01 -0.32,0.03 -0.13,0.02 -1.73,0.2 -0.89,0.1 -1.36,0.15 -0.15,0.02 -0.76,0.09 -0.11,0.01 -0.06,0.01 -0.51,0.06 -0.55,0.06 -0.08,0.01 h -0.04 l -0.45,0.05 -0.05,0.01 -0.95,0.11 -1.92,0.22 -1.67,0.19 -1.23,0.14 -1.11,0.12 -0.24,0.03 h -0.01 l -0.34,0.04 -0.52,0.06 -0.78,0.09 -0.44,0.05 -0.13,0.01 -0.26,0.03 -0.49,0.06 -0.38,0.04 -0.66,0.07 -1.28,0.15 -0.11,0.01 h -0.01 l -0.47,0.05 -0.17,0.02 h -0.01 l -0.06,0.01 -0.82,0.09 -0.45,0.05 -0.21,0.02 -0.21,0.03 -1.6,0.18 -0.13,0.01 -1.56,0.17 -0.28,0.03 -1.14,0.13 h -0.04 l -0.51,0.06 -0.16,0.02 -0.14,0.01 -1.15,0.13 -1.69,0.18 -0.14,0.02 -1.36,0.14 -0.22,0.03 h -0.01 -0.04 l -0.05,0.01 -0.4,0.04 v 0 l -0.23,0.03 -0.14,0.01 -0.19,0.02 -0.05,0.01 -0.38,0.04 -0.35,0.03 -0.14,0.02 -0.58,0.06 -0.12,0.01 -0.28,0.03 -0.58,0.07 -0.13,0.01 -1.5,0.16 -0.33,0.03 -0.54,0.06 -0.62,0.07 h -0.07 l -0.42,0.05 -0.65,0.06 -0.26,0.03 -0.23,0.03 -0.62,0.06 -0.44,0.04 -0.31,0.04 -0.08,0.01 -0.42,0.04 -0.16,0.02 -0.12,0.01 -0.29,0.03 -0.47,0.05 h -0.09 l -0.43,0.05 -1.06,0.11 -0.61,0.06 -0.51,0.05 -0.44,0.04 -0.43,0.05 -1.6,0.16 h -0.02 l -0.08,0.01 -0.53,0.05 -0.24,0.02 -0.42,0.04 -0.76,0.08 -0.4,0.04 -0.89,0.09 -1.01,0.09 -0.36,0.04 -0.35,0.03 -0.15,0.02 -0.22,0.02 -0.95,0.09 -0.13,0.01 -0.44,0.04 -0.16,0.02 -0.73,0.07 -0.38,0.03 -0.26,0.03 -0.49,0.04 -0.07,0.01 -0.49,0.05 -1.45,0.13 -0.08,0.01 -1.37,0.13 h -0.08 l -1.39,0.13 -0.12,0.01 v 0 l -0.16,0.01 -1.93,0.18 -2.11,0.18 -0.43,0.04 -1.38,0.12 h -0.03 l -1.69,0.15 -0.72,0.06 -0.68,0.05 -0.23,0.02 -5.35,0.44 -5.37,0.42 -4.23,0.31 -7.41,0.51 z" />
          <path
             inkscape:connector-curvature="0"
             id="path1185"
             style="fill:#c8a104;fill-opacity:0.14900004;fill-rule:nonzero;stroke:none"
             d="m 55.01,233.41 7.41,-19.82 4.23,-10.37 5.37,-12.24 5.35,-11.27 0.23,-0.48 0.68,-1.35 0.72,-1.45 1.69,-3.28 0.03,-0.05 1.38,-2.65 0.43,-0.79 2.11,-3.89 1.93,-3.46 0.16,-0.28 v 0 l 0.12,-0.21 1.39,-2.42 0.08,-0.13 1.37,-2.32 0.08,-0.14 1.45,-2.42 0.49,-0.79 0.07,-0.13 0.49,-0.79 0.26,-0.41 0.38,-0.62 0.73,-1.17 0.16,-0.25 0.44,-0.68 0.13,-0.21 0.95,-1.49 0.22,-0.34 0.15,-0.23 0.35,-0.53 0.36,-0.55 1.01,-1.53 0.89,-1.32 0.4,-0.58 0.76,-1.13 0.42,-0.6 0.24,-0.35 0.53,-0.76 0.08,-0.11 0.02,-0.04 1.6,-2.25 0.43,-0.59 0.44,-0.61 0.51,-0.69 0.61,-0.83 1.06,-1.42 0.43,-0.57 0.09,-0.12 0.47,-0.62 0.29,-0.37 0.12,-0.16 0.16,-0.21 0.42,-0.54 0.08,-0.11 0.31,-0.4 0.44,-0.56 0.62,-0.78 0.23,-0.3 0.26,-0.33 0.65,-0.8 0.42,-0.53 0.07,-0.08 0.62,-0.77 0.54,-0.65 0.33,-0.4 1.5,-1.79 0.13,-0.15 0.58,-0.68 0.28,-0.33 0.12,-0.14 0.58,-0.67 0.14,-0.16 0.35,-0.4 0.38,-0.44 0.05,-0.04 0.19,-0.23 0.14,-0.15 0.23,-0.26 v 0 l 0.4,-0.45 0.05,-0.05 0.04,-0.05 0.01,-0.01 0.22,-0.25 1.36,-1.49 0.14,-0.16 1.69,-1.82 1.15,-1.2 0.14,-0.15 0.16,-0.17 0.51,-0.52 0.04,-0.04 1.14,-1.17 0.28,-0.28 1.56,-1.55 0.13,-0.13 1.6,-1.56 0.21,-0.2 0.21,-0.2 0.45,-0.43 0.82,-0.77 0.06,-0.06 0.01,-0.01 0.17,-0.16 0.47,-0.43 0.01,-0.01 0.11,-0.11 1.28,-1.17 0.66,-0.6 0.38,-0.34 0.49,-0.44 0.26,-0.23 0.13,-0.11 0.44,-0.39 0.78,-0.68 0.52,-0.45 0.34,-0.29 0.01,-0.01 0.24,-0.2 1.11,-0.94 1.23,-1.02 1.67,-1.37 1.92,-1.52 0.95,-0.74 0.05,-0.04 0.45,-0.35 0.04,-0.03 0.08,-0.06 0.55,-0.42 0.51,-0.38 0.06,-0.05 0.11,-0.08 0.76,-0.57 0.15,-0.11 1.36,-1 0.89,-0.64 1.73,-1.23 0.13,-0.09 0.32,-0.22 0.04,-0.03 1.72,-1.18 0.29,-0.2 0.27,-0.18 1.14,-0.77 2.68,-1.73 1.56,-0.99 0.8,-0.5 0.11,-0.07 0.36,-0.22 0.2,-0.12 1.4,-0.85 0.03,-0.02 0.11,-0.06 1.96,-1.16 0.38,-0.22 0.13,-0.08 0.99,-0.56 0.31,-0.18 0.24,-0.14 0.35,-0.2 1.03,-0.57 0.95,-0.53 3.91,-2.08 0.88,-0.46 0.58,-0.29 2.6,-1.31 2.91,-1.4 0.93,-0.44 2.53,-1.16 0.26,-0.12 8.63,-3.69 1.23,-0.48 1.08,-0.43 2.62,-1.01 4.81,-1.77 17.75,-5.7 3.13,-0.89 V 44.12 l -3.13,0.57 -17.75,3.67 -4.81,1.15 -2.62,0.65 -1.08,0.27 -1.23,0.32 -8.63,2.35 -0.26,0.08 -2.53,0.73 -0.93,0.28 -2.91,0.89 -2.6,0.81 -0.58,0.18 -0.88,0.29 -3.91,1.28 -0.95,0.33 -1.03,0.35 -0.35,0.12 -0.24,0.08 -0.31,0.11 -0.99,0.34 -0.13,0.05 -0.38,0.13 -1.96,0.7 -0.11,0.04 -0.03,0.01 -1.4,0.51 -0.2,0.07 -0.36,0.14 -0.11,0.03 -0.8,0.3 -1.56,0.59 -2.68,1.02 -1.14,0.45 -0.27,0.1 -0.29,0.12 -1.72,0.68 -0.04,0.01 -0.32,0.13 -0.13,0.06 -1.73,0.7 -0.89,0.37 -1.36,0.56 -0.15,0.06 -0.76,0.32 -0.11,0.05 -0.06,0.03 -0.51,0.21 -0.55,0.24 -0.08,0.03 -0.04,0.02 -0.45,0.19 -0.05,0.02 -0.95,0.41 -1.92,0.84 -1.67,0.75 -1.23,0.55 -1.11,0.51 -0.24,0.11 -0.01,0.01 -0.34,0.15 -0.52,0.25 -0.78,0.36 -0.44,0.2 -0.13,0.06 -0.26,0.13 -0.49,0.23 -0.38,0.18 -0.66,0.31 -1.28,0.62 -0.11,0.05 -0.01,0.01 -0.47,0.22 -0.17,0.09 h -0.01 l -0.06,0.03 -0.82,0.4 -0.45,0.22 -0.21,0.11 -0.21,0.1 -1.6,0.8 -0.13,0.07 -1.56,0.78 -0.28,0.15 -1.14,0.59 -0.04,0.02 -0.51,0.26 -0.16,0.08 -0.14,0.08 -1.15,0.59 -1.69,0.9 -0.14,0.08 -1.36,0.73 -0.22,0.12 h -0.01 l -0.04,0.03 -0.05,0.02 -0.4,0.22 v 0 l -0.23,0.12 -0.14,0.08 -0.19,0.11 -0.05,0.02 -0.38,0.21 -0.35,0.19 -0.14,0.08 -0.58,0.32 -0.12,0.07 -0.28,0.15 -0.58,0.33 -0.13,0.07 -1.5,0.85 -0.33,0.19 -0.54,0.3 -0.62,0.36 -0.07,0.04 -0.42,0.24 -0.65,0.38 -0.26,0.15 -0.23,0.14 -0.62,0.36 -0.44,0.25 -0.31,0.19 -0.08,0.05 -0.42,0.25 -0.16,0.09 -0.12,0.07 -0.29,0.17 -0.47,0.29 -0.09,0.05 -0.43,0.26 -1.06,0.64 -0.61,0.37 -0.51,0.31 -0.44,0.27 -0.43,0.26 -1.6,1 -0.02,0.02 -0.08,0.04 -0.53,0.34 -0.24,0.15 -0.42,0.26 -0.76,0.49 -0.4,0.25 -0.89,0.58 -1.01,0.65 -0.36,0.24 -0.35,0.22 -0.15,0.1 -0.22,0.15 -0.95,0.63 -0.13,0.09 -0.44,0.28 -0.16,0.11 -0.73,0.49 -0.38,0.26 -0.26,0.17 -0.49,0.33 -0.07,0.05 -0.49,0.33 -1.45,1 -0.08,0.05 -1.37,0.96 -0.08,0.05 -1.39,0.98 -0.12,0.08 v 0 l -0.16,0.12 -1.93,1.38 -2.11,1.54 -0.43,0.31 -1.38,1.03 -0.03,0.02 -1.69,1.26 -0.72,0.56 -0.68,0.51 -0.23,0.18 -5.35,4.21 -5.37,4.43 -4.23,3.64 -7.41,6.71 z" />
          <path
             inkscape:connector-curvature="0"
             id="path1187"
             style="fill:none;stroke:#48281e;stroke-width:3.20000005;stroke-linecap:butt;stroke-linejoin:round;stroke-miterlimit:10;stroke-dasharray:none;stroke-opacity:1"
             d="m 55.01,50.22 2.09,0.26 2.09,0.25 2.09,0.27 2.1,0.26 2.09,0.27 2.09,0.28 2.09,0.28 2.09,0.29 2.09,0.29 2.1,0.29 2.09,0.3 2.09,0.31 2.09,0.3 2.09,0.32 2.1,0.32 2.09,0.32 2.09,0.32 2.09,0.34 2.09,0.33 2.09,0.34 2.1,0.35 2.09,0.34 2.09,0.36 2.09,0.36 2.09,0.36 2.09,0.37 2.1,0.37 2.09,0.38 2.09,0.39 2.09,0.39 2.09,0.39 2.1,0.4 2.09,0.41 2.09,0.41 2.09,0.42 2.09,0.42 2.09,0.43 2.1,0.43 2.09,0.45 2.09,0.44 2.09,0.46 2.09,0.46 2.09,0.46 2.1,0.48 2.09,0.48 2.09,0.48 2.09,0.5 2.09,0.5 2.1,0.5 2.09,0.52 2.09,0.52 2.09,0.53 2.09,0.54 2.09,0.54 2.1,0.56 2.09,0.56 2.09,0.57 2.09,0.57 2.09,0.59 2.09,0.59 2.1,0.6 2.09,0.61 2.09,0.61 2.09,0.63 2.09,0.63 2.1,0.64 2.09,0.64 2.09,0.66 2.09,0.66 2.09,0.67 2.09,0.68 2.1,0.68 2.09,0.69 2.09,0.71 2.09,0.7 2.09,0.72 2.09,0.72 2.1,0.73 2.09,0.74" />
          <path
             inkscape:connector-curvature="0"
             id="path1189"
             style="fill:none;stroke:#4c6b6a;stroke-width:3.20000005;stroke-linecap:butt;stroke-linejoin:round;stroke-miterlimit:10;stroke-dasharray:none;stroke-opacity:1"
             d="m 55.01,82.1 2.09,-0.29 2.09,-0.28 2.09,-0.29 2.1,-0.28 2.09,-0.28 2.09,-0.28 2.09,-0.28 2.09,-0.28 2.09,-0.28 2.1,-0.27 2.09,-0.28 2.09,-0.27 2.09,-0.27 2.09,-0.27 2.1,-0.26 2.09,-0.27 2.09,-0.26 2.09,-0.27 2.09,-0.26 2.09,-0.26 2.1,-0.25 2.09,-0.26 2.09,-0.26 2.09,-0.25 2.09,-0.25 2.09,-0.25 2.1,-0.25 2.09,-0.25 2.09,-0.25 2.09,-0.24 2.09,-0.25 2.1,-0.24 2.09,-0.24 2.09,-0.24 2.09,-0.24 2.09,-0.23 2.09,-0.24 2.1,-0.23 2.09,-0.24 2.09,-0.23 2.09,-0.23 2.09,-0.23 2.09,-0.22 2.1,-0.23 2.09,-0.23 2.09,-0.22 2.09,-0.22 2.09,-0.22 2.1,-0.22 2.09,-0.22 2.09,-0.22 2.09,-0.22 2.09,-0.21 2.09,-0.21 2.1,-0.22 2.09,-0.21 2.09,-0.21 2.09,-0.21 2.09,-0.21 2.09,-0.2 2.1,-0.21 2.09,-0.2 2.09,-0.21 2.09,-0.2 2.09,-0.2 2.1,-0.2 2.09,-0.2 2.09,-0.19 2.09,-0.2 2.09,-0.19 2.09,-0.2 2.1,-0.19 2.09,-0.19 2.09,-0.19 2.09,-0.19 2.09,-0.19 2.09,-0.18 2.1,-0.19 2.09,-0.18" />
          <path
             inkscape:connector-curvature="0"
             id="path1191"
             style="fill:none;stroke:#c8a104;stroke-width:3.20000005;stroke-linecap:butt;stroke-linejoin:round;stroke-miterlimit:10;stroke-dasharray:none;stroke-opacity:1"
             d="m 55.01,167.34 2.09,-3.2 2.09,-3.15 2.09,-3.09 2.1,-3.03 2.09,-2.98 2.09,-2.92 2.09,-2.87 2.09,-2.81 2.09,-2.75 2.1,-2.7 2.09,-2.64 2.09,-2.58 2.09,-2.53 2.09,-2.47 2.1,-2.42 2.09,-2.35 2.09,-2.3 2.09,-2.24 2.09,-2.18 2.09,-2.12 2.1,-2.07 2.09,-2.01 2.09,-1.97 2.09,-1.92 2.09,-1.86 2.09,-1.81 2.1,-1.78 2.09,-1.73 2.09,-1.68 2.09,-1.63 2.09,-1.61 2.1,-1.56 2.09,-1.52 2.09,-1.47 2.09,-1.44 2.09,-1.41 2.09,-1.38 2.1,-1.35 2.09,-1.31 2.09,-1.27 2.09,-1.24 2.09,-1.22 2.09,-1.19 2.1,-1.17 2.09,-1.13 2.09,-1.1 2.09,-1.07 2.09,-1.04 2.1,-1.03 2.09,-0.99 2.09,-0.98 2.09,-0.96 2.09,-0.94 2.09,-0.91 2.1,-0.89 2.09,-0.88 2.09,-0.84 2.09,-0.83 2.09,-0.81 2.09,-0.78 2.1,-0.77 2.09,-0.74 2.09,-0.72 2.09,-0.69 2.09,-0.68 2.1,-0.65 2.09,-0.63 2.09,-0.61 2.09,-0.58 2.09,-0.57 2.09,-0.54 2.1,-0.52 2.09,-0.5 2.09,-0.47 2.09,-0.45 2.09,-0.43 2.09,-0.41 2.1,-0.39 2.09,-0.36" />
        </g>
      </g>
      <g
         id="g1193" />
      <g
         id="g1195" />
      <g
         id="g1197" />
      <g
         id="g1199" />
      <g
         id="g1201" />
      <g
         id="g1203" />
      <g
         id="g1205" />
      <g
         id="g1207" />
      <g
         id="g1209" />
      <g
         id="g1211" />
      <g
         id="g1213" />
      <g
         id="g1215" />
      <g
         id="g1217" />
      <g
         id="g1219" />
      <g
         id="g1221" />
      <g
         id="g1223">
        <text
           id="text1227"
           style="font-variant:normal;font-weight:normal;font-size:10px;font-family:Helvetica;-inkscape-font-specification:Helvetica;writing-mode:lr-tb;fill:#000000;fill-opacity:1;fill-rule:nonzero;stroke:none"
           transform="matrix(0,1,1,0,39.62,43.45)">
          <tspan
             id="tspan1225"
             y="0"
             x="0">0</tspan>
        </text>
        <text
           id="text1231"
           style="font-variant:normal;font-weight:normal;font-size:10px;font-family:Helvetica;-inkscape-font-specification:Helvetica;writing-mode:lr-tb;fill:#000000;fill-opacity:1;fill-rule:nonzero;stroke:none"
           transform="matrix(0,1,1,0,39.62,97.45)">
          <tspan
             id="tspan1229"
             sodipodi:role="line"
             y="0"
             x="0 5.5599999 11.12">100</tspan>
        </text>
        <text
           id="text1235"
           style="font-variant:normal;font-weight:normal;font-size:10px;font-family:Helvetica;-inkscape-font-specification:Helvetica;writing-mode:lr-tb;fill:#000000;fill-opacity:1;fill-rule:nonzero;stroke:none"
           transform="matrix(0,1,1,0,39.62,157.01)">
          <tspan
             id="tspan1233"
             sodipodi:role="line"
             y="0"
             x="0 5.5599999 11.12">200</tspan>
        </text>
        <text
           id="text1239"
           style="font-variant:normal;font-weight:normal;font-size:10px;font-family:Helvetica;-inkscape-font-specification:Helvetica;writing-mode:lr-tb;fill:#000000;fill-opacity:1;fill-rule:nonzero;stroke:none"
           transform="matrix(0,1,1,0,39.62,216.57)">
          <tspan
             id="tspan1237"
             sodipodi:role="line"
             y="0"
             x="0 5.5599999 11.12">300</tspan>
        </text>
      </g>
      <g
         id="g1241" />
      <g
         id="g1243">
        <path
           inkscape:connector-curvature="0"
           id="path1245"
           style="fill:none;stroke:#333333;stroke-width:1.07000005;stroke-linecap:butt;stroke-linejoin:round;stroke-miterlimit:10;stroke-dasharray:none;stroke-opacity:1"
           d="m 44.01,46.23 h 2.74" />
        <path
           inkscape:connector-curvature="0"
           id="path1247"
           style="fill:none;stroke:#333333;stroke-width:1.07000005;stroke-linecap:butt;stroke-linejoin:round;stroke-miterlimit:10;stroke-dasharray:none;stroke-opacity:1"
           d="m 44.01,105.79 h 2.74" />
        <path
           inkscape:connector-curvature="0"
           id="path1249"
           style="fill:none;stroke:#333333;stroke-width:1.07000005;stroke-linecap:butt;stroke-linejoin:round;stroke-miterlimit:10;stroke-dasharray:none;stroke-opacity:1"
           d="m 44.01,165.35 h 2.74" />
        <path
           inkscape:connector-curvature="0"
           id="path1251"
           style="fill:none;stroke:#333333;stroke-width:1.07000005;stroke-linecap:butt;stroke-linejoin:round;stroke-miterlimit:10;stroke-dasharray:none;stroke-opacity:1"
           d="m 44.01,224.91 h 2.74" />
      </g>
      <g
         id="g1253" />
      <g
         id="g1255" />
      <g
         id="g1257" />
      <g
         id="g1259" />
      <g
         id="g1261" />
      <g
         id="g1263" />
      <g
         id="g1265" />
      <g
         id="g1267" />
      <g
         id="g1269" />
      <g
         id="g1271">
        <path
           inkscape:connector-curvature="0"
           id="path1273"
           style="fill:none;stroke:#333333;stroke-width:1.07000005;stroke-linecap:butt;stroke-linejoin:round;stroke-miterlimit:10;stroke-dasharray:none;stroke-opacity:1"
           d="m 59.59,31.05 v 2.74" />
        <path
           inkscape:connector-curvature="0"
           id="path1275"
           style="fill:none;stroke:#333333;stroke-width:1.07000005;stroke-linecap:butt;stroke-linejoin:round;stroke-miterlimit:10;stroke-dasharray:none;stroke-opacity:1"
           d="m 116.38,31.05 v 2.74" />
        <path
           inkscape:connector-curvature="0"
           id="path1277"
           style="fill:none;stroke:#333333;stroke-width:1.07000005;stroke-linecap:butt;stroke-linejoin:round;stroke-miterlimit:10;stroke-dasharray:none;stroke-opacity:1"
           d="m 173.17,31.05 v 2.74" />
      </g>
      <g
         id="g1279" />
      <g
         id="g1281">
        <text
           id="text1285"
           style="font-variant:normal;font-weight:normal;font-size:10px;font-family:Helvetica;-inkscape-font-specification:Helvetica;writing-mode:lr-tb;fill:#4d4d4d;fill-opacity:1;fill-rule:nonzero;stroke:none"
           transform="matrix(1,0,0,-1,48.33,21.68)">
          <tspan
             id="tspan1283"
             sodipodi:role="line"
             y="0"
             x="0 5.8400002 11.4 16.959999">−100</tspan>
        </text>
        <text
           id="text1289"
           style="font-variant:normal;font-weight:normal;font-size:10px;font-family:Helvetica;-inkscape-font-specification:Helvetica;writing-mode:lr-tb;fill:#4d4d4d;fill-opacity:1;fill-rule:nonzero;stroke:none"
           transform="matrix(1,0,0,-1,113.6,21.68)">
          <tspan
             id="tspan1287"
             y="0"
             x="0">0</tspan>
        </text>
        <text
           id="text1293"
           style="font-variant:normal;font-weight:normal;font-size:10px;font-family:Helvetica;-inkscape-font-specification:Helvetica;writing-mode:lr-tb;fill:#4d4d4d;fill-opacity:1;fill-rule:nonzero;stroke:none"
           transform="matrix(1,0,0,-1,164.83,21.68)">
          <tspan
             id="tspan1291"
             sodipodi:role="line"
             y="0"
             x="0 5.5599999 11.12">100</tspan>
        </text>
      </g>
      <g
         id="g1295" />
      <g
         id="g1297" />
      <g
         id="g1299" />
      <g
         id="g1301" />
      <g
         id="g1303" />
      <g
         id="g1305">
        <text
           id="text1309"
           style="font-variant:normal;font-weight:normal;font-size:12px;font-family:Helvetica;-inkscape-font-specification:Helvetica;writing-mode:lr-tb;fill:#000000;fill-opacity:1;fill-rule:nonzero;stroke:none"
           transform="matrix(1,0,0,-1,66.89,8.12)">
          <tspan
             id="tspan1307"
             sodipodi:role="line"
             y="0"
             x="0 5.8920002 12.564 19.236 25.908001 32.580002 36.456001 43.127998 49.799999 56.472 59.136002 65.136002 68.472 75.143997 81.816002 87.816002 90.480003 93.816002 96.480003 103.152 109.824 113.16 115.824 122.496 129.168 135.48">Topographic position index</tspan>
        </text>
      </g>
      <g
         id="g1311" />
      <g
         id="g1313">
        <text
           id="text1317"
           style="font-variant:normal;font-weight:normal;font-size:12px;font-family:Helvetica;-inkscape-font-specification:Helvetica;writing-mode:lr-tb;fill:#000000;fill-opacity:1;fill-rule:nonzero;stroke:none"
           transform="matrix(0,1,1,0,14.1,91.67)">
          <tspan
             id="tspan1315"
             sodipodi:role="line"
             y="0"
             x="0 8.0039997 14.676 21.348 28.02 30.684 33.348 40.02 46.692001 50.028 58.692001 65.363998 72.036003 78.036003 80.699997 84.036003 90.036003">Seedling Density</tspan>
        </text>
        <text
           id="text1321"
           style="font-variant:normal;font-weight:normal;font-size:12px;font-family:Helvetica;-inkscape-font-specification:Helvetica;writing-mode:lr-tb;fill:#000000;fill-opacity:1;fill-rule:nonzero;stroke:none"
           transform="matrix(0,1,1,0,27.06,115.34)">
          <tspan
             id="tspan1319"
             sodipodi:role="line"
             y="0"
             x="0 2.664 9.3360004 16.007999 22.007999 25.344 28.68 35.352001 42.023998">indv./ha)</tspan>
        </text>
      </g>
      <g
         id="g1323" />
      <g
         id="g1325" />
      <g
         id="g1327" />
      <g
         id="g1329" />
      <g
         id="g1331" />
      <g
         id="g1333" />
      <g
         id="g1335" />
      <g
         id="g1337" />
      <g
         id="g1339" />
      <g
         id="g1341" />
      <g
         id="g1343" />
      <g
         id="g1345" />
    </g>
    <rect
       style="opacity:1;fill:#4c6b6a;fill-opacity:1;stroke-width:0.21198297"
       id="rect1449"
       width="6.4012094"
       height="1.643611"
       x="143.9567"
       y="10.054714" />
    <rect
       style="opacity:1;fill:#48281e;fill-opacity:1;stroke-width:0.21198297"
       id="rect1449-11"
       width="6.4012098"
       height="1.643611"
       x="143.95659"
       y="13.901007" />
    <rect
       style="opacity:1;fill:#c8a104;fill-opacity:1;stroke-width:0.21198297"
       id="rect1449-9"
       width="6.4012098"
       height="1.643611"
       x="143.95659"
       y="6.1267152" />
    <text
       y="7.9949002"
       x="152.24498"
       id="text1293-4"
       style="font-variant:normal;font-weight:normal;font-size:3.52777767px;font-family:Helvetica;-inkscape-font-specification:Helvetica;writing-mode:lr-tb;fill:#4d4d4d;fill-opacity:1;fill-rule:nonzero;stroke:none;stroke-width:0.35277775">
      <tspan
         style="stroke-width:0.35277775"
         id="tspan1291-3"
         sodipodi:role="line"
         y="7.9949002"
         x="152.24498">2200m</tspan>
    </text>
    <text
       y="15.902798"
       x="151.96745"
       id="text1293-4-6"
       style="font-variant:normal;font-weight:normal;font-size:3.52777767px;font-family:Helvetica;-inkscape-font-specification:Helvetica;writing-mode:lr-tb;fill:#4d4d4d;fill-opacity:1;fill-rule:nonzero;stroke:none;stroke-width:0.35277775">
      <tspan
         style="stroke-width:0.35277775"
         id="tspan1291-3-5"
         sodipodi:role="line"
         y="15.902798"
         x="151.96745">1200m</tspan>
    </text>
    <text
       y="11.983262"
       x="151.96745"
       id="text1293-4-1"
       style="font-variant:normal;font-weight:normal;font-size:3.52777767px;font-family:Helvetica;-inkscape-font-specification:Helvetica;writing-mode:lr-tb;fill:#4d4d4d;fill-opacity:1;fill-rule:nonzero;stroke:none;stroke-width:0.35277775">
      <tspan
         style="stroke-width:0.35277775"
         id="tspan1291-3-7"
         sodipodi:role="line"
         y="11.983262"
         x="151.96745">1700m</tspan>
    </text>
    <text
       y="4.9770789"
       x="4.351059"
       id="text965-0"
       style="font-variant:normal;font-weight:normal;font-size:3.52777767px;font-family:Helvetica;-inkscape-font-specification:Helvetica;writing-mode:lr-tb;fill:#4d4d4d;fill-opacity:1;fill-rule:nonzero;stroke:none;stroke-width:0.35277775">
      <tspan
         style="stroke-width:0.35277775"
         id="tspan963-5"
         y="4.9770789"
         x="4.351059">a)</tspan>
    </text>
    <text
       y="4.9765811"
       x="86.27018"
       id="text965-0-9"
       style="font-variant:normal;font-weight:normal;font-size:3.52777767px;font-family:Helvetica;-inkscape-font-specification:Helvetica;writing-mode:lr-tb;fill:#4d4d4d;fill-opacity:1;fill-rule:nonzero;stroke:none;stroke-width:0.35277775">
      <tspan
         style="stroke-width:0.35277775"
         id="tspan963-5-0"
         y="4.9765811"
         x="86.27018">b)</tspan>
    </text>
    <text
       y="92.728195"
       x="-49.498878"
       id="text1321-8"
       style="font-variant:normal;font-weight:normal;font-size:4.23333311px;font-family:Helvetica;-inkscape-font-specification:Helvetica;writing-mode:lr-tb;fill:#000000;fill-opacity:1;fill-rule:nonzero;stroke:none;stroke-width:0.35277775"
       transform="rotate(-90)">
      <tspan
         style="stroke-width:0.35277775"
         id="tspan1319-9"
         sodipodi:role="line"
         x="-49.498878"
         y="92.728195">(</tspan>
    </text>
  </g>
</svg>
