<?xml version="1.0" encoding="UTF-8" standalone="no"?>
<!-- Created with Inkscape (http://www.inkscape.org/) -->

<svg
   xmlns:dc="http://purl.org/dc/elements/1.1/"
   xmlns:cc="http://creativecommons.org/ns#"
   xmlns:rdf="http://www.w3.org/1999/02/22-rdf-syntax-ns#"
   xmlns:svg="http://www.w3.org/2000/svg"
   xmlns="http://www.w3.org/2000/svg"
   xmlns:sodipodi="http://sodipodi.sourceforge.net/DTD/sodipodi-0.dtd"
   xmlns:inkscape="http://www.inkscape.org/namespaces/inkscape"
   width="82.927467mm"
   height="88.007469mm"
   viewBox="0 0 82.927467 88.007469"
   version="1.1"
   id="svg4475"
   inkscape:version="0.92.3 (2405546, 2018-03-11)"
   sodipodi:docname="over_comp.svg">
  <defs
     id="defs4469">
    <clipPath
       id="clipPath5062"
       clipPathUnits="userSpaceOnUse">
      <path
         inkscape:connector-curvature="0"
         id="path5060"
         d="M 33.79,33.79 H 228.52 V 242.92 H 33.79 Z" />
    </clipPath>
  </defs>
  <sodipodi:namedview
     id="base"
     pagecolor="#ffffff"
     bordercolor="#666666"
     borderopacity="1.0"
     inkscape:pageopacity="0.0"
     inkscape:pageshadow="2"
     inkscape:zoom="1.9873603"
     inkscape:cx="107.10119"
     inkscape:cy="189.40535"
     inkscape:document-units="mm"
     inkscape:current-layer="layer1"
     showgrid="false"
     inkscape:window-width="1920"
     inkscape:window-height="1001"
     inkscape:window-x="-9"
     inkscape:window-y="-9"
     inkscape:window-maximized="1" />
  <metadata
     id="metadata4472">
    <rdf:RDF>
      <cc:Work
         rdf:about="">
        <dc:format>image/svg+xml</dc:format>
        <dc:type
           rdf:resource="http://purl.org/dc/dcmitype/StillImage" />
        <dc:title />
      </cc:Work>
    </rdf:RDF>
  </metadata>
  <g
     inkscape:label="Layer 1"
     inkscape:groupmode="layer"
     id="layer1"
     transform="translate(-9.1850696,-8.8236498)">
    <g
       transform="matrix(0.35277777,0,0,-0.35277777,9.3738057,96.642384)"
       inkscape:label="over_comp"
       id="g5028"
       inkscape:export-xdpi="400"
       inkscape:export-ydpi="400">
      <g
         id="g5030" />
      <g
         id="g5032" />
      <g
         id="g5034" />
      <g
         id="g5036" />
      <g
         id="g5038" />
      <g
         id="g5040" />
      <g
         id="g5042" />
      <g
         id="g5044" />
      <g
         id="g5046" />
      <g
         id="g5048" />
      <g
         id="g5050">
        <path
           inkscape:connector-curvature="0"
           id="path5052"
           style="fill:#ffffff;fill-opacity:1;fill-rule:nonzero;stroke:#ffffff;stroke-width:1.07000005;stroke-linecap:round;stroke-linejoin:round;stroke-miterlimit:10;stroke-dasharray:none;stroke-opacity:1"
           d="M 0,0 H 234 V 248.4 H 0 Z" />
      </g>
      <g
         id="g5054" />
      <g
         id="g5056">
        <g
           clip-path="url(#clipPath5062)"
           id="g5058">
          <path
             inkscape:connector-curvature="0"
             id="path5064"
             style="fill:none;stroke:#000000;stroke-width:1.07000005;stroke-linecap:round;stroke-linejoin:round;stroke-miterlimit:10;stroke-dasharray:none;stroke-opacity:1"
             d="M 33.79,33.79 H 228.52 V 242.92 H 33.79 Z" />
          <path
             inkscape:connector-curvature="0"
             id="path5066"
             style="fill:#59881b;fill-opacity:0.14900004;fill-rule:nonzero;stroke:none"
             d="m 42.64,233.41 0.25,-0.06 0.25,-0.06 0.26,-0.06 0.25,-0.06 0.25,-0.06 0.26,-0.06 0.25,-0.06 0.25,-0.06 0.25,-0.06 0.26,-0.06 0.25,-0.06 0.25,-0.07 0.26,-0.06 0.25,-0.06 0.25,-0.06 0.25,-0.07 0.26,-0.06 0.25,-0.06 0.25,-0.06 0.26,-0.07 0.25,-0.06 0.25,-0.07 0.25,-0.06 0.26,-0.06 0.25,-0.07 0.25,-0.06 0.26,-0.07 0.25,-0.06 0.25,-0.07 0.26,-0.06 0.25,-0.07 0.25,-0.07 0.25,-0.06 0.26,-0.07 0.25,-0.07 0.25,-0.06 0.26,-0.07 0.25,-0.07 0.25,-0.06 0.25,-0.07 0.26,-0.07 0.25,-0.07 0.25,-0.06 0.26,-0.07 0.25,-0.07 0.25,-0.07 0.25,-0.07 0.26,-0.07 0.25,-0.07 0.25,-0.07 0.26,-0.07 0.25,-0.07 0.25,-0.07 0.25,-0.07 0.26,-0.07 0.25,-0.07 0.25,-0.07 0.26,-0.07 0.25,-0.07 0.25,-0.08 0.26,-0.07 0.25,-0.07 0.25,-0.07 0.25,-0.08 0.26,-0.07 0.25,-0.07 0.25,-0.07 0.26,-0.08 0.25,-0.07 0.25,-0.08 0.25,-0.07 0.26,-0.07 0.25,-0.08 0.25,-0.07 0.26,-0.08 0.25,-0.07 0.25,-0.08 0.25,-0.07 0.26,-0.08 0.25,-0.08 0.25,-0.07 0.26,-0.08 0.25,-0.08 0.25,-0.07 0.25,-0.08 0.26,-0.08 0.25,-0.07 0.25,-0.08 0.26,-0.08 0.25,-0.08 0.25,-0.08 0.26,-0.08 0.25,-0.08 0.25,-0.07 0.25,-0.08 0.26,-0.08 0.25,-0.08 0.25,-0.08 0.26,-0.08 0.25,-0.08 0.25,-0.09 0.25,-0.08 0.26,-0.08 0.25,-0.08 0.25,-0.08 0.26,-0.08 0.25,-0.09 0.25,-0.08 0.25,-0.08 0.26,-0.08 0.25,-0.09 0.25,-0.08 0.26,-0.08 0.25,-0.09 0.25,-0.08 0.25,-0.09 0.26,-0.08 0.25,-0.09 0.25,-0.08 0.26,-0.09 0.25,-0.08 0.25,-0.09 0.26,-0.08 0.25,-0.09 0.25,-0.09 0.25,-0.08 0.26,-0.09 0.25,-0.09 0.25,-0.09 0.26,-0.08 0.25,-0.09 0.25,-0.09 0.25,-0.09 0.26,-0.09 0.25,-0.09 0.25,-0.08 0.26,-0.09 0.25,-0.09 0.25,-0.09 0.25,-0.09 0.26,-0.1 0.25,-0.09 0.25,-0.09 0.26,-0.09 0.25,-0.09 0.25,-0.09 0.25,-0.09 0.26,-0.1 0.25,-0.09 0.25,-0.09 0.26,-0.09 0.25,-0.1 0.25,-0.09 0.25,-0.1 0.26,-0.09 0.25,-0.09 0.25,-0.1 0.26,-0.09 0.25,-0.1 0.25,-0.1 0.26,-0.09 0.25,-0.1 0.25,-0.09 0.25,-0.1 0.26,-0.1 0.25,-0.09 0.25,-0.1 0.26,-0.1 0.25,-0.1 0.25,-0.1 0.25,-0.09 0.26,-0.1 0.25,-0.1 0.25,-0.1 0.26,-0.1 0.25,-0.1 0.25,-0.1 0.25,-0.1 0.26,-0.1 0.25,-0.1 0.25,-0.11 0.26,-0.1 0.25,-0.1 0.25,-0.1 0.25,-0.1 0.26,-0.11 0.25,-0.1 0.25,-0.1 0.26,-0.11 0.25,-0.1 0.25,-0.11 0.26,-0.1 0.25,-0.11 0.25,-0.1 0.25,-0.11 0.26,-0.1 0.25,-0.11 0.25,-0.1 0.26,-0.11 0.25,-0.11 0.25,-0.11 0.25,-0.1 0.26,-0.11 0.25,-0.11 0.25,-0.11 0.26,-0.11 0.25,-0.11 0.25,-0.11 0.25,-0.11 0.26,-0.11 0.25,-0.11 0.25,-0.11 0.26,-0.11 0.25,-0.11 0.25,-0.11 0.25,-0.11 0.26,-0.12 0.25,-0.11 0.25,-0.11 0.26,-0.11 0.25,-0.12 0.25,-0.11 0.26,-0.12 0.25,-0.11 0.25,-0.12 0.25,-0.11 0.26,-0.12 0.25,-0.11 0.25,-0.12 0.26,-0.12 0.25,-0.11 0.25,-0.12 0.25,-0.12 0.26,-0.12 0.25,-0.12 0.25,-0.11 0.26,-0.12 0.25,-0.12 0.25,-0.12 0.25,-0.12 0.26,-0.12 0.25,-0.12 0.25,-0.12 0.26,-0.13 0.25,-0.12 0.25,-0.12 0.25,-0.12 0.26,-0.13 0.25,-0.12 0.25,-0.12 0.26,-0.13 0.25,-0.12 0.25,-0.13 0.26,-0.12 0.25,-0.13 0.25,-0.12 0.25,-0.13 0.26,-0.12 0.25,-0.13 0.25,-0.13 0.26,-0.13 0.25,-0.12 0.25,-0.13 0.25,-0.13 0.26,-0.13 0.25,-0.13 0.25,-0.13 0.26,-0.13 0.25,-0.13 0.25,-0.13 0.25,-0.13 0.26,-0.14 0.25,-0.13 0.25,-0.13 0.26,-0.13 0.25,-0.14 0.25,-0.13 0.25,-0.13 0.26,-0.14 0.25,-0.13 0.25,-0.14 0.26,-0.13 0.25,-0.14 0.25,-0.14 0.26,-0.13 0.25,-0.14 0.25,-0.14 0.25,-0.14 0.26,-0.14 0.25,-0.14 0.25,-0.13 0.26,-0.14 0.25,-0.14 0.25,-0.14 0.25,-0.15 0.26,-0.14 0.25,-0.14 0.25,-0.14 0.26,-0.14 0.25,-0.15 0.25,-0.14 0.25,-0.14 0.26,-0.15 0.25,-0.14 0.25,-0.15 0.26,-0.14 0.25,-0.15 0.25,-0.15 0.25,-0.14 0.26,-0.15 0.25,-0.15 0.25,-0.15 0.26,-0.14 0.25,-0.15 0.25,-0.15 0.25,-0.15 0.26,-0.15 0.25,-0.15 0.25,-0.16 0.26,-0.15 0.25,-0.15 0.25,-0.15 0.26,-0.15 0.25,-0.16 0.25,-0.15 0.25,-0.16 0.26,-0.15 0.25,-0.16 0.25,-0.15 0.26,-0.16 0.25,-0.15 0.25,-0.16 0.25,-0.16 0.26,-0.16 0.25,-0.15 0.25,-0.16 0.26,-0.16 0.25,-0.16 0.25,-0.16 0.25,-0.16 0.26,-0.16 0.25,-0.16 0.25,-0.17 0.26,-0.16 0.25,-0.16 0.25,-0.16 0.25,-0.17 0.26,-0.16 0.25,-0.17 0.25,-0.16 0.26,-0.17 0.25,-0.16 0.25,-0.17 0.26,-0.17 0.25,-0.17 0.25,-0.16 0.25,-0.17 0.26,-0.17 0.25,-0.17 0.25,-0.17 0.26,-0.17 0.25,-0.17 0.25,-0.17 0.25,-0.17 0.26,-0.18 0.25,-0.17 0.25,-0.17 0.26,-0.18 0.25,-0.17 0.25,-0.17 0.25,-0.18 0.26,-0.18 0.25,-0.17 0.25,-0.18 0.26,-0.17 0.25,-0.18 0.25,-0.18 0.25,-0.18 0.26,-0.18 0.25,-0.18 0.25,-0.18 0.26,-0.18 0.25,-0.18 0.25,-0.18 0.26,-0.18 0.25,-0.18 0.25,-0.19 0.25,-0.18 0.26,-0.18 0.25,-0.19 0.25,-0.18 0.26,-0.19 0.25,-0.18 0.25,-0.19 0.25,-0.19 0.26,-0.18 0.25,-0.19 0.25,-0.19 0.26,-0.19 0.25,-0.19 0.25,-0.19 0.25,-0.19 0.26,-0.19 0.25,-0.19 0.25,-0.19 0.26,-0.19 0.25,-0.19 0.25,-0.2 0.25,-0.19 0.26,-0.19 0.25,-0.2 0.25,-0.19 0.26,-0.2 0.25,-0.2 0.25,-0.19 0.26,-0.2 0.25,-0.2 0.25,-0.19 0.25,-0.2 0.26,-0.2 0.25,-0.2 0.25,-0.2 0.26,-0.2 0.25,-0.2 0.25,-0.2 0.25,-0.2 0.26,-0.21 0.25,-0.2 0.25,-0.2 0.26,-0.21 0.25,-0.2 0.25,-0.2 0.25,-0.21 0.26,-0.2 0.25,-0.21 0.25,-0.21 0.26,-0.2 0.25,-0.21 0.25,-0.21 0.25,-0.21 0.26,-0.21 0.25,-0.21 0.25,-0.21 0.26,-0.21 0.25,-0.21 0.25,-0.21 0.26,-0.21 0.25,-0.21 0.25,-0.21 0.25,-0.22 0.26,-0.21 0.25,-0.21 0.25,-0.22 0.26,-0.21 0.25,-0.22 0.25,-0.21 0.25,-0.22 0.26,-0.22 0.25,-0.21 0.25,-0.22 0.26,-0.22 0.25,-0.22 0.25,-0.22 0.25,-0.22 0.26,-0.22 0.25,-0.22 0.25,-0.22 0.26,-0.22 0.25,-0.22 0.25,-0.22 0.25,-0.22 0.26,-0.23 0.25,-0.22 0.25,-0.22 0.26,-0.23 0.25,-0.22 0.25,-0.23 0.25,-0.22 0.26,-0.23 0.25,-0.22 0.25,-0.23 0.26,-0.23 0.25,-0.22 0.25,-0.23 0.26,-0.23 0.25,-0.23 0.25,-0.23 0.25,-0.23 0.26,-0.23 0.25,-0.23 0.25,-0.23 0.26,-0.23 0.25,-0.23 0.25,-0.23 0.25,-0.23 0.26,-0.24 0.25,-0.23 0.25,-0.23 0.26,-0.24 0.25,-0.23 0.25,-0.23 0.25,-0.24 0.26,-0.23 0.25,-0.24 0.25,-0.24 0.26,-0.23 0.25,-0.24 0.25,-0.24 0.25,-0.23 0.26,-0.24 0.25,-0.24 0.25,-0.24 0.26,-0.24 0.25,-0.24 0.25,-0.23 0.26,-0.24 0.25,-0.24 0.25,-0.24 0.25,-0.25 0.26,-0.24 0.25,-0.24 0.25,-0.24 0.26,-0.24 0.25,-0.24 0.25,-0.25 0.25,-0.24 0.26,-0.24 0.25,-0.25 0.25,-0.24 0.26,-0.24 0.25,-0.25 0.25,-0.24 0.25,-0.25 0.26,-0.24 0.25,-0.25 0.25,-0.24 0.26,-0.25 0.25,-0.25 0.25,-0.24 0.25,-0.25 0.26,-0.25 0.25,-0.25 0.25,-0.24 0.26,-0.25 0.25,-0.25 0.25,-0.25 0.26,-0.25 0.25,-0.25 0.25,-0.24 0.25,-0.25 0.26,-0.25 0.25,-0.25 0.25,-0.25 0.26,-0.25 0.25,-0.25 0.25,-0.26 0.25,-0.25 0.26,-0.25 0.25,-0.25 0.25,-0.25 0.26,-0.25 0.25,-0.25 0.25,-0.26 0.25,-0.25 0.26,-0.25 0.25,-0.25 0.25,-0.26 0.26,-0.25 0.25,-0.25 0.25,-0.26 0.25,-0.25 0.26,-0.25 0.25,-0.26 0.25,-0.25 0.26,-0.26 0.25,-0.25 0.25,-0.26 0.26,-0.25 0.25,-0.26 0.25,-0.25 0.25,-0.26 0.26,-0.25 0.25,-0.26 0.25,-0.25 0.26,-0.26 0.25,-0.25 0.25,-0.26 0.25,-0.25 0.26,-0.26 0.25,-0.26 0.25,-0.25 0.26,-0.26 0.25,-0.25 0.25,-0.26 0.25,-0.26 0.26,-0.25 0.25,-0.26 0.25,-0.26 0.26,-0.25 0.25,-0.26 0.25,-0.26 0.25,-0.26 0.26,-0.25 0.25,-0.26 0.25,-0.26 0.26,-0.25 0.25,-0.26 0.25,-0.26 0.26,-0.26 0.25,-0.25 0.25,-0.26 0.25,-0.26 0.26,-0.25 0.25,-0.26 0.25,-0.26 0.26,-0.26 0.25,-0.25 0.25,-0.26 0.25,-0.26 0.26,-0.26 0.25,-0.25 0.25,-0.26 0.26,-0.26 0.25,-0.25 0.25,-0.26 0.25,-0.26 0.26,-0.26 0.25,-0.25 0.25,-0.26 0.26,-0.26 0.25,-0.25 0.25,-0.26 0.25,-0.26 0.26,-0.25 0.25,-0.26 0.25,-0.26 0.26,-0.25 0.25,-0.26 0.25,-0.26 0.25,-0.25 0.26,-0.26 0.25,-0.26 0.25,-0.25 0.26,-0.26 0.25,-0.25 0.25,-0.26 0.26,-0.26 0.25,-0.25 0.25,-0.26 0.25,-0.25 0.26,-0.26 0.25,-0.25 0.25,-0.26 0.26,-0.25 0.25,-0.26 0.25,-0.25 0.25,-0.26 0.26,-0.25 0.25,-0.25 0.25,-0.26 0.26,-0.25 0.25,-0.25 0.25,-0.26 0.25,-0.25 0.26,-0.25 0.25,-0.26 0.25,-0.25 0.26,-0.25 0.25,-0.26 0.25,-0.25 0.25,-0.25 0.26,-0.25 0.25,-0.25 0.25,-0.25 0.26,-0.26 0.25,-0.25 0.25,-0.25 0.26,-0.25 0.25,-0.25 0.25,-0.25 0.25,-0.25 0.26,-0.25 0.25,-0.25 0.25,-0.25 0.26,-0.25 0.25,-0.24 0.25,-0.25 0.25,-0.25 0.26,-0.25 0.25,-0.25 0.25,-0.24 0.26,-0.25 0.25,-0.25 0.25,-0.25 0.25,-0.24 0.26,-0.25 0.25,-0.24 0.25,-0.25 0.26,-0.25 0.25,-0.24 V 48.55 l -0.25,0.13 -0.26,0.13 -0.25,0.14 -0.25,0.13 -0.26,0.13 -0.25,0.14 -0.25,0.13 -0.25,0.14 -0.26,0.14 -0.25,0.14 -0.25,0.13 -0.26,0.14 -0.25,0.14 -0.25,0.14 -0.25,0.15 -0.26,0.14 -0.25,0.14 -0.25,0.15 -0.26,0.14 -0.25,0.15 -0.25,0.15 -0.25,0.15 -0.26,0.14 -0.25,0.15 -0.25,0.15 -0.26,0.16 -0.25,0.15 -0.25,0.15 -0.26,0.16 -0.25,0.15 -0.25,0.16 -0.25,0.15 -0.26,0.16 -0.25,0.16 -0.25,0.16 -0.26,0.16 -0.25,0.16 -0.25,0.16 -0.25,0.16 -0.26,0.17 -0.25,0.16 -0.25,0.17 -0.26,0.16 -0.25,0.17 -0.25,0.17 -0.25,0.17 -0.26,0.17 -0.25,0.17 -0.25,0.17 -0.26,0.17 -0.25,0.18 -0.25,0.17 -0.25,0.18 -0.26,0.17 -0.25,0.18 -0.25,0.18 -0.26,0.18 -0.25,0.18 -0.25,0.18 -0.26,0.18 -0.25,0.18 -0.25,0.18 -0.25,0.19 -0.26,0.18 -0.25,0.19 -0.25,0.19 -0.26,0.19 -0.25,0.18 -0.25,0.19 -0.25,0.19 -0.26,0.2 -0.25,0.19 -0.25,0.19 -0.26,0.2 -0.25,0.19 -0.25,0.2 -0.25,0.2 -0.26,0.19 -0.25,0.2 -0.25,0.2 -0.26,0.21 -0.25,0.2 -0.25,0.2 -0.25,0.2 -0.26,0.21 -0.25,0.2 -0.25,0.21 -0.26,0.21 -0.25,0.21 -0.25,0.21 -0.25,0.21 -0.26,0.21 -0.25,0.21 -0.25,0.21 -0.26,0.22 -0.25,0.21 -0.25,0.22 -0.26,0.22 -0.25,0.21 -0.25,0.22 -0.25,0.22 -0.26,0.22 -0.25,0.22 -0.25,0.23 -0.26,0.22 -0.25,0.22 -0.25,0.23 -0.25,0.23 -0.26,0.22 -0.25,0.23 -0.25,0.23 -0.26,0.23 -0.25,0.23 -0.25,0.23 -0.25,0.23 -0.26,0.24 -0.25,0.23 -0.25,0.24 -0.26,0.23 -0.25,0.24 -0.25,0.24 -0.25,0.24 -0.26,0.24 -0.25,0.24 -0.25,0.24 -0.26,0.24 -0.25,0.25 -0.25,0.24 -0.26,0.25 -0.25,0.24 -0.25,0.25 -0.25,0.25 -0.26,0.25 -0.25,0.25 -0.25,0.25 -0.26,0.25 -0.25,0.25 -0.25,0.26 -0.25,0.25 -0.26,0.26 -0.25,0.25 -0.25,0.26 -0.26,0.26 -0.25,0.26 -0.25,0.26 -0.25,0.26 -0.26,0.26 -0.25,0.26 -0.25,0.26 -0.26,0.27 -0.25,0.26 -0.25,0.27 -0.25,0.27 -0.26,0.26 -0.25,0.27 -0.25,0.27 -0.26,0.27 -0.25,0.27 -0.25,0.27 -0.26,0.27 -0.25,0.28 -0.25,0.27 -0.25,0.28 -0.26,0.27 -0.25,0.28 -0.25,0.28 -0.26,0.28 -0.25,0.27 -0.25,0.28 -0.25,0.28 -0.26,0.29 -0.25,0.28 -0.25,0.28 -0.26,0.29 -0.25,0.28 -0.25,0.29 -0.25,0.28 -0.26,0.29 -0.25,0.29 -0.25,0.29 -0.26,0.28 -0.25,0.29 -0.25,0.3 -0.25,0.29 -0.26,0.29 -0.25,0.29 -0.25,0.3 -0.26,0.29 -0.25,0.3 -0.25,0.29 -0.26,0.3 -0.25,0.3 -0.25,0.29 -0.25,0.3 -0.26,0.3 -0.25,0.3 -0.25,0.3 -0.26,0.31 -0.25,0.3 -0.25,0.3 -0.25,0.3 -0.26,0.31 -0.25,0.3 -0.25,0.31 -0.26,0.31 -0.25,0.3 -0.25,0.31 -0.25,0.31 -0.26,0.31 -0.25,0.31 -0.25,0.31 -0.26,0.31 -0.25,0.31 -0.25,0.31 -0.25,0.31 -0.26,0.32 -0.25,0.31 -0.25,0.32 -0.26,0.31 -0.25,0.32 -0.25,0.31 -0.26,0.32 -0.25,0.32 -0.25,0.32 -0.25,0.31 -0.26,0.32 -0.25,0.32 -0.25,0.32 -0.26,0.32 -0.25,0.33 -0.25,0.32 -0.25,0.32 -0.26,0.32 -0.25,0.33 -0.25,0.32 -0.26,0.32 -0.25,0.33 -0.25,0.32 -0.25,0.33 -0.26,0.33 -0.25,0.32 -0.25,0.33 -0.26,0.33 -0.25,0.32 -0.25,0.33 -0.25,0.33 -0.26,0.33 -0.25,0.33 -0.25,0.33 -0.26,0.33 -0.25,0.33 -0.25,0.33 -0.25,0.34 -0.26,0.33 -0.25,0.33 -0.25,0.33 -0.26,0.34 -0.25,0.33 -0.25,0.33 -0.26,0.34 -0.25,0.33 -0.25,0.34 -0.25,0.33 -0.26,0.34 -0.25,0.34 -0.25,0.33 -0.26,0.34 -0.25,0.34 -0.25,0.33 -0.25,0.34 -0.26,0.34 -0.25,0.34 -0.25,0.33 -0.26,0.34 -0.25,0.34 -0.25,0.34 -0.25,0.34 -0.26,0.34 -0.25,0.34 -0.25,0.34 -0.26,0.34 -0.25,0.34 -0.25,0.34 -0.25,0.34 -0.26,0.34 -0.25,0.34 -0.25,0.34 -0.26,0.35 -0.25,0.34 -0.25,0.34 -0.26,0.34 -0.25,0.34 -0.25,0.35 -0.25,0.34 -0.26,0.34 -0.25,0.34 -0.25,0.35 -0.26,0.34 -0.25,0.34 -0.25,0.34 -0.25,0.35 -0.26,0.34 -0.25,0.34 -0.25,0.35 -0.26,0.34 -0.25,0.34 -0.25,0.35 -0.25,0.34 -0.26,0.34 -0.25,0.35 -0.25,0.34 -0.26,0.34 -0.25,0.35 -0.25,0.34 -0.25,0.34 -0.26,0.35 -0.25,0.34 -0.25,0.34 -0.26,0.35 -0.25,0.34 -0.25,0.34 -0.26,0.35 -0.25,0.34 -0.25,0.34 -0.25,0.35 -0.26,0.34 -0.25,0.34 -0.25,0.34 -0.26,0.35 -0.25,0.34 -0.25,0.34 -0.25,0.34 -0.26,0.35 -0.25,0.34 -0.25,0.34 -0.26,0.34 -0.25,0.34 -0.25,0.34 -0.25,0.35 -0.26,0.34 -0.25,0.34 -0.25,0.34 -0.26,0.34 -0.25,0.34 -0.25,0.34 -0.25,0.34 -0.26,0.34 -0.25,0.34 -0.25,0.34 -0.26,0.33 -0.25,0.34 -0.25,0.34 -0.26,0.34 -0.25,0.34 -0.25,0.34 -0.25,0.33 -0.26,0.34 -0.25,0.34 -0.25,0.33 -0.26,0.34 -0.25,0.34 -0.25,0.33 -0.25,0.34 -0.26,0.33 -0.25,0.34 -0.25,0.33 -0.26,0.33 -0.25,0.34 -0.25,0.33 -0.25,0.33 -0.26,0.34 -0.25,0.33 -0.25,0.33 -0.26,0.33 -0.25,0.33 -0.25,0.33 -0.25,0.33 -0.26,0.33 -0.25,0.33 -0.25,0.33 -0.26,0.33 -0.25,0.33 -0.25,0.33 -0.26,0.32 -0.25,0.33 -0.25,0.33 -0.25,0.32 -0.26,0.33 -0.25,0.32 -0.25,0.33 -0.26,0.32 -0.25,0.33 -0.25,0.32 -0.25,0.32 -0.26,0.33 -0.25,0.32 -0.25,0.32 -0.26,0.32 -0.25,0.32 -0.25,0.32 -0.25,0.32 -0.26,0.32 -0.25,0.32 -0.25,0.31 -0.26,0.32 -0.25,0.32 -0.25,0.31 -0.25,0.32 -0.26,0.31 -0.25,0.32 -0.25,0.31 -0.26,0.32 -0.25,0.31 -0.25,0.31 -0.25,0.31 -0.26,0.31 -0.25,0.32 -0.25,0.31 -0.26,0.3 -0.25,0.31 -0.25,0.31 -0.26,0.31 -0.25,0.31 -0.25,0.3 -0.25,0.31 -0.26,0.3 -0.25,0.31 -0.25,0.3 -0.26,0.31 -0.25,0.3 -0.25,0.3 -0.25,0.3 -0.26,0.3 -0.25,0.3 -0.25,0.3 -0.26,0.3 -0.25,0.3 -0.25,0.3 -0.25,0.29 -0.26,0.3 -0.25,0.3 -0.25,0.29 -0.26,0.3 -0.25,0.29 -0.25,0.29 -0.25,0.29 -0.26,0.3 -0.25,0.29 -0.25,0.29 -0.26,0.29 -0.25,0.28 -0.25,0.29 -0.26,0.29 -0.25,0.29 -0.25,0.28 -0.25,0.29 -0.26,0.28 -0.25,0.29 -0.25,0.28 -0.26,0.28 -0.25,0.28 -0.25,0.29 -0.25,0.28 -0.26,0.28 -0.25,0.27 -0.25,0.28 -0.26,0.28 -0.25,0.28 -0.25,0.27 -0.25,0.28 -0.26,0.27 -0.25,0.28 -0.25,0.27 -0.26,0.27 -0.25,0.27 -0.25,0.27 -0.25,0.27 -0.26,0.27 -0.25,0.27 -0.25,0.27 -0.26,0.27 -0.25,0.26 -0.25,0.27 -0.26,0.26 -0.25,0.27 -0.25,0.26 -0.25,0.26 -0.26,0.26 -0.25,0.26 -0.25,0.26 -0.26,0.26 -0.25,0.26 -0.25,0.26 -0.25,0.26 -0.26,0.25 -0.25,0.26 -0.25,0.25 -0.26,0.26 -0.25,0.25 -0.25,0.25 -0.25,0.26 -0.26,0.25 -0.25,0.25 -0.25,0.25 -0.26,0.24 -0.25,0.25 -0.25,0.25 -0.25,0.24 -0.26,0.25 -0.25,0.24 -0.25,0.25 -0.26,0.24 -0.25,0.24 -0.25,0.25 -0.26,0.24 -0.25,0.24 -0.25,0.23 -0.25,0.24 -0.26,0.24 -0.25,0.24 -0.25,0.23 -0.26,0.24 -0.25,0.23 -0.25,0.24 -0.25,0.23 -0.26,0.23 -0.25,0.23 -0.25,0.23 -0.26,0.23 -0.25,0.23 -0.25,0.23 -0.25,0.23 -0.26,0.22 -0.25,0.23 -0.25,0.22 -0.26,0.23 -0.25,0.22 -0.25,0.22 -0.25,0.22 -0.26,0.22 -0.25,0.23 -0.25,0.21 -0.26,0.22 -0.25,0.22 -0.25,0.22 -0.26,0.21 -0.25,0.22 -0.25,0.21 -0.25,0.22 -0.26,0.21 -0.25,0.21 -0.25,0.21 -0.26,0.21 -0.25,0.21 -0.25,0.21 -0.25,0.21 -0.26,0.21 -0.25,0.21 -0.25,0.2 -0.26,0.21 -0.25,0.2 -0.25,0.2 -0.25,0.21 -0.26,0.2 -0.25,0.2 -0.25,0.2 -0.26,0.2 -0.25,0.2 -0.25,0.2 -0.25,0.2 -0.26,0.19 -0.25,0.2 -0.25,0.19 -0.26,0.2 -0.25,0.19 -0.25,0.19 -0.25,0.2 -0.26,0.19 -0.25,0.19 -0.25,0.19 -0.26,0.19 -0.25,0.18 -0.25,0.19 -0.26,0.19 -0.25,0.18 -0.25,0.19 -0.25,0.18 -0.26,0.19 -0.25,0.18 -0.25,0.18 -0.26,0.18 -0.25,0.19 -0.25,0.18 -0.25,0.17 -0.26,0.18 -0.25,0.18 -0.25,0.18 -0.26,0.17 -0.25,0.18 -0.25,0.17 -0.25,0.18 -0.26,0.17 -0.25,0.17 -0.25,0.18 -0.26,0.17 -0.25,0.17 -0.25,0.17 -0.25,0.17 -0.26,0.16 -0.25,0.17 -0.25,0.17 -0.26,0.16 -0.25,0.17 -0.25,0.16 -0.26,0.17 -0.25,0.16 -0.25,0.16 -0.25,0.17 -0.26,0.16 -0.25,0.16 -0.25,0.16 -0.26,0.16 -0.25,0.15 -0.25,0.16 -0.25,0.16 -0.26,0.16 -0.25,0.15 -0.25,0.16 -0.26,0.15 -0.25,0.15 -0.25,0.16 -0.25,0.15 -0.26,0.15 -0.25,0.15 -0.25,0.15 -0.26,0.15 -0.25,0.15 -0.25,0.15 -0.25,0.14 -0.26,0.15 -0.25,0.15 -0.25,0.14 -0.26,0.15 -0.25,0.14 -0.25,0.15 -0.26,0.14 -0.25,0.14 -0.25,0.14 -0.25,0.14 -0.26,0.14 -0.25,0.14 -0.25,0.14 -0.26,0.14 -0.25,0.14 -0.25,0.13 -0.25,0.14 -0.26,0.14 -0.25,0.13 -0.25,0.14 -0.26,0.13 -0.25,0.13 -0.25,0.14 -0.25,0.13 -0.26,0.13 -0.25,0.13 -0.25,0.13 -0.26,0.13 -0.25,0.13 -0.25,0.13 -0.25,0.13 -0.26,0.12 -0.25,0.13 -0.25,0.13 -0.26,0.12 -0.25,0.13 -0.25,0.12 -0.26,0.12 -0.25,0.13 -0.25,0.12 -0.25,0.12 -0.26,0.12 -0.25,0.12 -0.25,0.12 -0.26,0.12 -0.25,0.12 -0.25,0.12 -0.25,0.12 -0.26,0.11 -0.25,0.12 -0.25,0.12 -0.26,0.11 -0.25,0.12 -0.25,0.11 -0.25,0.12 -0.26,0.11 -0.25,0.11 -0.25,0.12 -0.26,0.11 -0.25,0.11 -0.25,0.11 z" />
          <path
             inkscape:connector-curvature="0"
             id="path5068"
             style="fill:#59881b;fill-opacity:0.14900004;fill-rule:nonzero;stroke:none"
             d="m 42.64,225.25 0.25,-0.11 0.25,-0.11 0.26,-0.11 0.25,-0.11 0.25,-0.11 0.26,-0.11 0.25,-0.11 0.25,-0.11 0.25,-0.11 0.26,-0.11 0.25,-0.11 0.25,-0.12 0.26,-0.11 0.25,-0.11 0.25,-0.12 0.25,-0.11 0.26,-0.11 0.25,-0.12 0.25,-0.11 0.26,-0.12 0.25,-0.12 0.25,-0.11 0.25,-0.12 0.26,-0.12 0.25,-0.12 0.25,-0.11 0.26,-0.12 0.25,-0.12 0.25,-0.12 0.26,-0.12 0.25,-0.12 0.25,-0.12 0.25,-0.12 0.26,-0.13 0.25,-0.12 0.25,-0.12 0.26,-0.12 0.25,-0.13 0.25,-0.12 0.25,-0.12 0.26,-0.13 0.25,-0.12 0.25,-0.13 0.26,-0.13 0.25,-0.12 0.25,-0.13 0.25,-0.12 0.26,-0.13 0.25,-0.13 0.25,-0.13 0.26,-0.13 0.25,-0.13 0.25,-0.13 0.25,-0.13 0.26,-0.13 0.25,-0.13 0.25,-0.13 0.26,-0.13 0.25,-0.13 0.25,-0.13 0.26,-0.14 0.25,-0.13 0.25,-0.13 0.25,-0.14 0.26,-0.13 0.25,-0.14 0.25,-0.13 0.26,-0.14 0.25,-0.14 0.25,-0.13 0.25,-0.14 0.26,-0.14 0.25,-0.13 0.25,-0.14 0.26,-0.14 0.25,-0.14 0.25,-0.14 0.25,-0.14 0.26,-0.14 0.25,-0.14 0.25,-0.14 0.26,-0.14 0.25,-0.15 0.25,-0.14 0.25,-0.14 0.26,-0.14 0.25,-0.15 0.25,-0.14 0.26,-0.15 0.25,-0.14 0.25,-0.15 0.26,-0.14 0.25,-0.15 0.25,-0.15 0.25,-0.14 0.26,-0.15 0.25,-0.15 0.25,-0.15 0.26,-0.15 0.25,-0.14 0.25,-0.15 0.25,-0.15 0.26,-0.15 0.25,-0.16 0.25,-0.15 0.26,-0.15 0.25,-0.15 0.25,-0.15 0.25,-0.16 0.26,-0.15 0.25,-0.15 0.25,-0.16 0.26,-0.15 0.25,-0.16 0.25,-0.15 0.25,-0.16 0.26,-0.15 0.25,-0.16 0.25,-0.16 0.26,-0.15 0.25,-0.16 0.25,-0.16 0.26,-0.16 0.25,-0.16 0.25,-0.16 0.25,-0.16 0.26,-0.16 0.25,-0.16 0.25,-0.16 0.26,-0.16 0.25,-0.16 0.25,-0.17 0.25,-0.16 0.26,-0.16 0.25,-0.17 0.25,-0.16 0.26,-0.16 0.25,-0.17 0.25,-0.16 0.25,-0.17 0.26,-0.17 0.25,-0.16 0.25,-0.17 0.26,-0.17 0.25,-0.16 0.25,-0.17 0.25,-0.17 0.26,-0.17 0.25,-0.17 0.25,-0.17 0.26,-0.17 0.25,-0.17 0.25,-0.17 0.25,-0.17 0.26,-0.17 0.25,-0.18 0.25,-0.17 0.26,-0.17 0.25,-0.17 0.25,-0.18 0.26,-0.17 0.25,-0.18 0.25,-0.17 0.25,-0.18 0.26,-0.17 0.25,-0.18 0.25,-0.18 0.26,-0.17 0.25,-0.18 0.25,-0.18 0.25,-0.18 0.26,-0.17 0.25,-0.18 0.25,-0.18 0.26,-0.18 0.25,-0.18 0.25,-0.18 0.25,-0.18 0.26,-0.19 0.25,-0.18 0.25,-0.18 0.26,-0.18 0.25,-0.19 0.25,-0.18 0.25,-0.18 0.26,-0.19 0.25,-0.18 0.25,-0.19 0.26,-0.18 0.25,-0.19 0.25,-0.18 0.26,-0.19 0.25,-0.19 0.25,-0.18 0.25,-0.19 0.26,-0.19 0.25,-0.19 0.25,-0.19 0.26,-0.19 0.25,-0.19 0.25,-0.19 0.25,-0.19 0.26,-0.19 0.25,-0.19 0.25,-0.19 0.26,-0.19 0.25,-0.19 0.25,-0.2 0.25,-0.19 0.26,-0.19 0.25,-0.2 0.25,-0.19 0.26,-0.19 0.25,-0.2 0.25,-0.2 0.25,-0.19 0.26,-0.2 0.25,-0.19 0.25,-0.2 0.26,-0.2 0.25,-0.2 0.25,-0.19 0.26,-0.2 0.25,-0.2 0.25,-0.2 0.25,-0.2 0.26,-0.2 0.25,-0.2 0.25,-0.2 0.26,-0.2 0.25,-0.2 0.25,-0.2 0.25,-0.21 0.26,-0.2 0.25,-0.2 0.25,-0.2 0.26,-0.21 0.25,-0.2 0.25,-0.21 0.25,-0.2 0.26,-0.21 0.25,-0.2 0.25,-0.21 0.26,-0.2 0.25,-0.21 0.25,-0.21 0.25,-0.2 0.26,-0.21 0.25,-0.21 0.25,-0.21 0.26,-0.2 0.25,-0.21 0.25,-0.21 0.26,-0.21 0.25,-0.21 0.25,-0.21 0.25,-0.21 0.26,-0.21 0.25,-0.22 0.25,-0.21 0.26,-0.21 0.25,-0.21 0.25,-0.22 0.25,-0.21 0.26,-0.21 0.25,-0.22 0.25,-0.21 0.26,-0.21 0.25,-0.22 0.25,-0.21 0.25,-0.22 0.26,-0.22 0.25,-0.21 0.25,-0.22 0.26,-0.22 0.25,-0.21 0.25,-0.22 0.25,-0.22 0.26,-0.22 0.25,-0.21 0.25,-0.22 0.26,-0.22 0.25,-0.22 0.25,-0.22 0.26,-0.22 0.25,-0.22 0.25,-0.22 0.25,-0.22 0.26,-0.23 0.25,-0.22 0.25,-0.22 0.26,-0.22 0.25,-0.22 0.25,-0.23 0.25,-0.22 0.26,-0.22 0.25,-0.23 0.25,-0.22 0.26,-0.23 0.25,-0.22 0.25,-0.23 0.25,-0.22 0.26,-0.23 0.25,-0.22 0.25,-0.23 0.26,-0.23 0.25,-0.22 0.25,-0.23 0.25,-0.23 0.26,-0.23 0.25,-0.23 0.25,-0.22 0.26,-0.23 0.25,-0.23 0.25,-0.23 0.25,-0.23 0.26,-0.23 0.25,-0.23 0.25,-0.23 0.26,-0.23 0.25,-0.23 0.25,-0.23 0.26,-0.23 0.25,-0.24 0.25,-0.23 0.25,-0.23 0.26,-0.23 0.25,-0.24 0.25,-0.23 0.26,-0.23 0.25,-0.24 0.25,-0.23 0.25,-0.23 0.26,-0.24 0.25,-0.23 0.25,-0.24 0.26,-0.23 0.25,-0.24 0.25,-0.23 0.25,-0.24 0.26,-0.24 0.25,-0.23 0.25,-0.24 0.26,-0.24 0.25,-0.23 0.25,-0.24 0.25,-0.24 0.26,-0.24 0.25,-0.23 0.25,-0.24 0.26,-0.24 0.25,-0.24 0.25,-0.24 0.26,-0.24 0.25,-0.24 0.25,-0.23 0.25,-0.24 0.26,-0.24 0.25,-0.24 0.25,-0.24 0.26,-0.25 0.25,-0.24 0.25,-0.24 0.25,-0.24 0.26,-0.24 0.25,-0.24 0.25,-0.24 0.26,-0.24 0.25,-0.25 0.25,-0.24 0.25,-0.24 0.26,-0.24 0.25,-0.25 0.25,-0.24 0.26,-0.24 0.25,-0.25 0.25,-0.24 0.25,-0.24 0.26,-0.25 0.25,-0.24 0.25,-0.25 0.26,-0.24 0.25,-0.24 0.25,-0.25 0.26,-0.24 0.25,-0.25 0.25,-0.24 0.25,-0.25 0.26,-0.24 0.25,-0.25 0.25,-0.25 0.26,-0.24 0.25,-0.25 0.25,-0.24 0.25,-0.25 0.26,-0.25 0.25,-0.24 0.25,-0.25 0.26,-0.24 0.25,-0.25 0.25,-0.25 0.25,-0.25 0.26,-0.24 0.25,-0.25 0.25,-0.25 0.26,-0.24 0.25,-0.25 0.25,-0.25 0.25,-0.25 0.26,-0.24 0.25,-0.25 0.25,-0.25 0.26,-0.25 0.25,-0.25 0.25,-0.24 0.26,-0.25 0.25,-0.25 0.25,-0.25 0.25,-0.25 0.26,-0.25 0.25,-0.25 0.25,-0.24 0.26,-0.25 0.25,-0.25 0.25,-0.25 0.25,-0.25 0.26,-0.25 0.25,-0.25 0.25,-0.25 0.26,-0.24 0.25,-0.25 0.25,-0.25 0.25,-0.25 0.26,-0.25 0.25,-0.25 0.25,-0.25 0.26,-0.25 0.25,-0.25 0.25,-0.25 0.25,-0.25 0.26,-0.25 0.25,-0.24 0.25,-0.25 0.26,-0.25 0.25,-0.25 0.25,-0.25 0.26,-0.25 0.25,-0.25 0.25,-0.25 0.25,-0.25 0.26,-0.25 0.25,-0.25 0.25,-0.25 0.26,-0.25 0.25,-0.24 0.25,-0.25 0.25,-0.25 0.26,-0.25 0.25,-0.25 0.25,-0.25 0.26,-0.25 0.25,-0.25 0.25,-0.25 0.25,-0.24 0.26,-0.25 0.25,-0.25 0.25,-0.25 0.26,-0.25 0.25,-0.25 0.25,-0.24 0.25,-0.25 0.26,-0.25 0.25,-0.25 0.25,-0.25 0.26,-0.24 0.25,-0.25 0.25,-0.25 0.25,-0.25 0.26,-0.25 0.25,-0.24 0.25,-0.25 0.26,-0.25 0.25,-0.24 0.25,-0.25 0.26,-0.25 0.25,-0.24 0.25,-0.25 0.25,-0.25 0.26,-0.24 0.25,-0.25 0.25,-0.25 0.26,-0.24 0.25,-0.25 0.25,-0.24 0.25,-0.25 0.26,-0.24 0.25,-0.25 0.25,-0.25 0.26,-0.24 0.25,-0.25 0.25,-0.24 0.25,-0.24 0.26,-0.25 0.25,-0.24 0.25,-0.25 0.26,-0.24 0.25,-0.24 0.25,-0.25 0.25,-0.24 0.26,-0.24 0.25,-0.25 0.25,-0.24 0.26,-0.24 0.25,-0.24 0.25,-0.25 0.26,-0.24 0.25,-0.24 0.25,-0.24 0.25,-0.24 0.26,-0.24 0.25,-0.25 0.25,-0.24 0.26,-0.24 0.25,-0.24 0.25,-0.24 0.25,-0.24 0.26,-0.24 0.25,-0.24 0.25,-0.24 0.26,-0.23 0.25,-0.24 0.25,-0.24 0.25,-0.24 0.26,-0.24 0.25,-0.24 0.25,-0.23 0.26,-0.24 0.25,-0.24 0.25,-0.23 0.25,-0.24 0.26,-0.24 0.25,-0.23 0.25,-0.24 0.26,-0.23 0.25,-0.24 0.25,-0.23 0.26,-0.24 0.25,-0.23 0.25,-0.24 0.25,-0.23 0.26,-0.23 0.25,-0.24 0.25,-0.23 0.26,-0.23 0.25,-0.24 0.25,-0.23 0.25,-0.23 0.26,-0.23 0.25,-0.23 0.25,-0.23 0.26,-0.23 0.25,-0.23 0.25,-0.23 0.25,-0.23 0.26,-0.23 0.25,-0.23 0.25,-0.23 0.26,-0.23 0.25,-0.23 0.25,-0.23 0.25,-0.22 0.26,-0.23 0.25,-0.23 0.25,-0.22 0.26,-0.23 0.25,-0.23 0.25,-0.22 0.26,-0.23 0.25,-0.22 0.25,-0.23 0.25,-0.22 0.26,-0.22 0.25,-0.23 0.25,-0.22 0.26,-0.22 0.25,-0.22 0.25,-0.23 0.25,-0.22 0.26,-0.22 0.25,-0.22 0.25,-0.22 0.26,-0.22 0.25,-0.22 0.25,-0.22 0.25,-0.22 0.26,-0.22 0.25,-0.22 0.25,-0.22 0.26,-0.21 0.25,-0.22 0.25,-0.22 0.25,-0.21 0.26,-0.22 0.25,-0.22 0.25,-0.21 0.26,-0.22 0.25,-0.21 0.25,-0.21 0.26,-0.22 0.25,-0.21 0.25,-0.22 0.25,-0.21 0.26,-0.21 0.25,-0.21 0.25,-0.21 0.26,-0.21 0.25,-0.22 0.25,-0.21 0.25,-0.21 0.26,-0.2 0.25,-0.21 0.25,-0.21 0.26,-0.21 0.25,-0.21 0.25,-0.21 0.25,-0.2 0.26,-0.21 0.25,-0.21 0.25,-0.2 0.26,-0.21 0.25,-0.2 0.25,-0.21 0.25,-0.2 0.26,-0.2 0.25,-0.21 0.25,-0.2 0.26,-0.2 0.25,-0.2 0.25,-0.21 0.25,-0.2 0.26,-0.2 0.25,-0.2 0.25,-0.2 0.26,-0.2 0.25,-0.2 0.25,-0.2 0.26,-0.19 0.25,-0.2 0.25,-0.2 0.25,-0.2 0.26,-0.19 0.25,-0.2 0.25,-0.19 0.26,-0.2 0.25,-0.19 0.25,-0.2 0.25,-0.19 0.26,-0.19 0.25,-0.2 0.25,-0.19 0.26,-0.19 0.25,-0.19 0.25,-0.19 0.25,-0.19 0.26,-0.19 0.25,-0.19 0.25,-0.19 0.26,-0.19 0.25,-0.19 0.25,-0.19 0.25,-0.19 0.26,-0.18 0.25,-0.19 0.25,-0.19 0.26,-0.18 0.25,-0.19 0.25,-0.18 0.26,-0.19 0.25,-0.18 0.25,-0.18 0.25,-0.19 0.26,-0.18 0.25,-0.18 0.25,-0.18 0.26,-0.18 0.25,-0.18 0.25,-0.18 0.25,-0.18 0.26,-0.18 0.25,-0.18 0.25,-0.18 0.26,-0.18 0.25,-0.18 0.25,-0.17 0.25,-0.18 0.26,-0.18 0.25,-0.17 0.25,-0.18 0.26,-0.17 0.25,-0.18 V 43.29 l -0.25,0.07 -0.26,0.08 -0.25,0.07 -0.25,0.07 -0.26,0.07 -0.25,0.08 -0.25,0.07 -0.25,0.07 -0.26,0.08 -0.25,0.08 -0.25,0.07 -0.26,0.08 -0.25,0.07 -0.25,0.08 -0.25,0.08 -0.26,0.08 -0.25,0.08 -0.25,0.08 -0.26,0.08 -0.25,0.08 -0.25,0.08 -0.25,0.08 -0.26,0.08 -0.25,0.09 -0.25,0.08 -0.26,0.08 -0.25,0.09 -0.25,0.08 -0.26,0.09 -0.25,0.08 -0.25,0.09 -0.25,0.09 -0.26,0.08 -0.25,0.09 -0.25,0.09 -0.26,0.09 -0.25,0.09 -0.25,0.09 -0.25,0.09 -0.26,0.09 -0.25,0.1 -0.25,0.09 -0.26,0.09 -0.25,0.1 -0.25,0.09 -0.25,0.09 -0.26,0.1 -0.25,0.1 -0.25,0.09 -0.26,0.1 -0.25,0.1 -0.25,0.1 -0.25,0.1 -0.26,0.1 -0.25,0.1 -0.25,0.1 -0.26,0.1 -0.25,0.1 -0.25,0.1 -0.26,0.11 -0.25,0.1 -0.25,0.11 -0.25,0.1 -0.26,0.11 -0.25,0.11 -0.25,0.1 -0.26,0.11 -0.25,0.11 -0.25,0.11 -0.25,0.11 -0.26,0.11 -0.25,0.11 -0.25,0.11 -0.26,0.11 -0.25,0.12 -0.25,0.11 -0.25,0.11 -0.26,0.12 -0.25,0.11 -0.25,0.12 -0.26,0.12 -0.25,0.12 -0.25,0.11 -0.25,0.12 -0.26,0.12 -0.25,0.12 -0.25,0.12 -0.26,0.13 -0.25,0.12 -0.25,0.12 -0.25,0.13 -0.26,0.12 -0.25,0.12 -0.25,0.13 -0.26,0.13 -0.25,0.12 -0.25,0.13 -0.26,0.13 -0.25,0.13 -0.25,0.13 -0.25,0.13 -0.26,0.13 -0.25,0.13 -0.25,0.14 -0.26,0.13 -0.25,0.13 -0.25,0.14 -0.25,0.14 -0.26,0.13 -0.25,0.14 -0.25,0.14 -0.26,0.14 -0.25,0.14 -0.25,0.14 -0.25,0.14 -0.26,0.14 -0.25,0.14 -0.25,0.14 -0.26,0.15 -0.25,0.14 -0.25,0.15 -0.25,0.14 -0.26,0.15 -0.25,0.15 -0.25,0.14 -0.26,0.15 -0.25,0.15 -0.25,0.15 -0.26,0.16 -0.25,0.15 -0.25,0.15 -0.25,0.15 -0.26,0.16 -0.25,0.15 -0.25,0.16 -0.26,0.16 -0.25,0.15 -0.25,0.16 -0.25,0.16 -0.26,0.16 -0.25,0.16 -0.25,0.16 -0.26,0.16 -0.25,0.17 -0.25,0.16 -0.25,0.16 -0.26,0.17 -0.25,0.16 -0.25,0.17 -0.26,0.17 -0.25,0.17 -0.25,0.17 -0.25,0.17 -0.26,0.17 -0.25,0.17 -0.25,0.17 -0.26,0.17 -0.25,0.18 -0.25,0.17 -0.26,0.18 -0.25,0.17 -0.25,0.18 -0.25,0.18 -0.26,0.17 -0.25,0.18 -0.25,0.18 -0.26,0.19 -0.25,0.18 -0.25,0.18 -0.25,0.18 -0.26,0.19 -0.25,0.18 -0.25,0.19 -0.26,0.18 -0.25,0.19 -0.25,0.19 -0.25,0.19 -0.26,0.19 -0.25,0.19 -0.25,0.19 -0.26,0.19 -0.25,0.19 -0.25,0.2 -0.25,0.19 -0.26,0.2 -0.25,0.19 -0.25,0.2 -0.26,0.2 -0.25,0.2 -0.25,0.2 -0.26,0.2 -0.25,0.2 -0.25,0.2 -0.25,0.2 -0.26,0.21 -0.25,0.2 -0.25,0.21 -0.26,0.2 -0.25,0.21 -0.25,0.21 -0.25,0.2 -0.26,0.21 -0.25,0.21 -0.25,0.21 -0.26,0.21 -0.25,0.22 -0.25,0.21 -0.25,0.21 -0.26,0.22 -0.25,0.21 -0.25,0.22 -0.26,0.22 -0.25,0.22 -0.25,0.21 -0.25,0.22 -0.26,0.22 -0.25,0.23 -0.25,0.22 -0.26,0.22 -0.25,0.22 -0.25,0.23 -0.26,0.22 -0.25,0.23 -0.25,0.22 -0.25,0.23 -0.26,0.23 -0.25,0.23 -0.25,0.23 -0.26,0.23 -0.25,0.23 -0.25,0.23 -0.25,0.24 -0.26,0.23 -0.25,0.23 -0.25,0.24 -0.26,0.24 -0.25,0.23 -0.25,0.24 -0.25,0.24 -0.26,0.24 -0.25,0.24 -0.25,0.24 -0.26,0.24 -0.25,0.24 -0.25,0.24 -0.25,0.25 -0.26,0.24 -0.25,0.25 -0.25,0.24 -0.26,0.25 -0.25,0.25 -0.25,0.24 -0.25,0.25 -0.26,0.25 -0.25,0.25 -0.25,0.25 -0.26,0.26 -0.25,0.25 -0.25,0.25 -0.26,0.26 -0.25,0.25 -0.25,0.26 -0.25,0.25 -0.26,0.26 -0.25,0.26 -0.25,0.25 -0.26,0.26 -0.25,0.26 -0.25,0.26 -0.25,0.26 -0.26,0.27 -0.25,0.26 -0.25,0.26 -0.26,0.27 -0.25,0.26 -0.25,0.27 -0.25,0.26 -0.26,0.27 -0.25,0.26 -0.25,0.27 -0.26,0.27 -0.25,0.27 -0.25,0.27 -0.25,0.27 -0.26,0.27 -0.25,0.27 -0.25,0.28 -0.26,0.27 -0.25,0.27 -0.25,0.28 -0.26,0.27 -0.25,0.28 -0.25,0.27 -0.25,0.28 -0.26,0.28 -0.25,0.28 -0.25,0.27 -0.26,0.28 -0.25,0.28 -0.25,0.28 -0.25,0.28 -0.26,0.29 -0.25,0.28 -0.25,0.28 -0.26,0.28 -0.25,0.29 -0.25,0.28 -0.25,0.29 -0.26,0.28 -0.25,0.29 -0.25,0.29 -0.26,0.28 -0.25,0.29 -0.25,0.29 -0.25,0.29 -0.26,0.29 -0.25,0.29 -0.25,0.29 -0.26,0.29 -0.25,0.29 -0.25,0.29 -0.26,0.3 -0.25,0.29 -0.25,0.29 -0.25,0.3 -0.26,0.29 -0.25,0.3 -0.25,0.29 -0.26,0.3 -0.25,0.29 -0.25,0.3 -0.25,0.3 -0.26,0.29 -0.25,0.3 -0.25,0.3 -0.26,0.3 -0.25,0.3 -0.25,0.3 -0.25,0.3 -0.26,0.3 -0.25,0.3 -0.25,0.3 -0.26,0.3 -0.25,0.31 -0.25,0.3 -0.25,0.3 -0.26,0.31 -0.25,0.3 -0.25,0.3 -0.26,0.31 -0.25,0.3 -0.25,0.31 -0.26,0.3 -0.25,0.31 -0.25,0.31 -0.25,0.3 -0.26,0.31 -0.25,0.31 -0.25,0.3 -0.26,0.31 -0.25,0.31 -0.25,0.31 -0.25,0.31 -0.26,0.31 -0.25,0.31 -0.25,0.31 -0.26,0.31 -0.25,0.31 -0.25,0.31 -0.25,0.31 -0.26,0.31 -0.25,0.31 -0.25,0.31 -0.26,0.31 -0.25,0.31 -0.25,0.31 -0.25,0.32 -0.26,0.31 -0.25,0.31 -0.25,0.31 -0.26,0.32 -0.25,0.31 -0.25,0.31 -0.26,0.32 -0.25,0.31 -0.25,0.32 -0.25,0.31 -0.26,0.31 -0.25,0.32 -0.25,0.31 -0.26,0.32 -0.25,0.31 -0.25,0.32 -0.25,0.31 -0.26,0.32 -0.25,0.31 -0.25,0.32 -0.26,0.31 -0.25,0.32 -0.25,0.31 -0.25,0.32 -0.26,0.31 -0.25,0.32 -0.25,0.32 -0.26,0.31 -0.25,0.32 -0.25,0.31 -0.25,0.32 -0.26,0.31 -0.25,0.32 -0.25,0.32 -0.26,0.31 -0.25,0.32 -0.25,0.31 -0.25,0.32 -0.26,0.32 -0.25,0.31 -0.25,0.32 -0.26,0.31 -0.25,0.32 -0.25,0.32 -0.26,0.31 -0.25,0.32 -0.25,0.31 -0.25,0.32 -0.26,0.31 -0.25,0.32 -0.25,0.31 -0.26,0.32 -0.25,0.31 -0.25,0.32 -0.25,0.31 -0.26,0.32 -0.25,0.31 -0.25,0.32 -0.26,0.31 -0.25,0.32 -0.25,0.31 -0.25,0.32 -0.26,0.31 -0.25,0.31 -0.25,0.32 -0.26,0.31 -0.25,0.31 -0.25,0.32 -0.25,0.31 -0.26,0.31 -0.25,0.32 -0.25,0.31 -0.26,0.31 -0.25,0.31 -0.25,0.31 -0.26,0.32 -0.25,0.31 -0.25,0.31 -0.25,0.31 -0.26,0.31 -0.25,0.31 -0.25,0.31 -0.26,0.31 -0.25,0.31 -0.25,0.31 -0.25,0.31 -0.26,0.31 -0.25,0.3 -0.25,0.31 -0.26,0.31 -0.25,0.31 -0.25,0.31 -0.25,0.3 -0.26,0.31 -0.25,0.31 -0.25,0.3 -0.26,0.31 -0.25,0.3 -0.25,0.31 -0.25,0.3 -0.26,0.31 -0.25,0.3 -0.25,0.3 -0.26,0.31 -0.25,0.3 -0.25,0.3 -0.26,0.31 -0.25,0.3 -0.25,0.3 -0.25,0.3 -0.26,0.3 -0.25,0.3 -0.25,0.3 -0.26,0.3 -0.25,0.3 -0.25,0.3 -0.25,0.3 -0.26,0.3 -0.25,0.29 -0.25,0.3 -0.26,0.3 -0.25,0.29 -0.25,0.3 -0.25,0.29 -0.26,0.3 -0.25,0.29 -0.25,0.3 -0.26,0.29 -0.25,0.29 -0.25,0.3 -0.25,0.29 -0.26,0.29 -0.25,0.29 -0.25,0.29 -0.26,0.29 -0.25,0.29 -0.25,0.29 -0.26,0.29 -0.25,0.29 -0.25,0.29 -0.25,0.28 -0.26,0.29 -0.25,0.29 -0.25,0.28 -0.26,0.29 -0.25,0.28 -0.25,0.29 -0.25,0.28 -0.26,0.28 -0.25,0.29 -0.25,0.28 -0.26,0.28 -0.25,0.28 -0.25,0.28 -0.25,0.28 -0.26,0.28 -0.25,0.28 -0.25,0.28 -0.26,0.27 -0.25,0.28 -0.25,0.28 -0.25,0.27 -0.26,0.28 -0.25,0.27 -0.25,0.28 -0.26,0.27 -0.25,0.28 -0.25,0.27 -0.26,0.27 -0.25,0.27 -0.25,0.27 -0.25,0.27 -0.26,0.27 -0.25,0.27 -0.25,0.27 -0.26,0.27 -0.25,0.26 -0.25,0.27 -0.25,0.27 -0.26,0.26 -0.25,0.27 -0.25,0.26 -0.26,0.26 -0.25,0.27 -0.25,0.26 -0.25,0.26 -0.26,0.26 -0.25,0.26 -0.25,0.26 -0.26,0.26 -0.25,0.26 -0.25,0.26 -0.25,0.26 -0.26,0.25 -0.25,0.26 -0.25,0.25 -0.26,0.26 -0.25,0.25 -0.25,0.26 -0.25,0.25 -0.26,0.25 -0.25,0.25 -0.25,0.25 -0.26,0.26 -0.25,0.24 -0.25,0.25 -0.26,0.25 -0.25,0.25 -0.25,0.25 -0.25,0.24 -0.26,0.25 -0.25,0.24 -0.25,0.25 -0.26,0.24 -0.25,0.25 -0.25,0.24 -0.25,0.24 -0.26,0.24 -0.25,0.24 -0.25,0.24 -0.26,0.24 -0.25,0.24 -0.25,0.24 -0.25,0.23 -0.26,0.24 -0.25,0.24 -0.25,0.23 -0.26,0.24 -0.25,0.23 -0.25,0.23 -0.25,0.24 -0.26,0.23 -0.25,0.23 -0.25,0.23 -0.26,0.23 -0.25,0.23 -0.25,0.23 -0.26,0.23 -0.25,0.22 -0.25,0.23 -0.25,0.23 -0.26,0.22 -0.25,0.23 -0.25,0.22 -0.26,0.22 -0.25,0.22 -0.25,0.23 -0.25,0.22 -0.26,0.22 -0.25,0.22 -0.25,0.22 -0.26,0.22 -0.25,0.21 -0.25,0.22 -0.25,0.22 -0.26,0.21 -0.25,0.22 -0.25,0.21 -0.26,0.22 -0.25,0.21 -0.25,0.21 -0.25,0.22 -0.26,0.21 -0.25,0.21 -0.25,0.21 -0.26,0.21 -0.25,0.2 -0.25,0.21 -0.26,0.21 -0.25,0.21 -0.25,0.2 -0.25,0.21 -0.26,0.2 -0.25,0.21 -0.25,0.2 -0.26,0.2 -0.25,0.2 -0.25,0.21 -0.25,0.2 -0.26,0.2 -0.25,0.2 -0.25,0.19 -0.26,0.2 -0.25,0.2 -0.25,0.2 -0.25,0.19 -0.26,0.2 -0.25,0.19 -0.25,0.2 -0.26,0.19 -0.25,0.19 -0.25,0.2 -0.25,0.19 -0.26,0.19 -0.25,0.19 -0.25,0.19 -0.26,0.19 -0.25,0.19 -0.25,0.18 -0.26,0.19 -0.25,0.19 -0.25,0.18 -0.25,0.19 -0.26,0.18 -0.25,0.19 -0.25,0.18 -0.26,0.18 -0.25,0.18 -0.25,0.19 -0.25,0.18 -0.26,0.18 -0.25,0.18 -0.25,0.18 -0.26,0.17 -0.25,0.18 -0.25,0.18 -0.25,0.17 -0.26,0.18 -0.25,0.18 -0.25,0.17 -0.26,0.17 -0.25,0.18 -0.25,0.17 z" />
          <path
             inkscape:connector-curvature="0"
             id="path5070"
             style="fill:none;stroke:#59881b;stroke-width:4.26999998;stroke-linecap:butt;stroke-linejoin:round;stroke-miterlimit:10;stroke-dasharray:none;stroke-opacity:1"
             d="m 42.64,228.14 0.25,-0.09 0.25,-0.08 0.26,-0.09 0.25,-0.09 0.25,-0.08 0.26,-0.09 0.25,-0.09 0.25,-0.09 0.25,-0.08 0.26,-0.09 0.25,-0.09 0.25,-0.09 0.26,-0.09 0.25,-0.09 0.25,-0.09 0.25,-0.09 0.26,-0.09 0.25,-0.09 0.25,-0.1 0.26,-0.09 0.25,-0.09 0.25,-0.09 0.25,-0.1 0.26,-0.09 0.25,-0.1 0.25,-0.09 0.26,-0.1 0.25,-0.09 0.25,-0.1 0.26,-0.09 0.25,-0.1 0.25,-0.1 0.25,-0.1 0.26,-0.09 0.25,-0.1 0.25,-0.1 0.26,-0.1 0.25,-0.1 0.25,-0.1 0.25,-0.1 0.26,-0.1 0.25,-0.1 0.25,-0.1 0.26,-0.11 0.25,-0.1 0.25,-0.1 0.25,-0.1 0.26,-0.11 0.25,-0.1 0.25,-0.11 0.26,-0.1 0.25,-0.11 0.25,-0.1 0.25,-0.11 0.26,-0.11 0.25,-0.1 0.25,-0.11 0.26,-0.11 0.25,-0.11 0.25,-0.11 0.26,-0.11 0.25,-0.11 0.25,-0.11 0.25,-0.11 0.26,-0.11 0.25,-0.11 0.25,-0.11 0.26,-0.11 0.25,-0.12 0.25,-0.11 0.25,-0.11 0.26,-0.12 0.25,-0.11 0.25,-0.12 0.26,-0.11 0.25,-0.12 0.25,-0.12 0.25,-0.11 0.26,-0.12 0.25,-0.12 0.25,-0.12 0.26,-0.12 0.25,-0.12 0.25,-0.12 0.25,-0.12 0.26,-0.12 0.25,-0.12 0.25,-0.12 0.26,-0.12 0.25,-0.12 0.25,-0.13 0.26,-0.12 0.25,-0.12 0.25,-0.13 0.25,-0.12 0.26,-0.13 0.25,-0.12 0.25,-0.13 0.26,-0.13 0.25,-0.13 0.25,-0.12 0.25,-0.13 0.26,-0.13 0.25,-0.13 0.25,-0.13 0.26,-0.13 0.25,-0.13 0.25,-0.13 0.25,-0.13 0.26,-0.14 0.25,-0.13 0.25,-0.13 0.26,-0.13 0.25,-0.14 0.25,-0.13 0.25,-0.14 0.26,-0.13 0.25,-0.14 0.25,-0.14 0.26,-0.13 0.25,-0.14 0.25,-0.14 0.26,-0.14 0.25,-0.14 0.25,-0.14 0.25,-0.14 0.26,-0.14 0.25,-0.14 0.25,-0.14 0.26,-0.14 0.25,-0.15 0.25,-0.14 0.25,-0.14 0.26,-0.15 0.25,-0.14 0.25,-0.15 0.26,-0.14 0.25,-0.15 0.25,-0.15 0.25,-0.14 0.26,-0.15 0.25,-0.15 0.25,-0.15 0.26,-0.15 0.25,-0.15 0.25,-0.15 0.25,-0.15 0.26,-0.15 0.25,-0.15 0.25,-0.16 0.26,-0.15 0.25,-0.15 0.25,-0.16 0.25,-0.15 0.26,-0.16 0.25,-0.15 0.25,-0.16 0.26,-0.16 0.25,-0.15 0.25,-0.16 0.26,-0.16 0.25,-0.16 0.25,-0.16 0.25,-0.16 0.26,-0.16 0.25,-0.16 0.25,-0.16 0.26,-0.16 0.25,-0.16 0.25,-0.17 0.25,-0.16 0.26,-0.17 0.25,-0.16 0.25,-0.17 0.26,-0.16 0.25,-0.17 0.25,-0.16 0.25,-0.17 0.26,-0.17 0.25,-0.17 0.25,-0.17 0.26,-0.17 0.25,-0.17 0.25,-0.17 0.25,-0.17 0.26,-0.17 0.25,-0.17 0.25,-0.18 0.26,-0.17 0.25,-0.17 0.25,-0.18 0.26,-0.17 0.25,-0.18 0.25,-0.17 0.25,-0.18 0.26,-0.18 0.25,-0.18 0.25,-0.17 0.26,-0.18 0.25,-0.18 0.25,-0.18 0.25,-0.18 0.26,-0.18 0.25,-0.18 0.25,-0.19 0.26,-0.18 0.25,-0.18 0.25,-0.19 0.25,-0.18 0.26,-0.19 0.25,-0.18 0.25,-0.19 0.26,-0.18 0.25,-0.19 0.25,-0.19 0.25,-0.19 0.26,-0.18 0.25,-0.19 0.25,-0.19 0.26,-0.19 0.25,-0.19 0.25,-0.19 0.26,-0.2 0.25,-0.19 0.25,-0.19 0.25,-0.2 0.26,-0.19 0.25,-0.19 0.25,-0.2 0.26,-0.19 0.25,-0.2 0.25,-0.2 0.25,-0.19 0.26,-0.2 0.25,-0.2 0.25,-0.2 0.26,-0.2 0.25,-0.2 0.25,-0.2 0.25,-0.2 0.26,-0.2 0.25,-0.2 0.25,-0.21 0.26,-0.2 0.25,-0.2 0.25,-0.21 0.25,-0.2 0.26,-0.21 0.25,-0.2 0.25,-0.21 0.26,-0.2 0.25,-0.21 0.25,-0.21 0.26,-0.21 0.25,-0.21 0.25,-0.21 0.25,-0.21 0.26,-0.21 0.25,-0.21 0.25,-0.21 0.26,-0.21 0.25,-0.21 0.25,-0.22 0.25,-0.21 0.26,-0.21 0.25,-0.22 0.25,-0.21 0.26,-0.22 0.25,-0.22 0.25,-0.21 0.25,-0.22 0.26,-0.22 0.25,-0.21 0.25,-0.22 0.26,-0.22 0.25,-0.22 0.25,-0.22 0.25,-0.22 0.26,-0.22 0.25,-0.23 0.25,-0.22 0.26,-0.22 0.25,-0.22 0.25,-0.23 0.26,-0.22 0.25,-0.23 0.25,-0.22 0.25,-0.23 0.26,-0.22 0.25,-0.23 0.25,-0.22 0.26,-0.23 0.25,-0.23 0.25,-0.23 0.25,-0.23 0.26,-0.23 0.25,-0.23 0.25,-0.23 0.26,-0.23 0.25,-0.23 0.25,-0.23 0.25,-0.23 0.26,-0.24 0.25,-0.23 0.25,-0.23 0.26,-0.24 0.25,-0.23 0.25,-0.23 0.25,-0.24 0.26,-0.24 0.25,-0.23 0.25,-0.24 0.26,-0.24 0.25,-0.23 0.25,-0.24 0.25,-0.24 0.26,-0.24 0.25,-0.24 0.25,-0.24 0.26,-0.24 0.25,-0.24 0.25,-0.24 0.26,-0.24 0.25,-0.24 0.25,-0.24 0.25,-0.25 0.26,-0.24 0.25,-0.24 0.25,-0.25 0.26,-0.24 0.25,-0.25 0.25,-0.24 0.25,-0.25 0.26,-0.24 0.25,-0.25 0.25,-0.25 0.26,-0.24 0.25,-0.25 0.25,-0.25 0.25,-0.25 0.26,-0.24 0.25,-0.25 0.25,-0.25 0.26,-0.25 0.25,-0.25 0.25,-0.25 0.25,-0.25 0.26,-0.26 0.25,-0.25 0.25,-0.25 0.26,-0.25 0.25,-0.25 0.25,-0.26 0.26,-0.25 0.25,-0.25 0.25,-0.26 0.25,-0.25 0.26,-0.26 0.25,-0.25 0.25,-0.26 0.26,-0.25 0.25,-0.26 0.25,-0.25 0.25,-0.26 0.26,-0.26 0.25,-0.26 0.25,-0.25 0.26,-0.26 0.25,-0.26 0.25,-0.26 0.25,-0.26 0.26,-0.26 0.25,-0.25 0.25,-0.26 0.26,-0.26 0.25,-0.26 0.25,-0.26 0.25,-0.27 0.26,-0.26 0.25,-0.26 0.25,-0.26 0.26,-0.26 0.25,-0.26 0.25,-0.27 0.26,-0.26 0.25,-0.26 0.25,-0.26 0.25,-0.27 0.26,-0.26 0.25,-0.27 0.25,-0.26 0.26,-0.26 0.25,-0.27 0.25,-0.26 0.25,-0.27 0.26,-0.26 0.25,-0.27 0.25,-0.26 0.26,-0.27 0.25,-0.27 0.25,-0.26 0.25,-0.27 0.26,-0.27 0.25,-0.26 0.25,-0.27 0.26,-0.27 0.25,-0.26 0.25,-0.27 0.25,-0.27 0.26,-0.27 0.25,-0.27 0.25,-0.26 0.26,-0.27 0.25,-0.27 0.25,-0.27 0.26,-0.27 0.25,-0.27 0.25,-0.27 0.25,-0.27 0.26,-0.27 0.25,-0.27 0.25,-0.27 0.26,-0.27 0.25,-0.27 0.25,-0.27 0.25,-0.27 0.26,-0.27 0.25,-0.27 0.25,-0.27 0.26,-0.27 0.25,-0.27 0.25,-0.27 0.25,-0.27 0.26,-0.27 0.25,-0.27 0.25,-0.27 0.26,-0.28 0.25,-0.27 0.25,-0.27 0.25,-0.27 0.26,-0.27 0.25,-0.27 0.25,-0.27 0.26,-0.28 0.25,-0.27 0.25,-0.27 0.26,-0.27 0.25,-0.27 0.25,-0.28 0.25,-0.27 0.26,-0.27 0.25,-0.27 0.25,-0.27 0.26,-0.28 0.25,-0.27 0.25,-0.27 0.25,-0.27 0.26,-0.27 0.25,-0.28 0.25,-0.27 0.26,-0.27 0.25,-0.27 0.25,-0.27 0.25,-0.28 0.26,-0.27 0.25,-0.27 0.25,-0.27 0.26,-0.27 0.25,-0.28 0.25,-0.27 0.25,-0.27 0.26,-0.27 0.25,-0.27 0.25,-0.27 0.26,-0.28 0.25,-0.27 0.25,-0.27 0.25,-0.27 0.26,-0.27 0.25,-0.27 0.25,-0.27 0.26,-0.28 0.25,-0.27 0.25,-0.27 0.26,-0.27 0.25,-0.27 0.25,-0.27 0.25,-0.27 0.26,-0.27 0.25,-0.27 0.25,-0.27 0.26,-0.27 0.25,-0.27 0.25,-0.27 0.25,-0.27 0.26,-0.27 0.25,-0.27 0.25,-0.27 0.26,-0.27 0.25,-0.26 0.25,-0.27 0.25,-0.27 0.26,-0.27 0.25,-0.27 0.25,-0.27 0.26,-0.26 0.25,-0.27 0.25,-0.27 0.25,-0.27 0.26,-0.26 0.25,-0.27 0.25,-0.27 0.26,-0.27 0.25,-0.26 0.25,-0.27 0.26,-0.26 0.25,-0.27 0.25,-0.27 0.25,-0.26 0.26,-0.27 0.25,-0.26 0.25,-0.27 0.26,-0.26 0.25,-0.26 0.25,-0.27 0.25,-0.26 0.26,-0.27 0.25,-0.26 0.25,-0.26 0.26,-0.26 0.25,-0.27 0.25,-0.26 0.25,-0.26 0.26,-0.26 0.25,-0.26 0.25,-0.27 0.26,-0.26 0.25,-0.26 0.25,-0.26 0.25,-0.26 0.26,-0.26 0.25,-0.26 0.25,-0.26 0.26,-0.26 0.25,-0.25 0.25,-0.26 0.26,-0.26 0.25,-0.26 0.25,-0.26 0.25,-0.25 0.26,-0.26 0.25,-0.26 0.25,-0.25 0.26,-0.26 0.25,-0.25 0.25,-0.26 0.25,-0.25 0.26,-0.26 0.25,-0.25 0.25,-0.26 0.26,-0.25 0.25,-0.25 0.25,-0.26 0.25,-0.25 0.26,-0.25 0.25,-0.25 0.25,-0.25 0.26,-0.26 0.25,-0.25 0.25,-0.25 0.25,-0.25 0.26,-0.25 0.25,-0.25 0.25,-0.24 0.26,-0.25 0.25,-0.25 0.25,-0.25 0.26,-0.25 0.25,-0.24 0.25,-0.25 0.25,-0.25 0.26,-0.24 0.25,-0.25 0.25,-0.24 0.26,-0.25 0.25,-0.24 0.25,-0.24 0.25,-0.25 0.26,-0.24 0.25,-0.24 0.25,-0.24 0.26,-0.25 0.25,-0.24 0.25,-0.24 0.25,-0.24 0.26,-0.24 0.25,-0.24 0.25,-0.24 0.26,-0.24 0.25,-0.23 0.25,-0.24 0.25,-0.24 0.26,-0.24 0.25,-0.23 0.25,-0.24 0.26,-0.24 0.25,-0.23 0.25,-0.23 0.26,-0.24 0.25,-0.23 0.25,-0.24 0.25,-0.23 0.26,-0.23 0.25,-0.23 0.25,-0.24 0.26,-0.23 0.25,-0.23 0.25,-0.23 0.25,-0.23 0.26,-0.23 0.25,-0.22 0.25,-0.23 0.26,-0.23 0.25,-0.23 0.25,-0.22 0.25,-0.23 0.26,-0.23 0.25,-0.22 0.25,-0.23 0.26,-0.22 0.25,-0.23 0.25,-0.22 0.25,-0.22 0.26,-0.22 0.25,-0.23 0.25,-0.22 0.26,-0.22 0.25,-0.22 0.25,-0.22 0.25,-0.22 0.26,-0.22 0.25,-0.22 0.25,-0.21 0.26,-0.22 0.25,-0.22 0.25,-0.21 0.26,-0.22 0.25,-0.22 0.25,-0.21 0.25,-0.21 0.26,-0.22 0.25,-0.21 0.25,-0.21 0.26,-0.22 0.25,-0.21 0.25,-0.21 0.25,-0.21 0.26,-0.21 0.25,-0.21 0.25,-0.21 0.26,-0.21 0.25,-0.21 0.25,-0.2 0.25,-0.21 0.26,-0.21 0.25,-0.2 0.25,-0.21 0.26,-0.21 0.25,-0.2 0.25,-0.2 0.25,-0.21 0.26,-0.2 0.25,-0.2 0.25,-0.2 0.26,-0.21 0.25,-0.2 0.25,-0.2 0.26,-0.2 0.25,-0.2 0.25,-0.19 0.25,-0.2 0.26,-0.2 0.25,-0.2 0.25,-0.19 0.26,-0.2 0.25,-0.19 0.25,-0.2 0.25,-0.19 0.26,-0.2 0.25,-0.19 0.25,-0.19 0.26,-0.2 0.25,-0.19 0.25,-0.19 0.25,-0.19 0.26,-0.19 0.25,-0.19 0.25,-0.19 0.26,-0.19 0.25,-0.18" />
          <path
             inkscape:connector-curvature="0"
             id="path5072"
             style="fill:none;stroke:#59881b;stroke-width:4.26999998;stroke-linecap:butt;stroke-linejoin:round;stroke-miterlimit:10;stroke-dasharray:8.54, 8.54;stroke-dashoffset:0;stroke-opacity:1"
             d="m 42.64,214.18 0.25,-0.14 0.25,-0.14 0.26,-0.14 0.25,-0.14 0.25,-0.14 0.26,-0.15 0.25,-0.14 0.25,-0.14 0.25,-0.15 0.26,-0.14 0.25,-0.15 0.25,-0.14 0.26,-0.15 0.25,-0.15 0.25,-0.15 0.25,-0.14 0.26,-0.15 0.25,-0.15 0.25,-0.15 0.26,-0.15 0.25,-0.15 0.25,-0.15 0.25,-0.16 0.26,-0.15 0.25,-0.15 0.25,-0.15 0.26,-0.16 0.25,-0.15 0.25,-0.16 0.26,-0.15 0.25,-0.16 0.25,-0.15 0.25,-0.16 0.26,-0.16 0.25,-0.16 0.25,-0.16 0.26,-0.16 0.25,-0.16 0.25,-0.16 0.25,-0.16 0.26,-0.16 0.25,-0.16 0.25,-0.16 0.26,-0.16 0.25,-0.17 0.25,-0.16 0.25,-0.17 0.26,-0.16 0.25,-0.17 0.25,-0.16 0.26,-0.17 0.25,-0.17 0.25,-0.16 0.25,-0.17 0.26,-0.17 0.25,-0.17 0.25,-0.17 0.26,-0.17 0.25,-0.17 0.25,-0.17 0.26,-0.18 0.25,-0.17 0.25,-0.17 0.25,-0.18 0.26,-0.17 0.25,-0.17 0.25,-0.18 0.26,-0.18 0.25,-0.17 0.25,-0.18 0.25,-0.18 0.26,-0.17 0.25,-0.18 0.25,-0.18 0.26,-0.18 0.25,-0.18 0.25,-0.18 0.25,-0.18 0.26,-0.19 0.25,-0.18 0.25,-0.18 0.26,-0.18 0.25,-0.19 0.25,-0.18 0.25,-0.19 0.26,-0.18 0.25,-0.19 0.25,-0.19 0.26,-0.18 0.25,-0.19 0.25,-0.19 0.26,-0.19 0.25,-0.19 0.25,-0.19 0.25,-0.19 0.26,-0.19 0.25,-0.19 0.25,-0.19 0.26,-0.2 0.25,-0.19 0.25,-0.19 0.25,-0.2 0.26,-0.19 0.25,-0.2 0.25,-0.19 0.26,-0.2 0.25,-0.2 0.25,-0.19 0.25,-0.2 0.26,-0.2 0.25,-0.2 0.25,-0.2 0.26,-0.2 0.25,-0.2 0.25,-0.2 0.25,-0.2 0.26,-0.21 0.25,-0.2 0.25,-0.2 0.26,-0.21 0.25,-0.2 0.25,-0.2 0.26,-0.21 0.25,-0.21 0.25,-0.2 0.25,-0.21 0.26,-0.21 0.25,-0.21 0.25,-0.2 0.26,-0.21 0.25,-0.21 0.25,-0.21 0.25,-0.21 0.26,-0.21 0.25,-0.22 0.25,-0.21 0.26,-0.21 0.25,-0.21 0.25,-0.22 0.25,-0.21 0.26,-0.22 0.25,-0.21 0.25,-0.22 0.26,-0.21 0.25,-0.22 0.25,-0.22 0.25,-0.22 0.26,-0.22 0.25,-0.21 0.25,-0.22 0.26,-0.22 0.25,-0.22 0.25,-0.22 0.25,-0.23 0.26,-0.22 0.25,-0.22 0.25,-0.22 0.26,-0.23 0.25,-0.22 0.25,-0.22 0.26,-0.23 0.25,-0.22 0.25,-0.23 0.25,-0.23 0.26,-0.22 0.25,-0.23 0.25,-0.23 0.26,-0.23 0.25,-0.23 0.25,-0.22 0.25,-0.23 0.26,-0.23 0.25,-0.23 0.25,-0.24 0.26,-0.23 0.25,-0.23 0.25,-0.23 0.25,-0.23 0.26,-0.24 0.25,-0.23 0.25,-0.24 0.26,-0.23 0.25,-0.23 0.25,-0.24 0.25,-0.24 0.26,-0.23 0.25,-0.24 0.25,-0.24 0.26,-0.23 0.25,-0.24 0.25,-0.24 0.26,-0.24 0.25,-0.24 0.25,-0.24 0.25,-0.24 0.26,-0.24 0.25,-0.24 0.25,-0.24 0.26,-0.25 0.25,-0.24 0.25,-0.24 0.25,-0.24 0.26,-0.25 0.25,-0.24 0.25,-0.25 0.26,-0.24 0.25,-0.25 0.25,-0.24 0.25,-0.25 0.26,-0.25 0.25,-0.24 0.25,-0.25 0.26,-0.25 0.25,-0.25 0.25,-0.24 0.25,-0.25 0.26,-0.25 0.25,-0.25 0.25,-0.25 0.26,-0.25 0.25,-0.25 0.25,-0.25 0.26,-0.25 0.25,-0.26 0.25,-0.25 0.25,-0.25 0.26,-0.25 0.25,-0.26 0.25,-0.25 0.26,-0.25 0.25,-0.26 0.25,-0.25 0.25,-0.26 0.26,-0.25 0.25,-0.26 0.25,-0.25 0.26,-0.26 0.25,-0.26 0.25,-0.25 0.25,-0.26 0.26,-0.26 0.25,-0.26 0.25,-0.25 0.26,-0.26 0.25,-0.26 0.25,-0.26 0.25,-0.26 0.26,-0.26 0.25,-0.26 0.25,-0.26 0.26,-0.26 0.25,-0.26 0.25,-0.26 0.26,-0.26 0.25,-0.26 0.25,-0.26 0.25,-0.27 0.26,-0.26 0.25,-0.26 0.25,-0.26 0.26,-0.27 0.25,-0.26 0.25,-0.26 0.25,-0.27 0.26,-0.26 0.25,-0.27 0.25,-0.26 0.26,-0.26 0.25,-0.27 0.25,-0.26 0.25,-0.27 0.26,-0.27 0.25,-0.26 0.25,-0.27 0.26,-0.26 0.25,-0.27 0.25,-0.27 0.25,-0.26 0.26,-0.27 0.25,-0.27 0.25,-0.26 0.26,-0.27 0.25,-0.27 0.25,-0.27 0.26,-0.27 0.25,-0.26 0.25,-0.27 0.25,-0.27 0.26,-0.27 0.25,-0.27 0.25,-0.27 0.26,-0.27 0.25,-0.27 0.25,-0.27 0.25,-0.27 0.26,-0.26 0.25,-0.27 0.25,-0.27 0.26,-0.27 0.25,-0.27 0.25,-0.28 0.25,-0.27 0.26,-0.27 0.25,-0.27 0.25,-0.27 0.26,-0.27 0.25,-0.27 0.25,-0.27 0.25,-0.27 0.26,-0.27 0.25,-0.27 0.25,-0.28 0.26,-0.27 0.25,-0.27 0.25,-0.27 0.25,-0.27 0.26,-0.27 0.25,-0.27 0.25,-0.28 0.26,-0.27 0.25,-0.27 0.25,-0.27 0.26,-0.27 0.25,-0.28 0.25,-0.27 0.25,-0.27 0.26,-0.27 0.25,-0.27 0.25,-0.28 0.26,-0.27 0.25,-0.27 0.25,-0.27 0.25,-0.27 0.26,-0.28 0.25,-0.27 0.25,-0.27 0.26,-0.27 0.25,-0.27 0.25,-0.28 0.25,-0.27 0.26,-0.27 0.25,-0.27 0.25,-0.27 0.26,-0.28 0.25,-0.27 0.25,-0.27 0.25,-0.27 0.26,-0.27 0.25,-0.27 0.25,-0.28 0.26,-0.27 0.25,-0.27 0.25,-0.27 0.26,-0.27 0.25,-0.27 0.25,-0.27 0.25,-0.27 0.26,-0.28 0.25,-0.27 0.25,-0.27 0.26,-0.27 0.25,-0.27 0.25,-0.27 0.25,-0.27 0.26,-0.27 0.25,-0.27 0.25,-0.27 0.26,-0.27 0.25,-0.27 0.25,-0.27 0.25,-0.27 0.26,-0.27 0.25,-0.27 0.25,-0.26 0.26,-0.27 0.25,-0.27 0.25,-0.27 0.25,-0.27 0.26,-0.27 0.25,-0.27 0.25,-0.26 0.26,-0.27 0.25,-0.27 0.25,-0.27 0.26,-0.26 0.25,-0.27 0.25,-0.27 0.25,-0.26 0.26,-0.27 0.25,-0.26 0.25,-0.27 0.26,-0.27 0.25,-0.26 0.25,-0.27 0.25,-0.26 0.26,-0.27 0.25,-0.26 0.25,-0.27 0.26,-0.26 0.25,-0.26 0.25,-0.27 0.25,-0.26 0.26,-0.26 0.25,-0.27 0.25,-0.26 0.26,-0.26 0.25,-0.26 0.25,-0.27 0.25,-0.26 0.26,-0.26 0.25,-0.26 0.25,-0.26 0.26,-0.26 0.25,-0.26 0.25,-0.26 0.26,-0.26 0.25,-0.26 0.25,-0.26 0.25,-0.26 0.26,-0.26 0.25,-0.26 0.25,-0.25 0.26,-0.26 0.25,-0.26 0.25,-0.26 0.25,-0.25 0.26,-0.26 0.25,-0.25 0.25,-0.26 0.26,-0.26 0.25,-0.25 0.25,-0.25 0.25,-0.26 0.26,-0.25 0.25,-0.26 0.25,-0.25 0.26,-0.25 0.25,-0.26 0.25,-0.25 0.25,-0.25 0.26,-0.25 0.25,-0.25 0.25,-0.25 0.26,-0.25 0.25,-0.25 0.25,-0.25 0.26,-0.25 0.25,-0.25 0.25,-0.25 0.25,-0.25 0.26,-0.25 0.25,-0.25 0.25,-0.24 0.26,-0.25 0.25,-0.25 0.25,-0.24 0.25,-0.25 0.26,-0.24 0.25,-0.25 0.25,-0.24 0.26,-0.24 0.25,-0.25 0.25,-0.24 0.25,-0.24 0.26,-0.25 0.25,-0.24 0.25,-0.24 0.26,-0.24 0.25,-0.24 0.25,-0.24 0.25,-0.24 0.26,-0.24 0.25,-0.24 0.25,-0.24 0.26,-0.24 0.25,-0.23 0.25,-0.24 0.25,-0.24 0.26,-0.23 0.25,-0.24 0.25,-0.24 0.26,-0.23 0.25,-0.23 0.25,-0.24 0.26,-0.23 0.25,-0.24 0.25,-0.23 0.25,-0.23 0.26,-0.23 0.25,-0.23 0.25,-0.23 0.26,-0.23 0.25,-0.23 0.25,-0.23 0.25,-0.23 0.26,-0.23 0.25,-0.23 0.25,-0.23 0.26,-0.22 0.25,-0.23 0.25,-0.23 0.25,-0.22 0.26,-0.23 0.25,-0.22 0.25,-0.23 0.26,-0.22 0.25,-0.22 0.25,-0.22 0.25,-0.23 0.26,-0.22 0.25,-0.22 0.25,-0.22 0.26,-0.22 0.25,-0.22 0.25,-0.22 0.26,-0.22 0.25,-0.22 0.25,-0.21 0.25,-0.22 0.26,-0.22 0.25,-0.21 0.25,-0.22 0.26,-0.21 0.25,-0.22 0.25,-0.21 0.25,-0.22 0.26,-0.21 0.25,-0.21 0.25,-0.21 0.26,-0.22 0.25,-0.21 0.25,-0.21 0.25,-0.21 0.26,-0.21 0.25,-0.21 0.25,-0.2 0.26,-0.21 0.25,-0.21 0.25,-0.21 0.25,-0.2 0.26,-0.21 0.25,-0.2 0.25,-0.21 0.26,-0.2 0.25,-0.21 0.25,-0.2 0.26,-0.2 0.25,-0.2 0.25,-0.21 0.25,-0.2 0.26,-0.2 0.25,-0.2 0.25,-0.2 0.26,-0.2 0.25,-0.19 0.25,-0.2 0.25,-0.2 0.26,-0.2 0.25,-0.19 0.25,-0.2 0.26,-0.19 0.25,-0.2 0.25,-0.19 0.25,-0.19 0.26,-0.2 0.25,-0.19 0.25,-0.19 0.26,-0.19 0.25,-0.19 0.25,-0.19 0.25,-0.19 0.26,-0.19 0.25,-0.19 0.25,-0.19 0.26,-0.19 0.25,-0.18 0.25,-0.19 0.26,-0.19 0.25,-0.18 0.25,-0.19 0.25,-0.18 0.26,-0.19 0.25,-0.18 0.25,-0.18 0.26,-0.18 0.25,-0.18 0.25,-0.19 0.25,-0.18 0.26,-0.18 0.25,-0.18 0.25,-0.17 0.26,-0.18 0.25,-0.18 0.25,-0.18 0.25,-0.17 0.26,-0.18 0.25,-0.18 0.25,-0.17 0.26,-0.18 0.25,-0.17 0.25,-0.17 0.25,-0.18 0.26,-0.17 0.25,-0.17 0.25,-0.17 0.26,-0.17 0.25,-0.17 0.25,-0.17 0.26,-0.17 0.25,-0.17 0.25,-0.17 0.25,-0.17 0.26,-0.16 0.25,-0.17 0.25,-0.17 0.26,-0.16 0.25,-0.17 0.25,-0.16 0.25,-0.16 0.26,-0.17 0.25,-0.16 0.25,-0.16 0.26,-0.16 0.25,-0.16 0.25,-0.16 0.25,-0.16 0.26,-0.16 0.25,-0.16 0.25,-0.16 0.26,-0.16 0.25,-0.16 0.25,-0.15 0.25,-0.16 0.26,-0.16 0.25,-0.15 0.25,-0.16 0.26,-0.15 0.25,-0.15 0.25,-0.16 0.25,-0.15 0.26,-0.15 0.25,-0.15 0.25,-0.15 0.26,-0.15 0.25,-0.15 0.25,-0.15 0.26,-0.15 0.25,-0.15 0.25,-0.15 0.25,-0.15 0.26,-0.14 0.25,-0.15 0.25,-0.15 0.26,-0.14 0.25,-0.15 0.25,-0.14 0.25,-0.14 0.26,-0.15 0.25,-0.14 0.25,-0.14 0.26,-0.14 0.25,-0.15 0.25,-0.14 0.25,-0.14 0.26,-0.14 0.25,-0.14 0.25,-0.13 0.26,-0.14 0.25,-0.14 0.25,-0.14 0.25,-0.13 0.26,-0.14 0.25,-0.14 0.25,-0.13 0.26,-0.14 0.25,-0.13 0.25,-0.13 0.26,-0.14 0.25,-0.13 0.25,-0.13 0.25,-0.13 0.26,-0.14 0.25,-0.13 0.25,-0.13 0.26,-0.13 0.25,-0.13 0.25,-0.12 0.25,-0.13 0.26,-0.13 0.25,-0.13 0.25,-0.13 0.26,-0.12 0.25,-0.13 0.25,-0.12 0.25,-0.13 0.26,-0.12 0.25,-0.13 0.25,-0.12 0.26,-0.12 0.25,-0.13" />
        </g>
      </g>
      <g
         id="g5074" />
      <g
         id="g5076" />
      <g
         id="g5078" />
      <g
         id="g5080" />
      <g
         id="g5082" />
      <g
         id="g5084" />
      <g
         id="g5086" />
      <g
         id="g5088" />
      <g
         id="g5090" />
      <g
         id="g5092" />
      <g
         id="g5094" />
      <g
         id="g5096" />
      <g
         id="g5098" />
      <g
         id="g5100" />
      <g
         id="g5102" />
      <g
         id="g5104">
        <text
           id="text5108"
           style="font-variant:normal;font-weight:normal;font-size:10px;font-family:Helvetica;-inkscape-font-specification:Helvetica;writing-mode:lr-tb;fill:#000000;fill-opacity:1;fill-rule:nonzero;stroke:none"
           transform="matrix(0,1,1,0,26.66,26.38)">
          <tspan
             id="tspan5106"
             sodipodi:role="line"
             y="0"
             x="0 5.5599999 8.3400002 13.9">0.00</tspan>
        </text>
        <text
           id="text5112"
           style="font-variant:normal;font-weight:normal;font-size:10px;font-family:Helvetica;-inkscape-font-specification:Helvetica;writing-mode:lr-tb;fill:#000000;fill-opacity:1;fill-rule:nonzero;stroke:none"
           transform="matrix(0,1,1,0,26.66,78.87)">
          <tspan
             id="tspan5110"
             sodipodi:role="line"
             y="0"
             x="0 5.5599999 8.3400002 13.9">0.25</tspan>
        </text>
        <text
           id="text5116"
           style="font-variant:normal;font-weight:normal;font-size:10px;font-family:Helvetica;-inkscape-font-specification:Helvetica;writing-mode:lr-tb;fill:#000000;fill-opacity:1;fill-rule:nonzero;stroke:none"
           transform="matrix(0,1,1,0,26.66,131.36)">
          <tspan
             id="tspan5114"
             sodipodi:role="line"
             y="0"
             x="0 5.5599999 8.3400002 13.9">0.50</tspan>
        </text>
        <text
           id="text5120"
           style="font-variant:normal;font-weight:normal;font-size:10px;font-family:Helvetica;-inkscape-font-specification:Helvetica;writing-mode:lr-tb;fill:#000000;fill-opacity:1;fill-rule:nonzero;stroke:none"
           transform="matrix(0,1,1,0,26.66,183.85)">
          <tspan
             id="tspan5118"
             sodipodi:role="line"
             y="0"
             x="0 5.5599999 8.3400002 13.9">0.75</tspan>
        </text>
      </g>
      <g
         id="g5122" />
      <g
         id="g5124">
        <path
           inkscape:connector-curvature="0"
           id="path5126"
           style="fill:none;stroke:#333333;stroke-width:1.07000005;stroke-linecap:butt;stroke-linejoin:round;stroke-miterlimit:10;stroke-dasharray:none;stroke-opacity:1"
           d="m 31.05,36.11 h 2.74" />
        <path
           inkscape:connector-curvature="0"
           id="path5128"
           style="fill:none;stroke:#333333;stroke-width:1.07000005;stroke-linecap:butt;stroke-linejoin:round;stroke-miterlimit:10;stroke-dasharray:none;stroke-opacity:1"
           d="m 31.05,88.6 h 2.74" />
        <path
           inkscape:connector-curvature="0"
           id="path5130"
           style="fill:none;stroke:#333333;stroke-width:1.07000005;stroke-linecap:butt;stroke-linejoin:round;stroke-miterlimit:10;stroke-dasharray:none;stroke-opacity:1"
           d="m 31.05,141.09 h 2.74" />
        <path
           inkscape:connector-curvature="0"
           id="path5132"
           style="fill:none;stroke:#333333;stroke-width:1.07000005;stroke-linecap:butt;stroke-linejoin:round;stroke-miterlimit:10;stroke-dasharray:none;stroke-opacity:1"
           d="m 31.05,193.58 h 2.74" />
      </g>
      <g
         id="g5134" />
      <g
         id="g5136" />
      <g
         id="g5138" />
      <g
         id="g5140" />
      <g
         id="g5142" />
      <g
         id="g5144" />
      <g
         id="g5146" />
      <g
         id="g5148" />
      <g
         id="g5150" />
      <g
         id="g5152">
        <path
           inkscape:connector-curvature="0"
           id="path5154"
           style="fill:none;stroke:#333333;stroke-width:1.07000005;stroke-linecap:butt;stroke-linejoin:round;stroke-miterlimit:10;stroke-dasharray:none;stroke-opacity:1"
           d="m 42.64,31.05 v 2.74" />
        <path
           inkscape:connector-curvature="0"
           id="path5156"
           style="fill:none;stroke:#333333;stroke-width:1.07000005;stroke-linecap:butt;stroke-linejoin:round;stroke-miterlimit:10;stroke-dasharray:none;stroke-opacity:1"
           d="m 86.9,31.05 v 2.74" />
        <path
           inkscape:connector-curvature="0"
           id="path5158"
           style="fill:none;stroke:#333333;stroke-width:1.07000005;stroke-linecap:butt;stroke-linejoin:round;stroke-miterlimit:10;stroke-dasharray:none;stroke-opacity:1"
           d="m 131.15,31.05 v 2.74" />
        <path
           inkscape:connector-curvature="0"
           id="path5160"
           style="fill:none;stroke:#333333;stroke-width:1.07000005;stroke-linecap:butt;stroke-linejoin:round;stroke-miterlimit:10;stroke-dasharray:none;stroke-opacity:1"
           d="m 175.41,31.05 v 2.74" />
        <path
           inkscape:connector-curvature="0"
           id="path5162"
           style="fill:none;stroke:#333333;stroke-width:1.07000005;stroke-linecap:butt;stroke-linejoin:round;stroke-miterlimit:10;stroke-dasharray:none;stroke-opacity:1"
           d="m 219.67,31.05 v 2.74" />
      </g>
      <g
         id="g5164" />
      <g
         id="g5166">
        <text
           id="text5170"
           style="font-variant:normal;font-weight:normal;font-size:10px;font-family:Helvetica;-inkscape-font-specification:Helvetica;writing-mode:lr-tb;fill:#4d4d4d;fill-opacity:1;fill-rule:nonzero;stroke:none"
           transform="matrix(1,0,0,-1,39.86,21.68)">
          <tspan
             id="tspan5168"
             y="0"
             x="0">0</tspan>
        </text>
        <text
           id="text5174"
           style="font-variant:normal;font-weight:normal;font-size:10px;font-family:Helvetica;-inkscape-font-specification:Helvetica;writing-mode:lr-tb;fill:#4d4d4d;fill-opacity:1;fill-rule:nonzero;stroke:none"
           transform="matrix(1,0,0,-1,84.12,21.68)">
          <tspan
             id="tspan5172"
             y="0"
             x="0">5</tspan>
        </text>
        <text
           id="text5178"
           style="font-variant:normal;font-weight:normal;font-size:10px;font-family:Helvetica;-inkscape-font-specification:Helvetica;writing-mode:lr-tb;fill:#4d4d4d;fill-opacity:1;fill-rule:nonzero;stroke:none"
           transform="matrix(1,0,0,-1,125.59,21.68)">
          <tspan
             id="tspan5176"
             sodipodi:role="line"
             y="0"
             x="0 5.5599999">10</tspan>
        </text>
        <text
           id="text5182"
           style="font-variant:normal;font-weight:normal;font-size:10px;font-family:Helvetica;-inkscape-font-specification:Helvetica;writing-mode:lr-tb;fill:#4d4d4d;fill-opacity:1;fill-rule:nonzero;stroke:none"
           transform="matrix(1,0,0,-1,169.85,21.68)">
          <tspan
             id="tspan5180"
             sodipodi:role="line"
             y="0"
             x="0 5.5599999">15</tspan>
        </text>
        <text
           id="text5186"
           style="font-variant:normal;font-weight:normal;font-size:10px;font-family:Helvetica;-inkscape-font-specification:Helvetica;writing-mode:lr-tb;fill:#4d4d4d;fill-opacity:1;fill-rule:nonzero;stroke:none"
           transform="matrix(1,0,0,-1,214.11,21.68)">
          <tspan
             id="tspan5184"
             sodipodi:role="line"
             y="0"
             x="0 5.5599999">20</tspan>
        </text>
      </g>
      <g
         id="g5188" />
      <g
         id="g5190" />
      <g
         id="g5192" />
      <g
         id="g5194" />
      <g
         id="g5196" />
      <g
         id="g5198">
        <text
           id="text5202"
           style="font-variant:normal;font-weight:normal;font-size:12px;font-family:Helvetica;-inkscape-font-specification:Helvetica;writing-mode:lr-tb;fill:#000000;fill-opacity:1;fill-rule:nonzero;stroke:none"
           transform="matrix(1,0,0,-1,82.23,8.12)">
          <tspan
             id="tspan5200"
             sodipodi:role="line"
             y="0"
             x="0 8.6639996 15.336 22.007999 28.68 34.992001 40.992001 44.327999 52.992001 59.484001 65.183998 71.856003 75.851997 79.188004 83.183998 93.851997">Canopy Cover (%)</tspan>
        </text>
      </g>
      <g
         id="g5204" />
      <g
         id="g5206">
        <text
           id="text5210"
           style="font-variant:normal;font-weight:normal;font-size:12px;font-family:Helvetica;-inkscape-font-specification:Helvetica;writing-mode:lr-tb;fill:#000000;fill-opacity:1;fill-rule:nonzero;stroke:none"
           transform="matrix(0,1,1,0,14.1,96.76)">
          <tspan
             id="tspan5208"
             sodipodi:role="line"
             y="0"
             x="0 8.0039997 12 18.672001 25.344 32.015999 36.492001 39.827999 42.492001 49.164001 55.835999 59.172001 67.176003 69.839996 76.512001">Proportion Pine</tspan>
        </text>
      </g>
      <g
         id="g5212" />
      <g
         id="g5214" />
      <g
         id="g5216" />
      <g
         id="g5218" />
      <g
         id="g5220" />
      <g
         id="g5222" />
      <g
         id="g5224" />
      <g
         id="g5226" />
      <g
         id="g5228" />
      <g
         id="g5230" />
      <g
         id="g5232" />
      <g
         id="g5234" />
    </g>
    <text
       id="text5068"
       style="font-style:normal;font-variant:normal;font-weight:normal;font-stretch:normal;font-size:3.52777767px;font-family:Helvetica;-inkscape-font-specification:'Helvetica, Normal';font-variant-ligatures:normal;font-variant-caps:normal;font-variant-numeric:normal;font-feature-settings:normal;text-align:start;writing-mode:lr-tb;text-anchor:start;fill:#000000;fill-opacity:1;fill-rule:nonzero;stroke:none;stroke-width:0.35277775"
       x="24.526855"
       y="76.120819"
       inkscape:export-xdpi="400"
       inkscape:export-ydpi="400">
      <tspan
         style="stroke-width:0.35277775"
         sodipodi:role="line"
         id="tspan5402"
         x="24.526855"
         y="76.120819">Planted</tspan>
    </text>
    <text
       id="text5082"
       style="font-style:normal;font-variant:normal;font-weight:normal;font-stretch:normal;font-size:3.52777767px;font-family:Helvetica;-inkscape-font-specification:'Helvetica, Normal';font-variant-ligatures:normal;font-variant-caps:normal;font-variant-numeric:normal;font-feature-settings:normal;text-align:start;writing-mode:lr-tb;text-anchor:start;fill:#000000;fill-opacity:1;fill-rule:nonzero;stroke:none;stroke-width:0.35277775"
       x="24.188187"
       y="81.691002"
       inkscape:export-xdpi="400"
       inkscape:export-ydpi="400">
      <tspan
         style="stroke-width:0.35277775"
         sodipodi:role="line"
         id="tspan5404"
         x="24.188187"
         y="81.691002">Unplanted</tspan>
    </text>
    <path
       style="fill:#59881b;fill-opacity:1;stroke:#59881b;stroke-width:1.07639873px;stroke-linecap:butt;stroke-linejoin:miter;stroke-opacity:1"
       d="m 42.829617,74.766844 8.03975,6.01e-4"
       id="path7395"
       inkscape:connector-curvature="0"
       sodipodi:nodetypes="cc"
       inkscape:export-xdpi="400"
       inkscape:export-ydpi="400" />
    <path
       style="fill:#6d7274;fill-opacity:1;stroke:#59881b;stroke-width:1.07599998;stroke-linecap:butt;stroke-linejoin:miter;stroke-miterlimit:4;stroke-dasharray:2.15199996, 1.07599998;stroke-dashoffset:0;stroke-opacity:1"
       d="m 42.829167,80.41054 8.03975,6.08e-4"
       id="path7395-1"
       inkscape:connector-curvature="0"
       sodipodi:nodetypes="cc"
       inkscape:export-xdpi="400"
       inkscape:export-ydpi="400" />
  </g>
</svg>
