<?xml version="1.0" encoding="UTF-8" standalone="no"?>
<!-- Created with Inkscape (http://www.inkscape.org/) -->

<svg
   xmlns:dc="http://purl.org/dc/elements/1.1/"
   xmlns:cc="http://creativecommons.org/ns#"
   xmlns:rdf="http://www.w3.org/1999/02/22-rdf-syntax-ns#"
   xmlns:svg="http://www.w3.org/2000/svg"
   xmlns="http://www.w3.org/2000/svg"
   xmlns:sodipodi="http://sodipodi.sourceforge.net/DTD/sodipodi-0.dtd"
   xmlns:inkscape="http://www.inkscape.org/namespaces/inkscape"
   width="82.927467mm"
   height="88.007469mm"
   viewBox="0 0 82.927467 88.007469"
   version="1.1"
   id="svg3581"
   inkscape:version="0.92.3 (2405546, 2018-03-11)"
   sodipodi:docname="precip_comp.svg"
   inkscape:export-filename="C:\Users\Quinn Sorenson\Documents\R\Git_R\postfire-management\figures\manuscript\precip_comp.png"
   inkscape:export-xdpi="400"
   inkscape:export-ydpi="400">
  <defs
     id="defs3575">
    <clipPath
       id="clipPath4168"
       clipPathUnits="userSpaceOnUse">
      <path
         inkscape:connector-curvature="0"
         id="path4166"
         d="M 33.79,33.79 H 228.52 V 242.92 H 33.79 Z" />
    </clipPath>
  </defs>
  <sodipodi:namedview
     id="base"
     pagecolor="#ffffff"
     bordercolor="#666666"
     borderopacity="1.0"
     inkscape:pageopacity="0.0"
     inkscape:pageshadow="2"
     inkscape:zoom="3.1808842"
     inkscape:cx="211.66887"
     inkscape:cy="233.69746"
     inkscape:document-units="mm"
     inkscape:current-layer="layer1"
     showgrid="false"
     inkscape:window-width="1920"
     inkscape:window-height="1001"
     inkscape:window-x="-9"
     inkscape:window-y="-9"
     inkscape:window-maximized="1" />
  <metadata
     id="metadata3578">
    <rdf:RDF>
      <cc:Work
         rdf:about="">
        <dc:format>image/svg+xml</dc:format>
        <dc:type
           rdf:resource="http://purl.org/dc/dcmitype/StillImage" />
        <dc:title></dc:title>
      </cc:Work>
    </rdf:RDF>
  </metadata>
  <g
     inkscape:label="Layer 1"
     inkscape:groupmode="layer"
     id="layer1"
     transform="translate(-5.4053172,-5.0438888)">
    <g
       transform="matrix(0.35277777,0,0,-0.35277777,5.5940533,92.862623)"
       inkscape:label="precip_comp"
       id="g4134">
      <g
         id="g4136" />
      <g
         id="g4138" />
      <g
         id="g4140" />
      <g
         id="g4142" />
      <g
         id="g4144" />
      <g
         id="g4146" />
      <g
         id="g4148" />
      <g
         id="g4150" />
      <g
         id="g4152" />
      <g
         id="g4154" />
      <g
         id="g4156">
        <path
           inkscape:connector-curvature="0"
           id="path4158"
           style="fill:#ffffff;fill-opacity:1;fill-rule:nonzero;stroke:#ffffff;stroke-width:1.07000005;stroke-linecap:round;stroke-linejoin:round;stroke-miterlimit:10;stroke-dasharray:none;stroke-opacity:1"
           d="M 0,0 H 234 V 248.4 H 0 Z" />
      </g>
      <g
         id="g4160" />
      <g
         id="g4162">
        <g
           clip-path="url(#clipPath4168)"
           id="g4164">
          <path
             inkscape:connector-curvature="0"
             id="path4170"
             style="fill:none;stroke:#000000;stroke-width:1.07000005;stroke-linecap:round;stroke-linejoin:round;stroke-miterlimit:10;stroke-dasharray:none;stroke-opacity:1"
             d="M 33.79,33.79 H 228.52 V 242.92 H 33.79 Z" />
          <path
             inkscape:connector-curvature="0"
             id="path4172"
             style="fill:#508aa8;fill-opacity:0.14900004;fill-rule:nonzero;stroke:none"
             d="m 42.64,233.41 0.25,-0.03 0.25,-0.04 0.26,-0.04 0.25,-0.04 0.25,-0.04 0.26,-0.03 0.25,-0.04 0.25,-0.04 0.25,-0.04 0.26,-0.04 0.25,-0.04 0.25,-0.04 0.26,-0.04 0.25,-0.04 0.25,-0.04 0.25,-0.04 0.26,-0.04 0.25,-0.04 0.25,-0.04 0.26,-0.04 0.25,-0.04 0.25,-0.04 0.25,-0.04 0.26,-0.04 0.25,-0.04 0.25,-0.04 0.26,-0.05 0.25,-0.04 0.25,-0.04 0.26,-0.04 0.25,-0.04 0.25,-0.05 0.25,-0.04 0.26,-0.04 0.25,-0.04 0.25,-0.05 0.26,-0.04 0.25,-0.04 0.25,-0.05 0.25,-0.04 0.26,-0.05 0.25,-0.04 0.25,-0.04 0.26,-0.05 0.25,-0.04 0.25,-0.05 0.25,-0.04 0.26,-0.05 0.25,-0.04 0.25,-0.05 0.26,-0.05 0.25,-0.04 0.25,-0.05 0.25,-0.04 0.26,-0.05 0.25,-0.05 0.25,-0.04 0.26,-0.05 0.25,-0.05 0.25,-0.04 0.26,-0.05 0.25,-0.05 0.25,-0.05 0.25,-0.04 0.26,-0.05 0.25,-0.05 0.25,-0.05 0.26,-0.05 0.25,-0.05 0.25,-0.05 0.25,-0.05 0.26,-0.04 0.25,-0.05 0.25,-0.05 0.26,-0.05 0.25,-0.05 0.25,-0.05 0.25,-0.05 0.26,-0.06 0.25,-0.05 0.25,-0.05 0.26,-0.05 0.25,-0.05 0.25,-0.05 0.25,-0.05 0.26,-0.06 0.25,-0.05 0.25,-0.05 0.26,-0.05 0.25,-0.06 0.25,-0.05 0.26,-0.05 0.25,-0.05 0.25,-0.06 0.25,-0.05 0.26,-0.06 0.25,-0.05 0.25,-0.05 0.26,-0.06 0.25,-0.05 0.25,-0.06 0.25,-0.05 0.26,-0.06 0.25,-0.05 0.25,-0.06 0.26,-0.05 0.25,-0.06 0.25,-0.06 0.25,-0.05 0.26,-0.06 0.25,-0.06 0.25,-0.05 0.26,-0.06 0.25,-0.06 0.25,-0.06 0.25,-0.05 0.26,-0.06 0.25,-0.06 0.25,-0.06 0.26,-0.06 0.25,-0.06 0.25,-0.05 0.26,-0.06 0.25,-0.06 0.25,-0.06 0.25,-0.06 0.26,-0.06 0.25,-0.06 0.25,-0.06 0.26,-0.06 0.25,-0.06 0.25,-0.07 0.25,-0.06 0.26,-0.06 0.25,-0.06 0.25,-0.06 0.26,-0.06 0.25,-0.07 0.25,-0.06 0.25,-0.06 0.26,-0.06 0.25,-0.07 0.25,-0.06 0.26,-0.06 0.25,-0.07 0.25,-0.06 0.25,-0.07 0.26,-0.06 0.25,-0.06 0.25,-0.07 0.26,-0.06 0.25,-0.07 0.25,-0.07 0.25,-0.06 0.26,-0.07 0.25,-0.06 0.25,-0.07 0.26,-0.07 0.25,-0.06 0.25,-0.07 0.26,-0.07 0.25,-0.06 0.25,-0.07 0.25,-0.07 0.26,-0.07 0.25,-0.07 0.25,-0.06 0.26,-0.07 0.25,-0.07 0.25,-0.07 0.25,-0.07 0.26,-0.07 0.25,-0.07 0.25,-0.07 0.26,-0.07 0.25,-0.07 0.25,-0.07 0.25,-0.07 0.26,-0.07 0.25,-0.07 0.25,-0.07 0.26,-0.08 0.25,-0.07 0.25,-0.07 0.25,-0.07 0.26,-0.08 0.25,-0.07 0.25,-0.07 0.26,-0.07 0.25,-0.08 0.25,-0.07 0.26,-0.08 0.25,-0.07 0.25,-0.07 0.25,-0.08 0.26,-0.07 0.25,-0.08 0.25,-0.07 0.26,-0.08 0.25,-0.07 0.25,-0.08 0.25,-0.08 0.26,-0.07 0.25,-0.08 0.25,-0.08 0.26,-0.07 0.25,-0.08 0.25,-0.08 0.25,-0.08 0.26,-0.07 0.25,-0.08 0.25,-0.08 0.26,-0.08 0.25,-0.08 0.25,-0.08 0.25,-0.08 0.26,-0.07 0.25,-0.08 0.25,-0.08 0.26,-0.08 0.25,-0.08 0.25,-0.09 0.26,-0.08 0.25,-0.08 0.25,-0.08 0.25,-0.08 0.26,-0.08 0.25,-0.08 0.25,-0.09 0.26,-0.08 0.25,-0.08 0.25,-0.08 0.25,-0.09 0.26,-0.08 0.25,-0.08 0.25,-0.09 0.26,-0.08 0.25,-0.08 0.25,-0.09 0.25,-0.08 0.26,-0.09 0.25,-0.08 0.25,-0.09 0.26,-0.08 0.25,-0.09 0.25,-0.09 0.25,-0.08 0.26,-0.09 0.25,-0.08 0.25,-0.09 0.26,-0.09 0.25,-0.08 0.25,-0.09 0.26,-0.09 0.25,-0.09 0.25,-0.09 0.25,-0.08 0.26,-0.09 0.25,-0.09 0.25,-0.09 0.26,-0.09 0.25,-0.09 0.25,-0.09 0.25,-0.09 0.26,-0.09 0.25,-0.09 0.25,-0.09 0.26,-0.09 0.25,-0.09 0.25,-0.09 0.25,-0.09 0.26,-0.09 0.25,-0.1 0.25,-0.09 0.26,-0.09 0.25,-0.09 0.25,-0.1 0.25,-0.09 0.26,-0.09 0.25,-0.09 0.25,-0.1 0.26,-0.09 0.25,-0.1 0.25,-0.09 0.26,-0.09 0.25,-0.1 0.25,-0.09 0.25,-0.1 0.26,-0.09 0.25,-0.1 0.25,-0.09 0.26,-0.1 0.25,-0.09 0.25,-0.1 0.25,-0.1 0.26,-0.09 0.25,-0.1 0.25,-0.1 0.26,-0.09 0.25,-0.1 0.25,-0.1 0.25,-0.1 0.26,-0.09 0.25,-0.1 0.25,-0.1 0.26,-0.1 0.25,-0.1 0.25,-0.1 0.25,-0.1 0.26,-0.1 0.25,-0.1 0.25,-0.1 0.26,-0.09 0.25,-0.1 0.25,-0.11 0.25,-0.1 0.26,-0.1 0.25,-0.1 0.25,-0.1 0.26,-0.1 0.25,-0.1 0.25,-0.1 0.26,-0.1 0.25,-0.11 0.25,-0.1 0.25,-0.1 0.26,-0.1 0.25,-0.11 0.25,-0.1 0.26,-0.1 0.25,-0.1 0.25,-0.11 0.25,-0.1 0.26,-0.11 0.25,-0.1 0.25,-0.1 0.26,-0.11 0.25,-0.1 0.25,-0.11 0.25,-0.1 0.26,-0.11 0.25,-0.1 0.25,-0.11 0.26,-0.1 0.25,-0.11 0.25,-0.1 0.25,-0.11 0.26,-0.11 0.25,-0.1 0.25,-0.11 0.26,-0.11 0.25,-0.1 0.25,-0.11 0.26,-0.11 0.25,-0.11 0.25,-0.1 0.25,-0.11 0.26,-0.11 0.25,-0.11 0.25,-0.1 0.26,-0.11 0.25,-0.11 0.25,-0.11 0.25,-0.11 0.26,-0.11 0.25,-0.11 0.25,-0.11 0.26,-0.11 0.25,-0.11 0.25,-0.1 0.25,-0.11 0.26,-0.11 0.25,-0.11 0.25,-0.12 0.26,-0.11 0.25,-0.11 0.25,-0.11 0.25,-0.11 0.26,-0.11 0.25,-0.11 0.25,-0.11 0.26,-0.11 0.25,-0.11 0.25,-0.12 0.26,-0.11 0.25,-0.11 0.25,-0.11 0.25,-0.12 0.26,-0.11 0.25,-0.11 0.25,-0.11 0.26,-0.12 0.25,-0.11 0.25,-0.11 0.25,-0.12 0.26,-0.11 0.25,-0.11 0.25,-0.12 0.26,-0.11 0.25,-0.11 0.25,-0.12 0.25,-0.11 0.26,-0.12 0.25,-0.11 0.25,-0.12 0.26,-0.11 0.25,-0.12 0.25,-0.11 0.25,-0.12 0.26,-0.11 0.25,-0.12 0.25,-0.11 0.26,-0.12 0.25,-0.11 0.25,-0.12 0.26,-0.11 0.25,-0.12 0.25,-0.12 0.25,-0.11 0.26,-0.12 0.25,-0.12 0.25,-0.11 0.26,-0.12 0.25,-0.12 0.25,-0.11 0.25,-0.12 0.26,-0.12 0.25,-0.11 0.25,-0.12 0.26,-0.12 0.25,-0.12 0.25,-0.12 0.25,-0.11 0.26,-0.12 0.25,-0.12 0.25,-0.12 0.26,-0.12 0.25,-0.11 0.25,-0.12 0.25,-0.12 0.26,-0.12 0.25,-0.12 0.25,-0.12 0.26,-0.12 0.25,-0.12 0.25,-0.12 0.26,-0.12 0.25,-0.11 0.25,-0.12 0.25,-0.12 0.26,-0.12 0.25,-0.12 0.25,-0.12 0.26,-0.12 0.25,-0.12 0.25,-0.12 0.25,-0.12 0.26,-0.13 0.25,-0.12 0.25,-0.12 0.26,-0.12 0.25,-0.12 0.25,-0.12 0.25,-0.12 0.26,-0.12 0.25,-0.12 0.25,-0.12 0.26,-0.13 0.25,-0.12 0.25,-0.12 0.25,-0.12 0.26,-0.12 0.25,-0.13 0.25,-0.12 0.26,-0.12 0.25,-0.12 0.25,-0.12 0.25,-0.13 0.26,-0.12 0.25,-0.12 0.25,-0.12 0.26,-0.13 0.25,-0.12 0.25,-0.12 0.26,-0.13 0.25,-0.12 0.25,-0.12 0.25,-0.13 0.26,-0.12 0.25,-0.12 0.25,-0.13 0.26,-0.12 0.25,-0.13 0.25,-0.12 0.25,-0.12 0.26,-0.13 0.25,-0.12 0.25,-0.13 0.26,-0.12 0.25,-0.13 0.25,-0.12 0.25,-0.12 0.26,-0.13 0.25,-0.12 0.25,-0.13 0.26,-0.12 0.25,-0.13 0.25,-0.12 0.25,-0.13 0.26,-0.13 0.25,-0.12 0.25,-0.13 0.26,-0.12 0.25,-0.13 0.25,-0.12 0.26,-0.13 0.25,-0.13 0.25,-0.12 0.25,-0.13 0.26,-0.13 0.25,-0.12 0.25,-0.13 0.26,-0.13 0.25,-0.12 0.25,-0.13 0.25,-0.13 0.26,-0.12 0.25,-0.13 0.25,-0.13 0.26,-0.13 0.25,-0.12 0.25,-0.13 0.25,-0.13 0.26,-0.13 0.25,-0.12 0.25,-0.13 0.26,-0.13 0.25,-0.13 0.25,-0.13 0.25,-0.13 0.26,-0.12 0.25,-0.13 0.25,-0.13 0.26,-0.13 0.25,-0.13 0.25,-0.13 0.26,-0.13 0.25,-0.13 0.25,-0.13 0.25,-0.13 0.26,-0.12 0.25,-0.13 0.25,-0.13 0.26,-0.13 0.25,-0.13 0.25,-0.13 0.25,-0.13 0.26,-0.13 0.25,-0.13 0.25,-0.13 0.26,-0.14 0.25,-0.13 0.25,-0.13 0.25,-0.13 0.26,-0.13 0.25,-0.13 0.25,-0.13 0.26,-0.13 0.25,-0.13 0.25,-0.14 0.25,-0.13 0.26,-0.13 0.25,-0.13 0.25,-0.13 0.26,-0.13 0.25,-0.14 0.25,-0.13 0.26,-0.13 0.25,-0.13 0.25,-0.14 0.25,-0.13 0.26,-0.13 0.25,-0.13 0.25,-0.14 0.26,-0.13 0.25,-0.13 0.25,-0.14 0.25,-0.13 0.26,-0.13 0.25,-0.14 0.25,-0.13 0.26,-0.14 0.25,-0.13 0.25,-0.13 0.25,-0.14 0.26,-0.13 0.25,-0.14 0.25,-0.13 0.26,-0.14 0.25,-0.13 0.25,-0.14 0.25,-0.13 0.26,-0.14 0.25,-0.13 0.25,-0.14 0.26,-0.13 0.25,-0.14 0.25,-0.14 0.26,-0.13 0.25,-0.14 0.25,-0.14 0.25,-0.13 0.26,-0.14 0.25,-0.13 0.25,-0.14 0.26,-0.14 0.25,-0.14 0.25,-0.13 0.25,-0.14 0.26,-0.14 0.25,-0.14 0.25,-0.13 0.26,-0.14 0.25,-0.14 0.25,-0.14 0.25,-0.13 0.26,-0.14 0.25,-0.14 0.25,-0.14 0.26,-0.14 0.25,-0.14 0.25,-0.14 0.25,-0.14 0.26,-0.14 0.25,-0.14 0.25,-0.13 0.26,-0.14 0.25,-0.14 0.25,-0.14 0.25,-0.14 0.26,-0.14 0.25,-0.15 0.25,-0.14 0.26,-0.14 0.25,-0.14 0.25,-0.14 0.26,-0.14 0.25,-0.14 0.25,-0.14 0.25,-0.14 0.26,-0.15 0.25,-0.14 0.25,-0.14 0.26,-0.14 0.25,-0.14 0.25,-0.15 0.25,-0.14 0.26,-0.14 0.25,-0.15 0.25,-0.14 0.26,-0.14 0.25,-0.15 0.25,-0.14 0.25,-0.14 0.26,-0.15 0.25,-0.14 0.25,-0.14 0.26,-0.15 0.25,-0.14 0.25,-0.15 0.25,-0.14 0.26,-0.15 0.25,-0.14 0.25,-0.15 0.26,-0.14 0.25,-0.15 0.25,-0.14 0.26,-0.15 0.25,-0.15 0.25,-0.14 0.25,-0.15 0.26,-0.15 0.25,-0.14 0.25,-0.15 0.26,-0.15 0.25,-0.14 0.25,-0.15 0.25,-0.15 0.26,-0.15 0.25,-0.14 0.25,-0.15 0.26,-0.15 0.25,-0.15 0.25,-0.15 0.25,-0.15 0.26,-0.15 0.25,-0.14 0.25,-0.15 0.26,-0.15 0.25,-0.15 v -59.26 l -0.25,0.33 -0.26,0.34 -0.25,0.34 -0.25,0.33 -0.26,0.34 -0.25,0.34 -0.25,0.33 -0.25,0.34 -0.26,0.33 -0.25,0.33 -0.25,0.34 -0.26,0.33 -0.25,0.33 -0.25,0.33 -0.25,0.33 -0.26,0.33 -0.25,0.34 -0.25,0.33 -0.26,0.32 -0.25,0.33 -0.25,0.33 -0.25,0.33 -0.26,0.33 -0.25,0.33 -0.25,0.32 -0.26,0.33 -0.25,0.32 -0.25,0.33 -0.26,0.32 -0.25,0.33 -0.25,0.32 -0.25,0.33 -0.26,0.32 -0.25,0.32 -0.25,0.32 -0.26,0.32 -0.25,0.33 -0.25,0.32 -0.25,0.32 -0.26,0.31 -0.25,0.32 -0.25,0.32 -0.26,0.32 -0.25,0.32 -0.25,0.31 -0.25,0.32 -0.26,0.32 -0.25,0.31 -0.25,0.32 -0.26,0.31 -0.25,0.31 -0.25,0.32 -0.25,0.31 -0.26,0.31 -0.25,0.31 -0.25,0.32 -0.26,0.31 -0.25,0.31 -0.25,0.31 -0.26,0.31 -0.25,0.3 -0.25,0.31 -0.25,0.31 -0.26,0.31 -0.25,0.3 -0.25,0.31 -0.26,0.3 -0.25,0.31 -0.25,0.3 -0.25,0.31 -0.26,0.3 -0.25,0.3 -0.25,0.3 -0.26,0.3 -0.25,0.31 -0.25,0.3 -0.25,0.3 -0.26,0.3 -0.25,0.29 -0.25,0.3 -0.26,0.3 -0.25,0.3 -0.25,0.29 -0.25,0.3 -0.26,0.29 -0.25,0.3 -0.25,0.29 -0.26,0.3 -0.25,0.29 -0.25,0.29 -0.25,0.29 -0.26,0.29 -0.25,0.3 -0.25,0.29 -0.26,0.28 -0.25,0.29 -0.25,0.29 -0.26,0.29 -0.25,0.29 -0.25,0.28 -0.25,0.29 -0.26,0.29 -0.25,0.28 -0.25,0.28 -0.26,0.29 -0.25,0.28 -0.25,0.28 -0.25,0.29 -0.26,0.28 -0.25,0.28 -0.25,0.28 -0.26,0.28 -0.25,0.28 -0.25,0.27 -0.25,0.28 -0.26,0.28 -0.25,0.28 -0.25,0.27 -0.26,0.28 -0.25,0.27 -0.25,0.28 -0.25,0.27 -0.26,0.27 -0.25,0.27 -0.25,0.28 -0.26,0.27 -0.25,0.27 -0.25,0.27 -0.26,0.27 -0.25,0.27 -0.25,0.26 -0.25,0.27 -0.26,0.27 -0.25,0.26 -0.25,0.27 -0.26,0.26 -0.25,0.27 -0.25,0.26 -0.25,0.27 -0.26,0.26 -0.25,0.26 -0.25,0.26 -0.26,0.26 -0.25,0.26 -0.25,0.26 -0.25,0.26 -0.26,0.26 -0.25,0.26 -0.25,0.25 -0.26,0.26 -0.25,0.26 -0.25,0.25 -0.25,0.26 -0.26,0.25 -0.25,0.25 -0.25,0.26 -0.26,0.25 -0.25,0.25 -0.25,0.25 -0.26,0.25 -0.25,0.25 -0.25,0.25 -0.25,0.25 -0.26,0.24 -0.25,0.25 -0.25,0.25 -0.26,0.24 -0.25,0.25 -0.25,0.24 -0.25,0.25 -0.26,0.24 -0.25,0.24 -0.25,0.24 -0.26,0.25 -0.25,0.24 -0.25,0.24 -0.25,0.24 -0.26,0.23 -0.25,0.24 -0.25,0.24 -0.26,0.24 -0.25,0.23 -0.25,0.24 -0.25,0.23 -0.26,0.24 -0.25,0.23 -0.25,0.24 -0.26,0.23 -0.25,0.23 -0.25,0.23 -0.26,0.23 -0.25,0.23 -0.25,0.23 -0.25,0.23 -0.26,0.23 -0.25,0.23 -0.25,0.22 -0.26,0.23 -0.25,0.23 -0.25,0.22 -0.25,0.22 -0.26,0.23 -0.25,0.22 -0.25,0.22 -0.26,0.23 -0.25,0.22 -0.25,0.22 -0.25,0.22 -0.26,0.22 -0.25,0.22 -0.25,0.21 -0.26,0.22 -0.25,0.22 -0.25,0.22 -0.25,0.21 -0.26,0.22 -0.25,0.21 -0.25,0.22 -0.26,0.21 -0.25,0.21 -0.25,0.21 -0.26,0.21 -0.25,0.22 -0.25,0.21 -0.25,0.2 -0.26,0.21 -0.25,0.21 -0.25,0.21 -0.26,0.21 -0.25,0.2 -0.25,0.21 -0.25,0.2 -0.26,0.21 -0.25,0.2 -0.25,0.21 -0.26,0.2 -0.25,0.2 -0.25,0.2 -0.25,0.2 -0.26,0.21 -0.25,0.19 -0.25,0.2 -0.26,0.2 -0.25,0.2 -0.25,0.2 -0.25,0.19 -0.26,0.2 -0.25,0.2 -0.25,0.19 -0.26,0.2 -0.25,0.19 -0.25,0.19 -0.25,0.2 -0.26,0.19 -0.25,0.19 -0.25,0.19 -0.26,0.19 -0.25,0.19 -0.25,0.19 -0.26,0.19 -0.25,0.19 -0.25,0.18 -0.25,0.19 -0.26,0.19 -0.25,0.18 -0.25,0.19 -0.26,0.18 -0.25,0.19 -0.25,0.18 -0.25,0.18 -0.26,0.18 -0.25,0.19 -0.25,0.18 -0.26,0.18 -0.25,0.18 -0.25,0.18 -0.25,0.17 -0.26,0.18 -0.25,0.18 -0.25,0.18 -0.26,0.17 -0.25,0.18 -0.25,0.18 -0.25,0.17 -0.26,0.17 -0.25,0.18 -0.25,0.17 -0.26,0.17 -0.25,0.18 -0.25,0.17 -0.26,0.17 -0.25,0.17 -0.25,0.17 -0.25,0.17 -0.26,0.17 -0.25,0.17 -0.25,0.16 -0.26,0.17 -0.25,0.17 -0.25,0.16 -0.25,0.17 -0.26,0.16 -0.25,0.17 -0.25,0.16 -0.26,0.17 -0.25,0.16 -0.25,0.16 -0.25,0.16 -0.26,0.16 -0.25,0.16 -0.25,0.16 -0.26,0.16 -0.25,0.16 -0.25,0.16 -0.25,0.16 -0.26,0.16 -0.25,0.16 -0.25,0.15 -0.26,0.16 -0.25,0.15 -0.25,0.16 -0.26,0.15 -0.25,0.16 -0.25,0.15 -0.25,0.16 -0.26,0.15 -0.25,0.15 -0.25,0.15 -0.26,0.15 -0.25,0.15 -0.25,0.16 -0.25,0.14 -0.26,0.15 -0.25,0.15 -0.25,0.15 -0.26,0.15 -0.25,0.15 -0.25,0.14 -0.25,0.15 -0.26,0.15 -0.25,0.14 -0.25,0.15 -0.26,0.14 -0.25,0.15 -0.25,0.14 -0.25,0.14 -0.26,0.15 -0.25,0.14 -0.25,0.14 -0.26,0.14 -0.25,0.14 -0.25,0.14 -0.26,0.14 -0.25,0.14 -0.25,0.14 -0.25,0.14 -0.26,0.14 -0.25,0.14 -0.25,0.13 -0.26,0.14 -0.25,0.14 -0.25,0.13 -0.25,0.14 -0.26,0.13 -0.25,0.14 -0.25,0.13 -0.26,0.14 -0.25,0.13 -0.25,0.13 -0.25,0.14 -0.26,0.13 -0.25,0.13 -0.25,0.13 -0.26,0.13 -0.25,0.13 -0.25,0.13 -0.25,0.13 -0.26,0.13 -0.25,0.13 -0.25,0.13 -0.26,0.13 -0.25,0.13 -0.25,0.12 -0.26,0.13 -0.25,0.13 -0.25,0.12 -0.25,0.13 -0.26,0.12 -0.25,0.13 -0.25,0.12 -0.26,0.13 -0.25,0.12 -0.25,0.12 -0.25,0.13 -0.26,0.12 -0.25,0.12 -0.25,0.12 -0.26,0.13 -0.25,0.12 -0.25,0.12 -0.25,0.12 -0.26,0.12 -0.25,0.12 -0.25,0.12 -0.26,0.12 -0.25,0.12 -0.25,0.11 -0.25,0.12 -0.26,0.12 -0.25,0.12 -0.25,0.11 -0.26,0.12 -0.25,0.12 -0.25,0.11 -0.25,0.12 -0.26,0.11 -0.25,0.12 -0.25,0.11 -0.26,0.11 -0.25,0.12 -0.25,0.11 -0.26,0.12 -0.25,0.11 -0.25,0.11 -0.25,0.11 -0.26,0.11 -0.25,0.12 -0.25,0.11 -0.26,0.11 -0.25,0.11 -0.25,0.11 -0.25,0.11 -0.26,0.11 -0.25,0.11 -0.25,0.1 -0.26,0.11 -0.25,0.11 -0.25,0.11 -0.25,0.11 -0.26,0.1 -0.25,0.11 -0.25,0.11 -0.26,0.1 -0.25,0.11 -0.25,0.1 -0.25,0.11 -0.26,0.11 -0.25,0.1 -0.25,0.1 -0.26,0.11 -0.25,0.1 -0.25,0.11 -0.26,0.1 -0.25,0.1 -0.25,0.1 -0.25,0.11 -0.26,0.1 -0.25,0.1 -0.25,0.1 -0.26,0.1 -0.25,0.1 -0.25,0.11 -0.25,0.1 -0.26,0.1 -0.25,0.1 -0.25,0.09 -0.26,0.1 -0.25,0.1 -0.25,0.1 -0.25,0.1 -0.26,0.1 -0.25,0.1 -0.25,0.09 -0.26,0.1 -0.25,0.1 -0.25,0.09 -0.25,0.1 -0.26,0.1 -0.25,0.09 -0.25,0.1 -0.26,0.09 -0.25,0.1 -0.25,0.09 -0.26,0.1 -0.25,0.09 -0.25,0.1 -0.25,0.09 -0.26,0.1 -0.25,0.09 -0.25,0.09 -0.26,0.09 -0.25,0.1 -0.25,0.09 -0.25,0.09 -0.26,0.09 -0.25,0.09 -0.25,0.1 -0.26,0.09 -0.25,0.09 -0.25,0.09 -0.25,0.09 -0.26,0.09 -0.25,0.09 -0.25,0.09 -0.26,0.09 -0.25,0.09 -0.25,0.09 -0.25,0.08 -0.26,0.09 -0.25,0.09 -0.25,0.09 -0.26,0.09 -0.25,0.08 -0.25,0.09 -0.26,0.09 -0.25,0.09 -0.25,0.08 -0.25,0.09 -0.26,0.08 -0.25,0.09 -0.25,0.09 -0.26,0.08 -0.25,0.09 -0.25,0.08 -0.25,0.09 -0.26,0.08 -0.25,0.09 -0.25,0.08 -0.26,0.08 -0.25,0.09 -0.25,0.08 -0.25,0.08 -0.26,0.09 -0.25,0.08 -0.25,0.08 -0.26,0.08 -0.25,0.09 -0.25,0.08 -0.25,0.08 -0.26,0.08 -0.25,0.08 -0.25,0.08 -0.26,0.09 -0.25,0.08 -0.25,0.08 -0.26,0.08 -0.25,0.08 -0.25,0.08 -0.25,0.08 -0.26,0.08 -0.25,0.08 -0.25,0.07 -0.26,0.08 -0.25,0.08 -0.25,0.08 -0.25,0.08 -0.26,0.08 -0.25,0.07 -0.25,0.08 -0.26,0.08 -0.25,0.08 -0.25,0.07 -0.25,0.08 -0.26,0.08 -0.25,0.07 -0.25,0.08 -0.26,0.08 -0.25,0.07 -0.25,0.08 -0.25,0.07 -0.26,0.08 -0.25,0.07 -0.25,0.08 -0.26,0.07 -0.25,0.08 -0.25,0.07 -0.25,0.08 -0.26,0.07 -0.25,0.07 -0.25,0.08 -0.26,0.07 -0.25,0.07 -0.25,0.08 -0.26,0.07 -0.25,0.07 -0.25,0.08 -0.25,0.07 -0.26,0.07 -0.25,0.07 -0.25,0.07 -0.26,0.08 -0.25,0.07 -0.25,0.07 -0.25,0.07 -0.26,0.07 -0.25,0.07 -0.25,0.07 -0.26,0.07 -0.25,0.07 -0.25,0.07 -0.25,0.07 -0.26,0.07 -0.25,0.07 -0.25,0.07 -0.26,0.07 -0.25,0.07 -0.25,0.07 -0.25,0.07 -0.26,0.06 -0.25,0.07 -0.25,0.07 -0.26,0.07 -0.25,0.07 -0.25,0.06 -0.26,0.07 -0.25,0.07 -0.25,0.07 -0.25,0.06 -0.26,0.07 -0.25,0.07 -0.25,0.06 -0.26,0.07 -0.25,0.07 -0.25,0.06 -0.25,0.07 -0.26,0.06 -0.25,0.07 -0.25,0.06 -0.26,0.07 -0.25,0.06 -0.25,0.07 -0.25,0.06 -0.26,0.07 -0.25,0.06 -0.25,0.07 -0.26,0.06 -0.25,0.07 -0.25,0.06 -0.25,0.06 -0.26,0.07 -0.25,0.06 -0.25,0.06 -0.26,0.07 -0.25,0.06 -0.25,0.06 -0.26,0.06 -0.25,0.07 -0.25,0.06 -0.25,0.06 -0.26,0.06 -0.25,0.06 -0.25,0.07 -0.26,0.06 -0.25,0.06 -0.25,0.06 -0.25,0.06 -0.26,0.06 -0.25,0.06 -0.25,0.06 -0.26,0.06 -0.25,0.06 -0.25,0.06 -0.25,0.06 -0.26,0.06 -0.25,0.06 -0.25,0.06 -0.26,0.06 -0.25,0.06 -0.25,0.06 -0.25,0.06 -0.26,0.06 -0.25,0.06 -0.25,0.06 -0.26,0.06 -0.25,0.05 -0.25,0.06 -0.26,0.06 -0.25,0.06 -0.25,0.06 -0.25,0.05 -0.26,0.06 -0.25,0.06 -0.25,0.05 -0.26,0.06 -0.25,0.06 -0.25,0.06 -0.25,0.05 -0.26,0.06 -0.25,0.06 -0.25,0.05 -0.26,0.06 -0.25,0.05 -0.25,0.06 -0.25,0.05 -0.26,0.06 -0.25,0.06 -0.25,0.05 -0.26,0.06 -0.25,0.05 -0.25,0.06 z" />
          <path
             inkscape:connector-curvature="0"
             id="path4174"
             style="fill:#508aa8;fill-opacity:0.14900004;fill-rule:nonzero;stroke:none"
             d="m 42.64,228.1 0.25,-0.06 0.25,-0.07 0.26,-0.06 0.25,-0.07 0.25,-0.06 0.26,-0.06 0.25,-0.07 0.25,-0.06 0.25,-0.07 0.26,-0.06 0.25,-0.07 0.25,-0.06 0.26,-0.07 0.25,-0.07 0.25,-0.06 0.25,-0.07 0.26,-0.07 0.25,-0.06 0.25,-0.07 0.26,-0.07 0.25,-0.07 0.25,-0.07 0.25,-0.06 0.26,-0.07 0.25,-0.07 0.25,-0.07 0.26,-0.07 0.25,-0.07 0.25,-0.07 0.26,-0.07 0.25,-0.07 0.25,-0.07 0.25,-0.07 0.26,-0.07 0.25,-0.07 0.25,-0.08 0.26,-0.07 0.25,-0.07 0.25,-0.07 0.25,-0.08 0.26,-0.07 0.25,-0.07 0.25,-0.08 0.26,-0.07 0.25,-0.07 0.25,-0.08 0.25,-0.07 0.26,-0.08 0.25,-0.07 0.25,-0.08 0.26,-0.07 0.25,-0.08 0.25,-0.07 0.25,-0.08 0.26,-0.08 0.25,-0.07 0.25,-0.08 0.26,-0.08 0.25,-0.08 0.25,-0.07 0.26,-0.08 0.25,-0.08 0.25,-0.08 0.25,-0.08 0.26,-0.08 0.25,-0.08 0.25,-0.08 0.26,-0.08 0.25,-0.08 0.25,-0.08 0.25,-0.08 0.26,-0.08 0.25,-0.08 0.25,-0.08 0.26,-0.09 0.25,-0.08 0.25,-0.08 0.25,-0.08 0.26,-0.09 0.25,-0.08 0.25,-0.08 0.26,-0.09 0.25,-0.08 0.25,-0.09 0.25,-0.08 0.26,-0.09 0.25,-0.08 0.25,-0.09 0.26,-0.08 0.25,-0.09 0.25,-0.09 0.26,-0.08 0.25,-0.09 0.25,-0.09 0.25,-0.09 0.26,-0.08 0.25,-0.09 0.25,-0.09 0.26,-0.09 0.25,-0.09 0.25,-0.09 0.25,-0.09 0.26,-0.09 0.25,-0.09 0.25,-0.09 0.26,-0.09 0.25,-0.09 0.25,-0.09 0.25,-0.09 0.26,-0.09 0.25,-0.1 0.25,-0.09 0.26,-0.09 0.25,-0.1 0.25,-0.09 0.25,-0.09 0.26,-0.1 0.25,-0.09 0.25,-0.1 0.26,-0.09 0.25,-0.1 0.25,-0.09 0.26,-0.1 0.25,-0.09 0.25,-0.1 0.25,-0.1 0.26,-0.09 0.25,-0.1 0.25,-0.1 0.26,-0.1 0.25,-0.09 0.25,-0.1 0.25,-0.1 0.26,-0.1 0.25,-0.1 0.25,-0.1 0.26,-0.1 0.25,-0.1 0.25,-0.1 0.25,-0.1 0.26,-0.1 0.25,-0.1 0.25,-0.1 0.26,-0.11 0.25,-0.1 0.25,-0.1 0.25,-0.1 0.26,-0.11 0.25,-0.1 0.25,-0.1 0.26,-0.11 0.25,-0.1 0.25,-0.11 0.25,-0.1 0.26,-0.11 0.25,-0.1 0.25,-0.11 0.26,-0.11 0.25,-0.1 0.25,-0.11 0.26,-0.11 0.25,-0.1 0.25,-0.11 0.25,-0.11 0.26,-0.11 0.25,-0.11 0.25,-0.11 0.26,-0.11 0.25,-0.11 0.25,-0.11 0.25,-0.11 0.26,-0.11 0.25,-0.11 0.25,-0.11 0.26,-0.11 0.25,-0.11 0.25,-0.11 0.25,-0.12 0.26,-0.11 0.25,-0.11 0.25,-0.12 0.26,-0.11 0.25,-0.11 0.25,-0.12 0.25,-0.11 0.26,-0.12 0.25,-0.11 0.25,-0.12 0.26,-0.11 0.25,-0.12 0.25,-0.12 0.26,-0.11 0.25,-0.12 0.25,-0.12 0.25,-0.11 0.26,-0.12 0.25,-0.12 0.25,-0.12 0.26,-0.12 0.25,-0.12 0.25,-0.12 0.25,-0.12 0.26,-0.12 0.25,-0.12 0.25,-0.12 0.26,-0.12 0.25,-0.12 0.25,-0.12 0.25,-0.12 0.26,-0.13 0.25,-0.12 0.25,-0.12 0.26,-0.13 0.25,-0.12 0.25,-0.12 0.25,-0.13 0.26,-0.12 0.25,-0.13 0.25,-0.12 0.26,-0.13 0.25,-0.12 0.25,-0.13 0.26,-0.12 0.25,-0.13 0.25,-0.13 0.25,-0.12 0.26,-0.13 0.25,-0.13 0.25,-0.13 0.26,-0.13 0.25,-0.13 0.25,-0.12 0.25,-0.13 0.26,-0.13 0.25,-0.13 0.25,-0.13 0.26,-0.13 0.25,-0.14 0.25,-0.13 0.25,-0.13 0.26,-0.13 0.25,-0.13 0.25,-0.13 0.26,-0.14 0.25,-0.13 0.25,-0.13 0.25,-0.14 0.26,-0.13 0.25,-0.13 0.25,-0.14 0.26,-0.13 0.25,-0.14 0.25,-0.13 0.26,-0.14 0.25,-0.14 0.25,-0.13 0.25,-0.14 0.26,-0.14 0.25,-0.13 0.25,-0.14 0.26,-0.14 0.25,-0.14 0.25,-0.13 0.25,-0.14 0.26,-0.14 0.25,-0.14 0.25,-0.14 0.26,-0.14 0.25,-0.14 0.25,-0.14 0.25,-0.14 0.26,-0.14 0.25,-0.14 0.25,-0.15 0.26,-0.14 0.25,-0.14 0.25,-0.14 0.25,-0.15 0.26,-0.14 0.25,-0.14 0.25,-0.15 0.26,-0.14 0.25,-0.14 0.25,-0.15 0.26,-0.14 0.25,-0.15 0.25,-0.14 0.25,-0.15 0.26,-0.15 0.25,-0.14 0.25,-0.15 0.26,-0.14 0.25,-0.15 0.25,-0.15 0.25,-0.15 0.26,-0.14 0.25,-0.15 0.25,-0.15 0.26,-0.15 0.25,-0.15 0.25,-0.15 0.25,-0.15 0.26,-0.15 0.25,-0.15 0.25,-0.15 0.26,-0.15 0.25,-0.15 0.25,-0.15 0.25,-0.15 0.26,-0.15 0.25,-0.16 0.25,-0.15 0.26,-0.15 0.25,-0.15 0.25,-0.16 0.25,-0.15 0.26,-0.15 0.25,-0.16 0.25,-0.15 0.26,-0.16 0.25,-0.15 0.25,-0.16 0.26,-0.15 0.25,-0.16 0.25,-0.15 0.25,-0.16 0.26,-0.16 0.25,-0.15 0.25,-0.16 0.26,-0.16 0.25,-0.15 0.25,-0.16 0.25,-0.16 0.26,-0.16 0.25,-0.15 0.25,-0.16 0.26,-0.16 0.25,-0.16 0.25,-0.16 0.25,-0.16 0.26,-0.16 0.25,-0.16 0.25,-0.16 0.26,-0.16 0.25,-0.16 0.25,-0.16 0.25,-0.16 0.26,-0.17 0.25,-0.16 0.25,-0.16 0.26,-0.16 0.25,-0.17 0.25,-0.16 0.26,-0.16 0.25,-0.16 0.25,-0.17 0.25,-0.16 0.26,-0.17 0.25,-0.16 0.25,-0.16 0.26,-0.17 0.25,-0.16 0.25,-0.17 0.25,-0.16 0.26,-0.17 0.25,-0.17 0.25,-0.16 0.26,-0.17 0.25,-0.16 0.25,-0.17 0.25,-0.17 0.26,-0.17 0.25,-0.16 0.25,-0.17 0.26,-0.17 0.25,-0.17 0.25,-0.17 0.25,-0.16 0.26,-0.17 0.25,-0.17 0.25,-0.17 0.26,-0.17 0.25,-0.17 0.25,-0.17 0.26,-0.17 0.25,-0.17 0.25,-0.17 0.25,-0.17 0.26,-0.17 0.25,-0.17 0.25,-0.18 0.26,-0.17 0.25,-0.17 0.25,-0.17 0.25,-0.17 0.26,-0.18 0.25,-0.17 0.25,-0.17 0.26,-0.17 0.25,-0.18 0.25,-0.17 0.25,-0.17 0.26,-0.18 0.25,-0.17 0.25,-0.18 0.26,-0.17 0.25,-0.18 0.25,-0.17 0.25,-0.18 0.26,-0.17 0.25,-0.18 0.25,-0.17 0.26,-0.18 0.25,-0.17 0.25,-0.18 0.26,-0.18 0.25,-0.17 0.25,-0.18 0.25,-0.18 0.26,-0.17 0.25,-0.18 0.25,-0.18 0.26,-0.18 0.25,-0.17 0.25,-0.18 0.25,-0.18 0.26,-0.18 0.25,-0.18 0.25,-0.18 0.26,-0.18 0.25,-0.18 0.25,-0.18 0.25,-0.17 0.26,-0.18 0.25,-0.18 0.25,-0.18 0.26,-0.18 0.25,-0.19 0.25,-0.18 0.25,-0.18 0.26,-0.18 0.25,-0.18 0.25,-0.18 0.26,-0.18 0.25,-0.18 0.25,-0.19 0.26,-0.18 0.25,-0.18 0.25,-0.18 0.25,-0.18 0.26,-0.19 0.25,-0.18 0.25,-0.18 0.26,-0.19 0.25,-0.18 0.25,-0.18 0.25,-0.19 0.26,-0.18 0.25,-0.19 0.25,-0.18 0.26,-0.18 0.25,-0.19 0.25,-0.18 0.25,-0.19 0.26,-0.18 0.25,-0.19 0.25,-0.18 0.26,-0.19 0.25,-0.18 0.25,-0.19 0.25,-0.19 0.26,-0.18 0.25,-0.19 0.25,-0.19 0.26,-0.18 0.25,-0.19 0.25,-0.19 0.25,-0.18 0.26,-0.19 0.25,-0.19 0.25,-0.19 0.26,-0.18 0.25,-0.19 0.25,-0.19 0.26,-0.19 0.25,-0.19 0.25,-0.18 0.25,-0.19 0.26,-0.19 0.25,-0.19 0.25,-0.19 0.26,-0.19 0.25,-0.19 0.25,-0.19 0.25,-0.19 0.26,-0.19 0.25,-0.19 0.25,-0.19 0.26,-0.19 0.25,-0.19 0.25,-0.19 0.25,-0.19 0.26,-0.19 0.25,-0.19 0.25,-0.19 0.26,-0.19 0.25,-0.19 0.25,-0.2 0.25,-0.19 0.26,-0.19 0.25,-0.19 0.25,-0.19 0.26,-0.19 0.25,-0.2 0.25,-0.19 0.26,-0.19 0.25,-0.2 0.25,-0.19 0.25,-0.19 0.26,-0.19 0.25,-0.2 0.25,-0.19 0.26,-0.19 0.25,-0.2 0.25,-0.19 0.25,-0.2 0.26,-0.19 0.25,-0.19 0.25,-0.2 0.26,-0.19 0.25,-0.2 0.25,-0.19 0.25,-0.2 0.26,-0.19 0.25,-0.2 0.25,-0.19 0.26,-0.2 0.25,-0.2 0.25,-0.19 0.25,-0.2 0.26,-0.19 0.25,-0.2 0.25,-0.2 0.26,-0.19 0.25,-0.2 0.25,-0.2 0.26,-0.19 0.25,-0.2 0.25,-0.2 0.25,-0.19 0.26,-0.2 0.25,-0.2 0.25,-0.2 0.26,-0.19 0.25,-0.2 0.25,-0.2 0.25,-0.2 0.26,-0.2 0.25,-0.2 0.25,-0.19 0.26,-0.2 0.25,-0.2 0.25,-0.2 0.25,-0.2 0.26,-0.2 0.25,-0.2 0.25,-0.2 0.26,-0.2 0.25,-0.2 0.25,-0.2 0.25,-0.2 0.26,-0.2 0.25,-0.2 0.25,-0.2 0.26,-0.2 0.25,-0.2 0.25,-0.2 0.26,-0.2 0.25,-0.2 0.25,-0.2 0.25,-0.21 0.26,-0.2 0.25,-0.2 0.25,-0.2 0.26,-0.2 0.25,-0.2 0.25,-0.21 0.25,-0.2 0.26,-0.2 0.25,-0.2 0.25,-0.21 0.26,-0.2 0.25,-0.2 0.25,-0.21 0.25,-0.2 0.26,-0.2 0.25,-0.21 0.25,-0.2 0.26,-0.2 0.25,-0.21 0.25,-0.2 0.25,-0.21 0.26,-0.2 0.25,-0.2 0.25,-0.21 0.26,-0.2 0.25,-0.21 0.25,-0.2 0.26,-0.21 0.25,-0.2 0.25,-0.21 0.25,-0.2 0.26,-0.21 0.25,-0.21 0.25,-0.2 0.26,-0.21 0.25,-0.2 0.25,-0.21 0.25,-0.21 0.26,-0.2 0.25,-0.21 0.25,-0.21 0.26,-0.2 0.25,-0.21 0.25,-0.21 0.25,-0.2 0.26,-0.21 0.25,-0.21 0.25,-0.21 0.26,-0.2 0.25,-0.21 0.25,-0.21 0.25,-0.21 0.26,-0.21 0.25,-0.21 0.25,-0.2 0.26,-0.21 0.25,-0.21 0.25,-0.21 0.25,-0.21 0.26,-0.21 0.25,-0.21 0.25,-0.21 0.26,-0.21 0.25,-0.21 0.25,-0.21 0.26,-0.21 0.25,-0.21 0.25,-0.21 0.25,-0.21 0.26,-0.21 0.25,-0.21 0.25,-0.21 0.26,-0.21 0.25,-0.21 0.25,-0.22 0.25,-0.21 0.26,-0.21 0.25,-0.21 0.25,-0.21 0.26,-0.21 0.25,-0.22 0.25,-0.21 0.25,-0.21 0.26,-0.21 0.25,-0.22 0.25,-0.21 0.26,-0.21 0.25,-0.21 0.25,-0.22 0.25,-0.21 0.26,-0.21 0.25,-0.22 0.25,-0.21 0.26,-0.22 0.25,-0.21 0.25,-0.21 0.26,-0.22 0.25,-0.21 0.25,-0.22 0.25,-0.21 0.26,-0.22 0.25,-0.21 0.25,-0.22 0.26,-0.21 0.25,-0.22 0.25,-0.21 0.25,-0.22 0.26,-0.21 0.25,-0.22 0.25,-0.22 0.26,-0.21 0.25,-0.22 0.25,-0.22 0.25,-0.21 0.26,-0.22 0.25,-0.22 0.25,-0.21 0.26,-0.22 0.25,-0.22 V 43.29 l -0.25,0.35 -0.26,0.34 -0.25,0.35 -0.25,0.34 -0.26,0.34 -0.25,0.35 -0.25,0.34 -0.25,0.35 -0.26,0.34 -0.25,0.35 -0.25,0.34 -0.26,0.34 -0.25,0.35 -0.25,0.34 -0.25,0.35 -0.26,0.34 -0.25,0.34 -0.25,0.35 -0.26,0.34 -0.25,0.35 -0.25,0.34 -0.25,0.34 -0.26,0.35 -0.25,0.34 -0.25,0.35 -0.26,0.34 -0.25,0.34 -0.25,0.35 -0.26,0.34 -0.25,0.34 -0.25,0.35 -0.25,0.34 -0.26,0.34 -0.25,0.35 -0.25,0.34 -0.26,0.34 -0.25,0.35 -0.25,0.34 -0.25,0.34 -0.26,0.35 -0.25,0.34 -0.25,0.34 -0.26,0.34 -0.25,0.35 -0.25,0.34 -0.25,0.34 -0.26,0.34 -0.25,0.34 -0.25,0.34 -0.26,0.35 -0.25,0.34 -0.25,0.34 -0.25,0.34 -0.26,0.34 -0.25,0.34 -0.25,0.34 -0.26,0.34 -0.25,0.34 -0.25,0.34 -0.26,0.34 -0.25,0.34 -0.25,0.34 -0.25,0.34 -0.26,0.34 -0.25,0.34 -0.25,0.34 -0.26,0.34 -0.25,0.34 -0.25,0.34 -0.25,0.34 -0.26,0.33 -0.25,0.34 -0.25,0.34 -0.26,0.34 -0.25,0.34 -0.25,0.33 -0.25,0.34 -0.26,0.34 -0.25,0.33 -0.25,0.34 -0.26,0.34 -0.25,0.33 -0.25,0.34 -0.25,0.33 -0.26,0.34 -0.25,0.33 -0.25,0.34 -0.26,0.33 -0.25,0.34 -0.25,0.33 -0.25,0.34 -0.26,0.33 -0.25,0.33 -0.25,0.34 -0.26,0.33 -0.25,0.33 -0.25,0.33 -0.26,0.34 -0.25,0.33 -0.25,0.33 -0.25,0.33 -0.26,0.33 -0.25,0.33 -0.25,0.33 -0.26,0.33 -0.25,0.33 -0.25,0.33 -0.25,0.33 -0.26,0.33 -0.25,0.33 -0.25,0.33 -0.26,0.33 -0.25,0.33 -0.25,0.32 -0.25,0.33 -0.26,0.33 -0.25,0.33 -0.25,0.32 -0.26,0.33 -0.25,0.32 -0.25,0.33 -0.25,0.32 -0.26,0.33 -0.25,0.32 -0.25,0.33 -0.26,0.32 -0.25,0.33 -0.25,0.32 -0.26,0.32 -0.25,0.32 -0.25,0.33 -0.25,0.32 -0.26,0.32 -0.25,0.32 -0.25,0.32 -0.26,0.32 -0.25,0.32 -0.25,0.32 -0.25,0.32 -0.26,0.32 -0.25,0.32 -0.25,0.32 -0.26,0.32 -0.25,0.31 -0.25,0.32 -0.25,0.32 -0.26,0.31 -0.25,0.32 -0.25,0.32 -0.26,0.31 -0.25,0.32 -0.25,0.31 -0.25,0.31 -0.26,0.32 -0.25,0.31 -0.25,0.32 -0.26,0.31 -0.25,0.31 -0.25,0.31 -0.26,0.31 -0.25,0.31 -0.25,0.32 -0.25,0.31 -0.26,0.31 -0.25,0.3 -0.25,0.31 -0.26,0.31 -0.25,0.31 -0.25,0.31 -0.25,0.31 -0.26,0.3 -0.25,0.31 -0.25,0.31 -0.26,0.3 -0.25,0.31 -0.25,0.3 -0.25,0.31 -0.26,0.3 -0.25,0.3 -0.25,0.31 -0.26,0.3 -0.25,0.3 -0.25,0.3 -0.25,0.3 -0.26,0.31 -0.25,0.3 -0.25,0.3 -0.26,0.3 -0.25,0.29 -0.25,0.3 -0.26,0.3 -0.25,0.3 -0.25,0.3 -0.25,0.29 -0.26,0.3 -0.25,0.3 -0.25,0.29 -0.26,0.3 -0.25,0.29 -0.25,0.3 -0.25,0.29 -0.26,0.29 -0.25,0.3 -0.25,0.29 -0.26,0.29 -0.25,0.29 -0.25,0.29 -0.25,0.29 -0.26,0.29 -0.25,0.29 -0.25,0.29 -0.26,0.29 -0.25,0.29 -0.25,0.29 -0.25,0.28 -0.26,0.29 -0.25,0.29 -0.25,0.28 -0.26,0.29 -0.25,0.28 -0.25,0.29 -0.26,0.28 -0.25,0.28 -0.25,0.29 -0.25,0.28 -0.26,0.28 -0.25,0.28 -0.25,0.28 -0.26,0.28 -0.25,0.28 -0.25,0.28 -0.25,0.28 -0.26,0.28 -0.25,0.28 -0.25,0.27 -0.26,0.28 -0.25,0.28 -0.25,0.27 -0.25,0.28 -0.26,0.27 -0.25,0.28 -0.25,0.27 -0.26,0.28 -0.25,0.27 -0.25,0.27 -0.25,0.27 -0.26,0.28 -0.25,0.27 -0.25,0.27 -0.26,0.27 -0.25,0.27 -0.25,0.27 -0.25,0.26 -0.26,0.27 -0.25,0.27 -0.25,0.27 -0.26,0.26 -0.25,0.27 -0.25,0.26 -0.26,0.27 -0.25,0.26 -0.25,0.27 -0.25,0.26 -0.26,0.26 -0.25,0.27 -0.25,0.26 -0.26,0.26 -0.25,0.26 -0.25,0.26 -0.25,0.26 -0.26,0.26 -0.25,0.26 -0.25,0.26 -0.26,0.26 -0.25,0.25 -0.25,0.26 -0.25,0.26 -0.26,0.25 -0.25,0.26 -0.25,0.25 -0.26,0.26 -0.25,0.25 -0.25,0.25 -0.25,0.26 -0.26,0.25 -0.25,0.25 -0.25,0.25 -0.26,0.25 -0.25,0.25 -0.25,0.25 -0.26,0.25 -0.25,0.25 -0.25,0.25 -0.25,0.25 -0.26,0.24 -0.25,0.25 -0.25,0.25 -0.26,0.24 -0.25,0.25 -0.25,0.24 -0.25,0.25 -0.26,0.24 -0.25,0.24 -0.25,0.25 -0.26,0.24 -0.25,0.24 -0.25,0.24 -0.25,0.24 -0.26,0.24 -0.25,0.24 -0.25,0.24 -0.26,0.24 -0.25,0.24 -0.25,0.23 -0.25,0.24 -0.26,0.24 -0.25,0.23 -0.25,0.24 -0.26,0.24 -0.25,0.23 -0.25,0.23 -0.26,0.24 -0.25,0.23 -0.25,0.23 -0.25,0.24 -0.26,0.23 -0.25,0.23 -0.25,0.23 -0.26,0.23 -0.25,0.23 -0.25,0.23 -0.25,0.23 -0.26,0.23 -0.25,0.22 -0.25,0.23 -0.26,0.23 -0.25,0.22 -0.25,0.23 -0.25,0.22 -0.26,0.23 -0.25,0.22 -0.25,0.23 -0.26,0.22 -0.25,0.22 -0.25,0.23 -0.25,0.22 -0.26,0.22 -0.25,0.22 -0.25,0.22 -0.26,0.22 -0.25,0.22 -0.25,0.22 -0.26,0.22 -0.25,0.21 -0.25,0.22 -0.25,0.22 -0.26,0.22 -0.25,0.21 -0.25,0.22 -0.26,0.21 -0.25,0.22 -0.25,0.21 -0.25,0.22 -0.26,0.21 -0.25,0.21 -0.25,0.21 -0.26,0.22 -0.25,0.21 -0.25,0.21 -0.25,0.21 -0.26,0.21 -0.25,0.21 -0.25,0.21 -0.26,0.21 -0.25,0.2 -0.25,0.21 -0.25,0.21 -0.26,0.21 -0.25,0.2 -0.25,0.21 -0.26,0.2 -0.25,0.21 -0.25,0.2 -0.26,0.21 -0.25,0.2 -0.25,0.2 -0.25,0.21 -0.26,0.2 -0.25,0.2 -0.25,0.2 -0.26,0.2 -0.25,0.2 -0.25,0.2 -0.25,0.2 -0.26,0.2 -0.25,0.2 -0.25,0.2 -0.26,0.19 -0.25,0.2 -0.25,0.2 -0.25,0.2 -0.26,0.19 -0.25,0.2 -0.25,0.19 -0.26,0.2 -0.25,0.19 -0.25,0.19 -0.25,0.2 -0.26,0.19 -0.25,0.19 -0.25,0.2 -0.26,0.19 -0.25,0.19 -0.25,0.19 -0.25,0.19 -0.26,0.19 -0.25,0.19 -0.25,0.19 -0.26,0.19 -0.25,0.18 -0.25,0.19 -0.26,0.19 -0.25,0.19 -0.25,0.18 -0.25,0.19 -0.26,0.18 -0.25,0.19 -0.25,0.19 -0.26,0.18 -0.25,0.18 -0.25,0.19 -0.25,0.18 -0.26,0.18 -0.25,0.19 -0.25,0.18 -0.26,0.18 -0.25,0.18 -0.25,0.18 -0.25,0.18 -0.26,0.18 -0.25,0.18 -0.25,0.18 -0.26,0.18 -0.25,0.18 -0.25,0.18 -0.25,0.17 -0.26,0.18 -0.25,0.18 -0.25,0.17 -0.26,0.18 -0.25,0.17 -0.25,0.18 -0.26,0.17 -0.25,0.18 -0.25,0.17 -0.25,0.18 -0.26,0.17 -0.25,0.17 -0.25,0.18 -0.26,0.17 -0.25,0.17 -0.25,0.17 -0.25,0.17 -0.26,0.17 -0.25,0.17 -0.25,0.17 -0.26,0.17 -0.25,0.17 -0.25,0.17 -0.25,0.17 -0.26,0.16 -0.25,0.17 -0.25,0.17 -0.26,0.17 -0.25,0.16 -0.25,0.17 -0.25,0.16 -0.26,0.17 -0.25,0.16 -0.25,0.17 -0.26,0.16 -0.25,0.17 -0.25,0.16 -0.26,0.16 -0.25,0.17 -0.25,0.16 -0.25,0.16 -0.26,0.16 -0.25,0.16 -0.25,0.16 -0.26,0.17 -0.25,0.16 -0.25,0.16 -0.25,0.15 -0.26,0.16 -0.25,0.16 -0.25,0.16 -0.26,0.16 -0.25,0.16 -0.25,0.15 -0.25,0.16 -0.26,0.16 -0.25,0.15 -0.25,0.16 -0.26,0.16 -0.25,0.15 -0.25,0.16 -0.25,0.15 -0.26,0.16 -0.25,0.15 -0.25,0.15 -0.26,0.16 -0.25,0.15 -0.25,0.15 -0.26,0.15 -0.25,0.16 -0.25,0.15 -0.25,0.15 -0.26,0.15 -0.25,0.15 -0.25,0.15 -0.26,0.15 -0.25,0.15 -0.25,0.15 -0.25,0.15 -0.26,0.15 -0.25,0.14 -0.25,0.15 -0.26,0.15 -0.25,0.15 -0.25,0.14 -0.25,0.15 -0.26,0.15 -0.25,0.14 -0.25,0.15 -0.26,0.14 -0.25,0.15 -0.25,0.14 -0.25,0.15 -0.26,0.14 -0.25,0.15 -0.25,0.14 -0.26,0.14 -0.25,0.14 -0.25,0.15 -0.26,0.14 -0.25,0.14 -0.25,0.14 -0.25,0.14 -0.26,0.14 -0.25,0.14 -0.25,0.15 -0.26,0.14 -0.25,0.13 -0.25,0.14 -0.25,0.14 -0.26,0.14 -0.25,0.14 -0.25,0.14 -0.26,0.14 -0.25,0.13 -0.25,0.14 -0.25,0.14 -0.26,0.13 -0.25,0.14 -0.25,0.14 -0.26,0.13 -0.25,0.14 -0.25,0.13 -0.25,0.14 -0.26,0.13 -0.25,0.14 -0.25,0.13 -0.26,0.13 -0.25,0.14 -0.25,0.13 -0.25,0.13 -0.26,0.13 -0.25,0.14 -0.25,0.13 -0.26,0.13 -0.25,0.13 -0.25,0.13 -0.26,0.13 -0.25,0.13 -0.25,0.13 -0.25,0.13 -0.26,0.13 -0.25,0.13 -0.25,0.13 -0.26,0.13 -0.25,0.13 -0.25,0.13 -0.25,0.12 -0.26,0.13 -0.25,0.13 -0.25,0.13 -0.26,0.12 -0.25,0.13 -0.25,0.13 -0.25,0.12 -0.26,0.13 -0.25,0.12 -0.25,0.13 -0.26,0.12 -0.25,0.13 -0.25,0.12 -0.25,0.12 -0.26,0.13 -0.25,0.12 -0.25,0.12 -0.26,0.13 -0.25,0.12 -0.25,0.12 -0.26,0.12 -0.25,0.13 -0.25,0.12 -0.25,0.12 -0.26,0.12 -0.25,0.12 -0.25,0.12 -0.26,0.12 -0.25,0.12 -0.25,0.12 -0.25,0.12 -0.26,0.12 -0.25,0.12 -0.25,0.12 -0.26,0.12 -0.25,0.11 -0.25,0.12 -0.25,0.12 -0.26,0.12 -0.25,0.11 -0.25,0.12 -0.26,0.12 -0.25,0.11 -0.25,0.12 -0.25,0.11 -0.26,0.12 -0.25,0.11 -0.25,0.12 -0.26,0.11 -0.25,0.12 -0.25,0.11 -0.26,0.12 -0.25,0.11 -0.25,0.11 -0.25,0.12 -0.26,0.11 -0.25,0.11 -0.25,0.12 -0.26,0.11 -0.25,0.11 -0.25,0.11 -0.25,0.11 -0.26,0.11 -0.25,0.12 -0.25,0.11 -0.26,0.11 -0.25,0.11 -0.25,0.11 -0.25,0.11 -0.26,0.11 -0.25,0.11 -0.25,0.1 -0.26,0.11 -0.25,0.11 -0.25,0.11 -0.25,0.11 -0.26,0.11 -0.25,0.1 -0.25,0.11 -0.26,0.11 -0.25,0.1 -0.25,0.11 -0.26,0.11 -0.25,0.1 -0.25,0.11 -0.25,0.11 -0.26,0.1 -0.25,0.11 -0.25,0.1 -0.26,0.11 -0.25,0.1 -0.25,0.1 -0.25,0.11 -0.26,0.1 -0.25,0.11 -0.25,0.1 -0.26,0.1 -0.25,0.1 -0.25,0.11 -0.25,0.1 -0.26,0.1 -0.25,0.1 -0.25,0.11 -0.26,0.1 -0.25,0.1 -0.25,0.1 z" />
          <path
             inkscape:connector-curvature="0"
             id="path4176"
             style="fill:none;stroke:#6d7274;stroke-width:4.26999998;stroke-linecap:butt;stroke-linejoin:round;stroke-miterlimit:10;stroke-dasharray:none;stroke-opacity:1"
             d="m 42.64,226.63 0.25,-0.05 0.25,-0.05 0.26,-0.04 0.25,-0.05 0.25,-0.05 0.26,-0.04 0.25,-0.05 0.25,-0.05 0.25,-0.05 0.26,-0.04 0.25,-0.05 0.25,-0.05 0.26,-0.05 0.25,-0.05 0.25,-0.04 0.25,-0.05 0.26,-0.05 0.25,-0.05 0.25,-0.05 0.26,-0.05 0.25,-0.05 0.25,-0.05 0.25,-0.04 0.26,-0.05 0.25,-0.05 0.25,-0.05 0.26,-0.05 0.25,-0.05 0.25,-0.05 0.26,-0.06 0.25,-0.05 0.25,-0.05 0.25,-0.05 0.26,-0.05 0.25,-0.05 0.25,-0.05 0.26,-0.05 0.25,-0.06 0.25,-0.05 0.25,-0.05 0.26,-0.05 0.25,-0.05 0.25,-0.06 0.26,-0.05 0.25,-0.05 0.25,-0.05 0.25,-0.06 0.26,-0.05 0.25,-0.05 0.25,-0.06 0.26,-0.05 0.25,-0.06 0.25,-0.05 0.25,-0.05 0.26,-0.06 0.25,-0.05 0.25,-0.06 0.26,-0.05 0.25,-0.06 0.25,-0.05 0.26,-0.06 0.25,-0.05 0.25,-0.06 0.25,-0.06 0.26,-0.05 0.25,-0.06 0.25,-0.06 0.26,-0.05 0.25,-0.06 0.25,-0.06 0.25,-0.05 0.26,-0.06 0.25,-0.06 0.25,-0.06 0.26,-0.05 0.25,-0.06 0.25,-0.06 0.25,-0.06 0.26,-0.06 0.25,-0.05 0.25,-0.06 0.26,-0.06 0.25,-0.06 0.25,-0.06 0.25,-0.06 0.26,-0.06 0.25,-0.06 0.25,-0.06 0.26,-0.06 0.25,-0.06 0.25,-0.06 0.26,-0.06 0.25,-0.06 0.25,-0.06 0.25,-0.07 0.26,-0.06 0.25,-0.06 0.25,-0.06 0.26,-0.06 0.25,-0.07 0.25,-0.06 0.25,-0.06 0.26,-0.06 0.25,-0.07 0.25,-0.06 0.26,-0.06 0.25,-0.07 0.25,-0.06 0.25,-0.06 0.26,-0.07 0.25,-0.06 0.25,-0.07 0.26,-0.06 0.25,-0.07 0.25,-0.06 0.25,-0.07 0.26,-0.06 0.25,-0.07 0.25,-0.06 0.26,-0.07 0.25,-0.07 0.25,-0.06 0.26,-0.07 0.25,-0.07 0.25,-0.06 0.25,-0.07 0.26,-0.07 0.25,-0.06 0.25,-0.07 0.26,-0.07 0.25,-0.07 0.25,-0.07 0.25,-0.07 0.26,-0.06 0.25,-0.07 0.25,-0.07 0.26,-0.07 0.25,-0.07 0.25,-0.07 0.25,-0.07 0.26,-0.07 0.25,-0.07 0.25,-0.07 0.26,-0.07 0.25,-0.07 0.25,-0.08 0.25,-0.07 0.26,-0.07 0.25,-0.07 0.25,-0.07 0.26,-0.07 0.25,-0.08 0.25,-0.07 0.25,-0.07 0.26,-0.08 0.25,-0.07 0.25,-0.07 0.26,-0.08 0.25,-0.07 0.25,-0.07 0.26,-0.08 0.25,-0.07 0.25,-0.08 0.25,-0.07 0.26,-0.08 0.25,-0.07 0.25,-0.08 0.26,-0.07 0.25,-0.08 0.25,-0.08 0.25,-0.07 0.26,-0.08 0.25,-0.08 0.25,-0.07 0.26,-0.08 0.25,-0.08 0.25,-0.08 0.25,-0.07 0.26,-0.08 0.25,-0.08 0.25,-0.08 0.26,-0.08 0.25,-0.08 0.25,-0.08 0.25,-0.08 0.26,-0.08 0.25,-0.08 0.25,-0.08 0.26,-0.08 0.25,-0.08 0.25,-0.08 0.26,-0.08 0.25,-0.08 0.25,-0.08 0.25,-0.09 0.26,-0.08 0.25,-0.08 0.25,-0.08 0.26,-0.08 0.25,-0.09 0.25,-0.08 0.25,-0.08 0.26,-0.09 0.25,-0.08 0.25,-0.09 0.26,-0.08 0.25,-0.09 0.25,-0.08 0.25,-0.09 0.26,-0.08 0.25,-0.09 0.25,-0.08 0.26,-0.09 0.25,-0.08 0.25,-0.09 0.25,-0.09 0.26,-0.09 0.25,-0.08 0.25,-0.09 0.26,-0.09 0.25,-0.09 0.25,-0.08 0.26,-0.09 0.25,-0.09 0.25,-0.09 0.25,-0.09 0.26,-0.09 0.25,-0.09 0.25,-0.09 0.26,-0.09 0.25,-0.09 0.25,-0.09 0.25,-0.09 0.26,-0.09 0.25,-0.09 0.25,-0.1 0.26,-0.09 0.25,-0.09 0.25,-0.09 0.25,-0.09 0.26,-0.1 0.25,-0.09 0.25,-0.09 0.26,-0.1 0.25,-0.09 0.25,-0.1 0.25,-0.09 0.26,-0.1 0.25,-0.09 0.25,-0.1 0.26,-0.09 0.25,-0.1 0.25,-0.09 0.26,-0.1 0.25,-0.1 0.25,-0.09 0.25,-0.1 0.26,-0.1 0.25,-0.1 0.25,-0.09 0.26,-0.1 0.25,-0.1 0.25,-0.1 0.25,-0.1 0.26,-0.1 0.25,-0.1 0.25,-0.1 0.26,-0.1 0.25,-0.1 0.25,-0.1 0.25,-0.1 0.26,-0.1 0.25,-0.1 0.25,-0.1 0.26,-0.1 0.25,-0.11 0.25,-0.1 0.25,-0.1 0.26,-0.1 0.25,-0.11 0.25,-0.1 0.26,-0.11 0.25,-0.1 0.25,-0.1 0.26,-0.11 0.25,-0.1 0.25,-0.11 0.25,-0.1 0.26,-0.11 0.25,-0.11 0.25,-0.1 0.26,-0.11 0.25,-0.11 0.25,-0.1 0.25,-0.11 0.26,-0.11 0.25,-0.11 0.25,-0.1 0.26,-0.11 0.25,-0.11 0.25,-0.11 0.25,-0.11 0.26,-0.11 0.25,-0.11 0.25,-0.11 0.26,-0.11 0.25,-0.11 0.25,-0.11 0.25,-0.11 0.26,-0.12 0.25,-0.11 0.25,-0.11 0.26,-0.11 0.25,-0.12 0.25,-0.11 0.25,-0.11 0.26,-0.12 0.25,-0.11 0.25,-0.12 0.26,-0.11 0.25,-0.12 0.25,-0.11 0.26,-0.12 0.25,-0.11 0.25,-0.12 0.25,-0.11 0.26,-0.12 0.25,-0.12 0.25,-0.12 0.26,-0.11 0.25,-0.12 0.25,-0.12 0.25,-0.12 0.26,-0.12 0.25,-0.12 0.25,-0.12 0.26,-0.12 0.25,-0.12 0.25,-0.12 0.25,-0.12 0.26,-0.12 0.25,-0.12 0.25,-0.12 0.26,-0.12 0.25,-0.12 0.25,-0.13 0.25,-0.12 0.26,-0.12 0.25,-0.13 0.25,-0.12 0.26,-0.12 0.25,-0.13 0.25,-0.12 0.26,-0.13 0.25,-0.12 0.25,-0.13 0.25,-0.12 0.26,-0.13 0.25,-0.13 0.25,-0.12 0.26,-0.13 0.25,-0.13 0.25,-0.13 0.25,-0.12 0.26,-0.13 0.25,-0.13 0.25,-0.13 0.26,-0.13 0.25,-0.13 0.25,-0.13 0.25,-0.13 0.26,-0.13 0.25,-0.13 0.25,-0.13 0.26,-0.13 0.25,-0.14 0.25,-0.13 0.25,-0.13 0.26,-0.13 0.25,-0.14 0.25,-0.13 0.26,-0.14 0.25,-0.13 0.25,-0.13 0.26,-0.14 0.25,-0.13 0.25,-0.14 0.25,-0.14 0.26,-0.13 0.25,-0.14 0.25,-0.13 0.26,-0.14 0.25,-0.14 0.25,-0.14 0.25,-0.14 0.26,-0.13 0.25,-0.14 0.25,-0.14 0.26,-0.14 0.25,-0.14 0.25,-0.14 0.25,-0.14 0.26,-0.14 0.25,-0.14 0.25,-0.14 0.26,-0.15 0.25,-0.14 0.25,-0.14 0.25,-0.14 0.26,-0.15 0.25,-0.14 0.25,-0.14 0.26,-0.15 0.25,-0.14 0.25,-0.15 0.26,-0.14 0.25,-0.15 0.25,-0.14 0.25,-0.15 0.26,-0.15 0.25,-0.14 0.25,-0.15 0.26,-0.15 0.25,-0.15 0.25,-0.14 0.25,-0.15 0.26,-0.15 0.25,-0.15 0.25,-0.15 0.26,-0.15 0.25,-0.15 0.25,-0.15 0.25,-0.15 0.26,-0.15 0.25,-0.15 0.25,-0.16 0.26,-0.15 0.25,-0.15 0.25,-0.15 0.25,-0.16 0.26,-0.15 0.25,-0.15 0.25,-0.16 0.26,-0.15 0.25,-0.16 0.25,-0.15 0.26,-0.16 0.25,-0.16 0.25,-0.15 0.25,-0.16 0.26,-0.16 0.25,-0.15 0.25,-0.16 0.26,-0.16 0.25,-0.16 0.25,-0.16 0.25,-0.16 0.26,-0.16 0.25,-0.16 0.25,-0.16 0.26,-0.16 0.25,-0.16 0.25,-0.16 0.25,-0.16 0.26,-0.16 0.25,-0.16 0.25,-0.17 0.26,-0.16 0.25,-0.16 0.25,-0.17 0.25,-0.16 0.26,-0.17 0.25,-0.16 0.25,-0.17 0.26,-0.16 0.25,-0.17 0.25,-0.16 0.25,-0.17 0.26,-0.17 0.25,-0.17 0.25,-0.16 0.26,-0.17 0.25,-0.17 0.25,-0.17 0.26,-0.17 0.25,-0.17 0.25,-0.17 0.25,-0.17 0.26,-0.17 0.25,-0.17 0.25,-0.17 0.26,-0.17 0.25,-0.17 0.25,-0.18 0.25,-0.17 0.26,-0.17 0.25,-0.17 0.25,-0.18 0.26,-0.17 0.25,-0.18 0.25,-0.17 0.25,-0.18 0.26,-0.17 0.25,-0.18 0.25,-0.18 0.26,-0.17 0.25,-0.18 0.25,-0.18 0.25,-0.17 0.26,-0.18 0.25,-0.18 0.25,-0.18 0.26,-0.18 0.25,-0.18 0.25,-0.18 0.26,-0.18 0.25,-0.18 0.25,-0.18 0.25,-0.18 0.26,-0.18 0.25,-0.19 0.25,-0.18 0.26,-0.18 0.25,-0.18 0.25,-0.19 0.25,-0.18 0.26,-0.19 0.25,-0.18 0.25,-0.18 0.26,-0.19 0.25,-0.19 0.25,-0.18 0.25,-0.19 0.26,-0.18 0.25,-0.19 0.25,-0.19 0.26,-0.19 0.25,-0.19 0.25,-0.18 0.25,-0.19 0.26,-0.19 0.25,-0.19 0.25,-0.19 0.26,-0.19 0.25,-0.19 0.25,-0.19 0.26,-0.2 0.25,-0.19 0.25,-0.19 0.25,-0.19 0.26,-0.2 0.25,-0.19 0.25,-0.19 0.26,-0.2 0.25,-0.19 0.25,-0.2 0.25,-0.19 0.26,-0.2 0.25,-0.19 0.25,-0.2 0.26,-0.19 0.25,-0.2 0.25,-0.2 0.25,-0.2 0.26,-0.19 0.25,-0.2 0.25,-0.2 0.26,-0.2 0.25,-0.2 0.25,-0.2 0.25,-0.2 0.26,-0.2 0.25,-0.2 0.25,-0.2 0.26,-0.2 0.25,-0.21 0.25,-0.2 0.26,-0.2 0.25,-0.2 0.25,-0.21 0.25,-0.2 0.26,-0.2 0.25,-0.21 0.25,-0.2 0.26,-0.21 0.25,-0.2 0.25,-0.21 0.25,-0.21 0.26,-0.2 0.25,-0.21 0.25,-0.21 0.26,-0.21 0.25,-0.2 0.25,-0.21 0.25,-0.21 0.26,-0.21 0.25,-0.21 0.25,-0.21 0.26,-0.21 0.25,-0.21 0.25,-0.21 0.25,-0.21 0.26,-0.21 0.25,-0.21 0.25,-0.22 0.26,-0.21 0.25,-0.21 0.25,-0.22 0.26,-0.21 0.25,-0.21 0.25,-0.22 0.25,-0.21 0.26,-0.22 0.25,-0.21 0.25,-0.22 0.26,-0.21 0.25,-0.22 0.25,-0.22 0.25,-0.22 0.26,-0.21 0.25,-0.22 0.25,-0.22 0.26,-0.22 0.25,-0.22 0.25,-0.22 0.25,-0.22 0.26,-0.21 0.25,-0.23 0.25,-0.22 0.26,-0.22 0.25,-0.22 0.25,-0.22 0.25,-0.22 0.26,-0.22 0.25,-0.23 0.25,-0.22 0.26,-0.22 0.25,-0.23 0.25,-0.22 0.25,-0.22 0.26,-0.23 0.25,-0.22 0.25,-0.23 0.26,-0.23 0.25,-0.22 0.25,-0.23 0.26,-0.22 0.25,-0.23 0.25,-0.23 0.25,-0.23 0.26,-0.22 0.25,-0.23 0.25,-0.23 0.26,-0.23 0.25,-0.23 0.25,-0.23 0.25,-0.23 0.26,-0.23 0.25,-0.23 0.25,-0.23 0.26,-0.23 0.25,-0.23 0.25,-0.24 0.25,-0.23 0.26,-0.23 0.25,-0.23 0.25,-0.24 0.26,-0.23 0.25,-0.24 0.25,-0.23 0.25,-0.23 0.26,-0.24 0.25,-0.23 0.25,-0.24 0.26,-0.24 0.25,-0.23 0.25,-0.24 0.26,-0.24 0.25,-0.23 0.25,-0.24 0.25,-0.24 0.26,-0.24 0.25,-0.23 0.25,-0.24 0.26,-0.24 0.25,-0.24 0.25,-0.24 0.25,-0.24 0.26,-0.24 0.25,-0.24 0.25,-0.24 0.26,-0.24 0.25,-0.24 0.25,-0.25 0.25,-0.24 0.26,-0.24 0.25,-0.24 0.25,-0.25 0.26,-0.24 0.25,-0.24" />
          <path
             inkscape:connector-curvature="0"
             id="path4178"
             style="fill:none;stroke:#6d7274;stroke-width:4.26999998;stroke-linecap:butt;stroke-linejoin:round;stroke-miterlimit:10;stroke-dasharray:8.54, 8.54;stroke-dashoffset:0;stroke-opacity:1"
             d="m 42.64,214.41 0.25,-0.08 0.25,-0.08 0.26,-0.08 0.25,-0.09 0.25,-0.08 0.26,-0.08 0.25,-0.09 0.25,-0.08 0.25,-0.08 0.26,-0.09 0.25,-0.08 0.25,-0.09 0.26,-0.08 0.25,-0.09 0.25,-0.08 0.25,-0.09 0.26,-0.08 0.25,-0.09 0.25,-0.09 0.26,-0.08 0.25,-0.09 0.25,-0.09 0.25,-0.08 0.26,-0.09 0.25,-0.09 0.25,-0.09 0.26,-0.08 0.25,-0.09 0.25,-0.09 0.26,-0.09 0.25,-0.09 0.25,-0.09 0.25,-0.09 0.26,-0.09 0.25,-0.09 0.25,-0.09 0.26,-0.09 0.25,-0.09 0.25,-0.09 0.25,-0.09 0.26,-0.1 0.25,-0.09 0.25,-0.09 0.26,-0.09 0.25,-0.1 0.25,-0.09 0.25,-0.09 0.26,-0.1 0.25,-0.09 0.25,-0.09 0.26,-0.1 0.25,-0.09 0.25,-0.1 0.25,-0.09 0.26,-0.1 0.25,-0.09 0.25,-0.1 0.26,-0.09 0.25,-0.1 0.25,-0.1 0.26,-0.09 0.25,-0.1 0.25,-0.1 0.25,-0.1 0.26,-0.09 0.25,-0.1 0.25,-0.1 0.26,-0.1 0.25,-0.1 0.25,-0.1 0.25,-0.1 0.26,-0.1 0.25,-0.1 0.25,-0.1 0.26,-0.1 0.25,-0.1 0.25,-0.1 0.25,-0.1 0.26,-0.1 0.25,-0.11 0.25,-0.1 0.26,-0.1 0.25,-0.1 0.25,-0.11 0.25,-0.1 0.26,-0.1 0.25,-0.11 0.25,-0.1 0.26,-0.1 0.25,-0.11 0.25,-0.1 0.26,-0.11 0.25,-0.11 0.25,-0.1 0.25,-0.11 0.26,-0.1 0.25,-0.11 0.25,-0.11 0.26,-0.1 0.25,-0.11 0.25,-0.11 0.25,-0.11 0.26,-0.11 0.25,-0.1 0.25,-0.11 0.26,-0.11 0.25,-0.11 0.25,-0.11 0.25,-0.11 0.26,-0.11 0.25,-0.11 0.25,-0.11 0.26,-0.11 0.25,-0.12 0.25,-0.11 0.25,-0.11 0.26,-0.11 0.25,-0.11 0.25,-0.12 0.26,-0.11 0.25,-0.11 0.25,-0.12 0.26,-0.11 0.25,-0.12 0.25,-0.11 0.25,-0.12 0.26,-0.11 0.25,-0.12 0.25,-0.11 0.26,-0.12 0.25,-0.12 0.25,-0.11 0.25,-0.12 0.26,-0.12 0.25,-0.11 0.25,-0.12 0.26,-0.12 0.25,-0.12 0.25,-0.12 0.25,-0.12 0.26,-0.12 0.25,-0.12 0.25,-0.12 0.26,-0.12 0.25,-0.12 0.25,-0.12 0.25,-0.12 0.26,-0.12 0.25,-0.12 0.25,-0.13 0.26,-0.12 0.25,-0.12 0.25,-0.12 0.25,-0.13 0.26,-0.12 0.25,-0.12 0.25,-0.13 0.26,-0.12 0.25,-0.13 0.25,-0.12 0.26,-0.13 0.25,-0.13 0.25,-0.12 0.25,-0.13 0.26,-0.13 0.25,-0.12 0.25,-0.13 0.26,-0.13 0.25,-0.13 0.25,-0.12 0.25,-0.13 0.26,-0.13 0.25,-0.13 0.25,-0.13 0.26,-0.13 0.25,-0.13 0.25,-0.13 0.25,-0.13 0.26,-0.13 0.25,-0.14 0.25,-0.13 0.26,-0.13 0.25,-0.13 0.25,-0.14 0.25,-0.13 0.26,-0.13 0.25,-0.14 0.25,-0.13 0.26,-0.14 0.25,-0.13 0.25,-0.14 0.26,-0.13 0.25,-0.14 0.25,-0.13 0.25,-0.14 0.26,-0.14 0.25,-0.13 0.25,-0.14 0.26,-0.14 0.25,-0.14 0.25,-0.13 0.25,-0.14 0.26,-0.14 0.25,-0.14 0.25,-0.14 0.26,-0.14 0.25,-0.14 0.25,-0.14 0.25,-0.14 0.26,-0.15 0.25,-0.14 0.25,-0.14 0.26,-0.14 0.25,-0.14 0.25,-0.15 0.25,-0.14 0.26,-0.15 0.25,-0.14 0.25,-0.14 0.26,-0.15 0.25,-0.14 0.25,-0.15 0.26,-0.14 0.25,-0.15 0.25,-0.15 0.25,-0.14 0.26,-0.15 0.25,-0.15 0.25,-0.15 0.26,-0.14 0.25,-0.15 0.25,-0.15 0.25,-0.15 0.26,-0.15 0.25,-0.15 0.25,-0.15 0.26,-0.15 0.25,-0.15 0.25,-0.15 0.25,-0.16 0.26,-0.15 0.25,-0.15 0.25,-0.15 0.26,-0.16 0.25,-0.15 0.25,-0.15 0.25,-0.16 0.26,-0.15 0.25,-0.16 0.25,-0.15 0.26,-0.16 0.25,-0.15 0.25,-0.16 0.26,-0.15 0.25,-0.16 0.25,-0.16 0.25,-0.16 0.26,-0.15 0.25,-0.16 0.25,-0.16 0.26,-0.16 0.25,-0.16 0.25,-0.16 0.25,-0.16 0.26,-0.16 0.25,-0.16 0.25,-0.16 0.26,-0.16 0.25,-0.16 0.25,-0.16 0.25,-0.17 0.26,-0.16 0.25,-0.16 0.25,-0.17 0.26,-0.16 0.25,-0.16 0.25,-0.17 0.25,-0.16 0.26,-0.17 0.25,-0.16 0.25,-0.17 0.26,-0.17 0.25,-0.16 0.25,-0.17 0.26,-0.17 0.25,-0.16 0.25,-0.17 0.25,-0.17 0.26,-0.17 0.25,-0.17 0.25,-0.17 0.26,-0.17 0.25,-0.17 0.25,-0.17 0.25,-0.17 0.26,-0.17 0.25,-0.17 0.25,-0.18 0.26,-0.17 0.25,-0.17 0.25,-0.17 0.25,-0.18 0.26,-0.17 0.25,-0.17 0.25,-0.18 0.26,-0.17 0.25,-0.18 0.25,-0.17 0.25,-0.18 0.26,-0.18 0.25,-0.17 0.25,-0.18 0.26,-0.18 0.25,-0.18 0.25,-0.17 0.25,-0.18 0.26,-0.18 0.25,-0.18 0.25,-0.18 0.26,-0.18 0.25,-0.18 0.25,-0.18 0.26,-0.18 0.25,-0.18 0.25,-0.18 0.25,-0.19 0.26,-0.18 0.25,-0.18 0.25,-0.19 0.26,-0.18 0.25,-0.18 0.25,-0.19 0.25,-0.18 0.26,-0.19 0.25,-0.18 0.25,-0.19 0.26,-0.18 0.25,-0.19 0.25,-0.19 0.25,-0.18 0.26,-0.19 0.25,-0.19 0.25,-0.19 0.26,-0.19 0.25,-0.19 0.25,-0.18 0.25,-0.19 0.26,-0.19 0.25,-0.19 0.25,-0.2 0.26,-0.19 0.25,-0.19 0.25,-0.19 0.26,-0.19 0.25,-0.19 0.25,-0.2 0.25,-0.19 0.26,-0.19 0.25,-0.2 0.25,-0.19 0.26,-0.2 0.25,-0.19 0.25,-0.2 0.25,-0.19 0.26,-0.2 0.25,-0.2 0.25,-0.19 0.26,-0.2 0.25,-0.2 0.25,-0.2 0.25,-0.19 0.26,-0.2 0.25,-0.2 0.25,-0.2 0.26,-0.2 0.25,-0.2 0.25,-0.2 0.25,-0.2 0.26,-0.2 0.25,-0.21 0.25,-0.2 0.26,-0.2 0.25,-0.2 0.25,-0.21 0.26,-0.2 0.25,-0.2 0.25,-0.21 0.25,-0.2 0.26,-0.21 0.25,-0.2 0.25,-0.21 0.26,-0.2 0.25,-0.21 0.25,-0.21 0.25,-0.2 0.26,-0.21 0.25,-0.21 0.25,-0.21 0.26,-0.2 0.25,-0.21 0.25,-0.21 0.25,-0.21 0.26,-0.21 0.25,-0.21 0.25,-0.21 0.26,-0.21 0.25,-0.21 0.25,-0.22 0.25,-0.21 0.26,-0.21 0.25,-0.21 0.25,-0.21 0.26,-0.22 0.25,-0.21 0.25,-0.22 0.26,-0.21 0.25,-0.21 0.25,-0.22 0.25,-0.22 0.26,-0.21 0.25,-0.22 0.25,-0.21 0.26,-0.22 0.25,-0.22 0.25,-0.22 0.25,-0.21 0.26,-0.22 0.25,-0.22 0.25,-0.22 0.26,-0.22 0.25,-0.22 0.25,-0.22 0.25,-0.22 0.26,-0.22 0.25,-0.22 0.25,-0.22 0.26,-0.22 0.25,-0.22 0.25,-0.23 0.25,-0.22 0.26,-0.22 0.25,-0.23 0.25,-0.22 0.26,-0.22 0.25,-0.23 0.25,-0.22 0.26,-0.23 0.25,-0.22 0.25,-0.23 0.25,-0.22 0.26,-0.23 0.25,-0.23 0.25,-0.22 0.26,-0.23 0.25,-0.23 0.25,-0.23 0.25,-0.23 0.26,-0.22 0.25,-0.23 0.25,-0.23 0.26,-0.23 0.25,-0.23 0.25,-0.23 0.25,-0.23 0.26,-0.23 0.25,-0.24 0.25,-0.23 0.26,-0.23 0.25,-0.23 0.25,-0.23 0.25,-0.24 0.26,-0.23 0.25,-0.23 0.25,-0.24 0.26,-0.23 0.25,-0.24 0.25,-0.23 0.25,-0.24 0.26,-0.23 0.25,-0.24 0.25,-0.23 0.26,-0.24 0.25,-0.24 0.25,-0.23 0.26,-0.24 0.25,-0.24 0.25,-0.24 0.25,-0.24 0.26,-0.23 0.25,-0.24 0.25,-0.24 0.26,-0.24 0.25,-0.24 0.25,-0.24 0.25,-0.24 0.26,-0.24 0.25,-0.25 0.25,-0.24 0.26,-0.24 0.25,-0.24 0.25,-0.24 0.25,-0.25 0.26,-0.24 0.25,-0.24 0.25,-0.25 0.26,-0.24 0.25,-0.24 0.25,-0.25 0.25,-0.24 0.26,-0.25 0.25,-0.24 0.25,-0.25 0.26,-0.24 0.25,-0.25 0.25,-0.25 0.26,-0.24 0.25,-0.25 0.25,-0.25 0.25,-0.25 0.26,-0.24 0.25,-0.25 0.25,-0.25 0.26,-0.25 0.25,-0.25 0.25,-0.25 0.25,-0.25 0.26,-0.25 0.25,-0.25 0.25,-0.25 0.26,-0.25 0.25,-0.25 0.25,-0.25 0.25,-0.25 0.26,-0.26 0.25,-0.25 0.25,-0.25 0.26,-0.25 0.25,-0.26 0.25,-0.25 0.25,-0.25 0.26,-0.26 0.25,-0.25 0.25,-0.25 0.26,-0.26 0.25,-0.25 0.25,-0.26 0.26,-0.25 0.25,-0.26 0.25,-0.26 0.25,-0.25 0.26,-0.26 0.25,-0.25 0.25,-0.26 0.26,-0.26 0.25,-0.26 0.25,-0.25 0.25,-0.26 0.26,-0.26 0.25,-0.26 0.25,-0.26 0.26,-0.26 0.25,-0.25 0.25,-0.26 0.25,-0.26 0.26,-0.26 0.25,-0.26 0.25,-0.26 0.26,-0.26 0.25,-0.27 0.25,-0.26 0.25,-0.26 0.26,-0.26 0.25,-0.26 0.25,-0.26 0.26,-0.27 0.25,-0.26 0.25,-0.26 0.26,-0.26 0.25,-0.27 0.25,-0.26 0.25,-0.26 0.26,-0.27 0.25,-0.26 0.25,-0.27 0.26,-0.26 0.25,-0.27 0.25,-0.26 0.25,-0.27 0.26,-0.26 0.25,-0.27 0.25,-0.26 0.26,-0.27 0.25,-0.26 0.25,-0.27 0.25,-0.27 0.26,-0.26 0.25,-0.27 0.25,-0.27 0.26,-0.27 0.25,-0.26 0.25,-0.27 0.25,-0.27 0.26,-0.27 0.25,-0.27 0.25,-0.26 0.26,-0.27 0.25,-0.27 0.25,-0.27 0.26,-0.27 0.25,-0.27 0.25,-0.27 0.25,-0.27 0.26,-0.27 0.25,-0.27 0.25,-0.27 0.26,-0.27 0.25,-0.27 0.25,-0.27 0.25,-0.27 0.26,-0.28 0.25,-0.27 0.25,-0.27 0.26,-0.27 0.25,-0.27 0.25,-0.28 0.25,-0.27 0.26,-0.27 0.25,-0.27 0.25,-0.28 0.26,-0.27 0.25,-0.27 0.25,-0.28 0.25,-0.27 0.26,-0.27 0.25,-0.28 0.25,-0.27 0.26,-0.27 0.25,-0.28 0.25,-0.27 0.25,-0.28 0.26,-0.27 0.25,-0.28 0.25,-0.27 0.26,-0.28 0.25,-0.27 0.25,-0.28 0.26,-0.27 0.25,-0.28 0.25,-0.28 0.25,-0.27 0.26,-0.28 0.25,-0.27 0.25,-0.28 0.26,-0.28 0.25,-0.27 0.25,-0.28 0.25,-0.28 0.26,-0.27 0.25,-0.28 0.25,-0.28 0.26,-0.28 0.25,-0.27 0.25,-0.28 0.25,-0.28 0.26,-0.28 0.25,-0.27 0.25,-0.28 0.26,-0.28 0.25,-0.28 0.25,-0.28 0.25,-0.28 0.26,-0.27 0.25,-0.28 0.25,-0.28 0.26,-0.28 0.25,-0.28 0.25,-0.28 0.26,-0.28 0.25,-0.28 0.25,-0.28 0.25,-0.27 0.26,-0.28 0.25,-0.28 0.25,-0.28 0.26,-0.28 0.25,-0.28 0.25,-0.28 0.25,-0.28 0.26,-0.28 0.25,-0.28 0.25,-0.28 0.26,-0.28 0.25,-0.28 0.25,-0.28 0.25,-0.28 0.26,-0.28 0.25,-0.28 0.25,-0.29 0.26,-0.28 0.25,-0.28" />
        </g>
      </g>
      <g
         id="g4180" />
      <g
         id="g4182" />
      <g
         id="g4184" />
      <g
         id="g4186" />
      <g
         id="g4188" />
      <g
         id="g4190" />
      <g
         id="g4192" />
      <g
         id="g4194" />
      <g
         id="g4196" />
      <g
         id="g4198" />
      <g
         id="g4200" />
      <g
         id="g4202" />
      <g
         id="g4204" />
      <g
         id="g4206" />
      <g
         id="g4208" />
      <g
         id="g4210">
        <text
           id="text4214"
           style="font-variant:normal;font-weight:normal;font-size:10px;font-family:Helvetica;-inkscape-font-specification:Helvetica;writing-mode:lr-tb;fill:#000000;fill-opacity:1;fill-rule:nonzero;stroke:none"
           transform="matrix(0,1,1,0,26.66,31.51)">
          <tspan
             id="tspan4212"
             sodipodi:role="line"
             y="0"
             x="0 5.5599999 8.3400002">0.4</tspan>
        </text>
        <text
           id="text4218"
           style="font-variant:normal;font-weight:normal;font-size:10px;font-family:Helvetica;-inkscape-font-specification:Helvetica;writing-mode:lr-tb;fill:#000000;fill-opacity:1;fill-rule:nonzero;stroke:none"
           transform="matrix(0,1,1,0,26.66,99.05)">
          <tspan
             id="tspan4216"
             sodipodi:role="line"
             y="0"
             x="0 5.5599999 8.3400002">0.6</tspan>
        </text>
        <text
           id="text4222"
           style="font-variant:normal;font-weight:normal;font-size:10px;font-family:Helvetica;-inkscape-font-specification:Helvetica;writing-mode:lr-tb;fill:#000000;fill-opacity:1;fill-rule:nonzero;stroke:none"
           transform="matrix(0,1,1,0,26.66,166.59)">
          <tspan
             id="tspan4220"
             sodipodi:role="line"
             y="0"
             x="0 5.5599999 8.3400002">0.8</tspan>
        </text>
        <text
           id="text4226"
           style="font-variant:normal;font-weight:normal;font-size:10px;font-family:Helvetica;-inkscape-font-specification:Helvetica;writing-mode:lr-tb;fill:#000000;fill-opacity:1;fill-rule:nonzero;stroke:none"
           transform="matrix(0,1,1,0,26.66,234.13)">
          <tspan
             id="tspan4224"
             sodipodi:role="line"
             y="0"
             x="0 5.5599999 8.3400002">1.0</tspan>
        </text>
      </g>
      <g
         id="g4228" />
      <g
         id="g4230">
        <path
           inkscape:connector-curvature="0"
           id="path4232"
           style="fill:none;stroke:#333333;stroke-width:1.07000005;stroke-linecap:butt;stroke-linejoin:round;stroke-miterlimit:10;stroke-dasharray:none;stroke-opacity:1"
           d="m 31.05,38.46 h 2.74" />
        <path
           inkscape:connector-curvature="0"
           id="path4234"
           style="fill:none;stroke:#333333;stroke-width:1.07000005;stroke-linecap:butt;stroke-linejoin:round;stroke-miterlimit:10;stroke-dasharray:none;stroke-opacity:1"
           d="m 31.05,106 h 2.74" />
        <path
           inkscape:connector-curvature="0"
           id="path4236"
           style="fill:none;stroke:#333333;stroke-width:1.07000005;stroke-linecap:butt;stroke-linejoin:round;stroke-miterlimit:10;stroke-dasharray:none;stroke-opacity:1"
           d="m 31.05,173.54 h 2.74" />
        <path
           inkscape:connector-curvature="0"
           id="path4238"
           style="fill:none;stroke:#333333;stroke-width:1.07000005;stroke-linecap:butt;stroke-linejoin:round;stroke-miterlimit:10;stroke-dasharray:none;stroke-opacity:1"
           d="m 31.05,241.08 h 2.74" />
      </g>
      <g
         id="g4240" />
      <g
         id="g4242" />
      <g
         id="g4244" />
      <g
         id="g4246" />
      <g
         id="g4248" />
      <g
         id="g4250" />
      <g
         id="g4252" />
      <g
         id="g4254" />
      <g
         id="g4256" />
      <g
         id="g4258">
        <path
           inkscape:connector-curvature="0"
           id="path4260"
           style="fill:none;stroke:#333333;stroke-width:1.07000005;stroke-linecap:butt;stroke-linejoin:round;stroke-miterlimit:10;stroke-dasharray:none;stroke-opacity:1"
           d="m 37.78,31.05 v 2.74" />
        <path
           inkscape:connector-curvature="0"
           id="path4262"
           style="fill:none;stroke:#333333;stroke-width:1.07000005;stroke-linecap:butt;stroke-linejoin:round;stroke-miterlimit:10;stroke-dasharray:none;stroke-opacity:1"
           d="m 89.14,31.05 v 2.74" />
        <path
           inkscape:connector-curvature="0"
           id="path4264"
           style="fill:none;stroke:#333333;stroke-width:1.07000005;stroke-linecap:butt;stroke-linejoin:round;stroke-miterlimit:10;stroke-dasharray:none;stroke-opacity:1"
           d="m 140.5,31.05 v 2.74" />
        <path
           inkscape:connector-curvature="0"
           id="path4266"
           style="fill:none;stroke:#333333;stroke-width:1.07000005;stroke-linecap:butt;stroke-linejoin:round;stroke-miterlimit:10;stroke-dasharray:none;stroke-opacity:1"
           d="m 191.87,31.05 v 2.74" />
      </g>
      <g
         id="g4268" />
      <g
         id="g4270">
        <text
           id="text4274"
           style="font-variant:normal;font-weight:normal;font-size:10px;font-family:Helvetica;-inkscape-font-specification:Helvetica;writing-mode:lr-tb;fill:#4d4d4d;fill-opacity:1;fill-rule:nonzero;stroke:none"
           transform="matrix(1,0,0,-1,29.44,21.68)">
          <tspan
             id="tspan4272"
             sodipodi:role="line"
             y="0"
             x="0 5.5599999 11.12">400</tspan>
        </text>
        <text
           id="text4278"
           style="font-variant:normal;font-weight:normal;font-size:10px;font-family:Helvetica;-inkscape-font-specification:Helvetica;writing-mode:lr-tb;fill:#4d4d4d;fill-opacity:1;fill-rule:nonzero;stroke:none"
           transform="matrix(1,0,0,-1,80.8,21.68)">
          <tspan
             id="tspan4276"
             sodipodi:role="line"
             y="0"
             x="0 5.5599999 11.12">800</tspan>
        </text>
        <text
           id="text4282"
           style="font-variant:normal;font-weight:normal;font-size:10px;font-family:Helvetica;-inkscape-font-specification:Helvetica;writing-mode:lr-tb;fill:#4d4d4d;fill-opacity:1;fill-rule:nonzero;stroke:none"
           transform="matrix(1,0,0,-1,129.38,21.68)">
          <tspan
             id="tspan4280"
             sodipodi:role="line"
             y="0"
             x="0 5.5599999 11.12 16.68">1200</tspan>
        </text>
        <text
           id="text4286"
           style="font-variant:normal;font-weight:normal;font-size:10px;font-family:Helvetica;-inkscape-font-specification:Helvetica;writing-mode:lr-tb;fill:#4d4d4d;fill-opacity:1;fill-rule:nonzero;stroke:none"
           transform="matrix(1,0,0,-1,180.75,21.68)">
          <tspan
             id="tspan4284"
             sodipodi:role="line"
             y="0"
             x="0 5.5599999 11.12 16.68">1600</tspan>
        </text>
      </g>
      <g
         id="g4288" />
      <g
         id="g4290" />
      <g
         id="g4292" />
      <g
         id="g4294" />
      <g
         id="g4296" />
      <g
         id="g4298">
        <text
           id="text4302"
           style="font-variant:normal;font-weight:normal;font-size:12px;font-family:Helvetica;-inkscape-font-specification:Helvetica;writing-mode:lr-tb;fill:#000000;fill-opacity:1;fill-rule:nonzero;stroke:none"
           transform="matrix(1,0,0,-1,41.05,8.12)">
          <tspan
             id="tspan4300"
             sodipodi:role="line"
             y="0"
             x="0 8.6639996 15.336 19.632 29.628 36.299999 38.964001 42.299999 50.304001 56.976002 63.528 70.199997 76.872002 79.536003 82.872002 90.875999 94.872002 101.544 107.544 110.208 116.88 119.544 122.88 129.552 132.888 135.552 142.224 148.896 152.23199 156.228 166.224 176.22">Normal Annual Precipitation (mm)</tspan>
        </text>
      </g>
      <g
         id="g4304" />
      <g
         id="g4306">
        <text
           id="text4310"
           style="font-variant:normal;font-weight:normal;font-size:12px;font-family:Helvetica;-inkscape-font-specification:Helvetica;writing-mode:lr-tb;fill:#000000;fill-opacity:1;fill-rule:nonzero;stroke:none"
           transform="matrix(0,1,1,0,14.1,96.76)">
          <tspan
             id="tspan4308"
             sodipodi:role="line"
             y="0"
             x="0 8.0039997 12 18.672001 25.344 32.015999 36.492001 39.827999 42.492001 49.164001 55.835999 59.172001 67.176003 69.839996 76.512001">Proportion Pine</tspan>
        </text>
      </g>
      <g
         id="g4312" />
      <g
         id="g4314" />
      <g
         id="g4316" />
      <g
         id="g4318" />
      <g
         id="g4320" />
      <g
         id="g4322" />
      <g
         id="g4324" />
      <g
         id="g4326" />
      <g
         id="g4328" />
      <g
         id="g4330" />
      <g
         id="g4332" />
      <g
         id="g4334" />
    </g>
    <text
       id="text5068"
       style="font-style:normal;font-variant:normal;font-weight:normal;font-stretch:normal;font-size:3.52777767px;font-family:Helvetica;-inkscape-font-specification:'Helvetica, Normal';font-variant-ligatures:normal;font-variant-caps:normal;font-variant-numeric:normal;font-feature-settings:normal;text-align:start;writing-mode:lr-tb;text-anchor:start;fill:#000000;fill-opacity:1;fill-rule:nonzero;stroke:none;stroke-width:0.35277775"
       x="57.811234"
       y="12.234615">
      <tspan
         style="stroke-width:0.35277775"
         sodipodi:role="line"
         id="tspan5402"
         x="57.811234"
         y="12.234615">Planted</tspan>
    </text>
    <text
       id="text5082"
       style="font-style:normal;font-variant:normal;font-weight:normal;font-stretch:normal;font-size:3.52777767px;font-family:Helvetica;-inkscape-font-specification:'Helvetica, Normal';font-variant-ligatures:normal;font-variant-caps:normal;font-variant-numeric:normal;font-feature-settings:normal;text-align:start;writing-mode:lr-tb;text-anchor:start;fill:#000000;fill-opacity:1;fill-rule:nonzero;stroke:none;stroke-width:0.35277775"
       x="57.472565"
       y="17.804798">
      <tspan
         style="stroke-width:0.35277775"
         sodipodi:role="line"
         id="tspan5404"
         x="57.472565"
         y="17.804798">Unplanted</tspan>
    </text>
    <path
       style="fill:#6d7274;fill-opacity:1;stroke:#6d7274;stroke-width:1.07639873px;stroke-linecap:butt;stroke-linejoin:miter;stroke-opacity:1"
       d="m 76.113993,10.880644 8.03975,6e-4"
       id="path7395"
       inkscape:connector-curvature="0"
       sodipodi:nodetypes="cc" />
    <path
       style="fill:#6d7274;fill-opacity:1;stroke:#6d7274;stroke-width:1.07599998;stroke-linecap:butt;stroke-linejoin:miter;stroke-miterlimit:4;stroke-dasharray:2.15199994, 1.07599997;stroke-dashoffset:0;stroke-opacity:1"
       d="m 76.113543,16.524339 8.03975,6.08e-4"
       id="path7395-1"
       inkscape:connector-curvature="0"
       sodipodi:nodetypes="cc" />
  </g>
</svg>
