<?xml version="1.0" encoding="UTF-8" standalone="no"?>
<!-- Created with Inkscape (http://www.inkscape.org/) -->

<svg
   xmlns:dc="http://purl.org/dc/elements/1.1/"
   xmlns:cc="http://creativecommons.org/ns#"
   xmlns:rdf="http://www.w3.org/1999/02/22-rdf-syntax-ns#"
   xmlns:svg="http://www.w3.org/2000/svg"
   xmlns="http://www.w3.org/2000/svg"
   xmlns:sodipodi="http://sodipodi.sourceforge.net/DTD/sodipodi-0.dtd"
   xmlns:inkscape="http://www.inkscape.org/namespaces/inkscape"
   width="86.323128mm"
   height="88.007469mm"
   viewBox="0 0 86.323128 88.007469"
   version="1.1"
   id="svg7418"
   inkscape:version="0.92.3 (2405546, 2018-03-11)"
   sodipodi:docname="swall.svg"
   inkscape:export-filename="C:\Users\Quinn Sorenson\Documents\R\Git_R\postfire-management\figures\manuscript\seedw.png"
   inkscape:export-xdpi="400"
   inkscape:export-ydpi="400">
  <defs
     id="defs7412">
    <clipPath
       id="clipPath8005"
       clipPathUnits="userSpaceOnUse">
      <path
         inkscape:connector-curvature="0"
         id="path8003"
         d="M 46.75,33.79 H 228.52 V 242.92 H 46.75 Z" />
    </clipPath>
  </defs>
  <sodipodi:namedview
     id="base"
     pagecolor="#ffffff"
     bordercolor="#666666"
     borderopacity="1.0"
     inkscape:pageopacity="0.0"
     inkscape:pageshadow="2"
     inkscape:zoom="2.1739669"
     inkscape:cx="261.64733"
     inkscape:cy="121.77747"
     inkscape:document-units="mm"
     inkscape:current-layer="layer1"
     showgrid="false"
     inkscape:window-width="1920"
     inkscape:window-height="1001"
     inkscape:window-x="-9"
     inkscape:window-y="-9"
     inkscape:window-maximized="1" />
  <metadata
     id="metadata7415">
    <rdf:RDF>
      <cc:Work
         rdf:about="">
        <dc:format>image/svg+xml</dc:format>
        <dc:type
           rdf:resource="http://purl.org/dc/dcmitype/StillImage" />
        <dc:title></dc:title>
      </cc:Work>
    </rdf:RDF>
  </metadata>
  <g
     inkscape:label="Layer 1"
     inkscape:groupmode="layer"
     id="layer1"
     transform="translate(-50.576529,-54.180786)">
    <g
       transform="matrix(0.35277777,0,0,-0.35277777,50.765265,141.99952)"
       inkscape:label="seedw"
       id="g7971">
      <g
         id="g7973" />
      <g
         id="g7975" />
      <g
         id="g7977" />
      <g
         id="g7979" />
      <g
         id="g7981" />
      <g
         id="g7983" />
      <g
         id="g7985" />
      <g
         id="g7987" />
      <g
         id="g7989" />
      <g
         id="g7991" />
      <g
         id="g7993">
        <path
           inkscape:connector-curvature="0"
           id="path7995"
           style="fill:#ffffff;fill-opacity:1;fill-rule:nonzero;stroke:#ffffff;stroke-width:1.07000005;stroke-linecap:round;stroke-linejoin:round;stroke-miterlimit:10;stroke-dasharray:none;stroke-opacity:1"
           d="M 0,0 H 234 V 248.4 H 0 Z" />
      </g>
      <g
         id="g7997" />
      <g
         id="g7999">
        <g
           clip-path="url(#clipPath8005)"
           id="g8001">
          <path
             inkscape:connector-curvature="0"
             id="path8007"
             style="fill:none;stroke:#000000;stroke-width:1.07000005;stroke-linecap:round;stroke-linejoin:round;stroke-miterlimit:10;stroke-dasharray:none;stroke-opacity:1"
             d="M 46.75,33.79 H 228.52 V 242.92 H 46.75 Z" />
          <path
             inkscape:connector-curvature="0"
             id="path8009"
             style="fill:#756156;fill-opacity:0.14900004;fill-rule:nonzero;stroke:none"
             d="m 55.01,233.41 0.24,-2.58 0.23,-2.46 0.24,-2.35 0.23,-2.24 0.24,-2.14 0.24,-2.05 0.23,-1.96 0.24,-1.88 0.23,-1.81 0.24,-1.74 0.24,-1.68 0.23,-1.62 0.24,-1.56 0.23,-1.5 0.24,-1.46 0.24,-1.4 0.23,-1.37 0.24,-1.32 0.23,-1.27 0.24,-1.25 0.24,-1.2 0.23,-1.17 0.24,-1.14 0.23,-1.1 0.24,-1.08 0.24,-1.04 0.23,-1.02 0.24,-1 0.24,-0.97 0.23,-0.94 0.24,-0.92 0.23,-0.9 0.24,-0.88 0.24,-0.86 0.23,-0.84 0.24,-0.82 0.23,-0.8 0.24,-0.79 0.24,-0.76 0.23,-0.76 0.24,-0.73 0.23,-0.72 0.24,-0.71 0.24,-0.69 0.23,-0.68 0.24,-0.67 0.23,-0.65 0.24,-0.65 0.24,-0.63 0.23,-0.61 0.24,-0.61 0.23,-0.6 0.24,-0.58 0.24,-0.58 0.23,-0.56 0.24,-0.56 0.24,-0.55 0.23,-0.54 0.24,-0.53 0.23,-0.52 0.24,-0.51 0.24,-0.5 0.23,-0.5 0.24,-0.49 0.23,-0.48 0.24,-0.47 0.24,-0.47 0.23,-0.46 0.24,-0.45 0.23,-0.45 0.24,-0.44 0.24,-0.43 0.23,-0.43 0.24,-0.42 0.23,-0.42 0.24,-0.41 0.24,-0.41 0.23,-0.4 0.24,-0.39 0.23,-0.39 0.24,-0.38 0.24,-0.38 0.23,-0.38 0.24,-0.37 0.24,-0.36 0.23,-0.36 0.24,-0.36 0.23,-0.35 0.24,-0.35 0.24,-0.34 0.23,-0.34 0.24,-0.34 0.23,-0.33 0.24,-0.33 0.24,-0.32 0.23,-0.32 0.24,-0.32 0.23,-0.31 0.24,-0.31 0.24,-0.31 0.23,-0.3 0.24,-0.3 0.23,-0.29 0.24,-0.3 0.24,-0.29 0.23,-0.28 0.24,-0.29 0.23,-0.28 0.24,-0.28 0.24,-0.27 0.23,-0.28 0.24,-0.27 0.24,-0.26 0.23,-0.27 0.24,-0.26 0.23,-0.26 0.24,-0.25 0.24,-0.26 0.23,-0.25 0.24,-0.25 0.23,-0.25 0.24,-0.24 0.24,-0.24 0.23,-0.25 0.24,-0.23 0.23,-0.24 0.24,-0.23 0.24,-0.23 0.23,-0.23 0.24,-0.23 0.23,-0.23 0.24,-0.22 0.24,-0.22 0.23,-0.22 0.24,-0.22 0.23,-0.22 0.24,-0.21 0.24,-0.21 0.23,-0.21 0.24,-0.21 0.23,-0.21 0.24,-0.2 0.24,-0.21 0.23,-0.2 0.24,-0.2 0.24,-0.2 0.23,-0.2 0.24,-0.19 0.23,-0.2 0.24,-0.19 0.24,-0.19 0.23,-0.19 0.24,-0.19 0.23,-0.18 0.24,-0.19 0.24,-0.18 0.23,-0.18 0.24,-0.19 0.23,-0.18 0.24,-0.17 0.24,-0.18 0.23,-0.18 0.24,-0.17 0.23,-0.17 0.24,-0.18 0.24,-0.17 0.23,-0.17 0.24,-0.16 0.23,-0.17 0.24,-0.17 0.24,-0.16 0.23,-0.16 0.24,-0.17 0.24,-0.16 0.23,-0.16 0.24,-0.16 0.23,-0.16 0.24,-0.15 0.24,-0.16 0.23,-0.15 0.24,-0.16 0.23,-0.15 0.24,-0.15 0.24,-0.15 0.23,-0.15 0.24,-0.15 0.23,-0.15 0.24,-0.15 0.24,-0.14 0.23,-0.15 0.24,-0.14 0.23,-0.14 0.24,-0.15 0.24,-0.14 0.23,-0.14 0.24,-0.14 0.23,-0.14 0.24,-0.13 0.24,-0.14 0.23,-0.14 0.24,-0.13 0.24,-0.14 0.23,-0.13 0.24,-0.13 0.23,-0.14 0.24,-0.13 0.24,-0.13 0.23,-0.13 0.24,-0.13 0.23,-0.12 0.24,-0.13 0.24,-0.13 0.23,-0.12 0.24,-0.13 0.23,-0.12 0.24,-0.13 0.24,-0.12 0.23,-0.12 0.24,-0.13 0.23,-0.12 0.24,-0.12 0.24,-0.12 0.23,-0.12 0.24,-0.12 0.23,-0.11 0.24,-0.12 0.24,-0.12 0.23,-0.11 0.24,-0.12 0.24,-0.11 0.23,-0.12 0.24,-0.11 0.23,-0.11 0.24,-0.12 0.24,-0.11 0.23,-0.11 0.24,-0.11 0.23,-0.11 0.24,-0.11 0.24,-0.11 0.23,-0.1 0.24,-0.11 0.23,-0.11 0.24,-0.11 0.24,-0.1 0.23,-0.11 0.24,-0.1 0.23,-0.11 0.24,-0.1 0.24,-0.1 0.23,-0.11 0.24,-0.1 0.23,-0.1 0.24,-0.1 0.24,-0.1 0.23,-0.1 0.24,-0.1 0.24,-0.1 0.23,-0.1 0.24,-0.1 0.23,-0.1 0.24,-0.1 0.24,-0.09 0.23,-0.1 0.24,-0.09 0.23,-0.1 0.24,-0.1 0.24,-0.09 0.23,-0.09 0.24,-0.1 0.23,-0.09 0.24,-0.09 0.24,-0.1 0.23,-0.09 0.24,-0.09 0.23,-0.09 0.24,-0.09 0.24,-0.09 0.23,-0.09 0.24,-0.09 0.23,-0.09 0.24,-0.09 0.24,-0.09 0.23,-0.09 0.24,-0.09 0.24,-0.08 0.23,-0.09 0.24,-0.09 0.23,-0.08 0.24,-0.09 0.24,-0.08 0.23,-0.09 0.24,-0.08 0.23,-0.09 0.24,-0.08 0.24,-0.09 0.23,-0.08 0.24,-0.08 0.23,-0.08 0.24,-0.09 0.24,-0.08 0.23,-0.08 0.24,-0.08 0.23,-0.08 0.24,-0.08 0.24,-0.08 0.23,-0.08 0.24,-0.08 0.23,-0.08 0.24,-0.08 0.24,-0.08 0.23,-0.08 0.24,-0.08 0.24,-0.07 0.23,-0.08 0.24,-0.08 0.23,-0.07 0.24,-0.08 0.24,-0.08 0.23,-0.07 0.24,-0.08 0.23,-0.07 0.24,-0.08 0.24,-0.07 0.23,-0.08 0.24,-0.07 0.23,-0.07 0.24,-0.08 0.24,-0.07 0.23,-0.07 0.24,-0.08 0.23,-0.07 0.24,-0.07 0.24,-0.07 0.23,-0.07 0.24,-0.07 0.23,-0.08 0.24,-0.07 0.24,-0.07 0.23,-0.07 0.24,-0.07 0.24,-0.07 0.23,-0.07 0.24,-0.06 0.23,-0.07 0.24,-0.07 0.24,-0.07 0.23,-0.07 0.24,-0.07 0.23,-0.06 0.24,-0.07 0.24,-0.07 0.23,-0.07 0.24,-0.06 0.23,-0.07 0.24,-0.06 0.24,-0.07 0.23,-0.07 0.24,-0.06 0.23,-0.07 0.24,-0.06 0.24,-0.07 0.23,-0.06 0.24,-0.07 0.23,-0.06 0.24,-0.06 0.24,-0.07 0.23,-0.06 0.24,-0.06 0.24,-0.07 0.23,-0.06 0.24,-0.06 0.23,-0.06 0.24,-0.07 0.24,-0.06 0.23,-0.06 0.24,-0.06 0.23,-0.06 0.24,-0.06 0.24,-0.06 0.23,-0.07 0.24,-0.06 0.23,-0.06 0.24,-0.06 0.24,-0.06 0.23,-0.06 0.24,-0.06 0.23,-0.05 0.24,-0.06 0.24,-0.06 0.23,-0.06 0.24,-0.06 0.23,-0.06 0.24,-0.06 0.24,-0.05 0.23,-0.06 0.24,-0.06 0.23,-0.06 0.24,-0.05 0.24,-0.06 0.23,-0.06 0.24,-0.05 0.24,-0.06 0.23,-0.06 0.24,-0.05 0.23,-0.06 0.24,-0.05 0.24,-0.06 0.23,-0.06 0.24,-0.05 0.23,-0.06 0.24,-0.05 0.24,-0.06 0.23,-0.05 0.24,-0.05 0.23,-0.06 0.24,-0.05 0.24,-0.06 0.23,-0.05 0.24,-0.05 0.23,-0.06 0.24,-0.05 0.24,-0.05 0.23,-0.06 0.24,-0.05 0.23,-0.05 0.24,-0.05 0.24,-0.06 0.23,-0.05 0.24,-0.05 0.24,-0.05 0.23,-0.05 0.24,-0.05 0.23,-0.06 0.24,-0.05 0.24,-0.05 0.23,-0.05 0.24,-0.05 0.23,-0.05 0.24,-0.05 0.24,-0.05 0.23,-0.05 0.24,-0.05 0.23,-0.05 0.24,-0.05 0.24,-0.05 0.23,-0.05 0.24,-0.05 0.23,-0.05 0.24,-0.05 0.24,-0.05 0.23,-0.04 0.24,-0.05 0.23,-0.05 0.24,-0.05 0.24,-0.05 0.23,-0.05 0.24,-0.04 0.24,-0.05 0.23,-0.05 0.24,-0.05 0.23,-0.04 0.24,-0.05 0.24,-0.05 0.23,-0.05 0.24,-0.04 0.23,-0.05 0.24,-0.05 0.24,-0.04 0.23,-0.05 0.24,-0.04 0.23,-0.05 0.24,-0.05 0.24,-0.04 0.23,-0.05 0.24,-0.04 0.23,-0.05 0.24,-0.04 0.24,-0.05 0.23,-0.04 0.24,-0.05 0.23,-0.04 0.24,-0.05 0.24,-0.04 0.23,-0.05 0.24,-0.04 0.24,-0.05 0.23,-0.04 0.24,-0.05 0.23,-0.04 0.24,-0.04 0.24,-0.05 0.23,-0.04 0.24,-0.04 0.23,-0.05 0.24,-0.04 0.24,-0.04 0.23,-0.05 0.24,-0.04 0.23,-0.04 0.24,-0.04 0.24,-0.05 0.23,-0.04 0.24,-0.04 0.23,-0.04 0.24,-0.05 0.24,-0.04 0.23,-0.04 0.24,-0.04 0.23,-0.04 0.24,-0.05 0.24,-0.04 0.23,-0.04 0.24,-0.04 0.24,-0.04 0.23,-0.04 0.24,-0.04 0.23,-0.04 0.24,-0.04 0.24,-0.04 0.23,-0.05 0.24,-0.04 0.23,-0.04 0.24,-0.04 0.24,-0.04 0.23,-0.04 0.24,-0.04 0.23,-0.04 0.24,-0.04 0.24,-0.04 0.23,-0.04 0.24,-0.03 0.23,-0.04 0.24,-0.04 0.24,-0.04 0.23,-0.04 0.24,-0.04 0.23,-0.04 0.24,-0.04 0.24,-0.04 0.23,-0.04 0.24,-0.03 0.24,-0.04 0.23,-0.04 0.24,-0.04 0.23,-0.04 0.24,-0.04 0.24,-0.03 0.23,-0.04 0.24,-0.04 0.23,-0.04 0.24,-0.03 0.24,-0.04 0.23,-0.04 0.24,-0.04 0.23,-0.03 0.24,-0.04 0.24,-0.04 0.23,-0.04 0.24,-0.03 0.23,-0.04 0.24,-0.04 0.24,-0.03 0.23,-0.04 0.24,-0.04 0.23,-0.03 0.24,-0.04 0.24,-0.04 0.23,-0.03 0.24,-0.04 0.24,-0.03 0.23,-0.04 0.24,-0.04 0.23,-0.03 0.24,-0.04 0.24,-0.03 0.23,-0.04 0.24,-0.03 0.23,-0.04 0.24,-0.03 0.24,-0.04 0.23,-0.03 0.24,-0.04 0.23,-0.03 0.24,-0.04 0.24,-0.03 0.23,-0.04 0.24,-0.03 0.23,-0.04 0.24,-0.03 0.24,-0.04 0.23,-0.03 0.24,-0.04 0.23,-0.03 0.24,-0.03 0.24,-0.04 0.23,-0.03 0.24,-0.04 0.24,-0.03 0.23,-0.03 0.24,-0.04 0.23,-0.03 0.24,-0.03 0.24,-0.04 0.23,-0.03 0.24,-0.03 0.23,-0.04 0.24,-0.03 0.24,-0.03 0.23,-0.04 0.24,-0.03 0.23,-0.03 0.24,-0.04 0.24,-0.03 0.23,-0.03 0.24,-0.03 0.23,-0.04 0.24,-0.03 0.24,-0.03 0.23,-0.03 0.24,-0.04 0.23,-0.03 0.24,-0.03 0.24,-0.03 0.23,-0.04 0.24,-0.03 0.23,-0.03 0.24,-0.03 0.24,-0.03 0.23,-0.03 0.24,-0.04 0.24,-0.03 0.23,-0.03 0.24,-0.03 0.23,-0.03 0.24,-0.03 0.24,-0.03 0.23,-0.04 0.24,-0.03 0.23,-0.03 0.24,-0.03 0.24,-0.03 0.23,-0.03 0.24,-0.03 0.23,-0.03 0.24,-0.03 0.24,-0.03 0.23,-0.03 0.24,-0.03 0.23,-0.04 0.24,-0.03 0.24,-0.03 0.23,-0.03 0.24,-0.03 0.23,-0.03 0.24,-0.03 0.24,-0.03 0.23,-0.03 0.24,-0.03 0.24,-0.03 0.23,-0.03 0.24,-0.03 0.23,-0.03 0.24,-0.03 0.24,-0.02 0.23,-0.03 0.24,-0.03 0.23,-0.03 0.24,-0.03 0.24,-0.03 0.23,-0.03 0.24,-0.03 0.23,-0.03 0.24,-0.03 0.24,-0.03 0.23,-0.03 0.24,-0.03 0.23,-0.02 0.24,-0.03 0.24,-0.03 0.23,-0.03 0.24,-0.03 0.23,-0.03 0.24,-0.03 0.24,-0.02 0.23,-0.03 0.24,-0.03 0.24,-0.03 0.23,-0.03 0.24,-0.03 0.23,-0.02 0.24,-0.03 0.24,-0.03 0.23,-0.03 0.24,-0.03 0.23,-0.02 0.24,-0.03 0.24,-0.03 0.23,-0.03 0.24,-0.02 V 68.54 l -0.24,0.02 -0.23,0.02 -0.24,0.02 -0.24,0.02 -0.23,0.02 -0.24,0.02 -0.23,0.01 -0.24,0.02 -0.24,0.02 -0.23,0.02 -0.24,0.02 -0.23,0.02 -0.24,0.02 -0.24,0.02 -0.23,0.02 -0.24,0.01 -0.24,0.02 -0.23,0.02 -0.24,0.02 -0.23,0.02 -0.24,0.02 -0.24,0.02 -0.23,0.02 -0.24,0.02 -0.23,0.02 -0.24,0.02 -0.24,0.02 -0.23,0.02 -0.24,0.02 -0.23,0.01 -0.24,0.02 -0.24,0.02 -0.23,0.02 -0.24,0.02 -0.23,0.02 -0.24,0.02 -0.24,0.02 -0.23,0.02 -0.24,0.02 -0.23,0.02 -0.24,0.02 -0.24,0.02 -0.23,0.02 -0.24,0.02 -0.24,0.02 -0.23,0.02 -0.24,0.02 -0.23,0.02 -0.24,0.02 -0.24,0.02 -0.23,0.02 -0.24,0.02 -0.23,0.02 -0.24,0.02 -0.24,0.03 -0.23,0.02 -0.24,0.02 -0.23,0.02 -0.24,0.02 -0.24,0.02 -0.23,0.02 -0.24,0.02 -0.23,0.02 -0.24,0.02 -0.24,0.02 -0.23,0.02 -0.24,0.02 -0.23,0.03 -0.24,0.02 -0.24,0.02 -0.23,0.02 -0.24,0.02 -0.24,0.02 -0.23,0.02 -0.24,0.02 -0.23,0.02 -0.24,0.03 -0.24,0.02 -0.23,0.02 -0.24,0.02 -0.23,0.02 -0.24,0.02 -0.24,0.03 -0.23,0.02 -0.24,0.02 -0.23,0.02 -0.24,0.02 -0.24,0.02 -0.23,0.03 -0.24,0.02 -0.23,0.02 -0.24,0.02 -0.24,0.02 -0.23,0.03 -0.24,0.02 -0.23,0.02 -0.24,0.02 -0.24,0.02 -0.23,0.03 -0.24,0.02 -0.23,0.02 -0.24,0.02 -0.24,0.03 -0.23,0.02 -0.24,0.02 -0.24,0.02 -0.23,0.03 -0.24,0.02 -0.23,0.02 -0.24,0.03 -0.24,0.02 -0.23,0.02 -0.24,0.02 -0.23,0.03 -0.24,0.02 -0.24,0.02 -0.23,0.03 -0.24,0.02 -0.23,0.02 -0.24,0.03 -0.24,0.02 -0.23,0.02 -0.24,0.03 -0.23,0.02 -0.24,0.02 -0.24,0.03 -0.23,0.02 -0.24,0.03 -0.23,0.02 -0.24,0.02 -0.24,0.03 -0.23,0.02 -0.24,0.02 -0.24,0.03 -0.23,0.02 -0.24,0.03 -0.23,0.02 -0.24,0.03 -0.24,0.02 -0.23,0.02 -0.24,0.03 -0.23,0.02 -0.24,0.03 -0.24,0.02 -0.23,0.03 -0.24,0.02 -0.23,0.03 -0.24,0.02 -0.24,0.03 -0.23,0.02 -0.24,0.03 -0.23,0.02 -0.24,0.03 -0.24,0.02 -0.23,0.03 -0.24,0.02 -0.23,0.03 -0.24,0.02 -0.24,0.03 -0.23,0.02 -0.24,0.03 -0.24,0.02 -0.23,0.03 -0.24,0.02 -0.23,0.03 -0.24,0.03 -0.24,0.02 -0.23,0.03 -0.24,0.02 -0.23,0.03 -0.24,0.03 -0.24,0.02 -0.23,0.03 -0.24,0.02 -0.23,0.03 -0.24,0.03 -0.24,0.02 -0.23,0.03 -0.24,0.03 -0.23,0.02 -0.24,0.03 -0.24,0.03 -0.23,0.02 -0.24,0.03 -0.23,0.03 -0.24,0.02 -0.24,0.03 -0.23,0.03 -0.24,0.03 -0.24,0.02 -0.23,0.03 -0.24,0.03 -0.23,0.03 -0.24,0.02 -0.24,0.03 -0.23,0.03 -0.24,0.03 -0.23,0.02 -0.24,0.03 -0.24,0.03 -0.23,0.03 -0.24,0.03 -0.23,0.02 -0.24,0.03 -0.24,0.03 -0.23,0.03 -0.24,0.03 -0.23,0.03 -0.24,0.02 -0.24,0.03 -0.23,0.03 -0.24,0.03 -0.23,0.03 -0.24,0.03 -0.24,0.03 -0.23,0.03 -0.24,0.02 -0.24,0.03 -0.23,0.03 -0.24,0.03 -0.23,0.03 -0.24,0.03 -0.24,0.03 -0.23,0.03 -0.24,0.03 -0.23,0.03 -0.24,0.03 -0.24,0.03 -0.23,0.03 -0.24,0.03 -0.23,0.03 -0.24,0.03 -0.24,0.03 -0.23,0.03 -0.24,0.03 -0.23,0.03 -0.24,0.03 -0.24,0.03 -0.23,0.03 -0.24,0.03 -0.23,0.04 -0.24,0.03 -0.24,0.03 -0.23,0.03 -0.24,0.03 -0.24,0.03 -0.23,0.03 -0.24,0.03 -0.23,0.04 -0.24,0.03 -0.24,0.03 -0.23,0.03 -0.24,0.03 -0.23,0.04 -0.24,0.03 -0.24,0.03 -0.23,0.03 -0.24,0.03 -0.23,0.04 -0.24,0.03 -0.24,0.03 -0.23,0.03 -0.24,0.04 -0.23,0.03 -0.24,0.03 -0.24,0.04 -0.23,0.03 -0.24,0.03 -0.23,0.04 -0.24,0.03 -0.24,0.03 -0.23,0.04 -0.24,0.03 -0.24,0.03 -0.23,0.04 -0.24,0.03 -0.23,0.04 -0.24,0.03 -0.24,0.04 -0.23,0.03 -0.24,0.03 -0.23,0.04 -0.24,0.03 -0.24,0.04 -0.23,0.03 -0.24,0.04 -0.23,0.03 -0.24,0.04 -0.24,0.03 -0.23,0.04 -0.24,0.03 -0.23,0.04 -0.24,0.04 -0.24,0.03 -0.23,0.04 -0.24,0.03 -0.23,0.04 -0.24,0.04 -0.24,0.03 -0.23,0.04 -0.24,0.04 -0.24,0.03 -0.23,0.04 -0.24,0.04 -0.23,0.03 -0.24,0.04 -0.24,0.04 -0.23,0.03 -0.24,0.04 -0.23,0.04 -0.24,0.04 -0.24,0.03 -0.23,0.04 -0.24,0.04 -0.23,0.04 -0.24,0.04 -0.24,0.04 -0.23,0.03 -0.24,0.04 -0.23,0.04 -0.24,0.04 -0.24,0.04 -0.23,0.04 -0.24,0.04 -0.23,0.04 -0.24,0.04 -0.24,0.04 -0.23,0.04 -0.24,0.04 -0.23,0.04 -0.24,0.04 -0.24,0.04 -0.23,0.04 -0.24,0.04 -0.24,0.04 -0.23,0.04 -0.24,0.04 -0.23,0.04 -0.24,0.04 -0.24,0.04 -0.23,0.04 -0.24,0.04 -0.23,0.05 -0.24,0.04 -0.24,0.04 -0.23,0.04 -0.24,0.04 -0.23,0.05 -0.24,0.04 -0.24,0.04 -0.23,0.04 -0.24,0.05 -0.23,0.04 -0.24,0.04 -0.24,0.05 -0.23,0.04 -0.24,0.04 -0.23,0.05 -0.24,0.04 -0.24,0.05 -0.23,0.04 -0.24,0.05 -0.24,0.04 -0.23,0.04 -0.24,0.05 -0.23,0.04 -0.24,0.05 -0.24,0.04 -0.23,0.05 -0.24,0.05 -0.23,0.04 -0.24,0.05 -0.24,0.04 -0.23,0.05 -0.24,0.05 -0.23,0.04 -0.24,0.05 -0.24,0.05 -0.23,0.04 -0.24,0.05 -0.23,0.05 -0.24,0.05 -0.24,0.04 -0.23,0.05 -0.24,0.05 -0.23,0.05 -0.24,0.05 -0.24,0.05 -0.23,0.05 -0.24,0.04 -0.24,0.05 -0.23,0.05 -0.24,0.05 -0.23,0.05 -0.24,0.05 -0.24,0.05 -0.23,0.05 -0.24,0.05 -0.23,0.05 -0.24,0.06 -0.24,0.05 -0.23,0.05 -0.24,0.05 -0.23,0.05 -0.24,0.05 -0.24,0.06 -0.23,0.05 -0.24,0.05 -0.23,0.05 -0.24,0.06 -0.24,0.05 -0.23,0.05 -0.24,0.06 -0.23,0.05 -0.24,0.05 -0.24,0.06 -0.23,0.05 -0.24,0.06 -0.24,0.05 -0.23,0.06 -0.24,0.05 -0.23,0.06 -0.24,0.05 -0.24,0.06 -0.23,0.06 -0.24,0.05 -0.23,0.06 -0.24,0.06 -0.24,0.05 -0.23,0.06 -0.24,0.06 -0.23,0.06 -0.24,0.06 -0.24,0.05 -0.23,0.06 -0.24,0.06 -0.23,0.06 -0.24,0.06 -0.24,0.06 -0.23,0.06 -0.24,0.06 -0.23,0.06 -0.24,0.06 -0.24,0.06 -0.23,0.06 -0.24,0.07 -0.24,0.06 -0.23,0.06 -0.24,0.06 -0.23,0.06 -0.24,0.07 -0.24,0.06 -0.23,0.06 -0.24,0.07 -0.23,0.06 -0.24,0.07 -0.24,0.06 -0.23,0.07 -0.24,0.06 -0.23,0.07 -0.24,0.06 -0.24,0.07 -0.23,0.07 -0.24,0.06 -0.23,0.07 -0.24,0.07 -0.24,0.06 -0.23,0.07 -0.24,0.07 -0.23,0.07 -0.24,0.07 -0.24,0.07 -0.23,0.07 -0.24,0.07 -0.24,0.07 -0.23,0.07 -0.24,0.07 -0.23,0.07 -0.24,0.07 -0.24,0.08 -0.23,0.07 -0.24,0.07 -0.23,0.08 -0.24,0.07 -0.24,0.07 -0.23,0.08 -0.24,0.07 -0.23,0.08 -0.24,0.07 -0.24,0.08 -0.23,0.08 -0.24,0.07 -0.23,0.08 -0.24,0.08 -0.24,0.08 -0.23,0.07 -0.24,0.08 -0.23,0.08 -0.24,0.08 -0.24,0.08 -0.23,0.08 -0.24,0.08 -0.24,0.09 -0.23,0.08 -0.24,0.08 -0.23,0.08 -0.24,0.09 -0.24,0.08 -0.23,0.09 -0.24,0.08 -0.23,0.09 -0.24,0.08 -0.24,0.09 -0.23,0.08 -0.24,0.09 -0.23,0.09 -0.24,0.09 -0.24,0.09 -0.23,0.09 -0.24,0.09 -0.23,0.09 -0.24,0.09 -0.24,0.09 -0.23,0.09 -0.24,0.09 -0.23,0.1 -0.24,0.09 -0.24,0.09 -0.23,0.1 -0.24,0.09 -0.24,0.1 -0.23,0.1 -0.24,0.1 -0.23,0.09 -0.24,0.1 -0.24,0.1 -0.23,0.1 -0.24,0.1 -0.23,0.1 -0.24,0.1 -0.24,0.11 -0.23,0.1 -0.24,0.1 -0.23,0.11 -0.24,0.1 -0.24,0.11 -0.23,0.11 -0.24,0.1 -0.23,0.11 -0.24,0.11 -0.24,0.11 -0.23,0.11 -0.24,0.11 -0.23,0.11 -0.24,0.12 -0.24,0.11 -0.23,0.12 -0.24,0.11 -0.24,0.12 -0.23,0.11 -0.24,0.12 -0.23,0.12 -0.24,0.12 -0.24,0.12 -0.23,0.12 -0.24,0.13 -0.23,0.12 -0.24,0.12 -0.24,0.13 -0.23,0.12 -0.24,0.13 -0.23,0.13 -0.24,0.13 -0.24,0.13 -0.23,0.13 -0.24,0.13 -0.23,0.14 -0.24,0.13 -0.24,0.14 -0.23,0.13 -0.24,0.14 -0.23,0.14 -0.24,0.14 -0.24,0.14 -0.23,0.14 -0.24,0.15 -0.23,0.14 -0.24,0.15 -0.24,0.15 -0.23,0.15 -0.24,0.15 -0.24,0.15 -0.23,0.15 -0.24,0.16 -0.23,0.15 -0.24,0.16 -0.24,0.16 -0.23,0.16 -0.24,0.16 -0.23,0.16 -0.24,0.17 -0.24,0.17 -0.23,0.16 -0.24,0.17 -0.23,0.18 -0.24,0.17 -0.24,0.17 -0.23,0.18 -0.24,0.18 -0.23,0.18 -0.24,0.18 -0.24,0.19 -0.23,0.18 -0.24,0.19 -0.23,0.19 -0.24,0.19 -0.24,0.2 -0.23,0.2 -0.24,0.19 -0.24,0.21 -0.23,0.2 -0.24,0.2 -0.23,0.21 -0.24,0.21 -0.24,0.22 -0.23,0.21 -0.24,0.22 -0.23,0.22 -0.24,0.23 -0.24,0.22 -0.23,0.23 -0.24,0.23 -0.23,0.24 -0.24,0.24 -0.24,0.24 -0.23,0.24 -0.24,0.25 -0.23,0.25 -0.24,0.26 -0.24,0.26 -0.23,0.26 -0.24,0.27 -0.23,0.26 -0.24,0.28 -0.24,0.28 -0.23,0.28 -0.24,0.28 -0.24,0.29 -0.23,0.3 -0.24,0.3 -0.23,0.3 -0.24,0.31 -0.24,0.31 -0.23,0.32 -0.24,0.33 -0.23,0.33 -0.24,0.33 -0.24,0.35 -0.23,0.34 -0.24,0.36 -0.23,0.36 -0.24,0.37 -0.24,0.37 -0.23,0.38 -0.24,0.39 -0.23,0.39 -0.24,0.41 -0.24,0.41 -0.23,0.42 -0.24,0.43 -0.23,0.44 -0.24,0.45 -0.24,0.46 -0.23,0.47 -0.24,0.48 -0.24,0.49 -0.23,0.5 -0.24,0.51 -0.23,0.53 -0.24,0.54 -0.24,0.56 -0.23,0.57 -0.24,0.58 -0.23,0.61 -0.24,0.62 -0.24,0.63 -0.23,0.66 -0.24,0.68 -0.23,0.69 -0.24,0.72 -0.24,0.75 -0.23,0.77 -0.24,0.79 -0.23,0.83 -0.24,0.86 -0.24,0.88 -0.23,0.93 -0.24,0.96 -0.23,1 -0.24,1.05 z" />
          <path
             inkscape:connector-curvature="0"
             id="path8011"
             style="fill:#756156;fill-opacity:0.14900004;fill-rule:nonzero;stroke:none"
             d="m 55.01,103.03 0.24,-0.93 0.23,-0.89 0.24,-0.85 0.23,-0.81 0.24,-0.77 0.24,-0.74 0.23,-0.71 0.24,-0.68 0.23,-0.65 0.24,-0.63 0.24,-0.61 0.23,-0.58 0.24,-0.56 0.23,-0.55 0.24,-0.52 0.24,-0.51 0.23,-0.49 0.24,-0.48 0.23,-0.46 0.24,-0.45 0.24,-0.44 0.23,-0.42 0.24,-0.41 0.23,-0.4 0.24,-0.39 0.24,-0.38 0.23,-0.37 0.24,-0.35 0.24,-0.35 0.23,-0.35 0.24,-0.33 0.23,-0.32 0.24,-0.32 0.24,-0.31 0.23,-0.31 0.24,-0.29 0.23,-0.29 0.24,-0.29 0.24,-0.27 0.23,-0.27 0.24,-0.27 0.23,-0.26 0.24,-0.26 0.24,-0.25 0.23,-0.24 0.24,-0.24 0.23,-0.24 0.24,-0.23 0.24,-0.23 0.23,-0.22 0.24,-0.22 0.23,-0.22 0.24,-0.21 0.24,-0.21 0.23,-0.2 0.24,-0.2 0.24,-0.2 0.23,-0.2 0.24,-0.19 0.23,-0.19 0.24,-0.18 0.24,-0.18 0.23,-0.18 0.24,-0.18 0.23,-0.17 0.24,-0.18 0.24,-0.16 0.23,-0.17 0.24,-0.16 0.23,-0.17 0.24,-0.16 0.24,-0.15 0.23,-0.16 0.24,-0.15 0.23,-0.15 0.24,-0.15 0.24,-0.15 0.23,-0.14 0.24,-0.14 0.23,-0.14 0.24,-0.14 0.24,-0.14 0.23,-0.14 0.24,-0.13 0.24,-0.13 0.23,-0.13 0.24,-0.13 0.23,-0.13 0.24,-0.12 0.24,-0.13 0.23,-0.12 0.24,-0.12 0.23,-0.12 0.24,-0.12 0.24,-0.12 0.23,-0.11 0.24,-0.12 0.23,-0.11 0.24,-0.11 0.24,-0.11 0.23,-0.11 0.24,-0.11 0.23,-0.11 0.24,-0.1 0.24,-0.11 0.23,-0.1 0.24,-0.11 0.23,-0.1 0.24,-0.1 0.24,-0.1 0.23,-0.1 0.24,-0.09 0.24,-0.1 0.23,-0.1 0.24,-0.09 0.23,-0.1 0.24,-0.09 0.24,-0.09 0.23,-0.09 0.24,-0.09 0.23,-0.09 0.24,-0.09 0.24,-0.09 0.23,-0.08 0.24,-0.09 0.23,-0.09 0.24,-0.08 0.24,-0.08 0.23,-0.09 0.24,-0.08 0.23,-0.08 0.24,-0.08 0.24,-0.08 0.23,-0.08 0.24,-0.08 0.23,-0.08 0.24,-0.08 0.24,-0.07 0.23,-0.08 0.24,-0.07 0.23,-0.08 0.24,-0.07 0.24,-0.08 0.23,-0.07 0.24,-0.07 0.24,-0.08 0.23,-0.07 0.24,-0.07 0.23,-0.07 0.24,-0.07 0.24,-0.07 0.23,-0.06 0.24,-0.07 0.23,-0.07 0.24,-0.07 0.24,-0.06 0.23,-0.07 0.24,-0.07 0.23,-0.06 0.24,-0.06 0.24,-0.07 0.23,-0.06 0.24,-0.07 0.23,-0.06 0.24,-0.06 0.24,-0.06 0.23,-0.06 0.24,-0.06 0.23,-0.06 0.24,-0.06 0.24,-0.06 0.23,-0.06 0.24,-0.06 0.24,-0.06 0.23,-0.06 0.24,-0.06 0.23,-0.05 0.24,-0.06 0.24,-0.06 0.23,-0.05 0.24,-0.06 0.23,-0.05 0.24,-0.06 0.24,-0.05 0.23,-0.06 0.24,-0.05 0.23,-0.05 0.24,-0.06 0.24,-0.05 0.23,-0.05 0.24,-0.06 0.23,-0.05 0.24,-0.05 0.24,-0.05 0.23,-0.05 0.24,-0.05 0.23,-0.05 0.24,-0.05 0.24,-0.05 0.23,-0.05 0.24,-0.05 0.24,-0.05 0.23,-0.05 0.24,-0.04 0.23,-0.05 0.24,-0.05 0.24,-0.05 0.23,-0.04 0.24,-0.05 0.23,-0.05 0.24,-0.04 0.24,-0.05 0.23,-0.05 0.24,-0.04 0.23,-0.05 0.24,-0.04 0.24,-0.04 0.23,-0.05 0.24,-0.04 0.23,-0.05 0.24,-0.04 0.24,-0.04 0.23,-0.05 0.24,-0.04 0.23,-0.04 0.24,-0.05 0.24,-0.04 0.23,-0.04 0.24,-0.04 0.24,-0.04 0.23,-0.04 0.24,-0.05 0.23,-0.04 0.24,-0.04 0.24,-0.04 0.23,-0.04 0.24,-0.04 0.23,-0.04 0.24,-0.04 0.24,-0.04 0.23,-0.04 0.24,-0.03 0.23,-0.04 0.24,-0.04 0.24,-0.04 0.23,-0.04 0.24,-0.04 0.23,-0.03 0.24,-0.04 0.24,-0.04 0.23,-0.04 0.24,-0.03 0.23,-0.04 0.24,-0.04 0.24,-0.03 0.23,-0.04 0.24,-0.04 0.24,-0.03 0.23,-0.04 0.24,-0.03 0.23,-0.04 0.24,-0.03 0.24,-0.04 0.23,-0.03 0.24,-0.04 0.23,-0.03 0.24,-0.04 0.24,-0.03 0.23,-0.04 0.24,-0.03 0.23,-0.03 0.24,-0.04 0.24,-0.03 0.23,-0.03 0.24,-0.04 0.23,-0.03 0.24,-0.03 0.24,-0.04 0.23,-0.03 0.24,-0.03 0.23,-0.03 0.24,-0.04 0.24,-0.03 0.23,-0.03 0.24,-0.03 0.24,-0.03 0.23,-0.04 0.24,-0.03 0.23,-0.03 0.24,-0.03 0.24,-0.03 0.23,-0.03 0.24,-0.03 0.23,-0.03 0.24,-0.03 0.24,-0.03 0.23,-0.03 0.24,-0.03 0.23,-0.03 0.24,-0.03 0.24,-0.03 0.23,-0.03 0.24,-0.03 0.23,-0.03 0.24,-0.03 0.24,-0.03 0.23,-0.03 0.24,-0.03 0.23,-0.02 0.24,-0.03 0.24,-0.03 0.23,-0.03 0.24,-0.03 0.24,-0.03 0.23,-0.02 0.24,-0.03 0.23,-0.03 0.24,-0.03 0.24,-0.03 0.23,-0.02 0.24,-0.03 0.23,-0.03 0.24,-0.02 0.24,-0.03 0.23,-0.03 0.24,-0.02 0.23,-0.03 0.24,-0.03 0.24,-0.02 0.23,-0.03 0.24,-0.03 0.23,-0.02 0.24,-0.03 0.24,-0.03 0.23,-0.02 0.24,-0.03 0.23,-0.02 0.24,-0.03 0.24,-0.02 0.23,-0.03 0.24,-0.02 0.24,-0.03 0.23,-0.03 0.24,-0.02 0.23,-0.03 0.24,-0.02 0.24,-0.02 0.23,-0.03 0.24,-0.02 0.23,-0.03 0.24,-0.02 0.24,-0.03 0.23,-0.02 0.24,-0.03 0.23,-0.02 0.24,-0.02 0.24,-0.03 0.23,-0.02 0.24,-0.02 0.23,-0.03 0.24,-0.02 0.24,-0.03 0.23,-0.02 0.24,-0.02 0.23,-0.03 0.24,-0.02 0.24,-0.02 0.23,-0.02 0.24,-0.03 0.24,-0.02 0.23,-0.02 0.24,-0.03 0.23,-0.02 0.24,-0.02 0.24,-0.02 0.23,-0.03 0.24,-0.02 0.23,-0.02 0.24,-0.02 0.24,-0.02 0.23,-0.03 0.24,-0.02 0.23,-0.02 0.24,-0.02 0.24,-0.02 0.23,-0.02 0.24,-0.03 0.23,-0.02 0.24,-0.02 0.24,-0.02 0.23,-0.02 0.24,-0.02 0.23,-0.02 0.24,-0.03 0.24,-0.02 0.23,-0.02 0.24,-0.02 0.23,-0.02 0.24,-0.02 0.24,-0.02 0.23,-0.02 0.24,-0.02 0.24,-0.02 0.23,-0.02 0.24,-0.02 0.23,-0.02 0.24,-0.02 0.24,-0.02 0.23,-0.02 0.24,-0.02 0.23,-0.02 0.24,-0.02 0.24,-0.02 0.23,-0.02 0.24,-0.02 0.23,-0.02 0.24,-0.02 0.24,-0.02 0.23,-0.02 0.24,-0.02 0.23,-0.02 0.24,-0.02 0.24,-0.02 0.23,-0.02 0.24,-0.02 0.23,-0.01 0.24,-0.02 0.24,-0.02 0.23,-0.02 0.24,-0.02 0.24,-0.02 0.23,-0.02 0.24,-0.02 0.23,-0.01 0.24,-0.02 0.24,-0.02 0.23,-0.02 0.24,-0.02 0.23,-0.02 0.24,-0.02 0.24,-0.01 0.23,-0.02 0.24,-0.02 0.23,-0.02 0.24,-0.02 0.24,-0.01 0.23,-0.02 0.24,-0.02 0.23,-0.02 0.24,-0.01 0.24,-0.02 0.23,-0.02 0.24,-0.02 0.23,-0.02 0.24,-0.01 0.24,-0.02 0.23,-0.02 0.24,-0.02 0.24,-0.01 0.23,-0.02 0.24,-0.02 0.23,-0.01 0.24,-0.02 0.24,-0.02 0.23,-0.02 0.24,-0.01 0.23,-0.02 0.24,-0.02 0.24,-0.01 0.23,-0.02 0.24,-0.02 0.23,-0.01 0.24,-0.02 0.24,-0.02 0.23,-0.01 0.24,-0.02 0.23,-0.02 0.24,-0.01 0.24,-0.02 0.23,-0.01 0.24,-0.02 0.23,-0.02 0.24,-0.01 0.24,-0.02 0.23,-0.02 0.24,-0.01 0.24,-0.02 0.23,-0.01 0.24,-0.02 0.23,-0.02 0.24,-0.01 0.24,-0.02 0.23,-0.01 0.24,-0.02 0.23,-0.01 0.24,-0.02 0.24,-0.02 0.23,-0.01 0.24,-0.02 0.23,-0.01 0.24,-0.02 0.24,-0.01 0.23,-0.02 0.24,-0.01 0.23,-0.02 0.24,-0.01 0.24,-0.02 0.23,-0.02 0.24,-0.01 0.23,-0.02 0.24,-0.01 0.24,-0.02 0.23,-0.01 0.24,-0.02 0.24,-0.01 0.23,-0.02 0.24,-0.01 0.23,-0.01 0.24,-0.02 0.24,-0.01 0.23,-0.02 0.24,-0.01 0.23,-0.02 0.24,-0.01 0.24,-0.02 0.23,-0.01 0.24,-0.02 0.23,-0.01 0.24,-0.02 0.24,-0.01 0.23,-0.01 0.24,-0.02 0.23,-0.01 0.24,-0.02 0.24,-0.01 0.23,-0.02 0.24,-0.01 0.23,-0.01 0.24,-0.02 0.24,-0.01 0.23,-0.02 0.24,-0.01 0.24,-0.01 0.23,-0.02 0.24,-0.01 0.23,-0.01 0.24,-0.02 0.24,-0.01 0.23,-0.02 0.24,-0.01 0.23,-0.01 0.24,-0.02 0.24,-0.01 0.23,-0.01 0.24,-0.02 0.23,-0.01 0.24,-0.01 0.24,-0.02 0.23,-0.01 0.24,-0.02 0.23,-0.01 0.24,-0.01 0.24,-0.01 0.23,-0.02 0.24,-0.01 0.23,-0.01 0.24,-0.02 0.24,-0.01 0.23,-0.01 0.24,-0.02 0.24,-0.01 0.23,-0.01 0.24,-0.02 0.23,-0.01 0.24,-0.01 0.24,-0.01 0.23,-0.02 0.24,-0.01 0.23,-0.01 0.24,-0.02 0.24,-0.01 0.23,-0.01 0.24,-0.01 0.23,-0.02 0.24,-0.01 0.24,-0.01 0.23,-0.02 0.24,-0.01 0.23,-0.01 0.24,-0.01 0.24,-0.02 0.23,-0.01 0.24,-0.01 0.23,-0.01 0.24,-0.01 0.24,-0.02 0.23,-0.01 0.24,-0.01 0.24,-0.01 0.23,-0.02 0.24,-0.01 0.23,-0.01 0.24,-0.01 0.24,-0.01 0.23,-0.02 0.24,-0.01 0.23,-0.01 0.24,-0.01 0.24,-0.02 0.23,-0.01 0.24,-0.01 0.23,-0.01 0.24,-0.01 0.24,-0.01 0.23,-0.02 0.24,-0.01 0.23,-0.01 0.24,-0.01 0.24,-0.01 0.23,-0.02 0.24,-0.01 0.23,-0.01 0.24,-0.01 0.24,-0.01 0.23,-0.01 0.24,-0.02 0.23,-0.01 0.24,-0.01 0.24,-0.01 0.23,-0.01 0.24,-0.01 0.24,-0.01 0.23,-0.02 0.24,-0.01 0.23,-0.01 0.24,-0.01 0.24,-0.01 0.23,-0.01 0.24,-0.01 0.23,-0.02 0.24,-0.01 0.24,-0.01 0.23,-0.01 0.24,-0.01 0.23,-0.01 0.24,-0.01 0.24,-0.01 0.23,-0.01 0.24,-0.02 0.23,-0.01 0.24,-0.01 0.24,-0.01 0.23,-0.01 0.24,-0.01 0.23,-0.01 0.24,-0.01 0.24,-0.01 0.23,-0.01 0.24,-0.01 0.24,-0.02 0.23,-0.01 0.24,-0.01 0.23,-0.01 0.24,-0.01 0.24,-0.01 0.23,-0.01 0.24,-0.01 0.23,-0.01 0.24,-0.01 0.24,-0.01 0.23,-0.01 0.24,-0.01 0.23,-0.01 0.24,-0.01 0.24,-0.02 0.23,-0.01 0.24,-0.01 0.23,-0.01 0.24,-0.01 0.24,-0.01 0.23,-0.01 0.24,-0.01 0.23,-0.01 0.24,-0.01 0.24,-0.01 0.23,-0.01 0.24,-0.01 0.24,-0.01 0.23,-0.01 0.24,-0.01 0.23,-0.01 0.24,-0.01 0.24,-0.01 0.23,-0.01 0.24,-0.01 0.23,-0.01 0.24,-0.01 0.24,-0.01 0.23,-0.01 0.24,-0.01 V 43.29 l -0.24,0.01 -0.23,0.01 h -0.24 l -0.24,0.01 -0.23,0.01 h -0.24 l -0.23,0.01 -0.24,0.01 h -0.24 l -0.23,0.01 -0.24,0.01 h -0.23 l -0.24,0.01 -0.24,0.01 h -0.23 l -0.24,0.01 -0.24,0.01 h -0.23 l -0.24,0.01 -0.23,0.01 h -0.24 l -0.24,0.01 -0.23,0.01 -0.24,0.01 h -0.23 l -0.24,0.01 -0.24,0.01 h -0.23 l -0.24,0.01 -0.23,0.01 h -0.24 l -0.24,0.01 -0.23,0.01 -0.24,0.01 H 212 l -0.24,0.01 -0.24,0.01 h -0.23 l -0.24,0.01 -0.23,0.01 -0.24,0.01 h -0.24 l -0.23,0.01 -0.24,0.01 h -0.24 l -0.23,0.01 -0.24,0.01 -0.23,0.01 h -0.24 l -0.24,0.01 -0.23,0.01 h -0.24 l -0.23,0.01 -0.24,0.01 -0.24,0.01 h -0.23 l -0.24,0.01 -0.23,0.01 -0.24,0.01 h -0.24 l -0.23,0.01 -0.24,0.01 -0.23,0.01 h -0.24 l -0.24,0.01 -0.23,0.01 -0.24,0.01 h -0.23 l -0.24,0.01 -0.24,0.01 -0.23,0.01 h -0.24 l -0.24,0.01 -0.23,0.01 -0.24,0.01 h -0.23 l -0.24,0.01 -0.24,0.01 -0.23,0.01 h -0.24 l -0.23,0.01 -0.24,0.01 -0.24,0.01 -0.23,0.01 h -0.24 l -0.23,0.01 -0.24,0.01 -0.24,0.01 h -0.23 l -0.24,0.01 -0.23,0.01 -0.24,0.01 -0.24,0.01 h -0.23 l -0.24,0.01 -0.23,0.01 -0.24,0.01 -0.24,0.01 h -0.23 l -0.24,0.01 -0.23,0.01 -0.24,0.01 -0.24,0.01 h -0.23 l -0.24,0.01 -0.24,0.01 -0.23,0.01 -0.24,0.01 h -0.23 l -0.24,0.01 -0.24,0.01 -0.23,0.01 -0.24,0.01 -0.23,0.01 h -0.24 l -0.24,0.01 -0.23,0.01 -0.24,0.01 -0.23,0.01 -0.24,0.01 h -0.24 l -0.23,0.01 -0.24,0.01 -0.23,0.01 -0.24,0.01 -0.24,0.01 h -0.23 l -0.24,0.01 -0.23,0.01 -0.24,0.01 -0.24,0.01 -0.23,0.01 -0.24,0.01 h -0.24 l -0.23,0.01 -0.24,0.01 -0.23,0.01 -0.24,0.01 -0.24,0.01 -0.23,0.01 -0.24,0.01 h -0.23 l -0.24,0.01 -0.24,0.01 -0.23,0.01 -0.24,0.01 -0.23,0.01 -0.24,0.01 -0.24,0.01 h -0.23 l -0.24,0.01 -0.23,0.01 -0.24,0.01 -0.24,0.01 -0.23,0.01 -0.24,0.01 -0.23,0.01 -0.24,0.01 -0.24,0.01 h -0.23 l -0.24,0.01 -0.24,0.01 -0.23,0.01 -0.24,0.01 -0.23,0.01 -0.24,0.01 -0.24,0.01 -0.23,0.01 -0.24,0.01 -0.23,0.01 -0.24,0.01 -0.24,0.01 h -0.23 l -0.24,0.01 -0.23,0.01 -0.24,0.01 -0.24,0.01 -0.23,0.01 -0.24,0.01 -0.23,0.01 -0.24,0.01 -0.24,0.01 -0.23,0.01 -0.24,0.01 -0.23,0.01 -0.24,0.01 -0.24,0.01 -0.23,0.01 -0.24,0.01 -0.24,0.01 -0.23,0.01 -0.24,0.01 -0.23,0.01 -0.24,0.01 -0.24,0.01 -0.23,0.01 -0.24,0.01 -0.23,0.01 -0.24,0.01 -0.24,0.01 -0.23,0.01 -0.24,0.01 -0.23,0.01 -0.24,0.01 -0.24,0.01 -0.23,0.01 -0.24,0.01 -0.23,0.01 -0.24,0.01 -0.24,0.01 -0.23,0.01 -0.24,0.01 -0.23,0.01 -0.24,0.01 -0.24,0.01 -0.23,0.01 -0.24,0.01 -0.24,0.01 -0.23,0.01 -0.24,0.01 -0.23,0.01 -0.24,0.01 -0.24,0.01 -0.23,0.01 -0.24,0.01 -0.23,0.02 -0.24,0.01 -0.24,0.01 -0.23,0.01 -0.24,0.01 -0.23,0.01 -0.24,0.01 -0.24,0.01 -0.23,0.01 -0.24,0.01 -0.23,0.01 -0.24,0.01 -0.24,0.02 -0.23,0.01 -0.24,0.01 -0.23,0.01 -0.24,0.01 -0.24,0.01 -0.23,0.01 -0.24,0.01 -0.24,0.01 -0.23,0.02 -0.24,0.01 -0.23,0.01 -0.24,0.01 -0.24,0.01 -0.23,0.01 -0.24,0.01 -0.23,0.02 -0.24,0.01 -0.24,0.01 -0.23,0.01 -0.24,0.01 -0.23,0.01 -0.24,0.02 -0.24,0.01 -0.23,0.01 -0.24,0.01 -0.23,0.01 -0.24,0.01 -0.24,0.02 -0.23,0.01 -0.24,0.01 -0.23,0.01 -0.24,0.01 -0.24,0.02 -0.23,0.01 -0.24,0.01 -0.24,0.01 -0.23,0.01 -0.24,0.02 -0.23,0.01 -0.24,0.01 -0.24,0.01 -0.23,0.01 -0.24,0.02 -0.23,0.01 -0.24,0.01 -0.24,0.01 -0.23,0.02 -0.24,0.01 -0.23,0.01 -0.24,0.01 -0.24,0.02 -0.23,0.01 -0.24,0.01 -0.23,0.02 -0.24,0.01 -0.24,0.01 -0.23,0.01 -0.24,0.02 -0.23,0.01 -0.24,0.01 -0.24,0.02 -0.23,0.01 -0.24,0.01 -0.24,0.02 -0.23,0.01 -0.24,0.01 -0.23,0.01 -0.24,0.02 -0.24,0.01 -0.23,0.01 -0.24,0.02 -0.23,0.01 -0.24,0.02 -0.24,0.01 -0.23,0.01 -0.24,0.02 -0.23,0.01 -0.24,0.01 -0.24,0.02 -0.23,0.01 -0.24,0.01 -0.23,0.02 -0.24,0.01 -0.24,0.02 -0.23,0.01 -0.24,0.01 -0.23,0.02 -0.24,0.01 -0.24,0.02 -0.23,0.01 -0.24,0.02 -0.23,0.01 -0.24,0.01 -0.24,0.02 -0.23,0.01 -0.24,0.02 -0.24,0.01 -0.23,0.02 -0.24,0.01 -0.23,0.02 -0.24,0.01 -0.24,0.02 -0.23,0.01 -0.24,0.01 -0.23,0.02 -0.24,0.01 -0.24,0.02 -0.23,0.01 -0.24,0.02 -0.23,0.02 -0.24,0.01 -0.24,0.02 -0.23,0.01 -0.24,0.02 -0.23,0.01 -0.24,0.02 -0.24,0.01 -0.23,0.02 -0.24,0.01 -0.23,0.02 -0.24,0.02 -0.24,0.01 -0.23,0.02 -0.24,0.01 -0.24,0.02 -0.23,0.01 -0.24,0.02 -0.23,0.02 -0.24,0.01 -0.24,0.02 -0.23,0.02 -0.24,0.01 -0.23,0.02 -0.24,0.01 -0.24,0.02 -0.23,0.02 -0.24,0.01 -0.23,0.02 -0.24,0.02 -0.24,0.01 -0.23,0.02 -0.24,0.02 -0.23,0.02 -0.24,0.01 -0.24,0.02 -0.23,0.02 -0.24,0.01 -0.23,0.02 -0.24,0.02 -0.24,0.02 -0.23,0.01 -0.24,0.02 -0.24,0.02 -0.23,0.02 -0.24,0.01 -0.23,0.02 -0.24,0.02 -0.24,0.02 -0.23,0.02 -0.24,0.01 -0.23,0.02 -0.24,0.02 -0.24,0.02 -0.23,0.02 -0.24,0.02 -0.23,0.01 -0.24,0.02 -0.24,0.02 -0.23,0.02 -0.24,0.02 -0.23,0.02 -0.24,0.02 -0.24,0.02 -0.23,0.02 -0.24,0.01 -0.23,0.02 -0.24,0.02 -0.24,0.02 -0.23,0.02 -0.24,0.02 -0.24,0.02 -0.23,0.02 -0.24,0.02 -0.23,0.02 -0.24,0.02 -0.24,0.02 -0.23,0.02 -0.24,0.02 -0.23,0.02 -0.24,0.02 -0.24,0.02 -0.23,0.02 -0.24,0.02 -0.23,0.02 -0.24,0.03 -0.24,0.02 -0.23,0.02 -0.24,0.02 -0.23,0.02 -0.24,0.02 -0.24,0.02 -0.23,0.02 -0.24,0.03 -0.23,0.02 -0.24,0.02 -0.24,0.02 -0.23,0.02 -0.24,0.02 -0.24,0.03 -0.23,0.02 -0.24,0.02 -0.23,0.02 -0.24,0.03 -0.24,0.02 -0.23,0.02 -0.24,0.03 -0.23,0.02 -0.24,0.02 -0.24,0.02 -0.23,0.03 -0.24,0.02 -0.23,0.02 -0.24,0.03 -0.24,0.02 -0.23,0.03 -0.24,0.02 -0.23,0.02 -0.24,0.03 -0.24,0.02 -0.23,0.03 -0.24,0.02 -0.23,0.03 -0.24,0.02 -0.24,0.03 -0.23,0.02 -0.24,0.03 -0.24,0.02 -0.23,0.03 -0.24,0.02 -0.23,0.03 -0.24,0.02 -0.24,0.03 -0.23,0.02 -0.24,0.03 -0.23,0.03 -0.24,0.02 -0.24,0.03 -0.23,0.03 -0.24,0.02 -0.23,0.03 -0.24,0.03 -0.24,0.02 -0.23,0.03 -0.24,0.03 -0.23,0.03 -0.24,0.03 -0.24,0.02 -0.23,0.03 -0.24,0.03 -0.23,0.03 -0.24,0.03 -0.24,0.03 -0.23,0.02 -0.24,0.03 -0.24,0.03 -0.23,0.03 -0.24,0.03 -0.23,0.03 -0.24,0.03 -0.24,0.03 -0.23,0.03 -0.24,0.03 -0.23,0.03 -0.24,0.03 -0.24,0.03 -0.23,0.03 -0.24,0.04 -0.23,0.03 -0.24,0.03 -0.24,0.03 -0.23,0.03 -0.24,0.04 -0.23,0.03 -0.24,0.03 -0.24,0.03 -0.23,0.04 -0.24,0.03 -0.23,0.03 -0.24,0.04 -0.24,0.03 -0.23,0.03 -0.24,0.04 -0.24,0.03 -0.23,0.04 -0.24,0.03 -0.23,0.04 -0.24,0.03 -0.24,0.04 -0.23,0.03 -0.24,0.04 -0.23,0.04 -0.24,0.03 -0.24,0.04 -0.23,0.04 -0.24,0.03 -0.23,0.04 -0.24,0.04 -0.24,0.04 -0.23,0.04 -0.24,0.03 -0.23,0.04 -0.24,0.04 -0.24,0.04 -0.23,0.04 -0.24,0.04 -0.23,0.04 -0.24,0.04 -0.24,0.04 -0.23,0.04 -0.24,0.04 -0.24,0.05 -0.23,0.04 -0.24,0.04 -0.23,0.04 -0.24,0.05 -0.24,0.04 -0.23,0.04 -0.24,0.05 -0.23,0.04 -0.24,0.04 -0.24,0.05 -0.23,0.04 -0.24,0.05 -0.23,0.05 -0.24,0.04 -0.24,0.05 -0.23,0.05 -0.24,0.04 -0.23,0.05 -0.24,0.05 -0.24,0.05 -0.23,0.05 -0.24,0.05 -0.23,0.05 -0.24,0.05 -0.24,0.05 -0.23,0.05 -0.24,0.05 -0.23,0.05 -0.24,0.05 -0.24,0.06 -0.23,0.05 -0.24,0.05 -0.24,0.06 -0.23,0.05 -0.24,0.06 -0.23,0.06 -0.24,0.05 -0.24,0.06 -0.23,0.06 -0.24,0.05 -0.23,0.06 -0.24,0.06 -0.24,0.06 -0.23,0.06 -0.24,0.06 -0.23,0.06 -0.24,0.07 -0.24,0.06 -0.23,0.06 -0.24,0.07 -0.23,0.06 -0.24,0.07 -0.24,0.06 -0.23,0.07 -0.24,0.07 -0.23,0.07 -0.24,0.06 -0.24,0.07 -0.23,0.08 -0.24,0.07 -0.24,0.07 -0.23,0.07 -0.24,0.08 -0.23,0.07 -0.24,0.08 -0.24,0.07 -0.23,0.08 -0.24,0.08 -0.23,0.08 -0.24,0.08 -0.24,0.08 -0.23,0.08 -0.24,0.08 -0.23,0.09 -0.24,0.08 -0.24,0.09 -0.23,0.09 -0.24,0.09 -0.23,0.09 -0.24,0.09 -0.24,0.09 -0.23,0.1 -0.24,0.09 -0.23,0.1 -0.24,0.1 -0.24,0.1 -0.23,0.1 -0.24,0.1 -0.24,0.1 -0.23,0.11 -0.24,0.11 -0.23,0.11 -0.24,0.11 -0.24,0.11 -0.23,0.11 -0.24,0.12 -0.23,0.12 -0.24,0.12 -0.24,0.12 -0.23,0.13 -0.24,0.12 -0.23,0.13 -0.24,0.13 -0.24,0.14 -0.23,0.13 -0.24,0.14 -0.23,0.15 -0.24,0.14 -0.24,0.15 -0.23,0.15 -0.24,0.15 -0.23,0.16 -0.24,0.16 -0.24,0.17 -0.23,0.17 -0.24,0.17 -0.24,0.17 -0.23,0.18 -0.24,0.19 -0.23,0.19 -0.24,0.19 -0.24,0.2 -0.23,0.21 -0.24,0.21 -0.23,0.21 -0.24,0.23 -0.24,0.22 -0.23,0.24 -0.24,0.24 -0.23,0.25 -0.24,0.26 -0.24,0.27 -0.23,0.28 -0.24,0.28 -0.23,0.3 -0.24,0.31 -0.24,0.31 -0.23,0.34 -0.24,0.34 -0.23,0.36 -0.24,0.38 z" />
          <path
             inkscape:connector-curvature="0"
             id="path8013"
             style="fill:none;stroke:#756156;stroke-width:4.26897647;stroke-linecap:butt;stroke-linejoin:round;stroke-miterlimit:10;stroke-dasharray:none;stroke-opacity:1"
             d="m 55.01,177.27 0.24,-1.67 0.23,-1.58 0.24,-1.51 0.23,-1.45 0.24,-1.39 0.24,-1.34 0.23,-1.28 0.24,-1.23 0.23,-1.19 0.24,-1.15 0.24,-1.1 0.23,-1.07 0.24,-1.04 0.23,-1 0.24,-0.96 0.24,-0.94 0.23,-0.91 0.24,-0.89 0.23,-0.86 0.24,-0.83 0.24,-0.81 0.23,-0.79 0.24,-0.77 0.23,-0.75 0.24,-0.73 0.24,-0.71 0.23,-0.69 0.24,-0.68 0.24,-0.66 0.23,-0.65 0.24,-0.63 0.23,-0.62 0.24,-0.6 0.24,-0.59 0.23,-0.58 0.24,-0.57 0.23,-0.55 0.24,-0.55 0.24,-0.53 0.23,-0.52 0.24,-0.51 0.23,-0.51 0.24,-0.49 0.24,-0.48 0.23,-0.48 0.24,-0.46 0.23,-0.46 0.24,-0.45 0.24,-0.44 0.23,-0.44 0.24,-0.42 0.23,-0.42 0.24,-0.42 0.24,-0.4 0.23,-0.4 0.24,-0.4 0.24,-0.39 0.23,-0.38 0.24,-0.37 0.23,-0.37 0.24,-0.37 0.24,-0.36 0.23,-0.35 0.24,-0.35 0.23,-0.34 0.24,-0.34 0.24,-0.33 0.23,-0.33 0.24,-0.33 0.23,-0.32 0.24,-0.32 0.24,-0.31 0.23,-0.31 0.24,-0.3 0.23,-0.3 0.24,-0.3 0.24,-0.29 0.23,-0.29 0.24,-0.28 0.23,-0.28 0.24,-0.28 0.24,-0.28 0.23,-0.27 0.24,-0.27 0.24,-0.26 0.23,-0.26 0.24,-0.26 0.23,-0.26 0.24,-0.25 0.24,-0.25 0.23,-0.25 0.24,-0.25 0.23,-0.24 0.24,-0.24 0.24,-0.24 0.23,-0.23 0.24,-0.23 0.23,-0.23 0.24,-0.23 0.24,-0.22 0.23,-0.23 0.24,-0.22 0.23,-0.21 0.24,-0.22 0.24,-0.21 0.23,-0.22 0.24,-0.2 0.23,-0.21 0.24,-0.21 0.24,-0.2 0.23,-0.2 0.24,-0.2 0.24,-0.2 0.23,-0.2 0.24,-0.19 0.23,-0.19 0.24,-0.19 0.24,-0.19 0.23,-0.19 0.24,-0.19 0.23,-0.18 0.24,-0.18 0.24,-0.18 0.23,-0.18 0.24,-0.18 0.23,-0.17 0.24,-0.18 0.24,-0.17 0.23,-0.17 0.24,-0.17 0.23,-0.17 0.24,-0.17 0.24,-0.17 0.23,-0.16 0.24,-0.16 0.23,-0.17 0.24,-0.16 0.24,-0.16 0.23,-0.15 0.24,-0.16 0.23,-0.16 0.24,-0.15 0.24,-0.15 0.23,-0.16 0.24,-0.15 0.24,-0.15 0.23,-0.15 0.24,-0.14 0.23,-0.15 0.24,-0.14 0.24,-0.15 0.23,-0.14 0.24,-0.14 0.23,-0.15 0.24,-0.14 0.24,-0.13 0.23,-0.14 0.24,-0.14 0.23,-0.14 0.24,-0.13 0.24,-0.14 0.23,-0.13 0.24,-0.13 0.23,-0.13 0.24,-0.13 0.24,-0.13 0.23,-0.13 0.24,-0.13 0.23,-0.13 0.24,-0.12 0.24,-0.13 0.23,-0.12 0.24,-0.13 0.24,-0.12 0.23,-0.12 0.24,-0.12 0.23,-0.12 0.24,-0.12 0.24,-0.12 0.23,-0.12 0.24,-0.12 0.23,-0.12 0.24,-0.11 0.24,-0.12 0.23,-0.11 0.24,-0.12 0.23,-0.11 0.24,-0.11 0.24,-0.11 0.23,-0.11 0.24,-0.12 0.23,-0.11 0.24,-0.1 0.24,-0.11 0.23,-0.11 0.24,-0.11 0.23,-0.1 0.24,-0.11 0.24,-0.11 0.23,-0.1 0.24,-0.11 0.24,-0.1 0.23,-0.1 0.24,-0.1 0.23,-0.11 0.24,-0.1 0.24,-0.1 0.23,-0.1 0.24,-0.1 0.23,-0.1 0.24,-0.1 0.24,-0.09 0.23,-0.1 0.24,-0.1 0.23,-0.09 0.24,-0.1 0.24,-0.1 0.23,-0.09 0.24,-0.09 0.23,-0.1 0.24,-0.09 0.24,-0.09 0.23,-0.1 0.24,-0.09 0.23,-0.09 0.24,-0.09 0.24,-0.09 0.23,-0.09 0.24,-0.09 0.24,-0.09 0.23,-0.09 0.24,-0.09 0.23,-0.08 0.24,-0.09 0.24,-0.09 0.23,-0.09 0.24,-0.08 0.23,-0.09 0.24,-0.08 0.24,-0.09 0.23,-0.08 0.24,-0.08 0.23,-0.09 0.24,-0.08 0.24,-0.08 0.23,-0.09 0.24,-0.08 0.23,-0.08 0.24,-0.08 0.24,-0.08 0.23,-0.08 0.24,-0.08 0.23,-0.08 0.24,-0.08 0.24,-0.08 0.23,-0.08 0.24,-0.08 0.24,-0.07 0.23,-0.08 0.24,-0.08 0.23,-0.07 0.24,-0.08 0.24,-0.08 0.23,-0.07 0.24,-0.08 0.23,-0.07 0.24,-0.08 0.24,-0.07 0.23,-0.08 0.24,-0.07 0.23,-0.07 0.24,-0.08 0.24,-0.07 0.23,-0.07 0.24,-0.07 0.23,-0.07 0.24,-0.08 0.24,-0.07 0.23,-0.07 0.24,-0.07 0.23,-0.07 0.24,-0.07 0.24,-0.07 0.23,-0.07 0.24,-0.07 0.24,-0.07 0.23,-0.06 0.24,-0.07 0.23,-0.07 0.24,-0.07 0.24,-0.07 0.23,-0.06 0.24,-0.07 0.23,-0.07 0.24,-0.06 0.24,-0.07 0.23,-0.06 0.24,-0.07 0.23,-0.06 0.24,-0.07 0.24,-0.06 0.23,-0.07 0.24,-0.06 0.23,-0.07 0.24,-0.06 0.24,-0.06 0.23,-0.07 0.24,-0.06 0.23,-0.06 0.24,-0.06 0.24,-0.07 0.23,-0.06 0.24,-0.06 0.24,-0.06 0.23,-0.06 0.24,-0.06 0.23,-0.06 0.24,-0.07 0.24,-0.06 0.23,-0.06 0.24,-0.06 0.23,-0.05 0.24,-0.06 0.24,-0.06 0.23,-0.06 0.24,-0.06 0.23,-0.06 0.24,-0.06 0.24,-0.06 0.23,-0.05 0.24,-0.06 0.23,-0.06 0.24,-0.06 0.24,-0.05 0.23,-0.06 0.24,-0.06 0.23,-0.05 0.24,-0.06 0.24,-0.06 0.23,-0.05 0.24,-0.06 0.24,-0.05 0.23,-0.06 0.24,-0.05 0.23,-0.06 0.24,-0.05 0.24,-0.06 0.23,-0.05 0.24,-0.05 0.23,-0.06 0.24,-0.05 0.24,-0.06 0.23,-0.05 0.24,-0.05 0.23,-0.05 0.24,-0.06 0.24,-0.05 0.23,-0.05 0.24,-0.05 0.23,-0.06 0.24,-0.05 0.24,-0.05 0.23,-0.05 0.24,-0.05 0.23,-0.05 0.24,-0.06 0.24,-0.05 0.23,-0.05 0.24,-0.05 0.24,-0.05 0.23,-0.05 0.24,-0.05 0.23,-0.05 0.24,-0.05 0.24,-0.05 0.23,-0.05 0.24,-0.05 0.23,-0.04 0.24,-0.05 0.24,-0.05 0.23,-0.05 0.24,-0.05 0.23,-0.05 0.24,-0.05 0.24,-0.04 0.23,-0.05 0.24,-0.05 0.23,-0.05 0.24,-0.04 0.24,-0.05 0.23,-0.05 0.24,-0.04 0.23,-0.05 0.24,-0.05 0.24,-0.04 0.23,-0.05 0.24,-0.05 0.23,-0.04 0.24,-0.05 0.24,-0.04 0.23,-0.05 0.24,-0.05 0.24,-0.04 0.23,-0.05 0.24,-0.04 0.23,-0.05 0.24,-0.04 0.24,-0.05 0.23,-0.04 0.24,-0.04 0.23,-0.05 0.24,-0.04 0.24,-0.05 0.23,-0.04 0.24,-0.04 0.23,-0.05 0.24,-0.04 0.24,-0.05 0.23,-0.04 0.24,-0.04 0.23,-0.04 0.24,-0.05 0.24,-0.04 0.23,-0.04 0.24,-0.05 0.23,-0.04 0.24,-0.04 0.24,-0.04 0.23,-0.04 0.24,-0.05 0.24,-0.04 0.23,-0.04 0.24,-0.04 0.23,-0.04 0.24,-0.04 0.24,-0.04 0.23,-0.05 0.24,-0.04 0.23,-0.04 0.24,-0.04 0.24,-0.04 0.23,-0.04 0.24,-0.04 0.23,-0.04 0.24,-0.04 0.24,-0.04 0.23,-0.04 0.24,-0.04 0.23,-0.04 0.24,-0.04 0.24,-0.04 0.23,-0.04 0.24,-0.04 0.23,-0.04 0.24,-0.03 0.24,-0.04 0.23,-0.04 0.24,-0.04 0.24,-0.04 0.23,-0.04 0.24,-0.04 0.23,-0.03 0.24,-0.04 0.24,-0.04 0.23,-0.04 0.24,-0.04 0.23,-0.03 0.24,-0.04 0.24,-0.04 0.23,-0.04 0.24,-0.03 0.23,-0.04 0.24,-0.04 0.24,-0.04 0.23,-0.03 0.24,-0.04 0.23,-0.04 0.24,-0.03 0.24,-0.04 0.23,-0.04 0.24,-0.03 0.23,-0.04 0.24,-0.04 0.24,-0.03 0.23,-0.04 0.24,-0.03 0.24,-0.04 0.23,-0.04 0.24,-0.03 0.23,-0.04 0.24,-0.03 0.24,-0.04 0.23,-0.03 0.24,-0.04 0.23,-0.03 0.24,-0.04 0.24,-0.03 0.23,-0.04 0.24,-0.03 0.23,-0.04 0.24,-0.03 0.24,-0.04 0.23,-0.03 0.24,-0.04 0.23,-0.03 0.24,-0.03 0.24,-0.04 0.23,-0.03 0.24,-0.04 0.23,-0.03 0.24,-0.03 0.24,-0.04 0.23,-0.03 0.24,-0.04 0.24,-0.03 0.23,-0.03 0.24,-0.04 0.23,-0.03 0.24,-0.03 0.24,-0.03 0.23,-0.04 0.24,-0.03 0.23,-0.03 0.24,-0.04 0.24,-0.03 0.23,-0.03 0.24,-0.03 0.23,-0.04 0.24,-0.03 0.24,-0.03 0.23,-0.03 0.24,-0.04 0.23,-0.03 0.24,-0.03 0.24,-0.03 0.23,-0.03 0.24,-0.04 0.23,-0.03 0.24,-0.03 0.24,-0.03 0.23,-0.03 0.24,-0.03 0.24,-0.03 0.23,-0.04 0.24,-0.03 0.23,-0.03 0.24,-0.03 0.24,-0.03 0.23,-0.03 0.24,-0.03 0.23,-0.03 0.24,-0.03 0.24,-0.03 0.23,-0.03 0.24,-0.03 0.23,-0.03 0.24,-0.04 0.24,-0.03 0.23,-0.03 0.24,-0.03 0.23,-0.03 0.24,-0.03 0.24,-0.03 0.23,-0.03 0.24,-0.03 0.23,-0.03 0.24,-0.03 0.24,-0.02 0.23,-0.03 0.24,-0.03 0.24,-0.03 0.23,-0.03 0.24,-0.03 0.23,-0.03 0.24,-0.03 0.24,-0.03 0.23,-0.03 0.24,-0.03 0.23,-0.03 0.24,-0.02 0.24,-0.03 0.23,-0.03 0.24,-0.03 0.23,-0.03 0.24,-0.03 0.24,-0.03 0.23,-0.03 0.24,-0.02 0.23,-0.03 0.24,-0.03 0.24,-0.03 0.23,-0.03 0.24,-0.02 0.23,-0.03 0.24,-0.03 0.24,-0.03 0.23,-0.03 0.24,-0.02 0.24,-0.03 0.23,-0.03 0.24,-0.03 0.23,-0.02 0.24,-0.03 0.24,-0.03 0.23,-0.03 0.24,-0.02 0.23,-0.03 0.24,-0.03 0.24,-0.03 0.23,-0.02 0.24,-0.03 0.23,-0.03 0.24,-0.02 0.24,-0.03 0.23,-0.03 0.24,-0.02 0.23,-0.03 0.24,-0.03 0.24,-0.02 0.23,-0.03 0.24,-0.03 0.23,-0.02 0.24,-0.03 0.24,-0.03 0.23,-0.02 0.24,-0.03 0.23,-0.02 0.24,-0.03 0.24,-0.03 0.23,-0.02 0.24,-0.03 0.24,-0.02 0.23,-0.03 0.24,-0.03 0.23,-0.02 0.24,-0.03 0.24,-0.02 0.23,-0.03 0.24,-0.02 0.23,-0.03 0.24,-0.03 0.24,-0.02 0.23,-0.03 0.24,-0.02 0.23,-0.03 0.24,-0.02 0.24,-0.03 0.23,-0.02 0.24,-0.03 0.23,-0.02 0.24,-0.03 0.24,-0.02 0.23,-0.03 0.24,-0.02 0.23,-0.03 0.24,-0.02 0.24,-0.03 0.23,-0.02 0.24,-0.02 0.24,-0.03 0.23,-0.02 0.24,-0.03 0.23,-0.02 0.24,-0.03 0.24,-0.02 0.23,-0.03 0.24,-0.02 0.23,-0.02 0.24,-0.03 0.24,-0.02 0.23,-0.03 0.24,-0.02 0.23,-0.02 0.24,-0.03 0.24,-0.02 0.23,-0.03 0.24,-0.02 0.23,-0.02 0.24,-0.03 0.24,-0.02 0.23,-0.02 0.24,-0.03 0.23,-0.02 0.24,-0.02 0.24,-0.03 0.23,-0.02 0.24,-0.02 0.24,-0.03 0.23,-0.02 0.24,-0.02 0.23,-0.03 0.24,-0.02 0.24,-0.02 0.23,-0.03 0.24,-0.02 0.23,-0.02 0.24,-0.03 0.24,-0.02 0.23,-0.02 0.24,-0.02" />
          <path
             inkscape:connector-curvature="0"
             id="path8015"
             style="fill:none;stroke:#756156;stroke-width:4.26999998;stroke-linecap:butt;stroke-linejoin:round;stroke-miterlimit:10;stroke-dasharray:8.54, 8.53999999999999915;stroke-dashoffset:0;stroke-opacity:1"
             d="m 55.01,82.5 0.24,-0.59 0.23,-0.58 0.24,-0.54 0.23,-0.52 0.24,-0.5 0.24,-0.48 0.23,-0.47 0.24,-0.44 0.23,-0.43 0.24,-0.41 0.24,-0.4 0.23,-0.38 0.24,-0.38 0.23,-0.36 0.24,-0.34 0.24,-0.34 0.23,-0.33 0.24,-0.32 0.23,-0.31 0.24,-0.3 0.24,-0.29 0.23,-0.28 0.24,-0.28 0.23,-0.27 0.24,-0.26 0.24,-0.26 0.23,-0.25 0.24,-0.24 0.24,-0.24 0.23,-0.24 0.24,-0.22 0.23,-0.23 0.24,-0.21 0.24,-0.22 0.23,-0.2 0.24,-0.21 0.23,-0.2 0.24,-0.19 0.24,-0.19 0.23,-0.19 0.24,-0.19 0.23,-0.18 0.24,-0.18 0.24,-0.17 0.23,-0.17 0.24,-0.17 0.23,-0.16 0.24,-0.17 0.24,-0.15 0.23,-0.16 0.24,-0.15 0.23,-0.16 0.24,-0.15 0.24,-0.14 0.23,-0.15 0.24,-0.14 0.24,-0.14 0.23,-0.13 0.24,-0.14 0.23,-0.13 0.24,-0.13 0.24,-0.13 0.23,-0.13 0.24,-0.13 0.23,-0.12 0.24,-0.12 0.24,-0.12 0.23,-0.12 0.24,-0.12 0.23,-0.11 0.24,-0.12 0.24,-0.11 0.23,-0.11 0.24,-0.11 0.23,-0.11 0.24,-0.1 0.24,-0.11 0.23,-0.1 0.24,-0.11 0.23,-0.1 0.24,-0.1 0.24,-0.1 0.23,-0.09 0.24,-0.1 0.24,-0.1 0.23,-0.09 0.24,-0.09 0.23,-0.1 0.24,-0.09 0.24,-0.09 0.23,-0.09 0.24,-0.09 0.23,-0.08 0.24,-0.09 0.24,-0.08 0.23,-0.09 0.24,-0.08 0.23,-0.09 0.24,-0.08 0.24,-0.08 0.23,-0.08 0.24,-0.08 0.23,-0.08 0.24,-0.07 0.24,-0.08 0.23,-0.08 0.24,-0.07 0.23,-0.08 0.24,-0.07 0.24,-0.07 0.23,-0.08 0.24,-0.07 0.24,-0.07 0.23,-0.07 0.24,-0.07 0.23,-0.07 0.24,-0.07 0.24,-0.07 0.23,-0.06 0.24,-0.07 0.23,-0.07 0.24,-0.06 0.24,-0.07 0.23,-0.06 0.24,-0.07 0.23,-0.06 0.24,-0.06 0.24,-0.06 0.23,-0.07 0.24,-0.06 0.23,-0.06 0.24,-0.06 0.24,-0.06 0.23,-0.06 0.24,-0.06 0.23,-0.05 0.24,-0.06 0.24,-0.06 0.23,-0.06 0.24,-0.05 0.23,-0.06 0.24,-0.06 0.24,-0.05 0.23,-0.06 0.24,-0.05 0.24,-0.05 0.23,-0.06 0.24,-0.05 0.23,-0.05 0.24,-0.06 0.24,-0.05 0.23,-0.05 0.24,-0.05 0.23,-0.05 0.24,-0.05 0.24,-0.05 0.23,-0.05 0.24,-0.05 0.23,-0.05 0.24,-0.05 0.24,-0.05 0.23,-0.04 0.24,-0.05 0.23,-0.05 0.24,-0.05 0.24,-0.04 0.23,-0.05 0.24,-0.05 0.23,-0.04 0.24,-0.05 0.24,-0.04 0.23,-0.05 0.24,-0.04 0.24,-0.05 0.23,-0.04 0.24,-0.04 0.23,-0.05 0.24,-0.04 0.24,-0.04 0.23,-0.05 0.24,-0.04 0.23,-0.04 0.24,-0.04 0.24,-0.04 0.23,-0.04 0.24,-0.05 0.23,-0.04 0.24,-0.04 0.24,-0.04 0.23,-0.04 0.24,-0.04 0.23,-0.04 0.24,-0.04 0.24,-0.04 0.23,-0.03 0.24,-0.04 0.23,-0.04 0.24,-0.04 0.24,-0.04 0.23,-0.04 0.24,-0.03 0.24,-0.04 0.23,-0.04 0.24,-0.03 0.23,-0.04 0.24,-0.04 0.24,-0.03 0.23,-0.04 0.24,-0.04 0.23,-0.03 0.24,-0.04 0.24,-0.03 0.23,-0.04 0.24,-0.03 0.23,-0.04 0.24,-0.03 0.24,-0.04 0.23,-0.03 0.24,-0.03 0.23,-0.04 0.24,-0.03 0.24,-0.03 0.23,-0.04 0.24,-0.03 0.23,-0.03 0.24,-0.04 0.24,-0.03 0.23,-0.03 0.24,-0.03 0.24,-0.04 0.23,-0.03 0.24,-0.03 0.23,-0.03 0.24,-0.03 0.24,-0.03 0.23,-0.03 0.24,-0.04 0.23,-0.03 0.24,-0.03 0.24,-0.03 0.23,-0.03 0.24,-0.03 0.23,-0.03 0.24,-0.03 0.24,-0.03 0.23,-0.03 0.24,-0.03 0.23,-0.03 0.24,-0.03 0.24,-0.02 0.23,-0.03 0.24,-0.03 0.23,-0.03 0.24,-0.03 0.24,-0.03 0.23,-0.03 0.24,-0.02 0.24,-0.03 0.23,-0.03 0.24,-0.03 0.23,-0.03 0.24,-0.02 0.24,-0.03 0.23,-0.03 0.24,-0.02 0.23,-0.03 0.24,-0.03 0.24,-0.03 0.23,-0.02 0.24,-0.03 0.23,-0.02 0.24,-0.03 0.24,-0.03 0.23,-0.02 0.24,-0.03 0.23,-0.03 0.24,-0.02 0.24,-0.03 0.23,-0.02 0.24,-0.03 0.23,-0.02 0.24,-0.03 0.24,-0.02 0.23,-0.03 0.24,-0.02 0.24,-0.03 0.23,-0.02 0.24,-0.03 0.23,-0.02 0.24,-0.03 0.24,-0.02 0.23,-0.02 0.24,-0.03 0.23,-0.02 0.24,-0.03 0.24,-0.02 0.23,-0.02 0.24,-0.03 0.23,-0.02 0.24,-0.02 0.24,-0.03 0.23,-0.02 0.24,-0.02 0.23,-0.03 0.24,-0.02 0.24,-0.02 0.23,-0.02 0.24,-0.03 0.23,-0.02 0.24,-0.02 0.24,-0.02 0.23,-0.03 0.24,-0.02 0.24,-0.02 0.23,-0.02 0.24,-0.03 0.23,-0.02 0.24,-0.02 0.24,-0.02 0.23,-0.02 0.24,-0.02 0.23,-0.03 0.24,-0.02 0.24,-0.02 0.23,-0.02 0.24,-0.02 0.23,-0.02 0.24,-0.02 0.24,-0.02 0.23,-0.02 0.24,-0.03 0.23,-0.02 0.24,-0.02 0.24,-0.02 0.23,-0.02 0.24,-0.02 0.23,-0.02 0.24,-0.02 0.24,-0.02 0.23,-0.02 0.24,-0.02 0.24,-0.02 0.23,-0.02 0.24,-0.02 0.23,-0.02 0.24,-0.02 0.24,-0.02 0.23,-0.02 0.24,-0.02 0.23,-0.02 0.24,-0.02 0.24,-0.01 0.23,-0.02 0.24,-0.02 0.23,-0.02 0.24,-0.02 0.24,-0.02 0.23,-0.02 0.24,-0.02 0.23,-0.02 0.24,-0.01 0.24,-0.02 0.23,-0.02 0.24,-0.02 0.23,-0.02 0.24,-0.02 0.24,-0.02 0.23,-0.01 0.24,-0.02 0.24,-0.02 0.23,-0.02 0.24,-0.02 0.23,-0.01 0.24,-0.02 0.24,-0.02 0.23,-0.02 0.24,-0.02 0.23,-0.01 0.24,-0.02 0.24,-0.02 0.23,-0.02 0.24,-0.01 0.23,-0.02 0.24,-0.02 0.24,-0.01 0.23,-0.02 0.24,-0.02 0.23,-0.02 0.24,-0.01 0.24,-0.02 0.23,-0.02 0.24,-0.01 0.23,-0.02 0.24,-0.02 0.24,-0.01 0.23,-0.02 0.24,-0.02 0.23,-0.01 0.24,-0.02 0.24,-0.02 0.23,-0.01 0.24,-0.02 0.24,-0.02 0.23,-0.01 0.24,-0.02 0.23,-0.02 0.24,-0.01 0.24,-0.02 0.23,-0.01 0.24,-0.02 0.23,-0.02 0.24,-0.01 0.24,-0.02 0.23,-0.01 0.24,-0.02 0.23,-0.01 0.24,-0.02 0.24,-0.02 0.23,-0.01 0.24,-0.02 0.23,-0.01 0.24,-0.02 0.24,-0.01 0.23,-0.02 0.24,-0.01 0.23,-0.02 0.24,-0.01 0.24,-0.02 0.23,-0.01 0.24,-0.02 0.24,-0.01 0.23,-0.02 0.24,-0.01 0.23,-0.02 0.24,-0.01 0.24,-0.02 0.23,-0.01 0.24,-0.02 0.23,-0.01 0.24,-0.02 0.24,-0.01 0.23,-0.02 0.24,-0.01 0.23,-0.02 0.24,-0.01 0.24,-0.01 0.23,-0.02 0.24,-0.01 0.23,-0.02 0.24,-0.01 0.24,-0.02 0.23,-0.01 0.24,-0.01 0.23,-0.02 0.24,-0.01 0.24,-0.02 0.23,-0.01 0.24,-0.01 0.24,-0.02 0.23,-0.01 0.24,-0.02 0.23,-0.01 0.24,-0.01 0.24,-0.02 0.23,-0.01 0.24,-0.01 0.23,-0.02 0.24,-0.01 0.24,-0.02 0.23,-0.01 0.24,-0.01 0.23,-0.02 0.24,-0.01 0.24,-0.01 0.23,-0.02 0.24,-0.01 0.23,-0.01 0.24,-0.02 0.24,-0.01 0.23,-0.01 0.24,-0.02 0.23,-0.01 0.24,-0.01 0.24,-0.01 0.23,-0.02 0.24,-0.01 0.24,-0.01 0.23,-0.02 0.24,-0.01 0.23,-0.01 0.24,-0.01 0.24,-0.02 0.23,-0.01 0.24,-0.01 0.23,-0.02 0.24,-0.01 0.24,-0.01 0.23,-0.01 0.24,-0.02 0.23,-0.01 0.24,-0.01 0.24,-0.01 0.23,-0.02 0.24,-0.01 0.23,-0.01 0.24,-0.01 0.24,-0.01 0.23,-0.02 0.24,-0.01 0.23,-0.01 0.24,-0.01 0.24,-0.02 0.23,-0.01 0.24,-0.01 0.24,-0.01 0.23,-0.01 0.24,-0.02 0.23,-0.01 0.24,-0.01 0.24,-0.01 0.23,-0.01 0.24,-0.02 0.23,-0.01 0.24,-0.01 0.24,-0.01 0.23,-0.01 0.24,-0.01 0.23,-0.02 0.24,-0.01 0.24,-0.01 0.23,-0.01 0.24,-0.01 0.23,-0.01 0.24,-0.02 0.24,-0.01 0.23,-0.01 0.24,-0.01 0.23,-0.01 0.24,-0.01 0.24,-0.01 0.23,-0.02 0.24,-0.01 0.24,-0.01 0.23,-0.01 0.24,-0.01 0.23,-0.01 0.24,-0.01 0.24,-0.01 0.23,-0.02 0.24,-0.01 0.23,-0.01 0.24,-0.01 0.24,-0.01 0.23,-0.01 0.24,-0.01 0.23,-0.01 0.24,-0.01 0.24,-0.01 0.23,-0.02 0.24,-0.01 0.23,-0.01 0.24,-0.01 0.24,-0.01 0.23,-0.01 0.24,-0.01 0.23,-0.01 0.24,-0.01 0.24,-0.01 0.23,-0.01 0.24,-0.01 0.24,-0.01 0.23,-0.01 0.24,-0.02 0.23,-0.01 0.24,-0.01 0.24,-0.01 0.23,-0.01 0.24,-0.01 0.23,-0.01 0.24,-0.01 0.24,-0.01 0.23,-0.01 0.24,-0.01 0.23,-0.01 0.24,-0.01 0.24,-0.01 0.23,-0.01 0.24,-0.01 0.23,-0.01 0.24,-0.01 0.24,-0.01 0.23,-0.01 0.24,-0.01 0.23,-0.01 0.24,-0.01 0.24,-0.01 0.23,-0.01 0.24,-0.01 0.24,-0.01 0.23,-0.01 0.24,-0.01 0.23,-0.01 0.24,-0.01 0.24,-0.01 0.23,-0.01 0.24,-0.01 0.23,-0.01 0.24,-0.01 0.24,-0.01 0.23,-0.01 0.24,-0.01 0.23,-0.01 0.24,-0.01 0.24,-0.01 0.23,-0.01 0.24,-0.01 0.23,-0.01 0.24,-0.01 0.24,-0.01 0.23,-0.01 0.24,-0.01 0.23,-0.01 h 0.24 l 0.24,-0.01 0.23,-0.01 0.24,-0.01 0.23,-0.01 0.24,-0.01 0.24,-0.01 0.23,-0.01 0.24,-0.01 0.24,-0.01 0.23,-0.01 0.24,-0.01 0.23,-0.01 0.24,-0.01 0.24,-0.01 h 0.23 l 0.24,-0.01 0.23,-0.01 0.24,-0.01 0.24,-0.01 0.23,-0.01 0.24,-0.01 0.23,-0.01 0.24,-0.01 0.24,-0.01 0.23,-0.01 0.24,-0.01 h 0.23 l 0.24,-0.01 0.24,-0.01 0.23,-0.01 0.24,-0.01 0.23,-0.01 0.24,-0.01 0.24,-0.01 0.23,-0.01 h 0.24 l 0.24,-0.01 0.23,-0.01 0.24,-0.01 0.23,-0.01 0.24,-0.01 0.24,-0.01 0.23,-0.01 h 0.24 l 0.23,-0.01 0.24,-0.01 0.24,-0.01 0.23,-0.01 0.24,-0.01 0.23,-0.01 0.24,-0.01 h 0.24 l 0.23,-0.01 0.24,-0.01 0.23,-0.01 0.24,-0.01 0.24,-0.01 h 0.23 l 0.24,-0.01 0.23,-0.01 0.24,-0.01 0.24,-0.01 0.23,-0.01 0.24,-0.01 h 0.24 l 0.23,-0.01 0.24,-0.01 0.23,-0.01 0.24,-0.01 0.24,-0.01 h 0.23 l 0.24,-0.01 0.23,-0.01 0.24,-0.01 0.24,-0.01 0.23,-0.01 h 0.24" />
        </g>
      </g>
      <g
         id="g8017" />
      <g
         id="g8019" />
      <g
         id="g8021" />
      <g
         id="g8023" />
      <g
         id="g8025" />
      <g
         id="g8027" />
      <g
         id="g8029" />
      <g
         id="g8031" />
      <g
         id="g8033" />
      <g
         id="g8035" />
      <g
         id="g8037" />
      <g
         id="g8039" />
      <g
         id="g8041" />
      <g
         id="g8043" />
      <g
         id="g8045" />
      <g
         id="g8047">
        <text
           id="text8051"
           style="font-variant:normal;font-weight:normal;font-size:10px;font-family:Helvetica;-inkscape-font-specification:Helvetica;writing-mode:lr-tb;fill:#000000;fill-opacity:1;fill-rule:nonzero;stroke:none"
           transform="matrix(0,1,1,0,39.62,50.93)">
          <tspan
             id="tspan8049"
             y="0"
             x="0">0</tspan>
        </text>
        <text
           id="text8055"
           style="font-variant:normal;font-weight:normal;font-size:10px;font-family:Helvetica;-inkscape-font-specification:Helvetica;writing-mode:lr-tb;fill:#000000;fill-opacity:1;fill-rule:nonzero;stroke:none"
           transform="matrix(0,1,1,0,39.62,97.24)">
          <tspan
             id="tspan8053"
             sodipodi:role="line"
             y="0"
             x="0 5.5599999">50</tspan>
        </text>
        <text
           id="text8059"
           style="font-variant:normal;font-weight:normal;font-size:10px;font-family:Helvetica;-inkscape-font-specification:Helvetica;writing-mode:lr-tb;fill:#000000;fill-opacity:1;fill-rule:nonzero;stroke:none"
           transform="matrix(0,1,1,0,39.62,143.54)">
          <tspan
             id="tspan8057"
             sodipodi:role="line"
             y="0"
             x="0 5.5599999 11.12">100</tspan>
        </text>
        <text
           id="text8063"
           style="font-variant:normal;font-weight:normal;font-size:10px;font-family:Helvetica;-inkscape-font-specification:Helvetica;writing-mode:lr-tb;fill:#000000;fill-opacity:1;fill-rule:nonzero;stroke:none"
           transform="matrix(0,1,1,0,39.62,192.63)">
          <tspan
             id="tspan8061"
             sodipodi:role="line"
             y="0"
             x="0 5.5599999 11.12">150</tspan>
        </text>
      </g>
      <g
         id="g8065" />
      <g
         id="g8067">
        <path
           inkscape:connector-curvature="0"
           id="path8069"
           style="fill:none;stroke:#333333;stroke-width:1.07000005;stroke-linecap:butt;stroke-linejoin:round;stroke-miterlimit:10;stroke-dasharray:none;stroke-opacity:1"
           d="m 44.01,53.71 h 2.74" />
        <path
           inkscape:connector-curvature="0"
           id="path8071"
           style="fill:none;stroke:#333333;stroke-width:1.07000005;stroke-linecap:butt;stroke-linejoin:round;stroke-miterlimit:10;stroke-dasharray:none;stroke-opacity:1"
           d="m 44.01,102.8 h 2.74" />
        <path
           inkscape:connector-curvature="0"
           id="path8073"
           style="fill:none;stroke:#333333;stroke-width:1.07000005;stroke-linecap:butt;stroke-linejoin:round;stroke-miterlimit:10;stroke-dasharray:none;stroke-opacity:1"
           d="m 44.01,151.88 h 2.74" />
        <path
           inkscape:connector-curvature="0"
           id="path8075"
           style="fill:none;stroke:#333333;stroke-width:1.07000005;stroke-linecap:butt;stroke-linejoin:round;stroke-miterlimit:10;stroke-dasharray:none;stroke-opacity:1"
           d="m 44.01,200.97 h 2.74" />
      </g>
      <g
         id="g8077" />
      <g
         id="g8079" />
      <g
         id="g8081" />
      <g
         id="g8083" />
      <g
         id="g8085" />
      <g
         id="g8087" />
      <g
         id="g8089" />
      <g
         id="g8091" />
      <g
         id="g8093" />
      <g
         id="g8095">
        <path
           inkscape:connector-curvature="0"
           id="path8097"
           style="fill:none;stroke:#333333;stroke-width:1.07000005;stroke-linecap:butt;stroke-linejoin:round;stroke-miterlimit:10;stroke-dasharray:none;stroke-opacity:1"
           d="m 48.64,31.05 v 2.74" />
        <path
           inkscape:connector-curvature="0"
           id="path8099"
           style="fill:none;stroke:#333333;stroke-width:1.07000005;stroke-linecap:butt;stroke-linejoin:round;stroke-miterlimit:10;stroke-dasharray:none;stroke-opacity:1"
           d="m 91.12,31.05 v 2.74" />
        <path
           inkscape:connector-curvature="0"
           id="path8101"
           style="fill:none;stroke:#333333;stroke-width:1.07000005;stroke-linecap:butt;stroke-linejoin:round;stroke-miterlimit:10;stroke-dasharray:none;stroke-opacity:1"
           d="m 133.6,31.05 v 2.74" />
        <path
           inkscape:connector-curvature="0"
           id="path8103"
           style="fill:none;stroke:#333333;stroke-width:1.07000005;stroke-linecap:butt;stroke-linejoin:round;stroke-miterlimit:10;stroke-dasharray:none;stroke-opacity:1"
           d="m 176.08,31.05 v 2.74" />
        <path
           inkscape:connector-curvature="0"
           id="path8105"
           style="fill:none;stroke:#333333;stroke-width:1.07000005;stroke-linecap:butt;stroke-linejoin:round;stroke-miterlimit:10;stroke-dasharray:none;stroke-opacity:1"
           d="m 218.56,31.05 v 2.74" />
      </g>
      <g
         id="g8107" />
      <g
         id="g8109">
        <text
           id="text8113"
           style="font-variant:normal;font-weight:normal;font-size:10px;font-family:Helvetica;-inkscape-font-specification:Helvetica;writing-mode:lr-tb;fill:#4d4d4d;fill-opacity:1;fill-rule:nonzero;stroke:none"
           transform="matrix(1,0,0,-1,45.86,21.68)">
          <tspan
             id="tspan8111"
             y="0"
             x="0">0</tspan>
        </text>
        <text
           id="text8117"
           style="font-variant:normal;font-weight:normal;font-size:10px;font-family:Helvetica;-inkscape-font-specification:Helvetica;writing-mode:lr-tb;fill:#4d4d4d;fill-opacity:1;fill-rule:nonzero;stroke:none"
           transform="matrix(1,0,0,-1,82.78,21.68)">
          <tspan
             id="tspan8115"
             sodipodi:role="line"
             y="0"
             x="0 5.5599999 11.12">100</tspan>
        </text>
        <text
           id="text8121"
           style="font-variant:normal;font-weight:normal;font-size:10px;font-family:Helvetica;-inkscape-font-specification:Helvetica;writing-mode:lr-tb;fill:#4d4d4d;fill-opacity:1;fill-rule:nonzero;stroke:none"
           transform="matrix(1,0,0,-1,125.26,21.68)">
          <tspan
             id="tspan8119"
             sodipodi:role="line"
             y="0"
             x="0 5.5599999 11.12">200</tspan>
        </text>
        <text
           id="text8125"
           style="font-variant:normal;font-weight:normal;font-size:10px;font-family:Helvetica;-inkscape-font-specification:Helvetica;writing-mode:lr-tb;fill:#4d4d4d;fill-opacity:1;fill-rule:nonzero;stroke:none"
           transform="matrix(1,0,0,-1,167.74,21.68)">
          <tspan
             id="tspan8123"
             sodipodi:role="line"
             y="0"
             x="0 5.5599999 11.12">300</tspan>
        </text>
        <text
           id="text8129"
           style="font-variant:normal;font-weight:normal;font-size:10px;font-family:Helvetica;-inkscape-font-specification:Helvetica;writing-mode:lr-tb;fill:#4d4d4d;fill-opacity:1;fill-rule:nonzero;stroke:none"
           transform="matrix(1,0,0,-1,210.22,21.68)">
          <tspan
             id="tspan8127"
             sodipodi:role="line"
             y="0"
             x="0 5.5599999 11.12">400</tspan>
        </text>
      </g>
      <g
         id="g8131" />
      <g
         id="g8133" />
      <g
         id="g8135" />
      <g
         id="g8137" />
      <g
         id="g8139" />
      <g
         id="g8141">
        <text
           id="text8145"
           style="font-variant:normal;font-weight:normal;font-size:12px;font-family:Helvetica;-inkscape-font-specification:Helvetica;writing-mode:lr-tb;fill:#000000;fill-opacity:1;fill-rule:nonzero;stroke:none"
           transform="matrix(1,0,0,-1,30.67,8.12)">
          <tspan
             id="tspan8143"
             sodipodi:role="line"
             y="0"
             x="0 9.9960003 12.66 19.332001 21.996 31.872 38.543999 48.540001 51.875999 58.548 61.212002 67.211998 70.547997 77.220001 83.891998 89.891998 96.564003 99.900002 103.236 107.232 113.904 123.9 127.236 133.23599 139.908 146.58 153.252 156.588 162.588 169.25999 175.93201 179.92799 185.92799 192.60001 195.936 199.93201 209.92799">Minimum distance from seed source (m)</tspan>
        </text>
      </g>
      <g
         id="g8147" />
      <g
         id="g8149">
        <text
           id="text8153"
           style="font-variant:normal;font-weight:normal;font-size:12px;font-family:Helvetica;-inkscape-font-specification:Helvetica;writing-mode:lr-tb;fill:#000000;fill-opacity:1;fill-rule:nonzero;stroke:none"
           transform="matrix(0,1,1,0,14.1,91.67)">
          <tspan
             id="tspan8151"
             sodipodi:role="line"
             y="0"
             x="0 8.0039997 14.676 21.348 28.02 30.684 33.348 40.02 46.692001 50.028 58.692001 65.363998 72.036003 78.036003 80.699997 84.036003 90.036003">Seedling Density</tspan>
        </text>
        <text
           id="text8157"
           style="font-variant:normal;font-weight:normal;font-size:12px;font-family:Helvetica;-inkscape-font-specification:Helvetica;writing-mode:lr-tb;fill:#000000;fill-opacity:1;fill-rule:nonzero;stroke:none"
           transform="matrix(0,1,1,0,27.06,113.35)">
          <tspan
             id="tspan8155"
             sodipodi:role="line"
             y="0"
             x="0 3.9960001 6.6599998 13.332 20.004 26.004 29.34 32.675999 39.348 46.02">(indv./ha)</tspan>
        </text>
      </g>
      <g
         id="g8159" />
      <g
         id="g8161" />
      <g
         id="g8163" />
      <g
         id="g8165" />
      <g
         id="g8167" />
      <g
         id="g8169" />
      <g
         id="g8171" />
      <g
         id="g8173" />
      <g
         id="g8175" />
      <g
         id="g8177" />
      <g
         id="g8179" />
      <g
         id="g8181" />
    </g>
    <text
       id="text5068"
       style="font-style:normal;font-variant:normal;font-weight:normal;font-stretch:normal;font-size:3.52777767px;font-family:Helvetica;-inkscape-font-specification:'Helvetica, Normal';font-variant-ligatures:normal;font-variant-caps:normal;font-variant-numeric:normal;font-feature-settings:normal;text-align:start;writing-mode:lr-tb;text-anchor:start;fill:#000000;fill-opacity:1;fill-rule:nonzero;stroke:none;stroke-width:0.35277775"
       x="103.0351"
       y="61.085091">
      <tspan
         style="stroke-width:0.35277775"
         sodipodi:role="line"
         id="tspan5402"
         x="103.0351"
         y="61.085091">Planted</tspan>
    </text>
    <text
       id="text5082"
       style="font-style:normal;font-variant:normal;font-weight:normal;font-stretch:normal;font-size:3.52777767px;font-family:Helvetica;-inkscape-font-specification:'Helvetica, Normal';font-variant-ligatures:normal;font-variant-caps:normal;font-variant-numeric:normal;font-feature-settings:normal;text-align:start;writing-mode:lr-tb;text-anchor:start;fill:#000000;fill-opacity:1;fill-rule:nonzero;stroke:none;stroke-width:0.35277775"
       x="102.69643"
       y="66.655273">
      <tspan
         style="stroke-width:0.35277775"
         sodipodi:role="line"
         id="tspan5404"
         x="102.69643"
         y="66.655273">Unplanted</tspan>
    </text>
    <path
       style="fill:#6d7274;fill-opacity:1;stroke:#756156;stroke-width:1.07639873px;stroke-linecap:round;stroke-linejoin:miter;stroke-opacity:1"
       d="m 121.33785,59.73112 8.03975,6e-4"
       id="path7395"
       inkscape:connector-curvature="0"
       sodipodi:nodetypes="cc" />
    <path
       style="fill:#6d7274;fill-opacity:1;stroke:#756156;stroke-width:1.07599998;stroke-linecap:butt;stroke-linejoin:miter;stroke-miterlimit:4;stroke-dasharray:2.15199994, 1.07599997000000003;stroke-dashoffset:0;stroke-opacity:1"
       d="m 121.3374,65.374815 8.03975,6.08e-4"
       id="path7395-1"
       inkscape:connector-curvature="0"
       sodipodi:nodetypes="cc" />
  </g>
</svg>
