<?xml version="1.0" encoding="UTF-8" standalone="no"?>
<!-- Created with Inkscape (http://www.inkscape.org/) -->

<svg
   xmlns:dc="http://purl.org/dc/elements/1.1/"
   xmlns:cc="http://creativecommons.org/ns#"
   xmlns:rdf="http://www.w3.org/1999/02/22-rdf-syntax-ns#"
   xmlns:svg="http://www.w3.org/2000/svg"
   xmlns="http://www.w3.org/2000/svg"
   xmlns:sodipodi="http://sodipodi.sourceforge.net/DTD/sodipodi-0.dtd"
   xmlns:inkscape="http://www.inkscape.org/namespaces/inkscape"
   width="82.927467mm"
   height="88.007469mm"
   viewBox="0 0 82.927467 88.007469"
   version="1.1"
   id="svg8525"
   inkscape:version="0.92.3 (2405546, 2018-03-11)"
   sodipodi:docname="twi_comp.svg"
   inkscape:export-filename="C:\Users\Quinn Sorenson\Documents\R\Git_R\postfire-management\figures\manuscript\twi_comp.png"
   inkscape:export-xdpi="400"
   inkscape:export-ydpi="400">
  <defs
     id="defs8519">
    <clipPath
       id="clipPath9112"
       clipPathUnits="userSpaceOnUse">
      <path
         inkscape:connector-curvature="0"
         id="path9110"
         d="M 33.79,33.79 H 228.52 V 242.92 H 33.79 Z" />
    </clipPath>
  </defs>
  <sodipodi:namedview
     id="base"
     pagecolor="#ffffff"
     bordercolor="#666666"
     borderopacity="1.0"
     inkscape:pageopacity="0.0"
     inkscape:pageshadow="2"
     inkscape:zoom="2.0993242"
     inkscape:cx="229.70012"
     inkscape:cy="140.86104"
     inkscape:document-units="mm"
     inkscape:current-layer="layer1"
     showgrid="false"
     inkscape:window-width="1920"
     inkscape:window-height="1001"
     inkscape:window-x="-9"
     inkscape:window-y="-9"
     inkscape:window-maximized="1" />
  <metadata
     id="metadata8522">
    <rdf:RDF>
      <cc:Work
         rdf:about="">
        <dc:format>image/svg+xml</dc:format>
        <dc:type
           rdf:resource="http://purl.org/dc/dcmitype/StillImage" />
        <dc:title></dc:title>
      </cc:Work>
    </rdf:RDF>
  </metadata>
  <g
     inkscape:label="Layer 1"
     inkscape:groupmode="layer"
     id="layer1"
     transform="translate(-23.548166,-23.186736)">
    <g
       transform="matrix(0.35277777,0,0,-0.35277777,23.736902,111.00547)"
       inkscape:label="twi_comp"
       id="g9078">
      <g
         id="g9080" />
      <g
         id="g9082" />
      <g
         id="g9084" />
      <g
         id="g9086" />
      <g
         id="g9088" />
      <g
         id="g9090" />
      <g
         id="g9092" />
      <g
         id="g9094" />
      <g
         id="g9096" />
      <g
         id="g9098" />
      <g
         id="g9100">
        <path
           inkscape:connector-curvature="0"
           id="path9102"
           style="fill:#ffffff;fill-opacity:1;fill-rule:nonzero;stroke:#ffffff;stroke-width:1.07000005;stroke-linecap:round;stroke-linejoin:round;stroke-miterlimit:10;stroke-dasharray:none;stroke-opacity:1"
           d="M 0,0 H 234 V 248.4 H 0 Z" />
      </g>
      <g
         id="g9104" />
      <g
         id="g9106">
        <g
           clip-path="url(#clipPath9112)"
           id="g9108">
          <path
             inkscape:connector-curvature="0"
             id="path9114"
             style="fill:none;stroke:#000000;stroke-width:1.07000005;stroke-linecap:round;stroke-linejoin:round;stroke-miterlimit:10;stroke-dasharray:none;stroke-opacity:1"
             d="M 33.79,33.79 H 228.52 V 242.92 H 33.79 Z" />
          <path
             inkscape:connector-curvature="0"
             id="path9116"
             style="fill:#1c629c;fill-opacity:0.14900004;fill-rule:nonzero;stroke:none"
             d="m 42.64,233.41 0.25,-0.04 0.25,-0.04 0.26,-0.04 0.25,-0.04 0.25,-0.04 0.26,-0.05 0.25,-0.04 0.25,-0.04 0.25,-0.04 0.26,-0.05 0.25,-0.04 0.25,-0.04 0.26,-0.05 0.25,-0.04 0.25,-0.04 0.25,-0.05 0.26,-0.04 0.25,-0.04 0.25,-0.05 0.26,-0.04 0.25,-0.04 0.25,-0.05 0.25,-0.04 0.26,-0.05 0.25,-0.04 0.25,-0.05 0.26,-0.04 0.25,-0.04 0.25,-0.05 0.26,-0.04 0.25,-0.05 0.25,-0.04 0.25,-0.05 0.26,-0.04 0.25,-0.05 0.25,-0.05 0.26,-0.04 0.25,-0.05 0.25,-0.04 0.25,-0.05 0.26,-0.05 0.25,-0.04 0.25,-0.05 0.26,-0.04 0.25,-0.05 0.25,-0.05 0.25,-0.04 0.26,-0.05 0.25,-0.05 0.25,-0.05 0.26,-0.04 0.25,-0.05 0.25,-0.05 0.25,-0.04 0.26,-0.05 0.25,-0.05 0.25,-0.05 0.26,-0.05 0.25,-0.04 0.25,-0.05 0.26,-0.05 0.25,-0.05 0.25,-0.05 0.25,-0.05 0.26,-0.04 0.25,-0.05 0.25,-0.05 0.26,-0.05 0.25,-0.05 0.25,-0.05 0.25,-0.05 0.26,-0.05 0.25,-0.05 0.25,-0.05 0.26,-0.05 0.25,-0.05 0.25,-0.04 0.25,-0.05 0.26,-0.05 0.25,-0.06 0.25,-0.05 0.26,-0.05 0.25,-0.05 0.25,-0.05 0.25,-0.05 0.26,-0.05 0.25,-0.05 0.25,-0.05 0.26,-0.05 0.25,-0.05 0.25,-0.05 0.26,-0.05 0.25,-0.05 0.25,-0.06 0.25,-0.05 0.26,-0.05 0.25,-0.05 0.25,-0.05 0.26,-0.05 0.25,-0.06 0.25,-0.05 0.25,-0.05 0.26,-0.05 0.25,-0.05 0.25,-0.06 0.26,-0.05 0.25,-0.05 0.25,-0.05 0.25,-0.06 0.26,-0.05 0.25,-0.05 0.25,-0.06 0.26,-0.05 0.25,-0.05 0.25,-0.06 0.25,-0.05 0.26,-0.05 0.25,-0.05 0.25,-0.06 0.26,-0.05 0.25,-0.06 0.25,-0.05 0.26,-0.05 0.25,-0.06 0.25,-0.05 0.25,-0.05 0.26,-0.06 0.25,-0.05 0.25,-0.06 0.26,-0.05 0.25,-0.06 0.25,-0.05 0.25,-0.05 0.26,-0.06 0.25,-0.05 0.25,-0.06 0.26,-0.05 0.25,-0.06 0.25,-0.05 0.25,-0.06 0.26,-0.05 0.25,-0.06 0.25,-0.05 0.26,-0.06 0.25,-0.05 0.25,-0.06 0.25,-0.05 0.26,-0.06 0.25,-0.05 0.25,-0.06 0.26,-0.05 0.25,-0.06 0.25,-0.05 0.25,-0.06 0.26,-0.06 0.25,-0.05 0.25,-0.06 0.26,-0.05 0.25,-0.06 0.25,-0.05 0.26,-0.06 0.25,-0.06 0.25,-0.05 0.25,-0.06 0.26,-0.05 0.25,-0.06 0.25,-0.06 0.26,-0.05 0.25,-0.06 0.25,-0.06 0.25,-0.05 0.26,-0.06 0.25,-0.05 0.25,-0.06 0.26,-0.06 0.25,-0.05 0.25,-0.06 0.25,-0.06 0.26,-0.05 0.25,-0.06 0.25,-0.06 0.26,-0.05 0.25,-0.06 0.25,-0.06 0.25,-0.05 0.26,-0.06 0.25,-0.06 0.25,-0.05 0.26,-0.06 0.25,-0.06 0.25,-0.06 0.26,-0.05 0.25,-0.06 0.25,-0.06 0.25,-0.05 0.26,-0.06 0.25,-0.06 0.25,-0.05 0.26,-0.06 0.25,-0.06 0.25,-0.06 0.25,-0.05 0.26,-0.06 0.25,-0.06 0.25,-0.05 0.26,-0.06 0.25,-0.06 0.25,-0.06 0.25,-0.05 0.26,-0.06 0.25,-0.06 0.25,-0.05 0.26,-0.06 0.25,-0.06 0.25,-0.06 0.25,-0.05 0.26,-0.06 0.25,-0.06 0.25,-0.05 0.26,-0.06 0.25,-0.06 0.25,-0.06 0.26,-0.05 0.25,-0.06 0.25,-0.06 0.25,-0.05 0.26,-0.06 0.25,-0.06 0.25,-0.06 0.26,-0.05 0.25,-0.06 0.25,-0.06 0.25,-0.06 0.26,-0.05 0.25,-0.06 0.25,-0.06 0.26,-0.05 0.25,-0.06 0.25,-0.06 0.25,-0.06 0.26,-0.05 0.25,-0.06 0.25,-0.06 0.26,-0.05 0.25,-0.06 0.25,-0.06 0.25,-0.05 0.26,-0.06 0.25,-0.06 0.25,-0.06 0.26,-0.05 0.25,-0.06 0.25,-0.06 0.26,-0.05 0.25,-0.06 0.25,-0.06 0.25,-0.05 0.26,-0.06 0.25,-0.06 0.25,-0.05 0.26,-0.06 0.25,-0.06 0.25,-0.05 0.25,-0.06 0.26,-0.06 0.25,-0.05 0.25,-0.06 0.26,-0.06 0.25,-0.05 0.25,-0.06 0.25,-0.06 0.26,-0.05 0.25,-0.06 0.25,-0.06 0.26,-0.05 0.25,-0.06 0.25,-0.06 0.25,-0.05 0.26,-0.06 0.25,-0.05 0.25,-0.06 0.26,-0.06 0.25,-0.05 0.25,-0.06 0.26,-0.05 0.25,-0.06 0.25,-0.06 0.25,-0.05 0.26,-0.06 0.25,-0.06 0.25,-0.05 0.26,-0.06 0.25,-0.05 0.25,-0.06 0.25,-0.05 0.26,-0.06 0.25,-0.06 0.25,-0.05 0.26,-0.06 0.25,-0.05 0.25,-0.06 0.25,-0.05 0.26,-0.06 0.25,-0.06 0.25,-0.05 0.26,-0.06 0.25,-0.05 0.25,-0.06 0.25,-0.05 0.26,-0.06 0.25,-0.05 0.25,-0.06 0.26,-0.05 0.25,-0.06 0.25,-0.05 0.25,-0.06 0.26,-0.05 0.25,-0.06 0.25,-0.05 0.26,-0.06 0.25,-0.05 0.25,-0.06 0.26,-0.05 0.25,-0.06 0.25,-0.05 0.25,-0.06 0.26,-0.05 0.25,-0.06 0.25,-0.05 0.26,-0.06 0.25,-0.05 0.25,-0.05 0.25,-0.06 0.26,-0.05 0.25,-0.06 0.25,-0.05 0.26,-0.06 0.25,-0.05 0.25,-0.05 0.25,-0.06 0.26,-0.05 0.25,-0.06 0.25,-0.05 0.26,-0.06 0.25,-0.05 0.25,-0.05 0.25,-0.06 0.26,-0.05 0.25,-0.06 0.25,-0.05 0.26,-0.05 0.25,-0.06 0.25,-0.05 0.26,-0.05 0.25,-0.06 0.25,-0.05 0.25,-0.05 0.26,-0.06 0.25,-0.05 0.25,-0.06 0.26,-0.05 0.25,-0.05 0.25,-0.06 0.25,-0.05 0.26,-0.05 0.25,-0.05 0.25,-0.06 0.26,-0.05 0.25,-0.05 0.25,-0.06 0.25,-0.05 0.26,-0.05 0.25,-0.06 0.25,-0.05 0.26,-0.05 0.25,-0.06 0.25,-0.05 0.25,-0.05 0.26,-0.05 0.25,-0.06 0.25,-0.05 0.26,-0.05 0.25,-0.05 0.25,-0.06 0.26,-0.05 0.25,-0.05 0.25,-0.05 0.25,-0.06 0.26,-0.05 0.25,-0.05 0.25,-0.05 0.26,-0.06 0.25,-0.05 0.25,-0.05 0.25,-0.05 0.26,-0.06 0.25,-0.05 0.25,-0.05 0.26,-0.05 0.25,-0.05 0.25,-0.06 0.25,-0.05 0.26,-0.05 0.25,-0.05 0.25,-0.05 0.26,-0.06 0.25,-0.05 0.25,-0.05 0.25,-0.05 0.26,-0.05 0.25,-0.05 0.25,-0.06 0.26,-0.05 0.25,-0.05 0.25,-0.05 0.26,-0.05 0.25,-0.05 0.25,-0.05 0.25,-0.06 0.26,-0.05 0.25,-0.05 0.25,-0.05 0.26,-0.05 0.25,-0.05 0.25,-0.05 0.25,-0.06 0.26,-0.05 0.25,-0.05 0.25,-0.05 0.26,-0.05 0.25,-0.05 0.25,-0.05 0.25,-0.05 0.26,-0.05 0.25,-0.06 0.25,-0.05 0.26,-0.05 0.25,-0.05 0.25,-0.05 0.25,-0.05 0.26,-0.05 0.25,-0.05 0.25,-0.05 0.26,-0.05 0.25,-0.05 0.25,-0.06 0.26,-0.05 0.25,-0.05 0.25,-0.05 0.25,-0.05 0.26,-0.05 0.25,-0.05 0.25,-0.05 0.26,-0.05 0.25,-0.05 0.25,-0.05 0.25,-0.05 0.26,-0.05 0.25,-0.05 0.25,-0.05 0.26,-0.05 0.25,-0.05 0.25,-0.06 0.25,-0.05 0.26,-0.05 0.25,-0.05 0.25,-0.05 0.26,-0.05 0.25,-0.05 0.25,-0.05 0.25,-0.05 0.26,-0.05 0.25,-0.05 0.25,-0.05 0.26,-0.05 0.25,-0.05 0.25,-0.05 0.25,-0.05 0.26,-0.05 0.25,-0.05 0.25,-0.05 0.26,-0.05 0.25,-0.05 0.25,-0.05 0.26,-0.05 0.25,-0.05 0.25,-0.05 0.25,-0.05 0.26,-0.05 0.25,-0.05 0.25,-0.05 0.26,-0.05 0.25,-0.05 0.25,-0.05 0.25,-0.05 0.26,-0.05 0.25,-0.05 0.25,-0.05 0.26,-0.05 0.25,-0.05 0.25,-0.05 0.25,-0.05 0.26,-0.05 0.25,-0.05 0.25,-0.05 0.26,-0.05 0.25,-0.05 0.25,-0.05 0.25,-0.05 0.26,-0.05 0.25,-0.05 0.25,-0.05 0.26,-0.05 0.25,-0.05 0.25,-0.05 0.26,-0.05 0.25,-0.05 0.25,-0.05 0.25,-0.05 0.26,-0.05 0.25,-0.05 0.25,-0.05 0.26,-0.05 0.25,-0.05 0.25,-0.05 0.25,-0.05 0.26,-0.05 0.25,-0.05 0.25,-0.05 0.26,-0.05 0.25,-0.05 0.25,-0.05 0.25,-0.05 0.26,-0.05 0.25,-0.05 0.25,-0.05 0.26,-0.05 0.25,-0.05 0.25,-0.05 0.25,-0.05 0.26,-0.05 0.25,-0.05 0.25,-0.05 0.26,-0.05 0.25,-0.05 0.25,-0.05 0.26,-0.05 0.25,-0.05 0.25,-0.05 0.25,-0.05 0.26,-0.05 0.25,-0.05 0.25,-0.05 0.26,-0.05 0.25,-0.05 0.25,-0.05 0.25,-0.05 0.26,-0.05 0.25,-0.05 0.25,-0.05 0.26,-0.05 0.25,-0.05 0.25,-0.05 0.25,-0.05 0.26,-0.05 0.25,-0.05 0.25,-0.05 0.26,-0.05 0.25,-0.05 0.25,-0.05 0.25,-0.05 0.26,-0.05 0.25,-0.05 0.25,-0.05 0.26,-0.05 0.25,-0.05 0.25,-0.05 0.26,-0.06 0.25,-0.05 0.25,-0.05 0.25,-0.05 0.26,-0.05 0.25,-0.05 0.25,-0.05 0.26,-0.05 0.25,-0.05 0.25,-0.05 0.25,-0.05 0.26,-0.05 0.25,-0.06 0.25,-0.05 0.26,-0.05 0.25,-0.05 0.25,-0.05 0.25,-0.05 0.26,-0.05 0.25,-0.05 0.25,-0.05 0.26,-0.06 0.25,-0.05 0.25,-0.05 0.25,-0.05 0.26,-0.05 0.25,-0.05 0.25,-0.06 0.26,-0.05 0.25,-0.05 0.25,-0.05 0.26,-0.05 0.25,-0.05 0.25,-0.06 0.25,-0.05 0.26,-0.05 0.25,-0.05 0.25,-0.05 0.26,-0.06 0.25,-0.05 0.25,-0.05 0.25,-0.05 0.26,-0.06 0.25,-0.05 0.25,-0.05 0.26,-0.05 0.25,-0.05 0.25,-0.06 0.25,-0.05 0.26,-0.05 0.25,-0.06 0.25,-0.05 0.26,-0.05 0.25,-0.05 0.25,-0.06 0.25,-0.05 0.26,-0.05 0.25,-0.06 0.25,-0.05 0.26,-0.05 0.25,-0.06 0.25,-0.05 0.25,-0.05 0.26,-0.06 0.25,-0.05 0.25,-0.05 0.26,-0.06 0.25,-0.05 0.25,-0.06 0.26,-0.05 0.25,-0.05 0.25,-0.06 0.25,-0.05 0.26,-0.06 0.25,-0.05 0.25,-0.06 0.26,-0.05 0.25,-0.06 0.25,-0.05 0.25,-0.06 0.26,-0.05 0.25,-0.05 0.25,-0.06 0.26,-0.05 0.25,-0.06 0.25,-0.06 0.25,-0.05 0.26,-0.06 0.25,-0.05 0.25,-0.06 0.26,-0.05 0.25,-0.06 0.25,-0.05 0.25,-0.06 0.26,-0.06 0.25,-0.05 0.25,-0.06 0.26,-0.06 0.25,-0.05 0.25,-0.06 0.26,-0.06 0.25,-0.05 0.25,-0.06 0.25,-0.06 0.26,-0.05 0.25,-0.06 0.25,-0.06 0.26,-0.05 0.25,-0.06 0.25,-0.06 0.25,-0.06 0.26,-0.05 0.25,-0.06 0.25,-0.06 0.26,-0.06 0.25,-0.06 0.25,-0.05 0.25,-0.06 0.26,-0.06 0.25,-0.06 0.25,-0.06 0.26,-0.06 0.25,-0.06 V 99.45 l -0.25,0.34 -0.26,0.33 -0.25,0.34 -0.25,0.33 -0.26,0.34 -0.25,0.33 -0.25,0.34 -0.25,0.33 -0.26,0.33 -0.25,0.34 -0.25,0.33 -0.26,0.33 -0.25,0.33 -0.25,0.33 -0.25,0.34 -0.26,0.33 -0.25,0.33 -0.25,0.33 -0.26,0.33 -0.25,0.32 -0.25,0.33 -0.25,0.33 -0.26,0.33 -0.25,0.33 -0.25,0.32 -0.26,0.33 -0.25,0.33 -0.25,0.32 -0.26,0.33 -0.25,0.32 -0.25,0.33 -0.25,0.32 -0.26,0.33 -0.25,0.32 -0.25,0.32 -0.26,0.32 -0.25,0.33 -0.25,0.32 -0.25,0.32 -0.26,0.32 -0.25,0.32 -0.25,0.32 -0.26,0.32 -0.25,0.32 -0.25,0.32 -0.25,0.32 -0.26,0.31 -0.25,0.32 -0.25,0.32 -0.26,0.31 -0.25,0.32 -0.25,0.32 -0.25,0.31 -0.26,0.32 -0.25,0.31 -0.25,0.31 -0.26,0.32 -0.25,0.31 -0.25,0.31 -0.26,0.31 -0.25,0.32 -0.25,0.31 -0.25,0.31 -0.26,0.31 -0.25,0.31 -0.25,0.31 -0.26,0.31 -0.25,0.3 -0.25,0.31 -0.25,0.31 -0.26,0.31 -0.25,0.3 -0.25,0.31 -0.26,0.3 -0.25,0.31 -0.25,0.3 -0.25,0.31 -0.26,0.3 -0.25,0.3 -0.25,0.31 -0.26,0.3 -0.25,0.3 -0.25,0.3 -0.25,0.3 -0.26,0.3 -0.25,0.3 -0.25,0.3 -0.26,0.3 -0.25,0.3 -0.25,0.3 -0.25,0.29 -0.26,0.3 -0.25,0.3 -0.25,0.29 -0.26,0.3 -0.25,0.29 -0.25,0.3 -0.26,0.29 -0.25,0.3 -0.25,0.29 -0.25,0.29 -0.26,0.29 -0.25,0.29 -0.25,0.3 -0.26,0.29 -0.25,0.29 -0.25,0.29 -0.25,0.28 -0.26,0.29 -0.25,0.29 -0.25,0.29 -0.26,0.29 -0.25,0.28 -0.25,0.29 -0.25,0.28 -0.26,0.29 -0.25,0.28 -0.25,0.29 -0.26,0.28 -0.25,0.28 -0.25,0.29 -0.25,0.28 -0.26,0.28 -0.25,0.28 -0.25,0.28 -0.26,0.28 -0.25,0.28 -0.25,0.28 -0.26,0.28 -0.25,0.27 -0.25,0.28 -0.25,0.28 -0.26,0.27 -0.25,0.28 -0.25,0.28 -0.26,0.27 -0.25,0.27 -0.25,0.28 -0.25,0.27 -0.26,0.27 -0.25,0.28 -0.25,0.27 -0.26,0.27 -0.25,0.27 -0.25,0.27 -0.25,0.27 -0.26,0.27 -0.25,0.27 -0.25,0.26 -0.26,0.27 -0.25,0.27 -0.25,0.26 -0.25,0.27 -0.26,0.27 -0.25,0.26 -0.25,0.26 -0.26,0.27 -0.25,0.26 -0.25,0.26 -0.26,0.27 -0.25,0.26 -0.25,0.26 -0.25,0.26 -0.26,0.26 -0.25,0.26 -0.25,0.26 -0.26,0.26 -0.25,0.25 -0.25,0.26 -0.25,0.26 -0.26,0.25 -0.25,0.26 -0.25,0.26 -0.26,0.25 -0.25,0.25 -0.25,0.26 -0.25,0.25 -0.26,0.25 -0.25,0.25 -0.25,0.26 -0.26,0.25 -0.25,0.25 -0.25,0.25 -0.25,0.25 -0.26,0.25 -0.25,0.24 -0.25,0.25 -0.26,0.25 -0.25,0.24 -0.25,0.25 -0.26,0.25 -0.25,0.24 -0.25,0.25 -0.25,0.24 -0.26,0.24 -0.25,0.25 -0.25,0.24 -0.26,0.24 -0.25,0.24 -0.25,0.24 -0.25,0.24 -0.26,0.24 -0.25,0.24 -0.25,0.24 -0.26,0.24 -0.25,0.23 -0.25,0.24 -0.25,0.24 -0.26,0.23 -0.25,0.24 -0.25,0.23 -0.26,0.24 -0.25,0.23 -0.25,0.23 -0.25,0.24 -0.26,0.23 -0.25,0.23 -0.25,0.23 -0.26,0.23 -0.25,0.23 -0.25,0.23 -0.26,0.23 -0.25,0.23 -0.25,0.22 -0.25,0.23 -0.26,0.23 -0.25,0.22 -0.25,0.23 -0.26,0.22 -0.25,0.23 -0.25,0.22 -0.25,0.23 -0.26,0.22 -0.25,0.22 -0.25,0.22 -0.26,0.22 -0.25,0.22 -0.25,0.22 -0.25,0.22 -0.26,0.22 -0.25,0.22 -0.25,0.22 -0.26,0.22 -0.25,0.21 -0.25,0.22 -0.25,0.21 -0.26,0.22 -0.25,0.21 -0.25,0.22 -0.26,0.21 -0.25,0.22 -0.25,0.21 -0.25,0.21 -0.26,0.21 -0.25,0.21 -0.25,0.21 -0.26,0.21 -0.25,0.21 -0.25,0.21 -0.26,0.21 -0.25,0.21 -0.25,0.2 -0.25,0.21 -0.26,0.21 -0.25,0.2 -0.25,0.21 -0.26,0.2 -0.25,0.2 -0.25,0.21 -0.25,0.2 -0.26,0.2 -0.25,0.2 -0.25,0.21 -0.26,0.2 -0.25,0.2 -0.25,0.2 -0.25,0.19 -0.26,0.2 -0.25,0.2 -0.25,0.2 -0.26,0.2 -0.25,0.19 -0.25,0.2 -0.25,0.19 -0.26,0.2 -0.25,0.19 -0.25,0.2 -0.26,0.19 -0.25,0.19 -0.25,0.19 -0.26,0.19 -0.25,0.2 -0.25,0.19 -0.25,0.19 -0.26,0.19 -0.25,0.18 -0.25,0.19 -0.26,0.19 -0.25,0.19 -0.25,0.18 -0.25,0.19 -0.26,0.19 -0.25,0.18 -0.25,0.19 -0.26,0.18 -0.25,0.18 -0.25,0.19 -0.25,0.18 -0.26,0.18 -0.25,0.18 -0.25,0.18 -0.26,0.19 -0.25,0.18 -0.25,0.17 -0.25,0.18 -0.26,0.18 -0.25,0.18 -0.25,0.18 -0.26,0.17 -0.25,0.18 -0.25,0.18 -0.26,0.17 -0.25,0.18 -0.25,0.17 -0.25,0.17 -0.26,0.18 -0.25,0.17 -0.25,0.17 -0.26,0.17 -0.25,0.17 -0.25,0.18 -0.25,0.17 -0.26,0.16 -0.25,0.17 -0.25,0.17 -0.26,0.17 -0.25,0.17 -0.25,0.17 -0.25,0.16 -0.26,0.17 -0.25,0.16 -0.25,0.17 -0.26,0.16 -0.25,0.17 -0.25,0.16 -0.25,0.16 -0.26,0.17 -0.25,0.16 -0.25,0.16 -0.26,0.16 -0.25,0.16 -0.25,0.16 -0.26,0.16 -0.25,0.16 -0.25,0.16 -0.25,0.15 -0.26,0.16 -0.25,0.16 -0.25,0.16 -0.26,0.15 -0.25,0.16 -0.25,0.15 -0.25,0.16 -0.26,0.15 -0.25,0.15 -0.25,0.16 -0.26,0.15 -0.25,0.15 -0.25,0.15 -0.25,0.15 -0.26,0.15 -0.25,0.15 -0.25,0.15 -0.26,0.15 -0.25,0.15 -0.25,0.15 -0.25,0.15 -0.26,0.14 -0.25,0.15 -0.25,0.15 -0.26,0.14 -0.25,0.15 -0.25,0.14 -0.26,0.14 -0.25,0.15 -0.25,0.14 -0.25,0.14 -0.26,0.15 -0.25,0.14 -0.25,0.14 -0.26,0.14 -0.25,0.14 -0.25,0.14 -0.25,0.14 -0.26,0.14 -0.25,0.14 -0.25,0.13 -0.26,0.14 -0.25,0.14 -0.25,0.14 -0.25,0.13 -0.26,0.14 -0.25,0.13 -0.25,0.14 -0.26,0.13 -0.25,0.13 -0.25,0.14 -0.25,0.13 -0.26,0.13 -0.25,0.13 -0.25,0.14 -0.26,0.13 -0.25,0.13 -0.25,0.13 -0.25,0.13 -0.26,0.13 -0.25,0.12 -0.25,0.13 -0.26,0.13 -0.25,0.13 -0.25,0.12 -0.26,0.13 -0.25,0.13 -0.25,0.12 -0.25,0.13 -0.26,0.12 -0.25,0.13 -0.25,0.12 -0.26,0.12 -0.25,0.13 -0.25,0.12 -0.25,0.12 -0.26,0.12 -0.25,0.12 -0.25,0.12 -0.26,0.12 -0.25,0.12 -0.25,0.12 -0.25,0.12 -0.26,0.12 -0.25,0.12 -0.25,0.12 -0.26,0.11 -0.25,0.12 -0.25,0.12 -0.25,0.11 -0.26,0.12 -0.25,0.11 -0.25,0.12 -0.26,0.11 -0.25,0.11 -0.25,0.12 -0.26,0.11 -0.25,0.11 -0.25,0.12 -0.25,0.11 -0.26,0.11 -0.25,0.11 -0.25,0.11 -0.26,0.11 -0.25,0.11 -0.25,0.11 -0.25,0.11 -0.26,0.11 -0.25,0.1 -0.25,0.11 -0.26,0.11 -0.25,0.11 -0.25,0.1 -0.25,0.11 -0.26,0.1 -0.25,0.11 -0.25,0.1 -0.26,0.11 -0.25,0.1 -0.25,0.11 -0.25,0.1 -0.26,0.1 -0.25,0.1 -0.25,0.11 -0.26,0.1 -0.25,0.1 -0.25,0.1 -0.26,0.1 -0.25,0.1 -0.25,0.1 -0.25,0.1 -0.26,0.1 -0.25,0.1 -0.25,0.1 -0.26,0.1 -0.25,0.09 -0.25,0.1 -0.25,0.1 -0.26,0.09 -0.25,0.1 -0.25,0.1 -0.26,0.09 -0.25,0.1 -0.25,0.09 -0.25,0.1 -0.26,0.09 -0.25,0.09 -0.25,0.1 -0.26,0.09 -0.25,0.09 -0.25,0.1 -0.25,0.09 -0.26,0.09 -0.25,0.09 -0.25,0.09 -0.26,0.09 -0.25,0.09 -0.25,0.09 -0.26,0.09 -0.25,0.09 -0.25,0.09 -0.25,0.09 -0.26,0.09 -0.25,0.09 -0.25,0.08 -0.26,0.09 -0.25,0.09 -0.25,0.08 -0.25,0.09 -0.26,0.09 -0.25,0.08 -0.25,0.09 -0.26,0.08 -0.25,0.09 -0.25,0.08 -0.25,0.09 -0.26,0.08 -0.25,0.08 -0.25,0.09 -0.26,0.08 -0.25,0.08 -0.25,0.08 -0.25,0.09 -0.26,0.08 -0.25,0.08 -0.25,0.08 -0.26,0.08 -0.25,0.08 -0.25,0.08 -0.26,0.08 -0.25,0.08 -0.25,0.08 -0.25,0.08 -0.26,0.08 -0.25,0.08 -0.25,0.08 -0.26,0.08 -0.25,0.07 -0.25,0.08 -0.25,0.08 -0.26,0.07 -0.25,0.08 -0.25,0.08 -0.26,0.07 -0.25,0.08 -0.25,0.08 -0.25,0.07 -0.26,0.08 -0.25,0.07 -0.25,0.07 -0.26,0.08 -0.25,0.07 -0.25,0.08 -0.25,0.07 -0.26,0.07 -0.25,0.08 -0.25,0.07 -0.26,0.07 -0.25,0.07 -0.25,0.08 -0.25,0.07 -0.26,0.07 -0.25,0.07 -0.25,0.07 -0.26,0.07 -0.25,0.07 -0.25,0.07 -0.26,0.07 -0.25,0.07 -0.25,0.07 -0.25,0.07 -0.26,0.07 -0.25,0.07 -0.25,0.07 -0.26,0.07 -0.25,0.07 -0.25,0.06 -0.25,0.07 -0.26,0.07 -0.25,0.07 -0.25,0.06 -0.26,0.07 -0.25,0.07 -0.25,0.06 -0.25,0.07 -0.26,0.07 -0.25,0.06 -0.25,0.07 -0.26,0.06 -0.25,0.07 -0.25,0.06 -0.25,0.07 -0.26,0.06 -0.25,0.07 -0.25,0.06 -0.26,0.06 -0.25,0.07 -0.25,0.06 -0.26,0.06 -0.25,0.07 -0.25,0.06 -0.25,0.06 -0.26,0.07 -0.25,0.06 -0.25,0.06 -0.26,0.06 -0.25,0.06 -0.25,0.07 -0.25,0.06 -0.26,0.06 -0.25,0.06 -0.25,0.06 -0.26,0.06 -0.25,0.06 -0.25,0.06 -0.25,0.06 -0.26,0.06 -0.25,0.06 -0.25,0.06 -0.26,0.06 -0.25,0.06 -0.25,0.06 -0.25,0.06 -0.26,0.06 -0.25,0.05 -0.25,0.06 -0.26,0.06 -0.25,0.06 -0.25,0.06 -0.26,0.05 -0.25,0.06 -0.25,0.06 -0.25,0.06 -0.26,0.05 -0.25,0.06 -0.25,0.06 -0.26,0.05 -0.25,0.06 -0.25,0.06 -0.25,0.05 -0.26,0.06 -0.25,0.05 -0.25,0.06 -0.26,0.05 -0.25,0.06 -0.25,0.05 -0.25,0.06 -0.26,0.05 -0.25,0.06 -0.25,0.05 -0.26,0.06 -0.25,0.05 -0.25,0.05 -0.25,0.06 -0.26,0.05 -0.25,0.06 -0.25,0.05 -0.26,0.05 -0.25,0.06 -0.25,0.05 -0.26,0.05 -0.25,0.05 -0.25,0.06 -0.25,0.05 -0.26,0.05 -0.25,0.05 -0.25,0.06 -0.26,0.05 -0.25,0.05 -0.25,0.05 -0.25,0.05 -0.26,0.05 -0.25,0.05 -0.25,0.06 -0.26,0.05 -0.25,0.05 -0.25,0.05 -0.25,0.05 -0.26,0.05 -0.25,0.05 -0.25,0.05 -0.26,0.05 -0.25,0.05 -0.25,0.05 z" />
          <path
             inkscape:connector-curvature="0"
             id="path9118"
             style="fill:#1c629c;fill-opacity:0.14900004;fill-rule:nonzero;stroke:none"
             d="m 42.64,227.65 0.25,-0.07 0.25,-0.07 0.26,-0.07 0.25,-0.07 0.25,-0.07 0.26,-0.07 0.25,-0.07 0.25,-0.07 0.25,-0.07 0.26,-0.07 0.25,-0.07 0.25,-0.07 0.26,-0.07 0.25,-0.08 0.25,-0.07 0.25,-0.07 0.26,-0.07 0.25,-0.07 0.25,-0.08 0.26,-0.07 0.25,-0.07 0.25,-0.08 0.25,-0.07 0.26,-0.07 0.25,-0.08 0.25,-0.07 0.26,-0.07 0.25,-0.08 0.25,-0.07 0.26,-0.08 0.25,-0.07 0.25,-0.08 0.25,-0.07 0.26,-0.08 0.25,-0.07 0.25,-0.08 0.26,-0.08 0.25,-0.07 0.25,-0.08 0.25,-0.08 0.26,-0.07 0.25,-0.08 0.25,-0.08 0.26,-0.07 0.25,-0.08 0.25,-0.08 0.25,-0.08 0.26,-0.08 0.25,-0.07 0.25,-0.08 0.26,-0.08 0.25,-0.08 0.25,-0.08 0.25,-0.08 0.26,-0.08 0.25,-0.08 0.25,-0.08 0.26,-0.08 0.25,-0.08 0.25,-0.08 0.26,-0.08 0.25,-0.08 0.25,-0.08 0.25,-0.08 0.26,-0.08 0.25,-0.09 0.25,-0.08 0.26,-0.08 0.25,-0.08 0.25,-0.08 0.25,-0.09 0.26,-0.08 0.25,-0.08 0.25,-0.09 0.26,-0.08 0.25,-0.08 0.25,-0.09 0.25,-0.08 0.26,-0.08 0.25,-0.09 0.25,-0.08 0.26,-0.09 0.25,-0.08 0.25,-0.09 0.25,-0.08 0.26,-0.09 0.25,-0.08 0.25,-0.09 0.26,-0.08 0.25,-0.09 0.25,-0.09 0.26,-0.08 0.25,-0.09 0.25,-0.08 0.25,-0.09 0.26,-0.09 0.25,-0.09 0.25,-0.08 0.26,-0.09 0.25,-0.09 0.25,-0.09 0.25,-0.08 0.26,-0.09 0.25,-0.09 0.25,-0.09 0.26,-0.09 0.25,-0.09 0.25,-0.09 0.25,-0.09 0.26,-0.08 0.25,-0.09 0.25,-0.09 0.26,-0.09 0.25,-0.09 0.25,-0.09 0.25,-0.09 0.26,-0.09 0.25,-0.1 0.25,-0.09 0.26,-0.09 0.25,-0.09 0.25,-0.09 0.26,-0.09 0.25,-0.09 0.25,-0.1 0.25,-0.09 0.26,-0.09 0.25,-0.09 0.25,-0.09 0.26,-0.1 0.25,-0.09 0.25,-0.09 0.25,-0.1 0.26,-0.09 0.25,-0.09 0.25,-0.1 0.26,-0.09 0.25,-0.09 0.25,-0.1 0.25,-0.09 0.26,-0.1 0.25,-0.09 0.25,-0.09 0.26,-0.1 0.25,-0.09 0.25,-0.1 0.25,-0.09 0.26,-0.1 0.25,-0.1 0.25,-0.09 0.26,-0.1 0.25,-0.09 0.25,-0.1 0.25,-0.1 0.26,-0.09 0.25,-0.1 0.25,-0.09 0.26,-0.1 0.25,-0.1 0.25,-0.09 0.26,-0.1 0.25,-0.1 0.25,-0.1 0.25,-0.09 0.26,-0.1 0.25,-0.1 0.25,-0.1 0.26,-0.1 0.25,-0.09 0.25,-0.1 0.25,-0.1 0.26,-0.1 0.25,-0.1 0.25,-0.1 0.26,-0.1 0.25,-0.09 0.25,-0.1 0.25,-0.1 0.26,-0.1 0.25,-0.1 0.25,-0.1 0.26,-0.1 0.25,-0.1 0.25,-0.1 0.25,-0.1 0.26,-0.1 0.25,-0.1 0.25,-0.1 0.26,-0.1 0.25,-0.1 0.25,-0.1 0.26,-0.1 0.25,-0.11 0.25,-0.1 0.25,-0.1 0.26,-0.1 0.25,-0.1 0.25,-0.1 0.26,-0.1 0.25,-0.1 0.25,-0.11 0.25,-0.1 0.26,-0.1 0.25,-0.1 0.25,-0.1 0.26,-0.11 0.25,-0.1 0.25,-0.1 0.25,-0.1 0.26,-0.11 0.25,-0.1 0.25,-0.1 0.26,-0.1 0.25,-0.11 0.25,-0.1 0.25,-0.1 0.26,-0.11 0.25,-0.1 0.25,-0.1 0.26,-0.11 0.25,-0.1 0.25,-0.1 0.26,-0.11 0.25,-0.1 0.25,-0.1 0.25,-0.11 0.26,-0.1 0.25,-0.11 0.25,-0.1 0.26,-0.1 0.25,-0.11 0.25,-0.1 0.25,-0.11 0.26,-0.1 0.25,-0.11 0.25,-0.1 0.26,-0.11 0.25,-0.1 0.25,-0.11 0.25,-0.1 0.26,-0.1 0.25,-0.11 0.25,-0.1 0.26,-0.11 0.25,-0.1 0.25,-0.11 0.25,-0.11 0.26,-0.1 0.25,-0.11 0.25,-0.1 0.26,-0.11 0.25,-0.1 0.25,-0.11 0.26,-0.1 0.25,-0.11 0.25,-0.1 0.25,-0.11 0.26,-0.11 0.25,-0.1 0.25,-0.11 0.26,-0.1 0.25,-0.11 0.25,-0.11 0.25,-0.1 0.26,-0.11 0.25,-0.1 0.25,-0.11 0.26,-0.11 0.25,-0.1 0.25,-0.11 0.25,-0.1 0.26,-0.11 0.25,-0.11 0.25,-0.1 0.26,-0.11 0.25,-0.11 0.25,-0.1 0.25,-0.11 0.26,-0.11 0.25,-0.1 0.25,-0.11 0.26,-0.11 0.25,-0.1 0.25,-0.11 0.26,-0.11 0.25,-0.1 0.25,-0.11 0.25,-0.11 0.26,-0.1 0.25,-0.11 0.25,-0.11 0.26,-0.1 0.25,-0.11 0.25,-0.11 0.25,-0.1 0.26,-0.11 0.25,-0.11 0.25,-0.1 0.26,-0.11 0.25,-0.11 0.25,-0.1 0.25,-0.11 0.26,-0.11 0.25,-0.11 0.25,-0.1 0.26,-0.11 0.25,-0.11 0.25,-0.1 0.25,-0.11 0.26,-0.11 0.25,-0.1 0.25,-0.11 0.26,-0.11 0.25,-0.11 0.25,-0.1 0.25,-0.11 0.26,-0.11 0.25,-0.1 0.25,-0.11 0.26,-0.11 0.25,-0.11 0.25,-0.1 0.26,-0.11 0.25,-0.11 0.25,-0.1 0.25,-0.11 0.26,-0.11 0.25,-0.11 0.25,-0.1 0.26,-0.11 0.25,-0.11 0.25,-0.1 0.25,-0.11 0.26,-0.11 0.25,-0.11 0.25,-0.1 0.26,-0.11 0.25,-0.11 0.25,-0.1 0.25,-0.11 0.26,-0.11 0.25,-0.1 0.25,-0.11 0.26,-0.11 0.25,-0.11 0.25,-0.1 0.25,-0.11 0.26,-0.11 0.25,-0.1 0.25,-0.11 0.26,-0.11 0.25,-0.11 0.25,-0.1 0.26,-0.11 0.25,-0.11 0.25,-0.1 0.25,-0.11 0.26,-0.11 0.25,-0.1 0.25,-0.11 0.26,-0.11 0.25,-0.11 0.25,-0.1 0.25,-0.11 0.26,-0.11 0.25,-0.1 0.25,-0.11 0.26,-0.11 0.25,-0.1 0.25,-0.11 0.25,-0.11 0.26,-0.1 0.25,-0.11 0.25,-0.11 0.26,-0.1 0.25,-0.11 0.25,-0.11 0.25,-0.1 0.26,-0.11 0.25,-0.11 0.25,-0.11 0.26,-0.1 0.25,-0.11 0.25,-0.11 0.26,-0.1 0.25,-0.11 0.25,-0.11 0.25,-0.1 0.26,-0.11 0.25,-0.11 0.25,-0.1 0.26,-0.11 0.25,-0.11 0.25,-0.1 0.25,-0.11 0.26,-0.11 0.25,-0.1 0.25,-0.11 0.26,-0.11 0.25,-0.1 0.25,-0.11 0.25,-0.11 0.26,-0.1 0.25,-0.11 0.25,-0.11 0.26,-0.1 0.25,-0.11 0.25,-0.1 0.25,-0.11 0.26,-0.11 0.25,-0.1 0.25,-0.11 0.26,-0.11 0.25,-0.1 0.25,-0.11 0.26,-0.11 0.25,-0.1 0.25,-0.11 0.25,-0.11 0.26,-0.1 0.25,-0.11 0.25,-0.11 0.26,-0.1 0.25,-0.11 0.25,-0.11 0.25,-0.1 0.26,-0.11 0.25,-0.11 0.25,-0.1 0.26,-0.11 0.25,-0.1 0.25,-0.11 0.25,-0.11 0.26,-0.1 0.25,-0.11 0.25,-0.11 0.26,-0.1 0.25,-0.11 0.25,-0.11 0.25,-0.1 0.26,-0.11 0.25,-0.11 0.25,-0.1 0.26,-0.11 0.25,-0.11 0.25,-0.1 0.26,-0.11 0.25,-0.11 0.25,-0.1 0.25,-0.11 0.26,-0.1 0.25,-0.11 0.25,-0.11 0.26,-0.1 0.25,-0.11 0.25,-0.11 0.25,-0.1 0.26,-0.11 0.25,-0.11 0.25,-0.1 0.26,-0.11 0.25,-0.11 0.25,-0.1 0.25,-0.11 0.26,-0.11 0.25,-0.11 0.25,-0.1 0.26,-0.11 0.25,-0.11 0.25,-0.1 0.25,-0.11 0.26,-0.11 0.25,-0.1 0.25,-0.11 0.26,-0.11 0.25,-0.1 0.25,-0.11 0.25,-0.11 0.26,-0.1 0.25,-0.11 0.25,-0.11 0.26,-0.11 0.25,-0.1 0.25,-0.11 0.26,-0.11 0.25,-0.1 0.25,-0.11 0.25,-0.11 0.26,-0.11 0.25,-0.1 0.25,-0.11 0.26,-0.11 0.25,-0.11 0.25,-0.1 0.25,-0.11 0.26,-0.11 0.25,-0.11 0.25,-0.1 0.26,-0.11 0.25,-0.11 0.25,-0.11 0.25,-0.1 0.26,-0.11 0.25,-0.11 0.25,-0.11 0.26,-0.11 0.25,-0.1 0.25,-0.11 0.25,-0.11 0.26,-0.11 0.25,-0.11 0.25,-0.1 0.26,-0.11 0.25,-0.11 0.25,-0.11 0.26,-0.11 0.25,-0.11 0.25,-0.1 0.25,-0.11 0.26,-0.11 0.25,-0.11 0.25,-0.11 0.26,-0.11 0.25,-0.11 0.25,-0.1 0.25,-0.11 0.26,-0.11 0.25,-0.11 0.25,-0.11 0.26,-0.11 0.25,-0.11 0.25,-0.11 0.25,-0.11 0.26,-0.11 0.25,-0.1 0.25,-0.11 0.26,-0.11 0.25,-0.11 0.25,-0.11 0.25,-0.11 0.26,-0.11 0.25,-0.11 0.25,-0.11 0.26,-0.11 0.25,-0.11 0.25,-0.11 0.26,-0.11 0.25,-0.11 0.25,-0.11 0.25,-0.11 0.26,-0.11 0.25,-0.11 0.25,-0.11 0.26,-0.12 0.25,-0.11 0.25,-0.11 0.25,-0.11 0.26,-0.11 0.25,-0.11 0.25,-0.11 0.26,-0.11 0.25,-0.11 0.25,-0.11 0.25,-0.12 0.26,-0.11 0.25,-0.11 0.25,-0.11 0.26,-0.11 0.25,-0.11 0.25,-0.12 0.25,-0.11 0.26,-0.11 0.25,-0.11 0.25,-0.11 0.26,-0.12 0.25,-0.11 0.25,-0.11 0.26,-0.11 0.25,-0.12 0.25,-0.11 0.25,-0.11 0.26,-0.12 0.25,-0.11 0.25,-0.11 0.26,-0.12 0.25,-0.11 0.25,-0.11 0.25,-0.12 0.26,-0.11 0.25,-0.11 0.25,-0.12 0.26,-0.11 0.25,-0.12 0.25,-0.11 0.25,-0.11 0.26,-0.12 0.25,-0.11 0.25,-0.12 0.26,-0.11 0.25,-0.12 0.25,-0.11 0.25,-0.12 0.26,-0.11 0.25,-0.12 0.25,-0.11 0.26,-0.12 0.25,-0.12 0.25,-0.11 0.26,-0.12 0.25,-0.11 0.25,-0.12 0.25,-0.12 0.26,-0.11 0.25,-0.12 0.25,-0.12 0.26,-0.11 0.25,-0.12 0.25,-0.12 0.25,-0.11 0.26,-0.12 0.25,-0.12 0.25,-0.12 0.26,-0.11 0.25,-0.12 0.25,-0.12 0.25,-0.12 0.26,-0.11 0.25,-0.12 0.25,-0.12 0.26,-0.12 0.25,-0.12 0.25,-0.12 0.25,-0.12 0.26,-0.12 0.25,-0.12 0.25,-0.11 0.26,-0.12 0.25,-0.12 0.25,-0.12 0.25,-0.12 0.26,-0.12 0.25,-0.12 0.25,-0.12 0.26,-0.12 0.25,-0.13 0.25,-0.12 0.26,-0.12 0.25,-0.12 0.25,-0.12 0.25,-0.12 0.26,-0.12 0.25,-0.12 0.25,-0.13 0.26,-0.12 0.25,-0.12 0.25,-0.12 0.25,-0.13 0.26,-0.12 0.25,-0.12 0.25,-0.12 0.26,-0.13 0.25,-0.12 0.25,-0.12 0.25,-0.13 0.26,-0.12 0.25,-0.12 0.25,-0.13 0.26,-0.12 0.25,-0.13 0.25,-0.12 0.25,-0.13 0.26,-0.12 0.25,-0.13 0.25,-0.12 0.26,-0.13 0.25,-0.12 0.25,-0.13 0.26,-0.12 0.25,-0.13 0.25,-0.13 0.25,-0.12 0.26,-0.13 0.25,-0.13 0.25,-0.12 0.26,-0.13 0.25,-0.13 0.25,-0.13 0.25,-0.12 0.26,-0.13 0.25,-0.13 0.25,-0.13 0.26,-0.13 0.25,-0.12 0.25,-0.13 0.25,-0.13 0.26,-0.13 0.25,-0.13 0.25,-0.13 0.26,-0.13 0.25,-0.13 V 43.29 l -0.25,0.35 -0.26,0.34 -0.25,0.34 -0.25,0.34 -0.26,0.34 -0.25,0.35 -0.25,0.34 -0.25,0.34 -0.26,0.34 -0.25,0.35 -0.25,0.34 -0.26,0.34 -0.25,0.34 -0.25,0.35 -0.25,0.34 -0.26,0.34 -0.25,0.34 -0.25,0.34 -0.26,0.35 -0.25,0.34 -0.25,0.34 -0.25,0.34 -0.26,0.34 -0.25,0.35 -0.25,0.34 -0.26,0.34 -0.25,0.34 -0.25,0.34 -0.26,0.35 -0.25,0.34 -0.25,0.34 -0.25,0.34 -0.26,0.34 -0.25,0.34 -0.25,0.35 -0.26,0.34 -0.25,0.34 -0.25,0.34 -0.25,0.34 -0.26,0.34 -0.25,0.34 -0.25,0.34 -0.26,0.35 -0.25,0.34 -0.25,0.34 -0.25,0.34 -0.26,0.34 -0.25,0.34 -0.25,0.34 -0.26,0.34 -0.25,0.34 -0.25,0.34 -0.25,0.34 -0.26,0.34 -0.25,0.34 -0.25,0.34 -0.26,0.34 -0.25,0.34 -0.25,0.34 -0.26,0.33 -0.25,0.34 -0.25,0.34 -0.25,0.34 -0.26,0.34 -0.25,0.34 -0.25,0.34 -0.26,0.33 -0.25,0.34 -0.25,0.34 -0.25,0.34 -0.26,0.33 -0.25,0.34 -0.25,0.34 -0.26,0.34 -0.25,0.33 -0.25,0.34 -0.25,0.34 -0.26,0.33 -0.25,0.34 -0.25,0.33 -0.26,0.34 -0.25,0.33 -0.25,0.34 -0.25,0.34 -0.26,0.33 -0.25,0.34 -0.25,0.33 -0.26,0.33 -0.25,0.34 -0.25,0.33 -0.25,0.34 -0.26,0.33 -0.25,0.33 -0.25,0.34 -0.26,0.33 -0.25,0.33 -0.25,0.33 -0.26,0.34 -0.25,0.33 -0.25,0.33 -0.25,0.33 -0.26,0.33 -0.25,0.33 -0.25,0.34 -0.26,0.33 -0.25,0.33 -0.25,0.33 -0.25,0.33 -0.26,0.33 -0.25,0.33 -0.25,0.33 -0.26,0.32 -0.25,0.33 -0.25,0.33 -0.25,0.33 -0.26,0.33 -0.25,0.32 -0.25,0.33 -0.26,0.33 -0.25,0.33 -0.25,0.32 -0.25,0.33 -0.26,0.32 -0.25,0.33 -0.25,0.33 -0.26,0.32 -0.25,0.33 -0.25,0.32 -0.26,0.32 -0.25,0.33 -0.25,0.32 -0.25,0.33 -0.26,0.32 -0.25,0.32 -0.25,0.32 -0.26,0.33 -0.25,0.32 -0.25,0.32 -0.25,0.32 -0.26,0.32 -0.25,0.32 -0.25,0.32 -0.26,0.32 -0.25,0.32 -0.25,0.32 -0.25,0.32 -0.26,0.32 -0.25,0.32 -0.25,0.32 -0.26,0.31 -0.25,0.32 -0.25,0.32 -0.25,0.31 -0.26,0.32 -0.25,0.32 -0.25,0.31 -0.26,0.32 -0.25,0.31 -0.25,0.32 -0.26,0.31 -0.25,0.32 -0.25,0.31 -0.25,0.31 -0.26,0.32 -0.25,0.31 -0.25,0.31 -0.26,0.31 -0.25,0.31 -0.25,0.31 -0.25,0.31 -0.26,0.31 -0.25,0.31 -0.25,0.31 -0.26,0.31 -0.25,0.31 -0.25,0.31 -0.25,0.31 -0.26,0.3 -0.25,0.31 -0.25,0.31 -0.26,0.3 -0.25,0.31 -0.25,0.31 -0.25,0.3 -0.26,0.31 -0.25,0.3 -0.25,0.3 -0.26,0.31 -0.25,0.3 -0.25,0.3 -0.26,0.31 -0.25,0.3 -0.25,0.3 -0.25,0.3 -0.26,0.3 -0.25,0.3 -0.25,0.3 -0.26,0.3 -0.25,0.3 -0.25,0.3 -0.25,0.3 -0.26,0.29 -0.25,0.3 -0.25,0.3 -0.26,0.29 -0.25,0.3 -0.25,0.3 -0.25,0.29 -0.26,0.3 -0.25,0.29 -0.25,0.29 -0.26,0.3 -0.25,0.29 -0.25,0.29 -0.25,0.29 -0.26,0.3 -0.25,0.29 -0.25,0.29 -0.26,0.29 -0.25,0.29 -0.25,0.29 -0.26,0.28 -0.25,0.29 -0.25,0.29 -0.25,0.29 -0.26,0.28 -0.25,0.29 -0.25,0.29 -0.26,0.28 -0.25,0.29 -0.25,0.28 -0.25,0.29 -0.26,0.28 -0.25,0.28 -0.25,0.29 -0.26,0.28 -0.25,0.28 -0.25,0.28 -0.25,0.28 -0.26,0.28 -0.25,0.28 -0.25,0.28 -0.26,0.28 -0.25,0.28 -0.25,0.28 -0.25,0.27 -0.26,0.28 -0.25,0.28 -0.25,0.27 -0.26,0.28 -0.25,0.27 -0.25,0.28 -0.25,0.27 -0.26,0.27 -0.25,0.28 -0.25,0.27 -0.26,0.27 -0.25,0.27 -0.25,0.27 -0.26,0.27 -0.25,0.27 -0.25,0.27 -0.25,0.27 -0.26,0.27 -0.25,0.27 -0.25,0.27 -0.26,0.26 -0.25,0.27 -0.25,0.26 -0.25,0.27 -0.26,0.26 -0.25,0.27 -0.25,0.26 -0.26,0.27 -0.25,0.26 -0.25,0.26 -0.25,0.26 -0.26,0.26 -0.25,0.26 -0.25,0.26 -0.26,0.26 -0.25,0.26 -0.25,0.26 -0.25,0.26 -0.26,0.26 -0.25,0.25 -0.25,0.26 -0.26,0.26 -0.25,0.25 -0.25,0.26 -0.26,0.25 -0.25,0.25 -0.25,0.26 -0.25,0.25 -0.26,0.25 -0.25,0.25 -0.25,0.25 -0.26,0.25 -0.25,0.25 -0.25,0.25 -0.25,0.25 -0.26,0.25 -0.25,0.25 -0.25,0.25 -0.26,0.24 -0.25,0.25 -0.25,0.25 -0.25,0.24 -0.26,0.25 -0.25,0.24 -0.25,0.24 -0.26,0.25 -0.25,0.24 -0.25,0.24 -0.25,0.24 -0.26,0.24 -0.25,0.24 -0.25,0.24 -0.26,0.24 -0.25,0.24 -0.25,0.24 -0.26,0.24 -0.25,0.23 -0.25,0.24 -0.25,0.24 -0.26,0.23 -0.25,0.24 -0.25,0.23 -0.26,0.23 -0.25,0.24 -0.25,0.23 -0.25,0.23 -0.26,0.23 -0.25,0.23 -0.25,0.24 -0.26,0.23 -0.25,0.22 -0.25,0.23 -0.25,0.23 -0.26,0.23 -0.25,0.23 -0.25,0.22 -0.26,0.23 -0.25,0.23 -0.25,0.22 -0.25,0.22 -0.26,0.23 -0.25,0.22 -0.25,0.22 -0.26,0.23 -0.25,0.22 -0.25,0.22 -0.26,0.22 -0.25,0.22 -0.25,0.22 -0.25,0.22 -0.26,0.22 -0.25,0.22 -0.25,0.21 -0.26,0.22 -0.25,0.22 -0.25,0.21 -0.25,0.22 -0.26,0.21 -0.25,0.22 -0.25,0.21 -0.26,0.21 -0.25,0.21 -0.25,0.22 -0.25,0.21 -0.26,0.21 -0.25,0.21 -0.25,0.21 -0.26,0.21 -0.25,0.21 -0.25,0.2 -0.25,0.21 -0.26,0.21 -0.25,0.21 -0.25,0.2 -0.26,0.21 -0.25,0.2 -0.25,0.21 -0.26,0.2 -0.25,0.2 -0.25,0.21 -0.25,0.2 -0.26,0.2 -0.25,0.2 -0.25,0.2 -0.26,0.2 -0.25,0.2 -0.25,0.2 -0.25,0.2 -0.26,0.2 -0.25,0.2 -0.25,0.19 -0.26,0.2 -0.25,0.19 -0.25,0.2 -0.25,0.19 -0.26,0.2 -0.25,0.19 -0.25,0.2 -0.26,0.19 -0.25,0.19 -0.25,0.19 -0.25,0.19 -0.26,0.19 -0.25,0.19 -0.25,0.19 -0.26,0.19 -0.25,0.19 -0.25,0.19 -0.25,0.19 -0.26,0.18 -0.25,0.19 -0.25,0.19 -0.26,0.18 -0.25,0.19 -0.25,0.18 -0.26,0.19 -0.25,0.18 -0.25,0.18 -0.25,0.19 -0.26,0.18 -0.25,0.18 -0.25,0.18 -0.26,0.18 -0.25,0.18 -0.25,0.18 -0.25,0.18 -0.26,0.18 -0.25,0.17 -0.25,0.18 -0.26,0.18 -0.25,0.18 -0.25,0.17 -0.25,0.18 -0.26,0.17 -0.25,0.18 -0.25,0.17 -0.26,0.17 -0.25,0.18 -0.25,0.17 -0.25,0.17 -0.26,0.17 -0.25,0.18 -0.25,0.17 -0.26,0.17 -0.25,0.17 -0.25,0.17 -0.26,0.16 -0.25,0.17 -0.25,0.17 -0.25,0.17 -0.26,0.16 -0.25,0.17 -0.25,0.17 -0.26,0.16 -0.25,0.17 -0.25,0.16 -0.25,0.17 -0.26,0.16 -0.25,0.16 -0.25,0.17 -0.26,0.16 -0.25,0.16 -0.25,0.16 -0.25,0.16 -0.26,0.16 -0.25,0.16 -0.25,0.16 -0.26,0.16 -0.25,0.16 -0.25,0.16 -0.25,0.16 -0.26,0.15 -0.25,0.16 -0.25,0.16 -0.26,0.15 -0.25,0.16 -0.25,0.15 -0.26,0.16 -0.25,0.15 -0.25,0.16 -0.25,0.15 -0.26,0.15 -0.25,0.16 -0.25,0.15 -0.26,0.15 -0.25,0.15 -0.25,0.15 -0.25,0.15 -0.26,0.15 -0.25,0.15 -0.25,0.15 -0.26,0.15 -0.25,0.15 -0.25,0.15 -0.25,0.15 -0.26,0.14 -0.25,0.15 -0.25,0.15 -0.26,0.14 -0.25,0.15 -0.25,0.14 -0.25,0.15 -0.26,0.14 -0.25,0.15 -0.25,0.14 -0.26,0.14 -0.25,0.15 -0.25,0.14 -0.26,0.14 -0.25,0.14 -0.25,0.14 -0.25,0.14 -0.26,0.15 -0.25,0.14 -0.25,0.14 -0.26,0.13 -0.25,0.14 -0.25,0.14 -0.25,0.14 -0.26,0.14 -0.25,0.14 -0.25,0.13 -0.26,0.14 -0.25,0.14 -0.25,0.13 -0.25,0.14 -0.26,0.13 -0.25,0.14 -0.25,0.13 -0.26,0.14 -0.25,0.13 -0.25,0.13 -0.25,0.14 -0.26,0.13 -0.25,0.13 -0.25,0.13 -0.26,0.14 -0.25,0.13 -0.25,0.13 -0.26,0.13 -0.25,0.13 -0.25,0.13 -0.25,0.13 -0.26,0.13 -0.25,0.13 -0.25,0.13 -0.26,0.13 -0.25,0.12 -0.25,0.13 -0.25,0.13 -0.26,0.13 -0.25,0.12 -0.25,0.13 -0.26,0.12 -0.25,0.13 -0.25,0.13 -0.25,0.12 -0.26,0.12 -0.25,0.13 -0.25,0.12 -0.26,0.13 -0.25,0.12 -0.25,0.12 -0.25,0.13 -0.26,0.12 -0.25,0.12 -0.25,0.12 -0.26,0.12 -0.25,0.13 -0.25,0.12 -0.25,0.12 -0.26,0.12 -0.25,0.12 -0.25,0.12 -0.26,0.12 -0.25,0.12 -0.25,0.11 -0.26,0.12 -0.25,0.12 -0.25,0.12 -0.25,0.12 -0.26,0.11 -0.25,0.12 -0.25,0.12 -0.26,0.11 -0.25,0.12 -0.25,0.12 -0.25,0.11 -0.26,0.12 -0.25,0.11 -0.25,0.12 -0.26,0.11 -0.25,0.12 -0.25,0.11 -0.25,0.11 -0.26,0.12 -0.25,0.11 -0.25,0.11 -0.26,0.12 -0.25,0.11 -0.25,0.11 -0.25,0.11 -0.26,0.11 -0.25,0.11 -0.25,0.12 -0.26,0.11 -0.25,0.11 -0.25,0.11 -0.26,0.11 -0.25,0.11 -0.25,0.11 -0.25,0.1 -0.26,0.11 -0.25,0.11 -0.25,0.11 -0.26,0.11 -0.25,0.11 -0.25,0.1 -0.25,0.11 -0.26,0.11 -0.25,0.11 -0.25,0.1 -0.26,0.11 -0.25,0.1 -0.25,0.11 -0.25,0.11 -0.26,0.1 -0.25,0.11 -0.25,0.1 -0.26,0.11 -0.25,0.1 -0.25,0.1 -0.25,0.11 -0.26,0.1 -0.25,0.11 -0.25,0.1 -0.26,0.1 -0.25,0.1 -0.25,0.11 -0.26,0.1 -0.25,0.1 -0.25,0.1 -0.25,0.1 -0.26,0.11 -0.25,0.1 -0.25,0.1 -0.26,0.1 -0.25,0.1 -0.25,0.1 -0.25,0.1 -0.26,0.1 -0.25,0.1 -0.25,0.1 -0.26,0.1 -0.25,0.1 -0.25,0.09 -0.25,0.1 -0.26,0.1 -0.25,0.1 -0.25,0.1 -0.26,0.09 -0.25,0.1 -0.25,0.1 -0.25,0.1 -0.26,0.09 -0.25,0.1 -0.25,0.1 -0.26,0.09 -0.25,0.1 -0.25,0.09 -0.26,0.1 -0.25,0.09 -0.25,0.1 -0.25,0.09 -0.26,0.1 -0.25,0.09 -0.25,0.1 -0.26,0.09 -0.25,0.1 -0.25,0.09 -0.25,0.09 -0.26,0.1 -0.25,0.09 -0.25,0.09 -0.26,0.09 -0.25,0.1 -0.25,0.09 -0.25,0.09 -0.26,0.09 -0.25,0.09 -0.25,0.1 -0.26,0.09 -0.25,0.09 -0.25,0.09 z" />
          <path
             inkscape:connector-curvature="0"
             id="path9120"
             style="fill:none;stroke:#1c629c;stroke-width:4.26999998;stroke-linecap:butt;stroke-linejoin:round;stroke-miterlimit:10;stroke-dasharray:none;stroke-opacity:1"
             d="m 42.64,226.83 0.25,-0.05 0.25,-0.04 0.26,-0.05 0.25,-0.05 0.25,-0.04 0.26,-0.05 0.25,-0.05 0.25,-0.04 0.25,-0.05 0.26,-0.05 0.25,-0.04 0.25,-0.05 0.26,-0.05 0.25,-0.04 0.25,-0.05 0.25,-0.05 0.26,-0.05 0.25,-0.04 0.25,-0.05 0.26,-0.05 0.25,-0.05 0.25,-0.05 0.25,-0.05 0.26,-0.04 0.25,-0.05 0.25,-0.05 0.26,-0.05 0.25,-0.05 0.25,-0.05 0.26,-0.05 0.25,-0.05 0.25,-0.05 0.25,-0.05 0.26,-0.05 0.25,-0.05 0.25,-0.05 0.26,-0.05 0.25,-0.05 0.25,-0.05 0.25,-0.05 0.26,-0.05 0.25,-0.05 0.25,-0.05 0.26,-0.05 0.25,-0.05 0.25,-0.05 0.25,-0.06 0.26,-0.05 0.25,-0.05 0.25,-0.05 0.26,-0.05 0.25,-0.06 0.25,-0.05 0.25,-0.05 0.26,-0.05 0.25,-0.06 0.25,-0.05 0.26,-0.05 0.25,-0.05 0.25,-0.06 0.26,-0.05 0.25,-0.06 0.25,-0.05 0.25,-0.05 0.26,-0.06 0.25,-0.05 0.25,-0.06 0.26,-0.05 0.25,-0.05 0.25,-0.06 0.25,-0.05 0.26,-0.06 0.25,-0.05 0.25,-0.06 0.26,-0.05 0.25,-0.06 0.25,-0.06 0.25,-0.05 0.26,-0.06 0.25,-0.05 0.25,-0.06 0.26,-0.06 0.25,-0.05 0.25,-0.06 0.25,-0.06 0.26,-0.05 0.25,-0.06 0.25,-0.06 0.26,-0.06 0.25,-0.05 0.25,-0.06 0.26,-0.06 0.25,-0.06 0.25,-0.05 0.25,-0.06 0.26,-0.06 0.25,-0.06 0.25,-0.06 0.26,-0.06 0.25,-0.06 0.25,-0.06 0.25,-0.06 0.26,-0.05 0.25,-0.06 0.25,-0.06 0.26,-0.06 0.25,-0.06 0.25,-0.06 0.25,-0.07 0.26,-0.06 0.25,-0.06 0.25,-0.06 0.26,-0.06 0.25,-0.06 0.25,-0.06 0.25,-0.06 0.26,-0.06 0.25,-0.07 0.25,-0.06 0.26,-0.06 0.25,-0.06 0.25,-0.06 0.26,-0.07 0.25,-0.06 0.25,-0.06 0.25,-0.07 0.26,-0.06 0.25,-0.06 0.25,-0.07 0.26,-0.06 0.25,-0.06 0.25,-0.07 0.25,-0.06 0.26,-0.07 0.25,-0.06 0.25,-0.07 0.26,-0.06 0.25,-0.07 0.25,-0.06 0.25,-0.07 0.26,-0.06 0.25,-0.07 0.25,-0.06 0.26,-0.07 0.25,-0.07 0.25,-0.06 0.25,-0.07 0.26,-0.07 0.25,-0.06 0.25,-0.07 0.26,-0.07 0.25,-0.06 0.25,-0.07 0.25,-0.07 0.26,-0.07 0.25,-0.06 0.25,-0.07 0.26,-0.07 0.25,-0.07 0.25,-0.07 0.26,-0.07 0.25,-0.07 0.25,-0.07 0.25,-0.06 0.26,-0.07 0.25,-0.07 0.25,-0.07 0.26,-0.07 0.25,-0.07 0.25,-0.07 0.25,-0.07 0.26,-0.08 0.25,-0.07 0.25,-0.07 0.26,-0.07 0.25,-0.07 0.25,-0.07 0.25,-0.07 0.26,-0.08 0.25,-0.07 0.25,-0.07 0.26,-0.07 0.25,-0.08 0.25,-0.07 0.25,-0.07 0.26,-0.07 0.25,-0.08 0.25,-0.07 0.26,-0.08 0.25,-0.07 0.25,-0.07 0.26,-0.08 0.25,-0.07 0.25,-0.08 0.25,-0.07 0.26,-0.08 0.25,-0.07 0.25,-0.08 0.26,-0.07 0.25,-0.08 0.25,-0.07 0.25,-0.08 0.26,-0.08 0.25,-0.07 0.25,-0.08 0.26,-0.08 0.25,-0.07 0.25,-0.08 0.25,-0.08 0.26,-0.08 0.25,-0.07 0.25,-0.08 0.26,-0.08 0.25,-0.08 0.25,-0.08 0.25,-0.08 0.26,-0.07 0.25,-0.08 0.25,-0.08 0.26,-0.08 0.25,-0.08 0.25,-0.08 0.26,-0.08 0.25,-0.08 0.25,-0.08 0.25,-0.08 0.26,-0.08 0.25,-0.09 0.25,-0.08 0.26,-0.08 0.25,-0.08 0.25,-0.08 0.25,-0.08 0.26,-0.09 0.25,-0.08 0.25,-0.08 0.26,-0.08 0.25,-0.09 0.25,-0.08 0.25,-0.08 0.26,-0.09 0.25,-0.08 0.25,-0.08 0.26,-0.09 0.25,-0.08 0.25,-0.09 0.25,-0.08 0.26,-0.09 0.25,-0.08 0.25,-0.09 0.26,-0.08 0.25,-0.09 0.25,-0.08 0.26,-0.09 0.25,-0.09 0.25,-0.08 0.25,-0.09 0.26,-0.09 0.25,-0.08 0.25,-0.09 0.26,-0.09 0.25,-0.09 0.25,-0.09 0.25,-0.08 0.26,-0.09 0.25,-0.09 0.25,-0.09 0.26,-0.09 0.25,-0.09 0.25,-0.09 0.25,-0.09 0.26,-0.09 0.25,-0.09 0.25,-0.09 0.26,-0.09 0.25,-0.09 0.25,-0.09 0.25,-0.09 0.26,-0.09 0.25,-0.09 0.25,-0.09 0.26,-0.1 0.25,-0.09 0.25,-0.09 0.26,-0.09 0.25,-0.1 0.25,-0.09 0.25,-0.09 0.26,-0.1 0.25,-0.09 0.25,-0.09 0.26,-0.1 0.25,-0.09 0.25,-0.1 0.25,-0.09 0.26,-0.1 0.25,-0.09 0.25,-0.1 0.26,-0.09 0.25,-0.1 0.25,-0.09 0.25,-0.1 0.26,-0.1 0.25,-0.09 0.25,-0.1 0.26,-0.1 0.25,-0.1 0.25,-0.09 0.25,-0.1 0.26,-0.1 0.25,-0.1 0.25,-0.1 0.26,-0.09 0.25,-0.1 0.25,-0.1 0.25,-0.1 0.26,-0.1 0.25,-0.1 0.25,-0.1 0.26,-0.1 0.25,-0.1 0.25,-0.1 0.26,-0.1 0.25,-0.1 0.25,-0.11 0.25,-0.1 0.26,-0.1 0.25,-0.1 0.25,-0.1 0.26,-0.11 0.25,-0.1 0.25,-0.1 0.25,-0.11 0.26,-0.1 0.25,-0.1 0.25,-0.11 0.26,-0.1 0.25,-0.1 0.25,-0.11 0.25,-0.1 0.26,-0.11 0.25,-0.1 0.25,-0.11 0.26,-0.11 0.25,-0.1 0.25,-0.11 0.25,-0.1 0.26,-0.11 0.25,-0.11 0.25,-0.1 0.26,-0.11 0.25,-0.11 0.25,-0.11 0.26,-0.11 0.25,-0.1 0.25,-0.11 0.25,-0.11 0.26,-0.11 0.25,-0.11 0.25,-0.11 0.26,-0.11 0.25,-0.11 0.25,-0.11 0.25,-0.11 0.26,-0.11 0.25,-0.11 0.25,-0.11 0.26,-0.11 0.25,-0.11 0.25,-0.12 0.25,-0.11 0.26,-0.11 0.25,-0.11 0.25,-0.12 0.26,-0.11 0.25,-0.11 0.25,-0.12 0.25,-0.11 0.26,-0.11 0.25,-0.12 0.25,-0.11 0.26,-0.12 0.25,-0.11 0.25,-0.12 0.26,-0.11 0.25,-0.12 0.25,-0.11 0.25,-0.12 0.26,-0.12 0.25,-0.11 0.25,-0.12 0.26,-0.12 0.25,-0.12 0.25,-0.11 0.25,-0.12 0.26,-0.12 0.25,-0.12 0.25,-0.12 0.26,-0.12 0.25,-0.11 0.25,-0.12 0.25,-0.12 0.26,-0.12 0.25,-0.12 0.25,-0.12 0.26,-0.12 0.25,-0.13 0.25,-0.12 0.25,-0.12 0.26,-0.12 0.25,-0.12 0.25,-0.12 0.26,-0.13 0.25,-0.12 0.25,-0.12 0.26,-0.12 0.25,-0.13 0.25,-0.12 0.25,-0.13 0.26,-0.12 0.25,-0.12 0.25,-0.13 0.26,-0.12 0.25,-0.13 0.25,-0.12 0.25,-0.13 0.26,-0.13 0.25,-0.12 0.25,-0.13 0.26,-0.13 0.25,-0.12 0.25,-0.13 0.25,-0.13 0.26,-0.12 0.25,-0.13 0.25,-0.13 0.26,-0.13 0.25,-0.13 0.25,-0.13 0.25,-0.13 0.26,-0.13 0.25,-0.13 0.25,-0.13 0.26,-0.13 0.25,-0.13 0.25,-0.13 0.26,-0.13 0.25,-0.13 0.25,-0.13 0.25,-0.13 0.26,-0.14 0.25,-0.13 0.25,-0.13 0.26,-0.13 0.25,-0.14 0.25,-0.13 0.25,-0.13 0.26,-0.14 0.25,-0.13 0.25,-0.14 0.26,-0.13 0.25,-0.14 0.25,-0.13 0.25,-0.14 0.26,-0.13 0.25,-0.14 0.25,-0.13 0.26,-0.14 0.25,-0.14 0.25,-0.13 0.25,-0.14 0.26,-0.14 0.25,-0.14 0.25,-0.14 0.26,-0.13 0.25,-0.14 0.25,-0.14 0.25,-0.14 0.26,-0.14 0.25,-0.14 0.25,-0.14 0.26,-0.14 0.25,-0.14 0.25,-0.14 0.26,-0.14 0.25,-0.14 0.25,-0.14 0.25,-0.15 0.26,-0.14 0.25,-0.14 0.25,-0.14 0.26,-0.15 0.25,-0.14 0.25,-0.14 0.25,-0.15 0.26,-0.14 0.25,-0.14 0.25,-0.15 0.26,-0.14 0.25,-0.15 0.25,-0.14 0.25,-0.15 0.26,-0.15 0.25,-0.14 0.25,-0.15 0.26,-0.14 0.25,-0.15 0.25,-0.15 0.25,-0.15 0.26,-0.14 0.25,-0.15 0.25,-0.15 0.26,-0.15 0.25,-0.15 0.25,-0.15 0.26,-0.15 0.25,-0.15 0.25,-0.15 0.25,-0.15 0.26,-0.15 0.25,-0.15 0.25,-0.15 0.26,-0.15 0.25,-0.15 0.25,-0.15 0.25,-0.15 0.26,-0.16 0.25,-0.15 0.25,-0.15 0.26,-0.15 0.25,-0.16 0.25,-0.15 0.25,-0.15 0.26,-0.16 0.25,-0.15 0.25,-0.16 0.26,-0.15 0.25,-0.16 0.25,-0.15 0.25,-0.16 0.26,-0.16 0.25,-0.15 0.25,-0.16 0.26,-0.16 0.25,-0.15 0.25,-0.16 0.26,-0.16 0.25,-0.16 0.25,-0.15 0.25,-0.16 0.26,-0.16 0.25,-0.16 0.25,-0.16 0.26,-0.16 0.25,-0.16 0.25,-0.16 0.25,-0.16 0.26,-0.16 0.25,-0.16 0.25,-0.16 0.26,-0.16 0.25,-0.16 0.25,-0.17 0.25,-0.16 0.26,-0.16 0.25,-0.16 0.25,-0.17 0.26,-0.16 0.25,-0.16 0.25,-0.17 0.25,-0.16 0.26,-0.17 0.25,-0.16 0.25,-0.17 0.26,-0.16 0.25,-0.17 0.25,-0.16 0.26,-0.17 0.25,-0.16 0.25,-0.17 0.25,-0.17 0.26,-0.17 0.25,-0.16 0.25,-0.17 0.26,-0.17 0.25,-0.17 0.25,-0.16 0.25,-0.17 0.26,-0.17 0.25,-0.17 0.25,-0.17 0.26,-0.17 0.25,-0.17 0.25,-0.17 0.25,-0.17 0.26,-0.17 0.25,-0.17 0.25,-0.18 0.26,-0.17 0.25,-0.17 0.25,-0.17 0.25,-0.17 0.26,-0.18 0.25,-0.17 0.25,-0.17 0.26,-0.18 0.25,-0.17 0.25,-0.17 0.26,-0.18 0.25,-0.17 0.25,-0.18 0.25,-0.17 0.26,-0.18 0.25,-0.17 0.25,-0.18 0.26,-0.18 0.25,-0.17 0.25,-0.18 0.25,-0.18 0.26,-0.17 0.25,-0.18 0.25,-0.18 0.26,-0.18 0.25,-0.18 0.25,-0.17 0.25,-0.18 0.26,-0.18 0.25,-0.18 0.25,-0.18 0.26,-0.18 0.25,-0.18 0.25,-0.18 0.25,-0.18 0.26,-0.18 0.25,-0.18 0.25,-0.19 0.26,-0.18 0.25,-0.18 0.25,-0.18 0.25,-0.18 0.26,-0.19 0.25,-0.18 0.25,-0.18 0.26,-0.19 0.25,-0.18 0.25,-0.19 0.26,-0.18 0.25,-0.18 0.25,-0.19 0.25,-0.18 0.26,-0.19 0.25,-0.19 0.25,-0.18 0.26,-0.19 0.25,-0.18 0.25,-0.19 0.25,-0.19 0.26,-0.18 0.25,-0.19 0.25,-0.19 0.26,-0.19 0.25,-0.19 0.25,-0.18 0.25,-0.19 0.26,-0.19 0.25,-0.19 0.25,-0.19 0.26,-0.19 0.25,-0.19 0.25,-0.19 0.25,-0.19 0.26,-0.19 0.25,-0.19 0.25,-0.19 0.26,-0.2 0.25,-0.19 0.25,-0.19 0.26,-0.19 0.25,-0.19 0.25,-0.2 0.25,-0.19 0.26,-0.19 0.25,-0.2 0.25,-0.19 0.26,-0.19 0.25,-0.2 0.25,-0.19 0.25,-0.2 0.26,-0.19 0.25,-0.2 0.25,-0.19 0.26,-0.2 0.25,-0.2 0.25,-0.19 0.25,-0.2 0.26,-0.19 0.25,-0.2 0.25,-0.2 0.26,-0.2 0.25,-0.19" />
          <path
             inkscape:connector-curvature="0"
             id="path9122"
             style="fill:none;stroke:#1c629c;stroke-width:4.26999998;stroke-linecap:butt;stroke-linejoin:round;stroke-miterlimit:10;stroke-dasharray:8.54, 8.54;stroke-dashoffset:0;stroke-opacity:1"
             d="m 42.64,213.19 0.25,-0.08 0.25,-0.09 0.26,-0.08 0.25,-0.08 0.25,-0.08 0.26,-0.08 0.25,-0.08 0.25,-0.08 0.25,-0.08 0.26,-0.08 0.25,-0.09 0.25,-0.08 0.26,-0.08 0.25,-0.08 0.25,-0.09 0.25,-0.08 0.26,-0.08 0.25,-0.09 0.25,-0.08 0.26,-0.08 0.25,-0.09 0.25,-0.08 0.25,-0.09 0.26,-0.08 0.25,-0.08 0.25,-0.09 0.26,-0.08 0.25,-0.09 0.25,-0.09 0.26,-0.08 0.25,-0.09 0.25,-0.08 0.25,-0.09 0.26,-0.09 0.25,-0.08 0.25,-0.09 0.26,-0.09 0.25,-0.08 0.25,-0.09 0.25,-0.09 0.26,-0.09 0.25,-0.09 0.25,-0.08 0.26,-0.09 0.25,-0.09 0.25,-0.09 0.25,-0.09 0.26,-0.09 0.25,-0.09 0.25,-0.09 0.26,-0.09 0.25,-0.09 0.25,-0.09 0.25,-0.09 0.26,-0.09 0.25,-0.09 0.25,-0.09 0.26,-0.1 0.25,-0.09 0.25,-0.09 0.26,-0.09 0.25,-0.09 0.25,-0.1 0.25,-0.09 0.26,-0.09 0.25,-0.1 0.25,-0.09 0.26,-0.09 0.25,-0.1 0.25,-0.09 0.25,-0.09 0.26,-0.1 0.25,-0.09 0.25,-0.1 0.26,-0.09 0.25,-0.1 0.25,-0.09 0.25,-0.1 0.26,-0.1 0.25,-0.09 0.25,-0.1 0.26,-0.1 0.25,-0.09 0.25,-0.1 0.25,-0.1 0.26,-0.09 0.25,-0.1 0.25,-0.1 0.26,-0.1 0.25,-0.1 0.25,-0.1 0.26,-0.09 0.25,-0.1 0.25,-0.1 0.25,-0.1 0.26,-0.1 0.25,-0.1 0.25,-0.1 0.26,-0.1 0.25,-0.1 0.25,-0.1 0.25,-0.11 0.26,-0.1 0.25,-0.1 0.25,-0.1 0.26,-0.1 0.25,-0.11 0.25,-0.1 0.25,-0.1 0.26,-0.1 0.25,-0.11 0.25,-0.1 0.26,-0.1 0.25,-0.11 0.25,-0.1 0.25,-0.11 0.26,-0.1 0.25,-0.1 0.25,-0.11 0.26,-0.11 0.25,-0.1 0.25,-0.11 0.26,-0.1 0.25,-0.11 0.25,-0.1 0.25,-0.11 0.26,-0.11 0.25,-0.11 0.25,-0.1 0.26,-0.11 0.25,-0.11 0.25,-0.11 0.25,-0.1 0.26,-0.11 0.25,-0.11 0.25,-0.11 0.26,-0.11 0.25,-0.11 0.25,-0.11 0.25,-0.11 0.26,-0.11 0.25,-0.11 0.25,-0.11 0.26,-0.11 0.25,-0.11 0.25,-0.11 0.25,-0.11 0.26,-0.12 0.25,-0.11 0.25,-0.11 0.26,-0.11 0.25,-0.12 0.25,-0.11 0.25,-0.11 0.26,-0.12 0.25,-0.11 0.25,-0.11 0.26,-0.12 0.25,-0.11 0.25,-0.12 0.26,-0.11 0.25,-0.12 0.25,-0.11 0.25,-0.12 0.26,-0.11 0.25,-0.12 0.25,-0.12 0.26,-0.11 0.25,-0.12 0.25,-0.12 0.25,-0.12 0.26,-0.11 0.25,-0.12 0.25,-0.12 0.26,-0.12 0.25,-0.12 0.25,-0.11 0.25,-0.12 0.26,-0.12 0.25,-0.12 0.25,-0.12 0.26,-0.12 0.25,-0.12 0.25,-0.12 0.25,-0.12 0.26,-0.13 0.25,-0.12 0.25,-0.12 0.26,-0.12 0.25,-0.12 0.25,-0.13 0.26,-0.12 0.25,-0.12 0.25,-0.12 0.25,-0.13 0.26,-0.12 0.25,-0.12 0.25,-0.13 0.26,-0.12 0.25,-0.13 0.25,-0.12 0.25,-0.13 0.26,-0.12 0.25,-0.13 0.25,-0.12 0.26,-0.13 0.25,-0.13 0.25,-0.12 0.25,-0.13 0.26,-0.13 0.25,-0.13 0.25,-0.12 0.26,-0.13 0.25,-0.13 0.25,-0.13 0.25,-0.13 0.26,-0.13 0.25,-0.13 0.25,-0.12 0.26,-0.13 0.25,-0.13 0.25,-0.13 0.26,-0.14 0.25,-0.13 0.25,-0.13 0.25,-0.13 0.26,-0.13 0.25,-0.13 0.25,-0.13 0.26,-0.14 0.25,-0.13 0.25,-0.13 0.25,-0.13 0.26,-0.14 0.25,-0.13 0.25,-0.14 0.26,-0.13 0.25,-0.13 0.25,-0.14 0.25,-0.13 0.26,-0.14 0.25,-0.13 0.25,-0.14 0.26,-0.14 0.25,-0.13 0.25,-0.14 0.25,-0.14 0.26,-0.13 0.25,-0.14 0.25,-0.14 0.26,-0.14 0.25,-0.13 0.25,-0.14 0.26,-0.14 0.25,-0.14 0.25,-0.14 0.25,-0.14 0.26,-0.14 0.25,-0.14 0.25,-0.14 0.26,-0.14 0.25,-0.14 0.25,-0.14 0.25,-0.14 0.26,-0.14 0.25,-0.14 0.25,-0.15 0.26,-0.14 0.25,-0.14 0.25,-0.14 0.25,-0.15 0.26,-0.14 0.25,-0.14 0.25,-0.15 0.26,-0.14 0.25,-0.15 0.25,-0.14 0.25,-0.15 0.26,-0.14 0.25,-0.15 0.25,-0.14 0.26,-0.15 0.25,-0.15 0.25,-0.14 0.26,-0.15 0.25,-0.15 0.25,-0.14 0.25,-0.15 0.26,-0.15 0.25,-0.15 0.25,-0.15 0.26,-0.14 0.25,-0.15 0.25,-0.15 0.25,-0.15 0.26,-0.15 0.25,-0.15 0.25,-0.15 0.26,-0.15 0.25,-0.15 0.25,-0.16 0.25,-0.15 0.26,-0.15 0.25,-0.15 0.25,-0.15 0.26,-0.15 0.25,-0.16 0.25,-0.15 0.25,-0.15 0.26,-0.16 0.25,-0.15 0.25,-0.16 0.26,-0.15 0.25,-0.15 0.25,-0.16 0.25,-0.15 0.26,-0.16 0.25,-0.16 0.25,-0.15 0.26,-0.16 0.25,-0.15 0.25,-0.16 0.26,-0.16 0.25,-0.16 0.25,-0.15 0.25,-0.16 0.26,-0.16 0.25,-0.16 0.25,-0.16 0.26,-0.16 0.25,-0.16 0.25,-0.15 0.25,-0.16 0.26,-0.16 0.25,-0.16 0.25,-0.17 0.26,-0.16 0.25,-0.16 0.25,-0.16 0.25,-0.16 0.26,-0.16 0.25,-0.16 0.25,-0.17 0.26,-0.16 0.25,-0.16 0.25,-0.17 0.25,-0.16 0.26,-0.16 0.25,-0.17 0.25,-0.16 0.26,-0.17 0.25,-0.16 0.25,-0.17 0.26,-0.16 0.25,-0.17 0.25,-0.16 0.25,-0.17 0.26,-0.17 0.25,-0.16 0.25,-0.17 0.26,-0.17 0.25,-0.17 0.25,-0.16 0.25,-0.17 0.26,-0.17 0.25,-0.17 0.25,-0.17 0.26,-0.17 0.25,-0.17 0.25,-0.17 0.25,-0.17 0.26,-0.17 0.25,-0.17 0.25,-0.17 0.26,-0.17 0.25,-0.17 0.25,-0.17 0.25,-0.17 0.26,-0.18 0.25,-0.17 0.25,-0.17 0.26,-0.17 0.25,-0.18 0.25,-0.17 0.26,-0.18 0.25,-0.17 0.25,-0.17 0.25,-0.18 0.26,-0.17 0.25,-0.18 0.25,-0.17 0.26,-0.18 0.25,-0.18 0.25,-0.17 0.25,-0.18 0.26,-0.17 0.25,-0.18 0.25,-0.18 0.26,-0.18 0.25,-0.17 0.25,-0.18 0.25,-0.18 0.26,-0.18 0.25,-0.18 0.25,-0.18 0.26,-0.18 0.25,-0.18 0.25,-0.18 0.25,-0.18 0.26,-0.18 0.25,-0.18 0.25,-0.18 0.26,-0.18 0.25,-0.18 0.25,-0.18 0.26,-0.18 0.25,-0.19 0.25,-0.18 0.25,-0.18 0.26,-0.18 0.25,-0.19 0.25,-0.18 0.26,-0.19 0.25,-0.18 0.25,-0.18 0.25,-0.19 0.26,-0.18 0.25,-0.19 0.25,-0.18 0.26,-0.19 0.25,-0.19 0.25,-0.18 0.25,-0.19 0.26,-0.18 0.25,-0.19 0.25,-0.19 0.26,-0.19 0.25,-0.18 0.25,-0.19 0.25,-0.19 0.26,-0.19 0.25,-0.19 0.25,-0.19 0.26,-0.18 0.25,-0.19 0.25,-0.19 0.26,-0.19 0.25,-0.19 0.25,-0.19 0.25,-0.2 0.26,-0.19 0.25,-0.19 0.25,-0.19 0.26,-0.19 0.25,-0.19 0.25,-0.19 0.25,-0.2 0.26,-0.19 0.25,-0.19 0.25,-0.2 0.26,-0.19 0.25,-0.19 0.25,-0.2 0.25,-0.19 0.26,-0.2 0.25,-0.19 0.25,-0.2 0.26,-0.19 0.25,-0.2 0.25,-0.19 0.25,-0.2 0.26,-0.19 0.25,-0.2 0.25,-0.2 0.26,-0.19 0.25,-0.2 0.25,-0.2 0.25,-0.2 0.26,-0.19 0.25,-0.2 0.25,-0.2 0.26,-0.2 0.25,-0.2 0.25,-0.2 0.26,-0.2 0.25,-0.2 0.25,-0.2 0.25,-0.2 0.26,-0.2 0.25,-0.2 0.25,-0.2 0.26,-0.2 0.25,-0.2 0.25,-0.2 0.25,-0.2 0.26,-0.21 0.25,-0.2 0.25,-0.2 0.26,-0.2 0.25,-0.21 0.25,-0.2 0.25,-0.2 0.26,-0.21 0.25,-0.2 0.25,-0.2 0.26,-0.21 0.25,-0.2 0.25,-0.21 0.25,-0.2 0.26,-0.21 0.25,-0.2 0.25,-0.21 0.26,-0.2 0.25,-0.21 0.25,-0.21 0.26,-0.2 0.25,-0.21 0.25,-0.21 0.25,-0.2 0.26,-0.21 0.25,-0.21 0.25,-0.21 0.26,-0.2 0.25,-0.21 0.25,-0.21 0.25,-0.21 0.26,-0.21 0.25,-0.21 0.25,-0.21 0.26,-0.21 0.25,-0.21 0.25,-0.21 0.25,-0.21 0.26,-0.21 0.25,-0.21 0.25,-0.21 0.26,-0.21 0.25,-0.21 0.25,-0.21 0.25,-0.22 0.26,-0.21 0.25,-0.21 0.25,-0.21 0.26,-0.21 0.25,-0.22 0.25,-0.21 0.26,-0.21 0.25,-0.22 0.25,-0.21 0.25,-0.21 0.26,-0.22 0.25,-0.21 0.25,-0.22 0.26,-0.21 0.25,-0.22 0.25,-0.21 0.25,-0.22 0.26,-0.21 0.25,-0.22 0.25,-0.21 0.26,-0.22 0.25,-0.22 0.25,-0.21 0.25,-0.22 0.26,-0.22 0.25,-0.21 0.25,-0.22 0.26,-0.22 0.25,-0.22 0.25,-0.21 0.25,-0.22 0.26,-0.22 0.25,-0.22 0.25,-0.22 0.26,-0.22 0.25,-0.21 0.25,-0.22 0.26,-0.22 0.25,-0.22 0.25,-0.22 0.25,-0.22 0.26,-0.22 0.25,-0.22 0.25,-0.22 0.26,-0.22 0.25,-0.22 0.25,-0.23 0.25,-0.22 0.26,-0.22 0.25,-0.22 0.25,-0.22 0.26,-0.22 0.25,-0.22 0.25,-0.23 0.25,-0.22 0.26,-0.22 0.25,-0.22 0.25,-0.23 0.26,-0.22 0.25,-0.22 0.25,-0.23 0.25,-0.22 0.26,-0.22 0.25,-0.23 0.25,-0.22 0.26,-0.23 0.25,-0.22 0.25,-0.23 0.26,-0.22 0.25,-0.23 0.25,-0.22 0.25,-0.23 0.26,-0.22 0.25,-0.23 0.25,-0.22 0.26,-0.23 0.25,-0.22 0.25,-0.23 0.25,-0.23 0.26,-0.22 0.25,-0.23 0.25,-0.23 0.26,-0.22 0.25,-0.23 0.25,-0.23 0.25,-0.23 0.26,-0.22 0.25,-0.23 0.25,-0.23 0.26,-0.23 0.25,-0.22 0.25,-0.23 0.25,-0.23 0.26,-0.23 0.25,-0.23 0.25,-0.23 0.26,-0.23 0.25,-0.23 0.25,-0.23 0.25,-0.22 0.26,-0.23 0.25,-0.23 0.25,-0.23 0.26,-0.23 0.25,-0.23 0.25,-0.23 0.26,-0.23 0.25,-0.23 0.25,-0.24 0.25,-0.23 0.26,-0.23 0.25,-0.23 0.25,-0.23 0.26,-0.23 0.25,-0.23 0.25,-0.23 0.25,-0.23 0.26,-0.24 0.25,-0.23 0.25,-0.23 0.26,-0.23 0.25,-0.23 0.25,-0.24 0.25,-0.23 0.26,-0.23 0.25,-0.23 0.25,-0.24 0.26,-0.23 0.25,-0.23 0.25,-0.24 0.25,-0.23 0.26,-0.23 0.25,-0.24 0.25,-0.23 0.26,-0.23 0.25,-0.24 0.25,-0.23 0.26,-0.24 0.25,-0.23 0.25,-0.23 0.25,-0.24 0.26,-0.23 0.25,-0.24 0.25,-0.23 0.26,-0.24 0.25,-0.23 0.25,-0.24 0.25,-0.23 0.26,-0.24 0.25,-0.23 0.25,-0.24 0.26,-0.23 0.25,-0.24 0.25,-0.23 0.25,-0.24 0.26,-0.23 0.25,-0.24 0.25,-0.24 0.26,-0.23 0.25,-0.24" />
        </g>
      </g>
      <g
         id="g9124" />
      <g
         id="g9126" />
      <g
         id="g9128" />
      <g
         id="g9130" />
      <g
         id="g9132" />
      <g
         id="g9134" />
      <g
         id="g9136" />
      <g
         id="g9138" />
      <g
         id="g9140" />
      <g
         id="g9142" />
      <g
         id="g9144" />
      <g
         id="g9146" />
      <g
         id="g9148" />
      <g
         id="g9150" />
      <g
         id="g9152" />
      <g
         id="g9154">
        <text
           id="text9158"
           style="font-variant:normal;font-weight:normal;font-size:10px;font-family:Helvetica;-inkscape-font-specification:Helvetica;writing-mode:lr-tb;fill:#000000;fill-opacity:1;fill-rule:nonzero;stroke:none"
           transform="matrix(0,1,1,0,26.66,40.33)">
          <tspan
             id="tspan9156"
             sodipodi:role="line"
             y="0"
             x="0 5.5599999 8.3400002">0.4</tspan>
        </text>
        <text
           id="text9162"
           style="font-variant:normal;font-weight:normal;font-size:10px;font-family:Helvetica;-inkscape-font-specification:Helvetica;writing-mode:lr-tb;fill:#000000;fill-opacity:1;fill-rule:nonzero;stroke:none"
           transform="matrix(0,1,1,0,26.66,105.64)">
          <tspan
             id="tspan9160"
             sodipodi:role="line"
             y="0"
             x="0 5.5599999 8.3400002">0.6</tspan>
        </text>
        <text
           id="text9166"
           style="font-variant:normal;font-weight:normal;font-size:10px;font-family:Helvetica;-inkscape-font-specification:Helvetica;writing-mode:lr-tb;fill:#000000;fill-opacity:1;fill-rule:nonzero;stroke:none"
           transform="matrix(0,1,1,0,26.66,170.95)">
          <tspan
             id="tspan9164"
             sodipodi:role="line"
             y="0"
             x="0 5.5599999 8.3400002">0.8</tspan>
        </text>
      </g>
      <g
         id="g9168" />
      <g
         id="g9170">
        <path
           inkscape:connector-curvature="0"
           id="path9172"
           style="fill:none;stroke:#333333;stroke-width:1.07000005;stroke-linecap:butt;stroke-linejoin:round;stroke-miterlimit:10;stroke-dasharray:none;stroke-opacity:1"
           d="m 31.05,47.28 h 2.74" />
        <path
           inkscape:connector-curvature="0"
           id="path9174"
           style="fill:none;stroke:#333333;stroke-width:1.07000005;stroke-linecap:butt;stroke-linejoin:round;stroke-miterlimit:10;stroke-dasharray:none;stroke-opacity:1"
           d="m 31.05,112.59 h 2.74" />
        <path
           inkscape:connector-curvature="0"
           id="path9176"
           style="fill:none;stroke:#333333;stroke-width:1.07000005;stroke-linecap:butt;stroke-linejoin:round;stroke-miterlimit:10;stroke-dasharray:none;stroke-opacity:1"
           d="m 31.05,177.9 h 2.74" />
      </g>
      <g
         id="g9178" />
      <g
         id="g9180" />
      <g
         id="g9182" />
      <g
         id="g9184" />
      <g
         id="g9186" />
      <g
         id="g9188" />
      <g
         id="g9190" />
      <g
         id="g9192" />
      <g
         id="g9194" />
      <g
         id="g9196">
        <path
           inkscape:connector-curvature="0"
           id="path9198"
           style="fill:none;stroke:#333333;stroke-width:1.07000005;stroke-linecap:butt;stroke-linejoin:round;stroke-miterlimit:10;stroke-dasharray:none;stroke-opacity:1"
           d="m 82.24,31.05 v 2.74" />
        <path
           inkscape:connector-curvature="0"
           id="path9200"
           style="fill:none;stroke:#333333;stroke-width:1.07000005;stroke-linecap:butt;stroke-linejoin:round;stroke-miterlimit:10;stroke-dasharray:none;stroke-opacity:1"
           d="m 140.55,31.05 v 2.74" />
        <path
           inkscape:connector-curvature="0"
           id="path9202"
           style="fill:none;stroke:#333333;stroke-width:1.07000005;stroke-linecap:butt;stroke-linejoin:round;stroke-miterlimit:10;stroke-dasharray:none;stroke-opacity:1"
           d="m 198.86,31.05 v 2.74" />
      </g>
      <g
         id="g9204" />
      <g
         id="g9206">
        <text
           id="text9210"
           style="font-variant:normal;font-weight:normal;font-size:10px;font-family:Helvetica;-inkscape-font-specification:Helvetica;writing-mode:lr-tb;fill:#4d4d4d;fill-opacity:1;fill-rule:nonzero;stroke:none"
           transform="matrix(1,0,0,-1,79.46,21.68)">
          <tspan
             id="tspan9208"
             y="0"
             x="0">6</tspan>
        </text>
        <text
           id="text9214"
           style="font-variant:normal;font-weight:normal;font-size:10px;font-family:Helvetica;-inkscape-font-specification:Helvetica;writing-mode:lr-tb;fill:#4d4d4d;fill-opacity:1;fill-rule:nonzero;stroke:none"
           transform="matrix(1,0,0,-1,137.77,21.68)">
          <tspan
             id="tspan9212"
             y="0"
             x="0">8</tspan>
        </text>
        <text
           id="text9218"
           style="font-variant:normal;font-weight:normal;font-size:10px;font-family:Helvetica;-inkscape-font-specification:Helvetica;writing-mode:lr-tb;fill:#4d4d4d;fill-opacity:1;fill-rule:nonzero;stroke:none"
           transform="matrix(1,0,0,-1,193.3,21.68)">
          <tspan
             id="tspan9216"
             sodipodi:role="line"
             y="0"
             x="0 5.5599999">10</tspan>
        </text>
      </g>
      <g
         id="g9220" />
      <g
         id="g9222" />
      <g
         id="g9224" />
      <g
         id="g9226" />
      <g
         id="g9228" />
      <g
         id="g9230">
        <text
           id="text9234"
           style="font-variant:normal;font-weight:normal;font-size:12px;font-family:Helvetica;-inkscape-font-specification:Helvetica;writing-mode:lr-tb;fill:#000000;fill-opacity:1;fill-rule:nonzero;stroke:none"
           transform="matrix(1,0,0,-1,64.99,8.12)">
          <tspan
             id="tspan9232"
             sodipodi:role="line"
             y="0"
             x="0 5.8920002 12.564 19.236 25.908001 32.580002 36.456001 43.127998 49.799999 56.472 59.136002 65.136002 68.472 79.32 85.991997 89.328003 96 99.996002 103.332 106.668 113.34 120.012 126.324">Topographic Water Index</tspan>
        </text>
      </g>
      <g
         id="g9236" />
      <g
         id="g9238">
        <text
           id="text9242"
           style="font-variant:normal;font-weight:normal;font-size:12px;font-family:Helvetica;-inkscape-font-specification:Helvetica;writing-mode:lr-tb;fill:#000000;fill-opacity:1;fill-rule:nonzero;stroke:none"
           transform="matrix(0,1,1,0,14.1,96.76)">
          <tspan
             id="tspan9240"
             sodipodi:role="line"
             y="0"
             x="0 8.0039997 12 18.672001 25.344 32.015999 36.492001 39.827999 42.492001 49.164001 55.835999 59.172001 67.176003 69.839996 76.512001">Proportion Pine</tspan>
        </text>
      </g>
      <g
         id="g9244" />
      <g
         id="g9246" />
      <g
         id="g9248" />
      <g
         id="g9250" />
      <g
         id="g9252" />
      <g
         id="g9254" />
      <g
         id="g9256" />
      <g
         id="g9258" />
      <g
         id="g9260" />
      <g
         id="g9262" />
      <g
         id="g9264" />
      <g
         id="g9266" />
    </g>
    <text
       id="text5068"
       style="font-style:normal;font-variant:normal;font-weight:normal;font-stretch:normal;font-size:3.52777767px;font-family:Helvetica;-inkscape-font-specification:'Helvetica, Normal';font-variant-ligatures:normal;font-variant-caps:normal;font-variant-numeric:normal;font-feature-settings:normal;text-align:start;writing-mode:lr-tb;text-anchor:start;fill:#000000;fill-opacity:1;fill-rule:nonzero;stroke:none;stroke-width:0.35277775"
       x="39.395061"
       y="90.038208">
      <tspan
         style="stroke-width:0.35277775"
         sodipodi:role="line"
         id="tspan5402"
         x="39.395061"
         y="90.038208">Planted</tspan>
    </text>
    <text
       id="text5082"
       style="font-style:normal;font-variant:normal;font-weight:normal;font-stretch:normal;font-size:3.52777767px;font-family:Helvetica;-inkscape-font-specification:'Helvetica, Normal';font-variant-ligatures:normal;font-variant-caps:normal;font-variant-numeric:normal;font-feature-settings:normal;text-align:start;writing-mode:lr-tb;text-anchor:start;fill:#000000;fill-opacity:1;fill-rule:nonzero;stroke:none;stroke-width:0.35277775"
       x="39.056393"
       y="95.608391">
      <tspan
         style="stroke-width:0.35277775"
         sodipodi:role="line"
         id="tspan5404"
         x="39.056393"
         y="95.608391">Unplanted</tspan>
    </text>
    <path
       style="fill:#6d7274;fill-opacity:1;stroke:#1c629c;stroke-width:1.07639873px;stroke-linecap:butt;stroke-linejoin:miter;stroke-opacity:1"
       d="m 57.697823,88.684242 8.03975,6e-4"
       id="path7395"
       inkscape:connector-curvature="0"
       sodipodi:nodetypes="cc" />
    <path
       style="fill:#6d7274;fill-opacity:1;stroke:#1c629c;stroke-width:1.07599998;stroke-linecap:butt;stroke-linejoin:miter;stroke-miterlimit:4;stroke-dasharray:2.15199996, 1.07599997999999997;stroke-dashoffset:0;stroke-opacity:1"
       d="m 57.697373,94.327937 8.03975,6.08e-4"
       id="path7395-1"
       inkscape:connector-curvature="0"
       sodipodi:nodetypes="cc" />
  </g>
</svg>
