<?xml version="1.0" encoding="UTF-8" standalone="no"?>
<!-- Created with Inkscape (http://www.inkscape.org/) -->

<svg
   xmlns:dc="http://purl.org/dc/elements/1.1/"
   xmlns:cc="http://creativecommons.org/ns#"
   xmlns:rdf="http://www.w3.org/1999/02/22-rdf-syntax-ns#"
   xmlns:svg="http://www.w3.org/2000/svg"
   xmlns="http://www.w3.org/2000/svg"
   xmlns:sodipodi="http://sodipodi.sourceforge.net/DTD/sodipodi-0.dtd"
   xmlns:inkscape="http://www.inkscape.org/namespaces/inkscape"
   width="82.927467mm"
   height="88.007469mm"
   viewBox="0 0 82.927467 88.007469"
   version="1.1"
   id="svg9369"
   inkscape:version="0.92.3 (2405546, 2018-03-11)"
   sodipodi:docname="year_comp.svg"
   inkscape:export-filename="C:\Users\Quinn Sorenson\Documents\R\Git_R\postfire-management\figures\manuscript\year_comp.png"
   inkscape:export-xdpi="400"
   inkscape:export-ydpi="400">
  <defs
     id="defs9363">
    <clipPath
       id="clipPath9956"
       clipPathUnits="userSpaceOnUse">
      <path
         inkscape:connector-curvature="0"
         id="path9954"
         d="M 33.79,33.79 H 228.52 V 242.92 H 33.79 Z" />
    </clipPath>
  </defs>
  <sodipodi:namedview
     id="base"
     pagecolor="#ffffff"
     bordercolor="#666666"
     borderopacity="1.0"
     inkscape:pageopacity="0.0"
     inkscape:pageshadow="2"
     inkscape:zoom="2.0246816"
     inkscape:cx="183.8703"
     inkscape:cy="97.521457"
     inkscape:document-units="mm"
     inkscape:current-layer="layer1"
     showgrid="false"
     inkscape:window-width="1920"
     inkscape:window-height="1001"
     inkscape:window-x="-9"
     inkscape:window-y="-9"
     inkscape:window-maximized="1" />
  <metadata
     id="metadata9366">
    <rdf:RDF>
      <cc:Work
         rdf:about="">
        <dc:format>image/svg+xml</dc:format>
        <dc:type
           rdf:resource="http://purl.org/dc/dcmitype/StillImage" />
        <dc:title />
      </cc:Work>
    </rdf:RDF>
  </metadata>
  <g
     inkscape:label="Layer 1"
     inkscape:groupmode="layer"
     id="layer1"
     transform="translate(-319.12555,-289.28198)">
    <g
       transform="matrix(0.35277777,0,0,-0.35277777,319.31429,377.10071)"
       inkscape:label="year_comp"
       id="g9922">
      <g
         id="g9924" />
      <g
         id="g9926" />
      <g
         id="g9928" />
      <g
         id="g9930" />
      <g
         id="g9932" />
      <g
         id="g9934" />
      <g
         id="g9936" />
      <g
         id="g9938" />
      <g
         id="g9940" />
      <g
         id="g9942" />
      <g
         id="g9944">
        <path
           inkscape:connector-curvature="0"
           id="path9946"
           style="fill:#ffffff;fill-opacity:1;fill-rule:nonzero;stroke:#ffffff;stroke-width:1.07000005;stroke-linecap:round;stroke-linejoin:round;stroke-miterlimit:10;stroke-dasharray:none;stroke-opacity:1"
           d="M 0,0 H 234 V 248.4 H 0 Z" />
      </g>
      <g
         id="g9948" />
      <g
         id="g9950">
        <g
           clip-path="url(#clipPath9956)"
           id="g9952">
          <path
             inkscape:connector-curvature="0"
             id="path9958"
             style="fill:none;stroke:#000000;stroke-width:1.07000005;stroke-linecap:round;stroke-linejoin:round;stroke-miterlimit:10;stroke-dasharray:none;stroke-opacity:1"
             d="M 33.79,33.79 H 228.52 V 242.92 H 33.79 Z" />
          <path
             inkscape:connector-curvature="0"
             id="path9960"
             style="fill:#514a3d;fill-opacity:0.14900004;fill-rule:nonzero;stroke:none"
             d="m 42.64,233.41 0.25,-0.04 0.25,-0.04 0.26,-0.04 0.25,-0.04 0.25,-0.04 0.26,-0.04 0.25,-0.04 0.25,-0.04 0.25,-0.04 0.26,-0.04 0.25,-0.04 0.25,-0.04 0.26,-0.04 0.25,-0.05 0.25,-0.04 0.25,-0.04 0.26,-0.04 0.25,-0.04 0.25,-0.05 0.26,-0.04 0.25,-0.04 0.25,-0.04 0.25,-0.05 0.26,-0.04 0.25,-0.04 0.25,-0.05 0.26,-0.04 0.25,-0.05 0.25,-0.04 0.26,-0.04 0.25,-0.05 0.25,-0.04 0.25,-0.05 0.26,-0.04 0.25,-0.05 0.25,-0.04 0.26,-0.05 0.25,-0.04 0.25,-0.05 0.25,-0.04 0.26,-0.05 0.25,-0.05 0.25,-0.04 0.26,-0.05 0.25,-0.04 0.25,-0.05 0.25,-0.05 0.26,-0.05 0.25,-0.04 0.25,-0.05 0.26,-0.05 0.25,-0.04 0.25,-0.05 0.25,-0.05 0.26,-0.05 0.25,-0.05 0.25,-0.05 0.26,-0.04 0.25,-0.05 0.25,-0.05 0.26,-0.05 0.25,-0.05 0.25,-0.05 0.25,-0.05 0.26,-0.05 0.25,-0.05 0.25,-0.05 0.26,-0.05 0.25,-0.05 0.25,-0.05 0.25,-0.05 0.26,-0.05 0.25,-0.06 0.25,-0.05 0.26,-0.05 0.25,-0.05 0.25,-0.05 0.25,-0.05 0.26,-0.06 0.25,-0.05 0.25,-0.05 0.26,-0.05 0.25,-0.06 0.25,-0.05 0.25,-0.05 0.26,-0.06 0.25,-0.05 0.25,-0.06 0.26,-0.05 0.25,-0.05 0.25,-0.06 0.26,-0.05 0.25,-0.06 0.25,-0.05 0.25,-0.06 0.26,-0.05 0.25,-0.06 0.25,-0.05 0.26,-0.06 0.25,-0.06 0.25,-0.05 0.25,-0.06 0.26,-0.06 0.25,-0.05 0.25,-0.06 0.26,-0.06 0.25,-0.05 0.25,-0.06 0.25,-0.06 0.26,-0.06 0.25,-0.06 0.25,-0.05 0.26,-0.06 0.25,-0.06 0.25,-0.06 0.25,-0.06 0.26,-0.06 0.25,-0.06 0.25,-0.06 0.26,-0.06 0.25,-0.06 0.25,-0.06 0.26,-0.06 0.25,-0.06 0.25,-0.06 0.25,-0.06 0.26,-0.06 0.25,-0.07 0.25,-0.06 0.26,-0.06 0.25,-0.06 0.25,-0.06 0.25,-0.07 0.26,-0.06 0.25,-0.06 0.25,-0.06 0.26,-0.07 0.25,-0.06 0.25,-0.06 0.25,-0.07 0.26,-0.06 0.25,-0.07 0.25,-0.06 0.26,-0.07 0.25,-0.06 0.25,-0.07 0.25,-0.06 0.26,-0.07 0.25,-0.06 0.25,-0.07 0.26,-0.06 0.25,-0.07 0.25,-0.07 0.25,-0.06 0.26,-0.07 0.25,-0.07 0.25,-0.07 0.26,-0.06 0.25,-0.07 0.25,-0.07 0.26,-0.07 0.25,-0.07 0.25,-0.06 0.25,-0.07 0.26,-0.07 0.25,-0.07 0.25,-0.07 0.26,-0.07 0.25,-0.07 0.25,-0.07 0.25,-0.07 0.26,-0.07 0.25,-0.07 0.25,-0.07 0.26,-0.07 0.25,-0.08 0.25,-0.07 0.25,-0.07 0.26,-0.07 0.25,-0.07 0.25,-0.08 0.26,-0.07 0.25,-0.07 0.25,-0.07 0.25,-0.08 0.26,-0.07 0.25,-0.07 0.25,-0.08 0.26,-0.07 0.25,-0.08 0.25,-0.07 0.26,-0.08 0.25,-0.07 0.25,-0.08 0.25,-0.07 0.26,-0.08 0.25,-0.07 0.25,-0.08 0.26,-0.08 0.25,-0.07 0.25,-0.08 0.25,-0.08 0.26,-0.07 0.25,-0.08 0.25,-0.08 0.26,-0.08 0.25,-0.08 0.25,-0.07 0.25,-0.08 0.26,-0.08 0.25,-0.08 0.25,-0.08 0.26,-0.08 0.25,-0.08 0.25,-0.08 0.25,-0.08 0.26,-0.08 0.25,-0.08 0.25,-0.08 0.26,-0.08 0.25,-0.08 0.25,-0.08 0.26,-0.09 0.25,-0.08 0.25,-0.08 0.25,-0.08 0.26,-0.09 0.25,-0.08 0.25,-0.08 0.26,-0.09 0.25,-0.08 0.25,-0.08 0.25,-0.09 0.26,-0.08 0.25,-0.09 0.25,-0.08 0.26,-0.08 0.25,-0.09 0.25,-0.09 0.25,-0.08 0.26,-0.09 0.25,-0.08 0.25,-0.09 0.26,-0.09 0.25,-0.08 0.25,-0.09 0.25,-0.09 0.26,-0.08 0.25,-0.09 0.25,-0.09 0.26,-0.09 0.25,-0.09 0.25,-0.08 0.26,-0.09 0.25,-0.09 0.25,-0.09 0.25,-0.09 0.26,-0.09 0.25,-0.09 0.25,-0.09 0.26,-0.09 0.25,-0.09 0.25,-0.09 0.25,-0.09 0.26,-0.1 0.25,-0.09 0.25,-0.09 0.26,-0.09 0.25,-0.09 0.25,-0.1 0.25,-0.09 0.26,-0.09 0.25,-0.1 0.25,-0.09 0.26,-0.09 0.25,-0.1 0.25,-0.09 0.25,-0.09 0.26,-0.1 0.25,-0.09 0.25,-0.1 0.26,-0.09 0.25,-0.1 0.25,-0.1 0.26,-0.09 0.25,-0.1 0.25,-0.09 0.25,-0.1 0.26,-0.1 0.25,-0.09 0.25,-0.1 0.26,-0.1 0.25,-0.1 0.25,-0.1 0.25,-0.09 0.26,-0.1 0.25,-0.1 0.25,-0.1 0.26,-0.1 0.25,-0.1 0.25,-0.1 0.25,-0.1 0.26,-0.1 0.25,-0.1 0.25,-0.1 0.26,-0.1 0.25,-0.1 0.25,-0.1 0.25,-0.1 0.26,-0.1 0.25,-0.11 0.25,-0.1 0.26,-0.1 0.25,-0.1 0.25,-0.11 0.25,-0.1 0.26,-0.1 0.25,-0.11 0.25,-0.1 0.26,-0.1 0.25,-0.11 0.25,-0.1 0.26,-0.11 0.25,-0.1 0.25,-0.11 0.25,-0.1 0.26,-0.11 0.25,-0.1 0.25,-0.11 0.26,-0.1 0.25,-0.11 0.25,-0.11 0.25,-0.1 0.26,-0.11 0.25,-0.11 0.25,-0.11 0.26,-0.1 0.25,-0.11 0.25,-0.11 0.25,-0.11 0.26,-0.11 0.25,-0.1 0.25,-0.11 0.26,-0.11 0.25,-0.11 0.25,-0.11 0.25,-0.11 0.26,-0.11 0.25,-0.11 0.25,-0.11 0.26,-0.11 0.25,-0.11 0.25,-0.11 0.26,-0.12 0.25,-0.11 0.25,-0.11 0.25,-0.11 0.26,-0.11 0.25,-0.11 0.25,-0.12 0.26,-0.11 0.25,-0.11 0.25,-0.12 0.25,-0.11 0.26,-0.11 0.25,-0.12 0.25,-0.11 0.26,-0.11 0.25,-0.12 0.25,-0.11 0.25,-0.12 0.26,-0.11 0.25,-0.12 0.25,-0.11 0.26,-0.12 0.25,-0.11 0.25,-0.12 0.25,-0.12 0.26,-0.11 0.25,-0.12 0.25,-0.11 0.26,-0.12 0.25,-0.12 0.25,-0.12 0.26,-0.11 0.25,-0.12 0.25,-0.12 0.25,-0.12 0.26,-0.11 0.25,-0.12 0.25,-0.12 0.26,-0.12 0.25,-0.12 0.25,-0.12 0.25,-0.12 0.26,-0.12 0.25,-0.12 0.25,-0.12 0.26,-0.12 0.25,-0.12 0.25,-0.12 0.25,-0.12 0.26,-0.12 0.25,-0.12 0.25,-0.12 0.26,-0.12 0.25,-0.12 0.25,-0.12 0.25,-0.12 0.26,-0.13 0.25,-0.12 0.25,-0.12 0.26,-0.12 0.25,-0.12 0.25,-0.13 0.26,-0.12 0.25,-0.12 0.25,-0.13 0.25,-0.12 0.26,-0.12 0.25,-0.13 0.25,-0.12 0.26,-0.12 0.25,-0.13 0.25,-0.12 0.25,-0.13 0.26,-0.12 0.25,-0.13 0.25,-0.12 0.26,-0.13 0.25,-0.12 0.25,-0.13 0.25,-0.12 0.26,-0.13 0.25,-0.12 0.25,-0.13 0.26,-0.13 0.25,-0.12 0.25,-0.13 0.25,-0.12 0.26,-0.13 0.25,-0.13 0.25,-0.13 0.26,-0.12 0.25,-0.13 0.25,-0.13 0.26,-0.12 0.25,-0.13 0.25,-0.13 0.25,-0.13 0.26,-0.13 0.25,-0.12 0.25,-0.13 0.26,-0.13 0.25,-0.13 0.25,-0.13 0.25,-0.13 0.26,-0.13 0.25,-0.12 0.25,-0.13 0.26,-0.13 0.25,-0.13 0.25,-0.13 0.25,-0.13 0.26,-0.13 0.25,-0.13 0.25,-0.13 0.26,-0.13 0.25,-0.13 0.25,-0.13 0.25,-0.13 0.26,-0.13 0.25,-0.13 0.25,-0.13 0.26,-0.14 0.25,-0.13 0.25,-0.13 0.25,-0.13 0.26,-0.13 0.25,-0.13 0.25,-0.13 0.26,-0.13 0.25,-0.14 0.25,-0.13 0.26,-0.13 0.25,-0.13 0.25,-0.13 0.25,-0.14 0.26,-0.13 0.25,-0.13 0.25,-0.13 0.26,-0.14 0.25,-0.13 0.25,-0.13 0.25,-0.14 0.26,-0.13 0.25,-0.13 0.25,-0.14 0.26,-0.13 0.25,-0.13 0.25,-0.14 0.25,-0.13 0.26,-0.13 0.25,-0.14 0.25,-0.13 0.26,-0.13 0.25,-0.14 0.25,-0.13 0.25,-0.14 0.26,-0.13 0.25,-0.14 0.25,-0.13 0.26,-0.13 0.25,-0.14 0.25,-0.13 0.26,-0.14 0.25,-0.13 0.25,-0.14 0.25,-0.13 0.26,-0.14 0.25,-0.13 0.25,-0.14 0.26,-0.13 0.25,-0.14 0.25,-0.14 0.25,-0.13 0.26,-0.14 0.25,-0.13 0.25,-0.14 0.26,-0.13 0.25,-0.14 0.25,-0.14 0.25,-0.13 0.26,-0.14 0.25,-0.13 0.25,-0.14 0.26,-0.14 0.25,-0.13 0.25,-0.14 0.25,-0.14 0.26,-0.13 0.25,-0.14 0.25,-0.14 0.26,-0.13 0.25,-0.14 0.25,-0.14 0.26,-0.13 0.25,-0.14 0.25,-0.14 0.25,-0.14 0.26,-0.13 0.25,-0.14 0.25,-0.14 0.26,-0.14 0.25,-0.13 0.25,-0.14 0.25,-0.14 0.26,-0.14 0.25,-0.13 0.25,-0.14 0.26,-0.14 0.25,-0.14 0.25,-0.13 0.25,-0.14 0.26,-0.14 0.25,-0.14 0.25,-0.14 0.26,-0.14 0.25,-0.13 0.25,-0.14 0.25,-0.14 0.26,-0.14 0.25,-0.14 0.25,-0.14 0.26,-0.13 0.25,-0.14 0.25,-0.14 0.26,-0.14 0.25,-0.14 0.25,-0.14 0.25,-0.14 0.26,-0.14 0.25,-0.14 0.25,-0.13 0.26,-0.14 0.25,-0.14 0.25,-0.14 0.25,-0.14 0.26,-0.14 0.25,-0.14 0.25,-0.14 0.26,-0.14 0.25,-0.14 0.25,-0.14 0.25,-0.14 0.26,-0.14 0.25,-0.14 0.25,-0.14 0.26,-0.14 0.25,-0.14 0.25,-0.14 0.25,-0.14 0.26,-0.14 0.25,-0.14 0.25,-0.14 0.26,-0.14 0.25,-0.14 0.25,-0.14 0.26,-0.14 0.25,-0.14 0.25,-0.14 0.25,-0.14 0.26,-0.14 0.25,-0.14 0.25,-0.14 0.26,-0.14 0.25,-0.14 0.25,-0.14 0.25,-0.14 0.26,-0.14 0.25,-0.15 0.25,-0.14 0.26,-0.14 0.25,-0.14 0.25,-0.14 0.25,-0.14 0.26,-0.14 0.25,-0.14 0.25,-0.14 0.26,-0.15 0.25,-0.14 0.25,-0.14 0.25,-0.14 0.26,-0.14 0.25,-0.14 0.25,-0.15 0.26,-0.14 0.25,-0.14 0.25,-0.14 0.25,-0.14 0.26,-0.14 0.25,-0.15 0.25,-0.14 0.26,-0.14 0.25,-0.14 0.25,-0.15 0.26,-0.14 0.25,-0.14 0.25,-0.14 0.25,-0.14 0.26,-0.15 0.25,-0.14 0.25,-0.14 0.26,-0.14 0.25,-0.15 0.25,-0.14 0.25,-0.14 0.26,-0.15 0.25,-0.14 0.25,-0.14 0.26,-0.14 0.25,-0.15 0.25,-0.14 0.25,-0.14 0.26,-0.15 0.25,-0.14 0.25,-0.14 0.26,-0.15 0.25,-0.14 0.25,-0.14 0.25,-0.15 0.26,-0.14 0.25,-0.15 0.25,-0.14 0.26,-0.14 0.25,-0.15 0.25,-0.14 0.26,-0.15 0.25,-0.14 0.25,-0.14 0.25,-0.15 0.26,-0.14 0.25,-0.15 0.25,-0.14 0.26,-0.15 0.25,-0.14 0.25,-0.15 0.25,-0.14 0.26,-0.14 0.25,-0.15 0.25,-0.14 0.26,-0.15 0.25,-0.14 0.25,-0.15 0.25,-0.14 0.26,-0.15 0.25,-0.15 0.25,-0.14 0.26,-0.15 0.25,-0.14 V 96.51 l -0.25,0.37 -0.26,0.36 -0.25,0.37 -0.25,0.36 -0.26,0.36 -0.25,0.36 -0.25,0.36 -0.25,0.36 -0.26,0.36 -0.25,0.36 -0.25,0.35 -0.26,0.36 -0.25,0.36 -0.25,0.35 -0.25,0.35 -0.26,0.36 -0.25,0.35 -0.25,0.35 -0.26,0.35 -0.25,0.35 -0.25,0.35 -0.25,0.35 -0.26,0.35 -0.25,0.34 -0.25,0.35 -0.26,0.34 -0.25,0.35 -0.25,0.34 -0.26,0.34 -0.25,0.35 -0.25,0.34 -0.25,0.34 -0.26,0.34 -0.25,0.34 -0.25,0.33 -0.26,0.34 -0.25,0.34 -0.25,0.33 -0.25,0.34 -0.26,0.33 -0.25,0.33 -0.25,0.34 -0.26,0.33 -0.25,0.33 -0.25,0.33 -0.25,0.33 -0.26,0.33 -0.25,0.32 -0.25,0.33 -0.26,0.33 -0.25,0.32 -0.25,0.32 -0.25,0.33 -0.26,0.32 -0.25,0.32 -0.25,0.32 -0.26,0.32 -0.25,0.32 -0.25,0.32 -0.26,0.32 -0.25,0.32 -0.25,0.31 -0.25,0.32 -0.26,0.31 -0.25,0.32 -0.25,0.31 -0.26,0.31 -0.25,0.32 -0.25,0.31 -0.25,0.31 -0.26,0.31 -0.25,0.3 -0.25,0.31 -0.26,0.31 -0.25,0.3 -0.25,0.31 -0.25,0.3 -0.26,0.31 -0.25,0.3 -0.25,0.3 -0.26,0.3 -0.25,0.3 -0.25,0.3 -0.25,0.3 -0.26,0.3 -0.25,0.3 -0.25,0.3 -0.26,0.29 -0.25,0.3 -0.25,0.29 -0.25,0.29 -0.26,0.3 -0.25,0.29 -0.25,0.29 -0.26,0.29 -0.25,0.29 -0.25,0.29 -0.26,0.29 -0.25,0.28 -0.25,0.29 -0.25,0.29 -0.26,0.28 -0.25,0.29 -0.25,0.28 -0.26,0.28 -0.25,0.28 -0.25,0.28 -0.25,0.29 -0.26,0.27 -0.25,0.28 -0.25,0.28 -0.26,0.28 -0.25,0.28 -0.25,0.27 -0.25,0.28 -0.26,0.27 -0.25,0.27 -0.25,0.28 -0.26,0.27 -0.25,0.27 -0.25,0.27 -0.25,0.27 -0.26,0.27 -0.25,0.27 -0.25,0.26 -0.26,0.27 -0.25,0.27 -0.25,0.26 -0.26,0.27 -0.25,0.26 -0.25,0.26 -0.25,0.27 -0.26,0.26 -0.25,0.26 -0.25,0.26 -0.26,0.26 -0.25,0.25 -0.25,0.26 -0.25,0.26 -0.26,0.26 -0.25,0.25 -0.25,0.26 -0.26,0.25 -0.25,0.25 -0.25,0.26 -0.25,0.25 -0.26,0.25 -0.25,0.25 -0.25,0.25 -0.26,0.25 -0.25,0.25 -0.25,0.24 -0.25,0.25 -0.26,0.25 -0.25,0.24 -0.25,0.25 -0.26,0.24 -0.25,0.24 -0.25,0.25 -0.26,0.24 -0.25,0.24 -0.25,0.24 -0.25,0.24 -0.26,0.24 -0.25,0.24 -0.25,0.23 -0.26,0.24 -0.25,0.24 -0.25,0.23 -0.25,0.24 -0.26,0.23 -0.25,0.23 -0.25,0.24 -0.26,0.23 -0.25,0.23 -0.25,0.23 -0.25,0.23 -0.26,0.23 -0.25,0.23 -0.25,0.23 -0.26,0.22 -0.25,0.23 -0.25,0.22 -0.25,0.23 -0.26,0.22 -0.25,0.23 -0.25,0.22 -0.26,0.22 -0.25,0.23 -0.25,0.22 -0.26,0.22 -0.25,0.22 -0.25,0.22 -0.25,0.21 -0.26,0.22 -0.25,0.22 -0.25,0.22 -0.26,0.21 -0.25,0.22 -0.25,0.21 -0.25,0.21 -0.26,0.22 -0.25,0.21 -0.25,0.21 -0.26,0.21 -0.25,0.21 -0.25,0.21 -0.25,0.21 -0.26,0.21 -0.25,0.21 -0.25,0.21 -0.26,0.2 -0.25,0.21 -0.25,0.21 -0.25,0.2 -0.26,0.21 -0.25,0.2 -0.25,0.2 -0.26,0.2 -0.25,0.21 -0.25,0.2 -0.26,0.2 -0.25,0.2 -0.25,0.2 -0.25,0.2 -0.26,0.19 -0.25,0.2 -0.25,0.2 -0.26,0.2 -0.25,0.19 -0.25,0.2 -0.25,0.19 -0.26,0.2 -0.25,0.19 -0.25,0.19 -0.26,0.19 -0.25,0.2 -0.25,0.19 -0.25,0.19 -0.26,0.19 -0.25,0.19 -0.25,0.18 -0.26,0.19 -0.25,0.19 -0.25,0.19 -0.25,0.18 -0.26,0.19 -0.25,0.19 -0.25,0.18 -0.26,0.18 -0.25,0.19 -0.25,0.18 -0.25,0.18 -0.26,0.19 -0.25,0.18 -0.25,0.18 -0.26,0.18 -0.25,0.18 -0.25,0.18 -0.26,0.18 -0.25,0.17 -0.25,0.18 -0.25,0.18 -0.26,0.18 -0.25,0.17 -0.25,0.18 -0.26,0.17 -0.25,0.18 -0.25,0.17 -0.25,0.17 -0.26,0.18 -0.25,0.17 -0.25,0.17 -0.26,0.17 -0.25,0.17 -0.25,0.17 -0.25,0.17 -0.26,0.17 -0.25,0.17 -0.25,0.17 -0.26,0.17 -0.25,0.17 -0.25,0.16 -0.25,0.17 -0.26,0.17 -0.25,0.16 -0.25,0.17 -0.26,0.16 -0.25,0.16 -0.25,0.17 -0.26,0.16 -0.25,0.16 -0.25,0.17 -0.25,0.16 -0.26,0.16 -0.25,0.16 -0.25,0.16 -0.26,0.16 -0.25,0.16 -0.25,0.16 -0.25,0.15 -0.26,0.16 -0.25,0.16 -0.25,0.16 -0.26,0.15 -0.25,0.16 -0.25,0.15 -0.25,0.16 -0.26,0.15 -0.25,0.16 -0.25,0.15 -0.26,0.16 -0.25,0.15 -0.25,0.15 -0.25,0.15 -0.26,0.16 -0.25,0.15 -0.25,0.15 -0.26,0.15 -0.25,0.15 -0.25,0.15 -0.26,0.15 -0.25,0.14 -0.25,0.15 -0.25,0.15 -0.26,0.15 -0.25,0.14 -0.25,0.15 -0.26,0.15 -0.25,0.14 -0.25,0.15 -0.25,0.14 -0.26,0.15 -0.25,0.14 -0.25,0.15 -0.26,0.14 -0.25,0.14 -0.25,0.14 -0.25,0.15 -0.26,0.14 -0.25,0.14 -0.25,0.14 -0.26,0.14 -0.25,0.14 -0.25,0.14 -0.25,0.14 -0.26,0.14 -0.25,0.14 -0.25,0.14 -0.26,0.13 -0.25,0.14 -0.25,0.14 -0.26,0.14 -0.25,0.13 -0.25,0.14 -0.25,0.13 -0.26,0.14 -0.25,0.13 -0.25,0.14 -0.26,0.13 -0.25,0.14 -0.25,0.13 -0.25,0.13 -0.26,0.14 -0.25,0.13 -0.25,0.13 -0.26,0.13 -0.25,0.13 -0.25,0.13 -0.25,0.14 -0.26,0.13 -0.25,0.13 -0.25,0.13 -0.26,0.12 -0.25,0.13 -0.25,0.13 -0.25,0.13 -0.26,0.13 -0.25,0.13 -0.25,0.12 -0.26,0.13 -0.25,0.13 -0.25,0.12 -0.26,0.13 -0.25,0.12 -0.25,0.13 -0.25,0.13 -0.26,0.12 -0.25,0.12 -0.25,0.13 -0.26,0.12 -0.25,0.13 -0.25,0.12 -0.25,0.12 -0.26,0.12 -0.25,0.13 -0.25,0.12 -0.26,0.12 -0.25,0.12 -0.25,0.12 -0.25,0.12 -0.26,0.12 -0.25,0.12 -0.25,0.12 -0.26,0.12 -0.25,0.12 -0.25,0.12 -0.25,0.12 -0.26,0.12 -0.25,0.11 -0.25,0.12 -0.26,0.12 -0.25,0.12 -0.25,0.11 -0.25,0.12 -0.26,0.12 -0.25,0.11 -0.25,0.12 -0.26,0.11 -0.25,0.12 -0.25,0.11 -0.26,0.12 -0.25,0.11 -0.25,0.12 -0.25,0.11 -0.26,0.11 -0.25,0.12 -0.25,0.11 -0.26,0.11 -0.25,0.11 -0.25,0.12 -0.25,0.11 -0.26,0.11 -0.25,0.11 -0.25,0.11 -0.26,0.11 -0.25,0.11 -0.25,0.11 -0.25,0.11 -0.26,0.11 -0.25,0.11 -0.25,0.11 -0.26,0.11 -0.25,0.11 -0.25,0.11 -0.25,0.11 -0.26,0.1 -0.25,0.11 -0.25,0.11 -0.26,0.11 -0.25,0.1 -0.25,0.11 -0.26,0.11 -0.25,0.1 -0.25,0.11 -0.25,0.1 -0.26,0.11 -0.25,0.1 -0.25,0.11 -0.26,0.1 -0.25,0.11 -0.25,0.1 -0.25,0.11 -0.26,0.1 -0.25,0.1 -0.25,0.11 -0.26,0.1 -0.25,0.1 -0.25,0.1 -0.25,0.11 -0.26,0.1 -0.25,0.1 -0.25,0.1 -0.26,0.1 -0.25,0.1 -0.25,0.1 -0.25,0.11 -0.26,0.1 -0.25,0.1 -0.25,0.1 -0.26,0.1 -0.25,0.1 -0.25,0.09 -0.26,0.1 -0.25,0.1 -0.25,0.1 -0.25,0.1 -0.26,0.1 -0.25,0.1 -0.25,0.09 -0.26,0.1 -0.25,0.1 -0.25,0.1 -0.25,0.09 -0.26,0.1 -0.25,0.1 -0.25,0.09 -0.26,0.1 -0.25,0.09 -0.25,0.1 -0.25,0.09 -0.26,0.1 -0.25,0.09 -0.25,0.1 -0.26,0.09 -0.25,0.1 -0.25,0.09 -0.25,0.1 -0.26,0.09 -0.25,0.09 -0.25,0.1 -0.26,0.09 -0.25,0.09 -0.25,0.1 -0.26,0.09 -0.25,0.09 -0.25,0.09 -0.25,0.09 -0.26,0.1 -0.25,0.09 -0.25,0.09 -0.26,0.09 -0.25,0.09 -0.25,0.09 -0.25,0.09 -0.26,0.09 -0.25,0.09 -0.25,0.09 -0.26,0.09 -0.25,0.09 -0.25,0.09 -0.25,0.09 -0.26,0.09 -0.25,0.09 -0.25,0.09 -0.26,0.08 -0.25,0.09 -0.25,0.09 -0.25,0.09 -0.26,0.09 -0.25,0.08 -0.25,0.09 -0.26,0.09 -0.25,0.08 -0.25,0.09 -0.26,0.09 -0.25,0.08 -0.25,0.09 -0.25,0.09 -0.26,0.08 -0.25,0.09 -0.25,0.08 -0.26,0.09 -0.25,0.08 -0.25,0.09 -0.25,0.08 -0.26,0.09 -0.25,0.08 -0.25,0.09 -0.26,0.08 -0.25,0.08 -0.25,0.09 -0.25,0.08 -0.26,0.08 -0.25,0.09 -0.25,0.08 -0.26,0.08 -0.25,0.09 -0.25,0.08 -0.25,0.08 -0.26,0.08 -0.25,0.08 -0.25,0.09 -0.26,0.08 -0.25,0.08 -0.25,0.08 -0.25,0.08 -0.26,0.08 -0.25,0.08 -0.25,0.08 -0.26,0.08 -0.25,0.08 -0.25,0.08 -0.26,0.08 -0.25,0.08 -0.25,0.08 -0.25,0.08 -0.26,0.08 -0.25,0.08 -0.25,0.08 -0.26,0.08 -0.25,0.08 -0.25,0.08 -0.25,0.07 -0.26,0.08 -0.25,0.08 -0.25,0.08 -0.26,0.08 -0.25,0.07 -0.25,0.08 -0.25,0.08 -0.26,0.07 -0.25,0.08 -0.25,0.08 -0.26,0.07 -0.25,0.08 -0.25,0.08 -0.25,0.07 -0.26,0.08 -0.25,0.07 -0.25,0.08 -0.26,0.07 -0.25,0.08 -0.25,0.07 -0.26,0.08 -0.25,0.07 -0.25,0.08 -0.25,0.07 -0.26,0.08 -0.25,0.07 -0.25,0.08 -0.26,0.07 -0.25,0.07 -0.25,0.08 -0.25,0.07 -0.26,0.07 -0.25,0.08 -0.25,0.07 -0.26,0.07 -0.25,0.08 -0.25,0.07 -0.25,0.07 -0.26,0.07 -0.25,0.07 -0.25,0.08 -0.26,0.07 -0.25,0.07 -0.25,0.07 -0.25,0.07 -0.26,0.07 -0.25,0.07 -0.25,0.08 -0.26,0.07 -0.25,0.07 -0.25,0.07 -0.26,0.07 -0.25,0.07 -0.25,0.07 -0.25,0.07 -0.26,0.07 -0.25,0.07 -0.25,0.07 -0.26,0.07 -0.25,0.07 -0.25,0.06 -0.25,0.07 -0.26,0.07 -0.25,0.07 -0.25,0.07 -0.26,0.07 -0.25,0.07 -0.25,0.06 -0.25,0.07 -0.26,0.07 -0.25,0.07 -0.25,0.06 -0.26,0.07 -0.25,0.07 -0.25,0.07 -0.25,0.06 -0.26,0.07 -0.25,0.07 -0.25,0.06 -0.26,0.07 -0.25,0.07 -0.25,0.06 -0.26,0.07 -0.25,0.06 -0.25,0.07 -0.25,0.07 -0.26,0.06 -0.25,0.07 -0.25,0.06 -0.26,0.07 -0.25,0.06 -0.25,0.07 -0.25,0.06 -0.26,0.07 -0.25,0.06 -0.25,0.06 -0.26,0.07 -0.25,0.06 -0.25,0.07 -0.25,0.06 -0.26,0.06 -0.25,0.07 -0.25,0.06 -0.26,0.06 -0.25,0.07 -0.25,0.06 z" />
          <path
             inkscape:connector-curvature="0"
             id="path9962"
             style="fill:#514a3d;fill-opacity:0.14900004;fill-rule:nonzero;stroke:none"
             d="m 42.64,168.13 0.25,0.03 0.25,0.03 0.26,0.04 0.25,0.03 0.25,0.03 0.26,0.04 0.25,0.03 0.25,0.04 0.25,0.03 0.26,0.03 0.25,0.04 0.25,0.03 0.26,0.03 0.25,0.04 0.25,0.03 0.25,0.04 0.26,0.03 0.25,0.04 0.25,0.03 0.26,0.03 0.25,0.04 0.25,0.03 0.25,0.04 0.26,0.03 0.25,0.04 0.25,0.03 0.26,0.04 0.25,0.03 0.25,0.04 0.26,0.04 0.25,0.03 0.25,0.04 0.25,0.03 0.26,0.04 0.25,0.03 0.25,0.04 0.26,0.04 0.25,0.03 0.25,0.04 0.25,0.03 0.26,0.04 0.25,0.04 0.25,0.03 0.26,0.04 0.25,0.04 0.25,0.03 0.25,0.04 0.26,0.04 0.25,0.03 0.25,0.04 0.26,0.04 0.25,0.04 0.25,0.03 0.25,0.04 0.26,0.04 0.25,0.04 0.25,0.03 0.26,0.04 0.25,0.04 0.25,0.04 0.26,0.04 0.25,0.03 0.25,0.04 0.25,0.04 0.26,0.04 0.25,0.04 0.25,0.04 0.26,0.04 0.25,0.03 0.25,0.04 0.25,0.04 0.26,0.04 0.25,0.04 0.25,0.04 0.26,0.04 0.25,0.04 0.25,0.04 0.25,0.04 0.26,0.04 0.25,0.04 0.25,0.04 0.26,0.04 0.25,0.04 0.25,0.04 0.25,0.04 0.26,0.04 0.25,0.04 0.25,0.04 0.26,0.04 0.25,0.04 0.25,0.05 0.26,0.04 0.25,0.04 0.25,0.04 0.25,0.04 0.26,0.04 0.25,0.04 0.25,0.05 0.26,0.04 0.25,0.04 0.25,0.04 0.25,0.04 0.26,0.05 0.25,0.04 0.25,0.04 0.26,0.04 0.25,0.05 0.25,0.04 0.25,0.04 0.26,0.05 0.25,0.04 0.25,0.04 0.26,0.05 0.25,0.04 0.25,0.04 0.25,0.05 0.26,0.04 0.25,0.04 0.25,0.05 0.26,0.04 0.25,0.05 0.25,0.04 0.26,0.05 0.25,0.04 0.25,0.05 0.25,0.04 0.26,0.05 0.25,0.04 0.25,0.05 0.26,0.04 0.25,0.05 0.25,0.04 0.25,0.05 0.26,0.04 0.25,0.05 0.25,0.05 0.26,0.04 0.25,0.05 0.25,0.04 0.25,0.05 0.26,0.05 0.25,0.04 0.25,0.05 0.26,0.05 0.25,0.04 0.25,0.05 0.25,0.05 0.26,0.05 0.25,0.04 0.25,0.05 0.26,0.05 0.25,0.05 0.25,0.05 0.25,0.04 0.26,0.05 0.25,0.05 0.25,0.05 0.26,0.05 0.25,0.05 0.25,0.04 0.26,0.05 0.25,0.05 0.25,0.05 0.25,0.05 0.26,0.05 0.25,0.05 0.25,0.05 0.26,0.05 0.25,0.05 0.25,0.05 0.25,0.05 0.26,0.05 0.25,0.05 0.25,0.05 0.26,0.05 0.25,0.05 0.25,0.05 0.25,0.05 0.26,0.06 0.25,0.05 0.25,0.05 0.26,0.05 0.25,0.05 0.25,0.05 0.25,0.06 0.26,0.05 0.25,0.05 0.25,0.05 0.26,0.05 0.25,0.06 0.25,0.05 0.26,0.05 0.25,0.06 0.25,0.05 0.25,0.05 0.26,0.05 0.25,0.06 0.25,0.05 0.26,0.06 0.25,0.05 0.25,0.05 0.25,0.06 0.26,0.05 0.25,0.06 0.25,0.05 0.26,0.05 0.25,0.06 0.25,0.05 0.25,0.06 0.26,0.05 0.25,0.06 0.25,0.06 0.26,0.05 0.25,0.06 0.25,0.05 0.25,0.06 0.26,0.05 0.25,0.06 0.25,0.06 0.26,0.05 0.25,0.06 0.25,0.06 0.26,0.05 0.25,0.06 0.25,0.06 0.25,0.05 0.26,0.06 0.25,0.06 0.25,0.06 0.26,0.06 0.25,0.05 0.25,0.06 0.25,0.06 0.26,0.06 0.25,0.06 0.25,0.05 0.26,0.06 0.25,0.06 0.25,0.06 0.25,0.06 0.26,0.06 0.25,0.06 0.25,0.06 0.26,0.06 0.25,0.06 0.25,0.06 0.25,0.06 0.26,0.06 0.25,0.06 0.25,0.06 0.26,0.06 0.25,0.06 0.25,0.06 0.26,0.06 0.25,0.06 0.25,0.06 0.25,0.07 0.26,0.06 0.25,0.06 0.25,0.06 0.26,0.06 0.25,0.06 0.25,0.07 0.25,0.06 0.26,0.06 0.25,0.06 0.25,0.07 0.26,0.06 0.25,0.06 0.25,0.07 0.25,0.06 0.26,0.06 0.25,0.07 0.25,0.06 0.26,0.06 0.25,0.07 0.25,0.06 0.25,0.07 0.26,0.06 0.25,0.06 0.25,0.07 0.26,0.06 0.25,0.07 0.25,0.06 0.26,0.07 0.25,0.06 0.25,0.07 0.25,0.07 0.26,0.06 0.25,0.07 0.25,0.06 0.26,0.07 0.25,0.07 0.25,0.06 0.25,0.07 0.26,0.06 0.25,0.07 0.25,0.07 0.26,0.07 0.25,0.06 0.25,0.07 0.25,0.07 0.26,0.06 0.25,0.07 0.25,0.07 0.26,0.07 0.25,0.07 0.25,0.06 0.25,0.07 0.26,0.07 0.25,0.07 0.25,0.07 0.26,0.07 0.25,0.07 0.25,0.07 0.25,0.06 0.26,0.07 0.25,0.07 0.25,0.07 0.26,0.07 0.25,0.07 0.25,0.07 0.26,0.07 0.25,0.07 0.25,0.07 0.25,0.07 0.26,0.07 0.25,0.08 0.25,0.07 0.26,0.07 0.25,0.07 0.25,0.07 0.25,0.07 0.26,0.07 0.25,0.07 0.25,0.08 0.26,0.07 0.25,0.07 0.25,0.07 0.25,0.07 0.26,0.08 0.25,0.07 0.25,0.07 0.26,0.08 0.25,0.07 0.25,0.07 0.25,0.07 0.26,0.08 0.25,0.07 0.25,0.07 0.26,0.08 0.25,0.07 0.25,0.08 0.26,0.07 0.25,0.07 0.25,0.08 0.25,0.07 0.26,0.08 0.25,0.07 0.25,0.08 0.26,0.07 0.25,0.08 0.25,0.07 0.25,0.08 0.26,0.07 0.25,0.08 0.25,0.07 0.26,0.08 0.25,0.07 0.25,0.08 0.25,0.07 0.26,0.08 0.25,0.08 0.25,0.07 0.26,0.08 0.25,0.08 0.25,0.07 0.25,0.08 0.26,0.08 0.25,0.07 0.25,0.08 0.26,0.08 0.25,0.07 0.25,0.08 0.26,0.08 0.25,0.08 0.25,0.07 0.25,0.08 0.26,0.08 0.25,0.08 0.25,0.08 0.26,0.07 0.25,0.08 0.25,0.08 0.25,0.08 0.26,0.08 0.25,0.08 0.25,0.07 0.26,0.08 0.25,0.08 0.25,0.08 0.25,0.08 0.26,0.08 0.25,0.08 0.25,0.08 0.26,0.08 0.25,0.08 0.25,0.08 0.25,0.08 0.26,0.08 0.25,0.08 0.25,0.08 0.26,0.08 0.25,0.08 0.25,0.08 0.26,0.08 0.25,0.08 0.25,0.08 0.25,0.08 0.26,0.08 0.25,0.08 0.25,0.08 0.26,0.08 0.25,0.08 0.25,0.09 0.25,0.08 0.26,0.08 0.25,0.08 0.25,0.08 0.26,0.08 0.25,0.08 0.25,0.09 0.25,0.08 0.26,0.08 0.25,0.08 0.25,0.08 0.26,0.08 0.25,0.09 0.25,0.08 0.25,0.08 0.26,0.08 0.25,0.09 0.25,0.08 0.26,0.08 0.25,0.08 0.25,0.09 0.26,0.08 0.25,0.08 0.25,0.08 0.25,0.09 0.26,0.08 0.25,0.08 0.25,0.09 0.26,0.08 0.25,0.08 0.25,0.09 0.25,0.08 0.26,0.08 0.25,0.09 0.25,0.08 0.26,0.08 0.25,0.09 0.25,0.08 0.25,0.08 0.26,0.09 0.25,0.08 0.25,0.09 0.26,0.08 0.25,0.08 0.25,0.09 0.25,0.08 0.26,0.09 0.25,0.08 0.25,0.08 0.26,0.09 0.25,0.08 0.25,0.09 0.25,0.08 0.26,0.09 0.25,0.08 0.25,0.09 0.26,0.08 0.25,0.08 0.25,0.09 0.26,0.08 0.25,0.09 0.25,0.08 0.25,0.09 0.26,0.08 0.25,0.09 0.25,0.08 0.26,0.09 0.25,0.08 0.25,0.09 0.25,0.08 0.26,0.09 0.25,0.08 0.25,0.09 0.26,0.08 0.25,0.09 0.25,0.08 0.25,0.09 0.26,0.08 0.25,0.09 0.25,0.08 0.26,0.09 0.25,0.08 0.25,0.09 0.25,0.08 0.26,0.09 0.25,0.08 0.25,0.09 0.26,0.09 0.25,0.08 0.25,0.09 0.26,0.08 0.25,0.09 0.25,0.08 0.25,0.09 0.26,0.08 0.25,0.09 0.25,0.08 0.26,0.09 0.25,0.09 0.25,0.08 0.25,0.09 0.26,0.08 0.25,0.09 0.25,0.08 0.26,0.09 0.25,0.08 0.25,0.09 0.25,0.08 0.26,0.09 0.25,0.09 0.25,0.08 0.26,0.09 0.25,0.08 0.25,0.09 0.25,0.08 0.26,0.09 0.25,0.08 0.25,0.09 0.26,0.08 0.25,0.09 0.25,0.09 0.26,0.08 0.25,0.09 0.25,0.08 0.25,0.09 0.26,0.08 0.25,0.09 0.25,0.08 0.26,0.09 0.25,0.08 0.25,0.09 0.25,0.08 0.26,0.09 0.25,0.08 0.25,0.09 0.26,0.08 0.25,0.09 0.25,0.08 0.25,0.09 0.26,0.08 0.25,0.09 0.25,0.08 0.26,0.09 0.25,0.08 0.25,0.09 0.25,0.08 0.26,0.09 0.25,0.08 0.25,0.09 0.26,0.08 0.25,0.09 0.25,0.08 0.26,0.09 0.25,0.08 0.25,0.09 0.25,0.08 0.26,0.09 0.25,0.08 0.25,0.08 0.26,0.09 0.25,0.08 0.25,0.09 0.25,0.08 0.26,0.09 0.25,0.08 0.25,0.09 0.26,0.08 0.25,0.08 0.25,0.09 0.25,0.08 0.26,0.09 0.25,0.08 0.25,0.08 0.26,0.09 0.25,0.08 0.25,0.08 0.25,0.09 0.26,0.08 0.25,0.09 0.25,0.08 0.26,0.08 0.25,0.09 0.25,0.08 0.26,0.08 0.25,0.09 0.25,0.08 0.25,0.08 0.26,0.09 0.25,0.08 0.25,0.08 0.26,0.08 0.25,0.09 0.25,0.08 0.25,0.08 0.26,0.09 0.25,0.08 0.25,0.08 0.26,0.08 0.25,0.09 0.25,0.08 0.25,0.08 0.26,0.08 0.25,0.08 0.25,0.09 0.26,0.08 0.25,0.08 0.25,0.08 0.25,0.09 0.26,0.08 0.25,0.08 0.25,0.08 0.26,0.08 0.25,0.08 0.25,0.09 0.25,0.08 0.26,0.08 0.25,0.08 0.25,0.08 0.26,0.08 0.25,0.08 0.25,0.08 0.26,0.08 0.25,0.09 0.25,0.08 0.25,0.08 0.26,0.08 0.25,0.08 0.25,0.08 0.26,0.08 0.25,0.08 0.25,0.08 0.25,0.08 0.26,0.08 0.25,0.08 0.25,0.08 0.26,0.08 0.25,0.08 0.25,0.08 0.25,0.08 0.26,0.08 0.25,0.08 0.25,0.08 0.26,0.08 0.25,0.08 0.25,0.08 0.25,0.07 0.26,0.08 0.25,0.08 0.25,0.08 0.26,0.08 0.25,0.08 0.25,0.08 0.26,0.08 0.25,0.07 0.25,0.08 0.25,0.08 0.26,0.08 0.25,0.08 0.25,0.07 0.26,0.08 0.25,0.08 0.25,0.08 0.25,0.08 0.26,0.07 0.25,0.08 0.25,0.08 0.26,0.07 0.25,0.08 0.25,0.08 0.25,0.08 0.26,0.07 0.25,0.08 0.25,0.08 0.26,0.07 0.25,0.08 v -47.9 l -0.25,-0.08 -0.26,-0.08 -0.25,-0.08 -0.25,-0.07 -0.26,-0.08 -0.25,-0.08 -0.25,-0.08 -0.25,-0.08 -0.26,-0.08 -0.25,-0.07 -0.25,-0.08 -0.26,-0.08 -0.25,-0.08 -0.25,-0.08 -0.25,-0.08 -0.26,-0.08 -0.25,-0.08 -0.25,-0.08 -0.26,-0.08 -0.25,-0.08 -0.25,-0.08 -0.25,-0.08 -0.26,-0.08 -0.25,-0.08 -0.25,-0.08 -0.26,-0.08 -0.25,-0.08 -0.25,-0.08 -0.26,-0.09 -0.25,-0.08 -0.25,-0.08 -0.25,-0.08 -0.26,-0.08 -0.25,-0.08 -0.25,-0.09 -0.26,-0.08 -0.25,-0.08 -0.25,-0.08 -0.25,-0.09 -0.26,-0.08 -0.25,-0.08 -0.25,-0.08 -0.26,-0.09 -0.25,-0.08 -0.25,-0.08 -0.25,-0.09 -0.26,-0.08 -0.25,-0.09 -0.25,-0.08 -0.26,-0.08 -0.25,-0.09 -0.25,-0.08 -0.25,-0.09 -0.26,-0.08 -0.25,-0.09 -0.25,-0.08 -0.26,-0.09 -0.25,-0.08 -0.25,-0.09 -0.26,-0.08 -0.25,-0.09 -0.25,-0.09 -0.25,-0.08 -0.26,-0.09 -0.25,-0.08 -0.25,-0.09 -0.26,-0.09 -0.25,-0.09 -0.25,-0.08 -0.25,-0.09 -0.26,-0.09 -0.25,-0.08 -0.25,-0.09 -0.26,-0.09 -0.25,-0.09 -0.25,-0.09 -0.25,-0.08 -0.26,-0.09 -0.25,-0.09 -0.25,-0.09 -0.26,-0.09 -0.25,-0.09 -0.25,-0.09 -0.25,-0.09 -0.26,-0.09 -0.25,-0.09 -0.25,-0.09 -0.26,-0.09 -0.25,-0.09 -0.25,-0.09 -0.25,-0.09 -0.26,-0.09 -0.25,-0.09 -0.25,-0.09 -0.26,-0.1 -0.25,-0.09 -0.25,-0.09 -0.26,-0.09 -0.25,-0.09 -0.25,-0.1 -0.25,-0.09 -0.26,-0.09 -0.25,-0.09 -0.25,-0.1 -0.26,-0.09 -0.25,-0.09 -0.25,-0.1 -0.25,-0.09 -0.26,-0.1 -0.25,-0.09 -0.25,-0.09 -0.26,-0.1 -0.25,-0.09 -0.25,-0.1 -0.25,-0.09 -0.26,-0.1 -0.25,-0.1 -0.25,-0.09 -0.26,-0.1 -0.25,-0.09 -0.25,-0.1 -0.25,-0.1 -0.26,-0.09 -0.25,-0.1 -0.25,-0.1 -0.26,-0.1 -0.25,-0.09 -0.25,-0.1 -0.26,-0.1 -0.25,-0.1 -0.25,-0.1 -0.25,-0.1 -0.26,-0.09 -0.25,-0.1 -0.25,-0.1 -0.26,-0.1 -0.25,-0.1 -0.25,-0.1 -0.25,-0.1 -0.26,-0.1 -0.25,-0.1 -0.25,-0.1 -0.26,-0.11 -0.25,-0.1 -0.25,-0.1 -0.25,-0.1 -0.26,-0.1 -0.25,-0.1 -0.25,-0.11 -0.26,-0.1 -0.25,-0.1 -0.25,-0.11 -0.25,-0.1 -0.26,-0.1 -0.25,-0.11 -0.25,-0.1 -0.26,-0.1 -0.25,-0.11 -0.25,-0.1 -0.26,-0.11 -0.25,-0.1 -0.25,-0.11 -0.25,-0.11 -0.26,-0.1 -0.25,-0.11 -0.25,-0.1 -0.26,-0.11 -0.25,-0.11 -0.25,-0.11 -0.25,-0.1 -0.26,-0.11 -0.25,-0.11 -0.25,-0.11 -0.26,-0.1 -0.25,-0.11 -0.25,-0.11 -0.25,-0.11 -0.26,-0.11 -0.25,-0.11 -0.25,-0.11 -0.26,-0.11 -0.25,-0.11 -0.25,-0.11 -0.25,-0.11 -0.26,-0.11 -0.25,-0.12 -0.25,-0.11 -0.26,-0.11 -0.25,-0.11 -0.25,-0.11 -0.26,-0.12 -0.25,-0.11 -0.25,-0.11 -0.25,-0.12 -0.26,-0.11 -0.25,-0.12 -0.25,-0.11 -0.26,-0.11 -0.25,-0.12 -0.25,-0.11 -0.25,-0.12 -0.26,-0.12 -0.25,-0.11 -0.25,-0.12 -0.26,-0.12 -0.25,-0.11 -0.25,-0.12 -0.25,-0.12 -0.26,-0.11 -0.25,-0.12 -0.25,-0.12 -0.26,-0.12 -0.25,-0.12 -0.25,-0.12 -0.25,-0.12 -0.26,-0.12 -0.25,-0.12 -0.25,-0.12 -0.26,-0.12 -0.25,-0.12 -0.25,-0.12 -0.26,-0.12 -0.25,-0.12 -0.25,-0.13 -0.25,-0.12 -0.26,-0.12 -0.25,-0.12 -0.25,-0.13 -0.26,-0.12 -0.25,-0.13 -0.25,-0.12 -0.25,-0.12 -0.26,-0.13 -0.25,-0.12 -0.25,-0.13 -0.26,-0.13 -0.25,-0.12 -0.25,-0.13 -0.25,-0.12 -0.26,-0.13 -0.25,-0.13 -0.25,-0.13 -0.26,-0.13 -0.25,-0.12 -0.25,-0.13 -0.25,-0.13 -0.26,-0.13 -0.25,-0.13 -0.25,-0.13 -0.26,-0.13 -0.25,-0.13 -0.25,-0.13 -0.25,-0.13 -0.26,-0.13 -0.25,-0.14 -0.25,-0.13 -0.26,-0.13 -0.25,-0.13 -0.25,-0.14 -0.26,-0.13 -0.25,-0.13 -0.25,-0.14 -0.25,-0.13 -0.26,-0.14 -0.25,-0.13 -0.25,-0.14 -0.26,-0.14 -0.25,-0.13 -0.25,-0.14 -0.25,-0.14 -0.26,-0.13 -0.25,-0.14 -0.25,-0.14 -0.26,-0.14 -0.25,-0.13 -0.25,-0.14 -0.25,-0.14 -0.26,-0.14 -0.25,-0.14 -0.25,-0.14 -0.26,-0.14 -0.25,-0.15 -0.25,-0.14 -0.25,-0.14 -0.26,-0.14 -0.25,-0.14 -0.25,-0.15 -0.26,-0.14 -0.25,-0.14 -0.25,-0.15 -0.26,-0.14 -0.25,-0.15 -0.25,-0.14 -0.25,-0.15 -0.26,-0.14 -0.25,-0.15 -0.25,-0.14 -0.26,-0.15 -0.25,-0.15 -0.25,-0.15 -0.25,-0.14 -0.26,-0.15 -0.25,-0.15 -0.25,-0.15 -0.26,-0.15 -0.25,-0.15 -0.25,-0.15 -0.25,-0.15 -0.26,-0.15 -0.25,-0.15 -0.25,-0.15 -0.26,-0.16 -0.25,-0.15 -0.25,-0.15 -0.25,-0.15 -0.26,-0.16 -0.25,-0.15 -0.25,-0.16 -0.26,-0.15 -0.25,-0.16 -0.25,-0.15 -0.26,-0.16 -0.25,-0.15 -0.25,-0.16 -0.25,-0.16 -0.26,-0.15 -0.25,-0.16 -0.25,-0.16 -0.26,-0.16 -0.25,-0.16 -0.25,-0.16 -0.25,-0.16 -0.26,-0.16 -0.25,-0.16 -0.25,-0.16 -0.26,-0.16 -0.25,-0.16 -0.25,-0.16 -0.25,-0.16 -0.26,-0.17 -0.25,-0.16 -0.25,-0.16 -0.26,-0.17 -0.25,-0.16 -0.25,-0.17 -0.25,-0.16 -0.26,-0.17 -0.25,-0.16 -0.25,-0.17 -0.26,-0.17 -0.25,-0.16 -0.25,-0.17 -0.26,-0.17 -0.25,-0.17 -0.25,-0.17 -0.25,-0.17 -0.26,-0.16 -0.25,-0.17 -0.25,-0.18 -0.26,-0.17 -0.25,-0.17 -0.25,-0.17 -0.25,-0.17 -0.26,-0.17 -0.25,-0.18 -0.25,-0.17 -0.26,-0.17 -0.25,-0.18 -0.25,-0.17 -0.25,-0.18 -0.26,-0.17 -0.25,-0.18 -0.25,-0.17 -0.26,-0.18 -0.25,-0.18 -0.25,-0.17 -0.25,-0.18 -0.26,-0.18 -0.25,-0.18 -0.25,-0.18 -0.26,-0.18 -0.25,-0.18 -0.25,-0.18 -0.26,-0.18 -0.25,-0.18 -0.25,-0.18 -0.25,-0.18 -0.26,-0.18 -0.25,-0.19 -0.25,-0.18 -0.26,-0.18 -0.25,-0.19 -0.25,-0.18 -0.25,-0.18 -0.26,-0.19 -0.25,-0.19 -0.25,-0.18 -0.26,-0.19 -0.25,-0.18 -0.25,-0.19 -0.25,-0.19 -0.26,-0.19 -0.25,-0.19 -0.25,-0.18 -0.26,-0.19 -0.25,-0.19 -0.25,-0.19 -0.25,-0.19 -0.26,-0.2 -0.25,-0.19 -0.25,-0.19 -0.26,-0.19 -0.25,-0.19 -0.25,-0.2 -0.25,-0.19 -0.26,-0.19 -0.25,-0.2 -0.25,-0.19 -0.26,-0.2 -0.25,-0.19 -0.25,-0.2 -0.26,-0.2 -0.25,-0.19 -0.25,-0.2 -0.25,-0.2 -0.26,-0.2 -0.25,-0.2 -0.25,-0.19 -0.26,-0.2 -0.25,-0.2 -0.25,-0.2 -0.25,-0.2 -0.26,-0.21 -0.25,-0.2 -0.25,-0.2 -0.26,-0.2 -0.25,-0.2 -0.25,-0.21 -0.25,-0.2 -0.26,-0.21 -0.25,-0.2 -0.25,-0.21 -0.26,-0.2 -0.25,-0.21 -0.25,-0.2 -0.25,-0.21 -0.26,-0.21 -0.25,-0.2 -0.25,-0.21 -0.26,-0.21 -0.25,-0.21 -0.25,-0.21 -0.26,-0.21 -0.25,-0.21 -0.25,-0.21 -0.25,-0.21 -0.26,-0.21 -0.25,-0.21 -0.25,-0.21 -0.26,-0.22 -0.25,-0.21 -0.25,-0.21 -0.25,-0.22 -0.26,-0.21 -0.25,-0.22 -0.25,-0.21 -0.26,-0.22 -0.25,-0.21 -0.25,-0.22 -0.25,-0.22 -0.26,-0.21 -0.25,-0.22 -0.25,-0.22 -0.26,-0.22 -0.25,-0.22 -0.25,-0.22 -0.25,-0.22 -0.26,-0.22 -0.25,-0.22 -0.25,-0.22 -0.26,-0.22 -0.25,-0.22 -0.25,-0.23 -0.26,-0.22 -0.25,-0.22 -0.25,-0.23 -0.25,-0.22 -0.26,-0.22 L 96,100.02 95.75,99.79 95.49,99.57 95.24,99.34 94.99,99.12 94.74,98.89 94.48,98.66 94.23,98.43 93.98,98.2 93.72,97.98 93.47,97.75 93.22,97.52 92.97,97.29 92.71,97.06 92.46,96.83 92.21,96.59 91.95,96.36 91.7,96.13 91.45,95.9 91.2,95.66 90.94,95.43 90.69,95.2 90.44,94.96 90.18,94.73 89.93,94.49 89.68,94.26 89.42,94.02 89.17,93.78 88.92,93.55 88.67,93.31 88.41,93.07 88.16,92.83 87.91,92.59 87.65,92.36 87.4,92.12 87.15,91.88 86.9,91.64 86.64,91.4 86.39,91.15 86.14,90.91 85.88,90.67 85.63,90.43 85.38,90.19 85.13,89.94 84.87,89.7 84.62,89.45 84.37,89.21 84.11,88.96 83.86,88.72 83.61,88.47 83.36,88.23 83.1,87.98 82.85,87.73 82.6,87.49 82.34,87.24 82.09,86.99 81.84,86.74 81.58,86.49 81.33,86.24 81.08,85.99 80.83,85.74 80.57,85.49 80.32,85.24 80.07,84.99 79.81,84.74 79.56,84.48 79.31,84.23 79.06,83.98 78.8,83.72 78.55,83.47 78.3,83.22 78.04,82.96 77.79,82.71 77.54,82.45 77.29,82.19 77.03,81.94 76.78,81.68 76.53,81.42 76.27,81.16 76.02,80.91 75.77,80.65 75.52,80.39 75.26,80.13 75.01,79.87 74.76,79.61 74.5,79.35 74.25,79.09 74,78.82 73.75,78.56 73.49,78.3 73.24,78.04 72.99,77.77 72.73,77.51 72.48,77.25 72.23,76.98 71.97,76.72 71.72,76.45 71.47,76.19 71.22,75.92 70.96,75.65 70.71,75.39 70.46,75.12 70.2,74.85 69.95,74.58 69.7,74.31 69.45,74.05 69.19,73.78 68.94,73.51 68.69,73.24 68.43,72.97 68.18,72.69 67.93,72.42 67.68,72.15 67.42,71.88 67.17,71.61 66.92,71.33 66.66,71.06 66.41,70.79 66.16,70.51 65.91,70.24 65.65,69.96 65.4,69.69 65.15,69.41 64.89,69.13 64.64,68.86 64.39,68.58 64.13,68.3 63.88,68.03 63.63,67.75 63.38,67.47 63.12,67.19 62.87,66.91 62.62,66.63 62.36,66.35 62.11,66.07 61.86,65.79 61.61,65.51 61.35,65.23 61.1,64.94 60.85,64.66 60.59,64.38 60.34,64.09 60.09,63.81 59.84,63.53 59.58,63.24 59.33,62.96 59.08,62.67 58.82,62.39 58.57,62.1 58.32,61.81 58.07,61.53 57.81,61.24 57.56,60.95 57.31,60.66 57.05,60.37 56.8,60.08 56.55,59.8 56.29,59.51 56.04,59.22 55.79,58.93 55.54,58.63 55.28,58.34 55.03,58.05 54.78,57.76 54.52,57.47 54.27,57.17 54.02,56.88 53.77,56.59 53.51,56.29 53.26,56 53.01,55.7 52.75,55.41 52.5,55.11 52.25,54.82 52,54.52 l -0.26,-0.3 -0.25,-0.29 -0.25,-0.3 -0.26,-0.3 -0.25,-0.3 -0.25,-0.29 -0.25,-0.3 -0.26,-0.3 -0.25,-0.3 -0.25,-0.3 -0.26,-0.3 -0.25,-0.3 -0.25,-0.3 -0.26,-0.31 -0.25,-0.3 -0.25,-0.3 -0.25,-0.3 -0.26,-0.31 -0.25,-0.3 -0.25,-0.3 -0.26,-0.31 -0.25,-0.3 -0.25,-0.31 -0.25,-0.3 -0.26,-0.31 -0.25,-0.31 -0.25,-0.3 -0.26,-0.31 -0.25,-0.31 -0.25,-0.3 L 44.16,45.15 43.9,44.84 43.65,44.53 43.4,44.22 43.14,43.91 42.89,43.6 42.64,43.29 Z" />
          <path
             inkscape:connector-curvature="0"
             id="path9964"
             style="fill:none;stroke:#514a3d;stroke-width:4.26999998;stroke-linecap:butt;stroke-linejoin:round;stroke-miterlimit:10;stroke-dasharray:none;stroke-opacity:1"
             d="m 42.64,223.01 0.25,-0.05 0.25,-0.06 0.26,-0.05 0.25,-0.05 0.25,-0.05 0.26,-0.05 0.25,-0.06 0.25,-0.05 0.25,-0.05 0.26,-0.05 0.25,-0.06 0.25,-0.05 0.26,-0.05 0.25,-0.05 0.25,-0.06 0.25,-0.05 0.26,-0.05 0.25,-0.06 0.25,-0.05 0.26,-0.06 0.25,-0.05 0.25,-0.06 0.25,-0.05 0.26,-0.05 0.25,-0.06 0.25,-0.05 0.26,-0.06 0.25,-0.05 0.25,-0.06 0.26,-0.05 0.25,-0.06 0.25,-0.06 0.25,-0.05 0.26,-0.06 0.25,-0.05 0.25,-0.06 0.26,-0.06 0.25,-0.05 0.25,-0.06 0.25,-0.06 0.26,-0.06 0.25,-0.05 0.25,-0.06 0.26,-0.06 0.25,-0.06 0.25,-0.05 0.25,-0.06 0.26,-0.06 0.25,-0.06 0.25,-0.06 0.26,-0.05 0.25,-0.06 0.25,-0.06 0.25,-0.06 0.26,-0.06 0.25,-0.06 0.25,-0.06 0.26,-0.06 0.25,-0.06 0.25,-0.06 0.26,-0.06 0.25,-0.06 0.25,-0.06 0.25,-0.06 0.26,-0.06 0.25,-0.06 0.25,-0.06 0.26,-0.07 0.25,-0.06 0.25,-0.06 0.25,-0.06 0.26,-0.06 0.25,-0.06 0.25,-0.07 0.26,-0.06 0.25,-0.06 0.25,-0.06 0.25,-0.07 0.26,-0.06 0.25,-0.06 0.25,-0.07 0.26,-0.06 0.25,-0.06 0.25,-0.07 0.25,-0.06 0.26,-0.07 0.25,-0.06 0.25,-0.07 0.26,-0.06 0.25,-0.07 0.25,-0.06 0.26,-0.07 0.25,-0.06 0.25,-0.07 0.25,-0.06 0.26,-0.07 0.25,-0.06 0.25,-0.07 0.26,-0.07 0.25,-0.06 0.25,-0.07 0.25,-0.07 0.26,-0.06 0.25,-0.07 0.25,-0.07 0.26,-0.07 0.25,-0.06 0.25,-0.07 0.25,-0.07 0.26,-0.07 0.25,-0.07 0.25,-0.07 0.26,-0.07 0.25,-0.06 0.25,-0.07 0.25,-0.07 0.26,-0.07 0.25,-0.07 0.25,-0.07 0.26,-0.07 0.25,-0.07 0.25,-0.07 0.26,-0.07 0.25,-0.08 0.25,-0.07 0.25,-0.07 0.26,-0.07 0.25,-0.07 0.25,-0.07 0.26,-0.07 0.25,-0.08 0.25,-0.07 0.25,-0.07 0.26,-0.07 0.25,-0.08 0.25,-0.07 0.26,-0.07 0.25,-0.08 0.25,-0.07 0.25,-0.07 0.26,-0.08 0.25,-0.07 0.25,-0.08 0.26,-0.07 0.25,-0.08 0.25,-0.07 0.25,-0.08 0.26,-0.07 0.25,-0.08 0.25,-0.07 0.26,-0.08 0.25,-0.08 0.25,-0.07 0.25,-0.08 0.26,-0.07 0.25,-0.08 0.25,-0.08 0.26,-0.08 0.25,-0.07 0.25,-0.08 0.26,-0.08 0.25,-0.08 0.25,-0.08 0.25,-0.07 0.26,-0.08 0.25,-0.08 0.25,-0.08 0.26,-0.08 0.25,-0.08 0.25,-0.08 0.25,-0.08 0.26,-0.08 0.25,-0.08 0.25,-0.08 0.26,-0.08 0.25,-0.08 0.25,-0.08 0.25,-0.08 0.26,-0.09 0.25,-0.08 0.25,-0.08 0.26,-0.08 0.25,-0.08 0.25,-0.09 0.25,-0.08 0.26,-0.08 0.25,-0.09 0.25,-0.08 0.26,-0.08 0.25,-0.09 0.25,-0.08 0.26,-0.09 0.25,-0.08 0.25,-0.08 0.25,-0.09 0.26,-0.08 0.25,-0.09 0.25,-0.09 0.26,-0.08 0.25,-0.09 0.25,-0.08 0.25,-0.09 0.26,-0.09 0.25,-0.08 0.25,-0.09 0.26,-0.09 0.25,-0.09 0.25,-0.08 0.25,-0.09 0.26,-0.09 0.25,-0.09 0.25,-0.09 0.26,-0.08 0.25,-0.09 0.25,-0.09 0.25,-0.09 0.26,-0.09 0.25,-0.09 0.25,-0.09 0.26,-0.09 0.25,-0.09 0.25,-0.09 0.26,-0.1 0.25,-0.09 0.25,-0.09 0.25,-0.09 0.26,-0.09 0.25,-0.09 0.25,-0.1 0.26,-0.09 0.25,-0.09 0.25,-0.1 0.25,-0.09 0.26,-0.09 0.25,-0.1 0.25,-0.09 0.26,-0.09 0.25,-0.1 0.25,-0.09 0.25,-0.1 0.26,-0.09 0.25,-0.1 0.25,-0.1 0.26,-0.09 0.25,-0.1 0.25,-0.09 0.25,-0.1 0.26,-0.1 0.25,-0.09 0.25,-0.1 0.26,-0.1 0.25,-0.1 0.25,-0.1 0.26,-0.09 0.25,-0.1 0.25,-0.1 0.25,-0.1 0.26,-0.1 0.25,-0.1 0.25,-0.1 0.26,-0.1 0.25,-0.1 0.25,-0.1 0.25,-0.1 0.26,-0.1 0.25,-0.1 0.25,-0.1 0.26,-0.11 0.25,-0.1 0.25,-0.1 0.25,-0.1 0.26,-0.11 0.25,-0.1 0.25,-0.1 0.26,-0.11 0.25,-0.1 0.25,-0.1 0.25,-0.11 0.26,-0.1 0.25,-0.11 0.25,-0.1 0.26,-0.11 0.25,-0.1 0.25,-0.11 0.26,-0.11 0.25,-0.1 0.25,-0.11 0.25,-0.11 0.26,-0.1 0.25,-0.11 0.25,-0.11 0.26,-0.11 0.25,-0.1 0.25,-0.11 0.25,-0.11 0.26,-0.11 0.25,-0.11 0.25,-0.11 0.26,-0.11 0.25,-0.11 0.25,-0.11 0.25,-0.11 0.26,-0.11 0.25,-0.11 0.25,-0.11 0.26,-0.11 0.25,-0.12 0.25,-0.11 0.25,-0.11 0.26,-0.11 0.25,-0.12 0.25,-0.11 0.26,-0.11 0.25,-0.12 0.25,-0.11 0.25,-0.12 0.26,-0.11 0.25,-0.11 0.25,-0.12 0.26,-0.12 0.25,-0.11 0.25,-0.12 0.26,-0.11 0.25,-0.12 0.25,-0.12 0.25,-0.11 0.26,-0.12 0.25,-0.12 0.25,-0.12 0.26,-0.11 0.25,-0.12 0.25,-0.12 0.25,-0.12 0.26,-0.12 0.25,-0.12 0.25,-0.12 0.26,-0.12 0.25,-0.12 0.25,-0.12 0.25,-0.12 0.26,-0.12 0.25,-0.13 0.25,-0.12 0.26,-0.12 0.25,-0.12 0.25,-0.12 0.25,-0.13 0.26,-0.12 0.25,-0.12 0.25,-0.13 0.26,-0.12 0.25,-0.13 0.25,-0.12 0.26,-0.13 0.25,-0.12 0.25,-0.13 0.25,-0.12 0.26,-0.13 0.25,-0.13 0.25,-0.12 0.26,-0.13 0.25,-0.13 0.25,-0.13 0.25,-0.12 0.26,-0.13 0.25,-0.13 0.25,-0.13 0.26,-0.13 0.25,-0.13 0.25,-0.13 0.25,-0.13 0.26,-0.13 0.25,-0.13 0.25,-0.13 0.26,-0.13 0.25,-0.14 0.25,-0.13 0.25,-0.13 0.26,-0.13 0.25,-0.14 0.25,-0.13 0.26,-0.13 0.25,-0.14 0.25,-0.13 0.26,-0.13 0.25,-0.14 0.25,-0.13 0.25,-0.14 0.26,-0.14 0.25,-0.13 0.25,-0.14 0.26,-0.13 0.25,-0.14 0.25,-0.14 0.25,-0.14 0.26,-0.13 0.25,-0.14 0.25,-0.14 0.26,-0.14 0.25,-0.14 0.25,-0.14 0.25,-0.14 0.26,-0.14 0.25,-0.14 0.25,-0.14 0.26,-0.14 0.25,-0.14 0.25,-0.14 0.25,-0.15 0.26,-0.14 0.25,-0.14 0.25,-0.14 0.26,-0.15 0.25,-0.14 0.25,-0.15 0.26,-0.14 0.25,-0.14 0.25,-0.15 0.25,-0.15 0.26,-0.14 0.25,-0.15 0.25,-0.14 0.26,-0.15 0.25,-0.15 0.25,-0.14 0.25,-0.15 0.26,-0.15 0.25,-0.15 0.25,-0.15 0.26,-0.15 0.25,-0.15 0.25,-0.14 0.25,-0.15 0.26,-0.16 0.25,-0.15 0.25,-0.15 0.26,-0.15 0.25,-0.15 0.25,-0.15 0.25,-0.15 0.26,-0.16 0.25,-0.15 0.25,-0.15 0.26,-0.16 0.25,-0.15 0.25,-0.16 0.26,-0.15 0.25,-0.16 0.25,-0.15 0.25,-0.16 0.26,-0.15 0.25,-0.16 0.25,-0.16 0.26,-0.15 0.25,-0.16 0.25,-0.16 0.25,-0.16 0.26,-0.16 0.25,-0.15 0.25,-0.16 0.26,-0.16 0.25,-0.16 0.25,-0.16 0.25,-0.16 0.26,-0.16 0.25,-0.17 0.25,-0.16 0.26,-0.16 0.25,-0.16 0.25,-0.17 0.25,-0.16 0.26,-0.16 0.25,-0.17 0.25,-0.16 0.26,-0.16 0.25,-0.17 0.25,-0.16 0.25,-0.17 0.26,-0.17 0.25,-0.16 0.25,-0.17 0.26,-0.17 0.25,-0.16 0.25,-0.17 0.26,-0.17 0.25,-0.17 0.25,-0.17 0.25,-0.17 0.26,-0.17 0.25,-0.17 0.25,-0.17 0.26,-0.17 0.25,-0.17 0.25,-0.17 0.25,-0.17 0.26,-0.17 0.25,-0.18 0.25,-0.17 0.26,-0.17 0.25,-0.18 0.25,-0.17 0.25,-0.17 0.26,-0.18 0.25,-0.17 0.25,-0.18 0.26,-0.18 0.25,-0.17 0.25,-0.18 0.25,-0.18 0.26,-0.17 0.25,-0.18 0.25,-0.18 0.26,-0.18 0.25,-0.18 0.25,-0.17 0.26,-0.18 0.25,-0.18 0.25,-0.18 0.25,-0.19 0.26,-0.18 0.25,-0.18 0.25,-0.18 0.26,-0.18 0.25,-0.19 0.25,-0.18 0.25,-0.18 0.26,-0.19 0.25,-0.18 0.25,-0.18 0.26,-0.19 0.25,-0.18 0.25,-0.19 0.25,-0.19 0.26,-0.18 0.25,-0.19 0.25,-0.19 0.26,-0.18 0.25,-0.19 0.25,-0.19 0.25,-0.19 0.26,-0.19 0.25,-0.19 0.25,-0.19 0.26,-0.19 0.25,-0.19 0.25,-0.19 0.26,-0.19 0.25,-0.19 0.25,-0.2 0.25,-0.19 0.26,-0.19 0.25,-0.2 0.25,-0.19 0.26,-0.19 0.25,-0.2 0.25,-0.19 0.25,-0.2 0.26,-0.19 0.25,-0.2 0.25,-0.2 0.26,-0.19 0.25,-0.2 0.25,-0.2 0.25,-0.2 0.26,-0.2 0.25,-0.2 0.25,-0.2 0.26,-0.2 0.25,-0.2 0.25,-0.2 0.25,-0.2 0.26,-0.2 0.25,-0.2 0.25,-0.2 0.26,-0.21 0.25,-0.2 0.25,-0.2 0.26,-0.21 0.25,-0.2 0.25,-0.2 0.25,-0.21 0.26,-0.2 0.25,-0.21 0.25,-0.21 0.26,-0.2 0.25,-0.21 0.25,-0.21 0.25,-0.21 0.26,-0.2 0.25,-0.21 0.25,-0.21 0.26,-0.21 0.25,-0.21 0.25,-0.21 0.25,-0.21 0.26,-0.21 0.25,-0.22 0.25,-0.21 0.26,-0.21 0.25,-0.21 0.25,-0.22 0.25,-0.21 0.26,-0.21 0.25,-0.22 0.25,-0.21 0.26,-0.22 0.25,-0.21 0.25,-0.22 0.26,-0.22 0.25,-0.21 0.25,-0.22 0.25,-0.22 0.26,-0.22 0.25,-0.22 0.25,-0.21 0.26,-0.22 0.25,-0.22 0.25,-0.22 0.25,-0.22 0.26,-0.23 0.25,-0.22 0.25,-0.22 0.26,-0.22 0.25,-0.22 0.25,-0.23 0.25,-0.22 0.26,-0.23 0.25,-0.22 0.25,-0.22 0.26,-0.23 0.25,-0.23 0.25,-0.22 0.25,-0.23 0.26,-0.23 0.25,-0.22 0.25,-0.23 0.26,-0.23 0.25,-0.23 0.25,-0.23 0.25,-0.23 0.26,-0.23 0.25,-0.23 0.25,-0.23 0.26,-0.23 0.25,-0.23 0.25,-0.23 0.26,-0.23 0.25,-0.24 0.25,-0.23 0.25,-0.23 0.26,-0.24 0.25,-0.23 0.25,-0.24 0.26,-0.23 0.25,-0.24 0.25,-0.24 0.25,-0.23 0.26,-0.24 0.25,-0.24 0.25,-0.24 0.26,-0.23 0.25,-0.24 0.25,-0.24 0.25,-0.24 0.26,-0.24 0.25,-0.24 0.25,-0.24 0.26,-0.25 0.25,-0.24 0.25,-0.24 0.25,-0.24 0.26,-0.25 0.25,-0.24 0.25,-0.24 0.26,-0.25 0.25,-0.24 0.25,-0.25 0.26,-0.24 0.25,-0.25 0.25,-0.25 0.25,-0.24 0.26,-0.25 0.25,-0.25 0.25,-0.25 0.26,-0.25 0.25,-0.24 0.25,-0.25 0.25,-0.25 0.26,-0.26 0.25,-0.25 0.25,-0.25 0.26,-0.25 0.25,-0.25 0.25,-0.25 0.25,-0.26 0.26,-0.25 0.25,-0.25 0.25,-0.26 0.26,-0.25 0.25,-0.26" />
          <path
             inkscape:connector-curvature="0"
             id="path9966"
             style="fill:none;stroke:#514a3d;stroke-width:4.26999998;stroke-linecap:butt;stroke-linejoin:round;stroke-miterlimit:10;stroke-dasharray:8.54, 8.54;stroke-dashoffset:0;stroke-opacity:1"
             d="m 42.64,105.71 0.25,0.17 0.25,0.17 0.26,0.17 0.25,0.18 0.25,0.17 0.26,0.17 0.25,0.17 0.25,0.17 0.25,0.17 0.26,0.17 0.25,0.17 0.25,0.17 0.26,0.17 0.25,0.17 0.25,0.17 0.25,0.17 0.26,0.17 0.25,0.17 0.25,0.17 0.26,0.17 0.25,0.16 0.25,0.17 0.25,0.17 0.26,0.17 0.25,0.17 0.25,0.17 0.26,0.16 0.25,0.17 0.25,0.17 0.26,0.17 0.25,0.16 0.25,0.17 0.25,0.17 0.26,0.16 0.25,0.17 0.25,0.17 0.26,0.16 0.25,0.17 0.25,0.17 0.25,0.16 0.26,0.17 0.25,0.16 0.25,0.17 0.26,0.16 0.25,0.17 0.25,0.16 0.25,0.17 0.26,0.16 0.25,0.17 0.25,0.16 0.26,0.17 0.25,0.16 0.25,0.16 0.25,0.17 0.26,0.16 0.25,0.17 0.25,0.16 0.26,0.16 0.25,0.17 0.25,0.16 0.26,0.16 0.25,0.16 0.25,0.17 0.25,0.16 0.26,0.16 0.25,0.16 0.25,0.16 0.26,0.17 0.25,0.16 0.25,0.16 0.25,0.16 0.26,0.16 0.25,0.16 0.25,0.16 0.26,0.16 0.25,0.16 0.25,0.16 0.25,0.16 0.26,0.16 0.25,0.16 0.25,0.16 0.26,0.16 0.25,0.16 0.25,0.16 0.25,0.16 0.26,0.16 0.25,0.16 0.25,0.16 0.26,0.16 0.25,0.16 0.25,0.15 0.26,0.16 0.25,0.16 0.25,0.16 0.25,0.16 0.26,0.15 0.25,0.16 0.25,0.16 0.26,0.15 0.25,0.16 0.25,0.16 0.25,0.15 0.26,0.16 0.25,0.16 0.25,0.15 0.26,0.16 0.25,0.16 0.25,0.15 0.25,0.16 0.26,0.15 0.25,0.16 0.25,0.15 0.26,0.16 0.25,0.15 0.25,0.16 0.25,0.15 0.26,0.16 0.25,0.15 0.25,0.15 0.26,0.16 0.25,0.15 0.25,0.16 0.26,0.15 0.25,0.15 0.25,0.16 0.25,0.15 0.26,0.15 0.25,0.15 0.25,0.16 0.26,0.15 0.25,0.15 0.25,0.15 0.25,0.16 0.26,0.15 0.25,0.15 0.25,0.15 0.26,0.15 0.25,0.15 0.25,0.15 0.25,0.16 0.26,0.15 0.25,0.15 0.25,0.15 0.26,0.15 0.25,0.15 0.25,0.15 0.25,0.15 0.26,0.15 0.25,0.15 0.25,0.15 0.26,0.15 0.25,0.14 0.25,0.15 0.25,0.15 0.26,0.15 0.25,0.15 0.25,0.15 0.26,0.15 0.25,0.14 0.25,0.15 0.26,0.15 0.25,0.15 0.25,0.15 0.25,0.14 0.26,0.15 0.25,0.15 0.25,0.14 0.26,0.15 0.25,0.15 0.25,0.14 0.25,0.15 0.26,0.15 0.25,0.14 0.25,0.15 0.26,0.14 0.25,0.15 0.25,0.14 0.25,0.15 0.26,0.15 0.25,0.14 0.25,0.14 0.26,0.15 0.25,0.14 0.25,0.15 0.25,0.14 0.26,0.15 0.25,0.14 0.25,0.14 0.26,0.15 0.25,0.14 0.25,0.14 0.26,0.15 0.25,0.14 0.25,0.14 0.25,0.15 0.26,0.14 0.25,0.14 0.25,0.14 0.26,0.15 0.25,0.14 0.25,0.14 0.25,0.14 0.26,0.14 0.25,0.14 0.25,0.15 0.26,0.14 0.25,0.14 0.25,0.14 0.25,0.14 0.26,0.14 0.25,0.14 0.25,0.14 0.26,0.14 0.25,0.14 0.25,0.14 0.25,0.14 0.26,0.14 0.25,0.14 0.25,0.14 0.26,0.14 0.25,0.14 0.25,0.13 0.26,0.14 0.25,0.14 0.25,0.14 0.25,0.14 0.26,0.14 0.25,0.13 0.25,0.14 0.26,0.14 0.25,0.14 0.25,0.13 0.25,0.14 0.26,0.14 0.25,0.13 0.25,0.14 0.26,0.14 0.25,0.13 0.25,0.14 0.25,0.14 0.26,0.13 0.25,0.14 0.25,0.13 0.26,0.14 0.25,0.13 0.25,0.14 0.25,0.13 0.26,0.14 0.25,0.13 0.25,0.14 0.26,0.13 0.25,0.14 0.25,0.13 0.26,0.14 0.25,0.13 0.25,0.13 0.25,0.14 0.26,0.13 0.25,0.13 0.25,0.14 0.26,0.13 0.25,0.13 0.25,0.14 0.25,0.13 0.26,0.13 0.25,0.13 0.25,0.14 0.26,0.13 0.25,0.13 0.25,0.13 0.25,0.13 0.26,0.13 0.25,0.14 0.25,0.13 0.26,0.13 0.25,0.13 0.25,0.13 0.25,0.13 0.26,0.13 0.25,0.13 0.25,0.13 0.26,0.13 0.25,0.13 0.25,0.13 0.26,0.13 0.25,0.13 0.25,0.13 0.25,0.13 0.26,0.13 0.25,0.13 0.25,0.12 0.26,0.13 0.25,0.13 0.25,0.13 0.25,0.13 0.26,0.12 0.25,0.13 0.25,0.13 0.26,0.13 0.25,0.13 0.25,0.12 0.25,0.13 0.26,0.13 0.25,0.12 0.25,0.13 0.26,0.13 0.25,0.12 0.25,0.13 0.25,0.13 0.26,0.12 0.25,0.13 0.25,0.12 0.26,0.13 0.25,0.12 0.25,0.13 0.25,0.12 0.26,0.13 0.25,0.12 0.25,0.13 0.26,0.12 0.25,0.13 0.25,0.12 0.26,0.13 0.25,0.12 0.25,0.12 0.25,0.13 0.26,0.12 0.25,0.12 0.25,0.13 0.26,0.12 0.25,0.12 0.25,0.13 0.25,0.12 0.26,0.12 0.25,0.12 0.25,0.13 0.26,0.12 0.25,0.12 0.25,0.12 0.25,0.12 0.26,0.13 0.25,0.12 0.25,0.12 0.26,0.12 0.25,0.12 0.25,0.12 0.25,0.12 0.26,0.12 0.25,0.12 0.25,0.12 0.26,0.12 0.25,0.12 0.25,0.12 0.26,0.12 0.25,0.12 0.25,0.12 0.25,0.12 0.26,0.12 0.25,0.12 0.25,0.12 0.26,0.12 0.25,0.12 0.25,0.12 0.25,0.11 0.26,0.12 0.25,0.12 0.25,0.12 0.26,0.12 0.25,0.11 0.25,0.12 0.25,0.12 0.26,0.12 0.25,0.11 0.25,0.12 0.26,0.12 0.25,0.11 0.25,0.12 0.25,0.12 0.26,0.11 0.25,0.12 0.25,0.11 0.26,0.12 0.25,0.12 0.25,0.11 0.26,0.12 0.25,0.11 0.25,0.12 0.25,0.11 0.26,0.12 0.25,0.11 0.25,0.12 0.26,0.11 0.25,0.12 0.25,0.11 0.25,0.11 0.26,0.12 0.25,0.11 0.25,0.12 0.26,0.11 0.25,0.11 0.25,0.12 0.25,0.11 0.26,0.11 0.25,0.12 0.25,0.11 0.26,0.11 0.25,0.11 0.25,0.12 0.25,0.11 0.26,0.11 0.25,0.11 0.25,0.11 0.26,0.12 0.25,0.11 0.25,0.11 0.26,0.11 0.25,0.11 0.25,0.11 0.25,0.11 0.26,0.11 0.25,0.11 0.25,0.11 0.26,0.11 0.25,0.12 0.25,0.11 0.25,0.11 0.26,0.1 0.25,0.11 0.25,0.11 0.26,0.11 0.25,0.11 0.25,0.11 0.25,0.11 0.26,0.11 0.25,0.11 0.25,0.11 0.26,0.11 0.25,0.1 0.25,0.11 0.25,0.11 0.26,0.11 0.25,0.11 0.25,0.1 0.26,0.11 0.25,0.11 0.25,0.11 0.26,0.1 0.25,0.11 0.25,0.11 0.25,0.1 0.26,0.11 0.25,0.11 0.25,0.1 0.26,0.11 0.25,0.11 0.25,0.1 0.25,0.11 0.26,0.1 0.25,0.11 0.25,0.1 0.26,0.11 0.25,0.1 0.25,0.11 0.25,0.1 0.26,0.11 0.25,0.1 0.25,0.11 0.26,0.1 0.25,0.11 0.25,0.1 0.25,0.11 0.26,0.1 0.25,0.1 0.25,0.11 0.26,0.1 0.25,0.1 0.25,0.11 0.25,0.1 0.26,0.1 0.25,0.11 0.25,0.1 0.26,0.1 0.25,0.1 0.25,0.11 0.26,0.1 0.25,0.1 0.25,0.1 0.25,0.1 0.26,0.11 0.25,0.1 0.25,0.1 0.26,0.1 0.25,0.1 0.25,0.1 0.25,0.1 0.26,0.1 0.25,0.11 0.25,0.1 0.26,0.1 0.25,0.1 0.25,0.1 0.25,0.1 0.26,0.1 0.25,0.1 0.25,0.1 0.26,0.1 0.25,0.1 0.25,0.09 0.25,0.1 0.26,0.1 0.25,0.1 0.25,0.1 0.26,0.1 0.25,0.1 0.25,0.1 0.26,0.09 0.25,0.1 0.25,0.1 0.25,0.1 0.26,0.1 0.25,0.09 0.25,0.1 0.26,0.1 0.25,0.1 0.25,0.09 0.25,0.1 0.26,0.1 0.25,0.09 0.25,0.1 0.26,0.1 0.25,0.09 0.25,0.1 0.25,0.1 0.26,0.09 0.25,0.1 0.25,0.09 0.26,0.1 0.25,0.1 0.25,0.09 0.25,0.1 0.26,0.09 0.25,0.1 0.25,0.09 0.26,0.1 0.25,0.09 0.25,0.1 0.26,0.09 0.25,0.1 0.25,0.09 0.25,0.09 0.26,0.1 0.25,0.09 0.25,0.1 0.26,0.09 0.25,0.09 0.25,0.1 0.25,0.09 0.26,0.09 0.25,0.1 0.25,0.09 0.26,0.09 0.25,0.09 0.25,0.1 0.25,0.09 0.26,0.09 0.25,0.09 0.25,0.1 0.26,0.09 0.25,0.09 0.25,0.09 0.25,0.09 0.26,0.09 0.25,0.1 0.25,0.09 0.26,0.09 0.25,0.09 0.25,0.09 0.26,0.09 0.25,0.09 0.25,0.09 0.25,0.09 0.26,0.09 0.25,0.09 0.25,0.09 0.26,0.09 0.25,0.09 0.25,0.09 0.25,0.09 0.26,0.09 0.25,0.09 0.25,0.09 0.26,0.09 0.25,0.09 0.25,0.09 0.25,0.09 0.26,0.08 0.25,0.09 0.25,0.09 0.26,0.09 0.25,0.09 0.25,0.09 0.25,0.08 0.26,0.09 0.25,0.09 0.25,0.09 0.26,0.08 0.25,0.09 0.25,0.09 0.26,0.09 0.25,0.08 0.25,0.09 0.25,0.09 0.26,0.08 0.25,0.09 0.25,0.09 0.26,0.08 0.25,0.09 0.25,0.09 0.25,0.08 0.26,0.09 0.25,0.08 0.25,0.09 0.26,0.08 0.25,0.09 0.25,0.08 0.25,0.09 0.26,0.09 0.25,0.08 0.25,0.09 0.26,0.08 0.25,0.08 0.25,0.09 0.25,0.08 0.26,0.09 0.25,0.08 0.25,0.09 0.26,0.08 0.25,0.08 0.25,0.09 0.25,0.08 0.26,0.08 0.25,0.09 0.25,0.08 0.26,0.08 0.25,0.09 0.25,0.08 0.26,0.08 0.25,0.09 0.25,0.08 0.25,0.08 0.26,0.08 0.25,0.09 0.25,0.08 0.26,0.08 0.25,0.08 0.25,0.08 0.25,0.09 0.26,0.08 0.25,0.08 0.25,0.08 0.26,0.08 0.25,0.08 0.25,0.08 0.25,0.09 0.26,0.08 0.25,0.08 0.25,0.08 0.26,0.08 0.25,0.08 0.25,0.08 0.25,0.08 0.26,0.08 0.25,0.08 0.25,0.08 0.26,0.08 0.25,0.08 0.25,0.08 0.26,0.08 0.25,0.08 0.25,0.08 0.25,0.08 0.26,0.07 0.25,0.08 0.25,0.08 0.26,0.08 0.25,0.08 0.25,0.08 0.25,0.08 0.26,0.07 0.25,0.08 0.25,0.08 0.26,0.08 0.25,0.08 0.25,0.07 0.25,0.08 0.26,0.08 0.25,0.08 0.25,0.07 0.26,0.08 0.25,0.08" />
        </g>
      </g>
      <g
         id="g9968" />
      <g
         id="g9970" />
      <g
         id="g9972" />
      <g
         id="g9974" />
      <g
         id="g9976" />
      <g
         id="g9978" />
      <g
         id="g9980" />
      <g
         id="g9982" />
      <g
         id="g9984" />
      <g
         id="g9986" />
      <g
         id="g9988" />
      <g
         id="g9990" />
      <g
         id="g9992" />
      <g
         id="g9994" />
      <g
         id="g9996" />
      <g
         id="g9998">
        <text
           id="text10002"
           style="font-variant:normal;font-weight:normal;font-size:10px;font-family:Helvetica;-inkscape-font-specification:Helvetica;writing-mode:lr-tb;fill:#000000;fill-opacity:1;fill-rule:nonzero;stroke:none"
           transform="matrix(0,1,1,0,26.66,66.88)">
          <tspan
             id="tspan10000"
             sodipodi:role="line"
             y="0"
             x="0 5.5599999 8.3400002">0.7</tspan>
        </text>
        <text
           id="text10006"
           style="font-variant:normal;font-weight:normal;font-size:10px;font-family:Helvetica;-inkscape-font-specification:Helvetica;writing-mode:lr-tb;fill:#000000;fill-opacity:1;fill-rule:nonzero;stroke:none"
           transform="matrix(0,1,1,0,26.66,122.84)">
          <tspan
             id="tspan10004"
             sodipodi:role="line"
             y="0"
             x="0 5.5599999 8.3400002">0.8</tspan>
        </text>
        <text
           id="text10010"
           style="font-variant:normal;font-weight:normal;font-size:10px;font-family:Helvetica;-inkscape-font-specification:Helvetica;writing-mode:lr-tb;fill:#000000;fill-opacity:1;fill-rule:nonzero;stroke:none"
           transform="matrix(0,1,1,0,26.66,178.81)">
          <tspan
             id="tspan10008"
             sodipodi:role="line"
             y="0"
             x="0 5.5599999 8.3400002">0.9</tspan>
        </text>
        <text
           id="text10014"
           style="font-variant:normal;font-weight:normal;font-size:10px;font-family:Helvetica;-inkscape-font-specification:Helvetica;writing-mode:lr-tb;fill:#000000;fill-opacity:1;fill-rule:nonzero;stroke:none"
           transform="matrix(0,1,1,0,26.66,234.77)">
          <tspan
             id="tspan10012"
             sodipodi:role="line"
             y="0"
             x="0 5.5599999 8.3400002">1.0</tspan>
        </text>
      </g>
      <g
         id="g10016" />
      <g
         id="g10018">
        <path
           inkscape:connector-curvature="0"
           id="path10020"
           style="fill:none;stroke:#333333;stroke-width:1.07000005;stroke-linecap:butt;stroke-linejoin:round;stroke-miterlimit:10;stroke-dasharray:none;stroke-opacity:1"
           d="m 31.05,73.83 h 2.74" />
        <path
           inkscape:connector-curvature="0"
           id="path10022"
           style="fill:none;stroke:#333333;stroke-width:1.07000005;stroke-linecap:butt;stroke-linejoin:round;stroke-miterlimit:10;stroke-dasharray:none;stroke-opacity:1"
           d="m 31.05,129.79 h 2.74" />
        <path
           inkscape:connector-curvature="0"
           id="path10024"
           style="fill:none;stroke:#333333;stroke-width:1.07000005;stroke-linecap:butt;stroke-linejoin:round;stroke-miterlimit:10;stroke-dasharray:none;stroke-opacity:1"
           d="m 31.05,185.76 h 2.74" />
        <path
           inkscape:connector-curvature="0"
           id="path10026"
           style="fill:none;stroke:#333333;stroke-width:1.07000005;stroke-linecap:butt;stroke-linejoin:round;stroke-miterlimit:10;stroke-dasharray:none;stroke-opacity:1"
           d="m 31.05,241.72 h 2.74" />
      </g>
      <g
         id="g10028" />
      <g
         id="g10030" />
      <g
         id="g10032" />
      <g
         id="g10034" />
      <g
         id="g10036" />
      <g
         id="g10038" />
      <g
         id="g10040" />
      <g
         id="g10042" />
      <g
         id="g10044" />
      <g
         id="g10046">
        <path
           inkscape:connector-curvature="0"
           id="path10048"
           style="fill:none;stroke:#333333;stroke-width:1.07000005;stroke-linecap:butt;stroke-linejoin:round;stroke-miterlimit:10;stroke-dasharray:none;stroke-opacity:1"
           d="m 42.64,31.05 v 2.74" />
        <path
           inkscape:connector-curvature="0"
           id="path10052"
           style="fill:none;stroke:#333333;stroke-width:1.07000005;stroke-linecap:butt;stroke-linejoin:round;stroke-miterlimit:10;stroke-dasharray:none;stroke-opacity:1"
           d="m 131.15,31.05 v 2.74" />
        <path
           inkscape:connector-curvature="0"
           id="path10056"
           style="fill:none;stroke:#333333;stroke-width:1.07000005;stroke-linecap:butt;stroke-linejoin:round;stroke-miterlimit:10;stroke-dasharray:none;stroke-opacity:1"
           d="m 219.67,31.05 v 2.74" />
      </g>
      <g
         id="g10058" />
      <g
         id="g10060">
        <text
           id="text10064"
           style="font-style:normal;font-variant:normal;font-weight:normal;font-stretch:normal;font-size:10px;font-family:Helvetica;-inkscape-font-specification:'Helvetica, Normal';font-variant-ligatures:normal;font-variant-caps:normal;font-variant-numeric:normal;font-feature-settings:normal;text-align:start;writing-mode:lr-tb;text-anchor:start;fill:#4d4d4d;fill-opacity:1;fill-rule:nonzero;stroke:none"
           transform="scale(1,-1)"
           x="40.189999"
           y="-21.68">
          <tspan
             sodipodi:role="line"
             id="tspan922"
             x="40.189999"
             y="-21.68">1</tspan>
        </text>
        <text
           id="text10072"
           style="font-style:normal;font-variant:normal;font-weight:normal;font-stretch:normal;font-size:10px;font-family:Helvetica;-inkscape-font-specification:'Helvetica, Normal';font-variant-ligatures:normal;font-variant-caps:normal;font-variant-numeric:normal;font-feature-settings:normal;text-align:start;writing-mode:lr-tb;text-anchor:start;fill:#4d4d4d;fill-opacity:1;fill-rule:nonzero;stroke:none"
           transform="scale(1,-1)"
           x="128.7"
           y="-21.68">
          <tspan
             sodipodi:role="line"
             id="tspan924"
             x="128.7"
             y="-21.68">2</tspan>
        </text>
        <text
           id="text10080"
           style="font-style:normal;font-variant:normal;font-weight:normal;font-stretch:normal;font-size:10px;font-family:Helvetica;-inkscape-font-specification:'Helvetica, Normal';font-variant-ligatures:normal;font-variant-caps:normal;font-variant-numeric:normal;font-feature-settings:normal;text-align:start;writing-mode:lr-tb;text-anchor:start;fill:#4d4d4d;fill-opacity:1;fill-rule:nonzero;stroke:none"
           transform="scale(1,-1)"
           x="217.22"
           y="-21.68">
          <tspan
             sodipodi:role="line"
             id="tspan926"
             x="217.22"
             y="-21.68">3</tspan>
        </text>
      </g>
      <g
         id="g10082" />
      <g
         id="g10084" />
      <g
         id="g10086" />
      <g
         id="g10088" />
      <g
         id="g10090" />
      <g
         id="g10092">
        <text
           id="text10096"
           style="font-variant:normal;font-weight:normal;font-size:12px;font-family:Helvetica;-inkscape-font-specification:Helvetica;writing-mode:lr-tb;fill:#000000;fill-opacity:1;fill-rule:nonzero;stroke:none"
           transform="matrix(1,0,0,-1,89.98,8.12)">
          <tspan
             id="tspan10094"
             sodipodi:role="line"
             y="0"
             x="0 6.3239999 12.996 19.667999 23.664 29.664 33 41.004002 44.34 47.675999 54.348 58.344002 61.68 69.012001 71.676003 75.671997">Years After Fire</tspan>
        </text>
      </g>
      <g
         id="g10098" />
      <g
         id="g10100">
        <text
           id="text10104"
           style="font-variant:normal;font-weight:normal;font-size:12px;font-family:Helvetica;-inkscape-font-specification:Helvetica;writing-mode:lr-tb;fill:#000000;fill-opacity:1;fill-rule:nonzero;stroke:none"
           transform="matrix(0,1,1,0,14.1,96.76)">
          <tspan
             id="tspan10102"
             sodipodi:role="line"
             y="0"
             x="0 8.0039997 12 18.672001 25.344 32.015999 36.492001 39.827999 42.492001 49.164001 55.835999 59.172001 67.176003 69.839996 76.512001">Proportion Pine</tspan>
        </text>
      </g>
      <g
         id="g10106" />
      <g
         id="g10108" />
      <g
         id="g10110" />
      <g
         id="g10112" />
      <g
         id="g10114" />
      <g
         id="g10116" />
      <g
         id="g10118" />
      <g
         id="g10120" />
      <g
         id="g10122" />
      <g
         id="g10124" />
      <g
         id="g10126" />
      <g
         id="g10128" />
    </g>
    <text
       id="text5068"
       style="font-style:normal;font-variant:normal;font-weight:normal;font-stretch:normal;font-size:3.52777767px;font-family:Helvetica;-inkscape-font-specification:'Helvetica, Normal';font-variant-ligatures:normal;font-variant-caps:normal;font-variant-numeric:normal;font-feature-settings:normal;text-align:start;writing-mode:lr-tb;text-anchor:start;fill:#000000;fill-opacity:1;fill-rule:nonzero;stroke:none;stroke-width:0.35277775"
       x="371.58582"
       y="357.1214">
      <tspan
         style="stroke-width:0.35277775"
         sodipodi:role="line"
         id="tspan5402"
         x="371.58582"
         y="357.1214">Planted</tspan>
    </text>
    <text
       id="text5082"
       style="font-style:normal;font-variant:normal;font-weight:normal;font-stretch:normal;font-size:3.52777767px;font-family:Helvetica;-inkscape-font-specification:'Helvetica, Normal';font-variant-ligatures:normal;font-variant-caps:normal;font-variant-numeric:normal;font-feature-settings:normal;text-align:start;writing-mode:lr-tb;text-anchor:start;fill:#000000;fill-opacity:1;fill-rule:nonzero;stroke:none;stroke-width:0.35277775"
       x="371.24713"
       y="362.69159">
      <tspan
         style="stroke-width:0.35277775"
         sodipodi:role="line"
         id="tspan5404"
         x="371.24713"
         y="362.69159">Unplanted</tspan>
    </text>
    <path
       style="fill:#6d7274;fill-opacity:1;stroke:#514a3d;stroke-width:1.07639873px;stroke-linecap:butt;stroke-linejoin:miter;stroke-opacity:1"
       d="m 389.88856,355.76742 8.03975,6e-4"
       id="path7395"
       inkscape:connector-curvature="0"
       sodipodi:nodetypes="cc" />
    <path
       style="fill:#6d7274;fill-opacity:1;stroke:#514a3d;stroke-width:1.07599998;stroke-linecap:butt;stroke-linejoin:miter;stroke-miterlimit:4;stroke-dasharray:2.15199996, 1.07599997999999997;stroke-dashoffset:0;stroke-opacity:1"
       d="m 389.88811,361.41112 8.03975,6.1e-4"
       id="path7395-1"
       inkscape:connector-curvature="0"
       sodipodi:nodetypes="cc" />
  </g>
</svg>
